<?xml version="1.0" encoding="UTF-8" standalone="no"?>
<!-- Created with Inkscape (http://www.inkscape.org/) -->

<svg
   width="47.056587mm"
   height="14.093456mm"
   viewBox="0 0 47.056587 14.093456"
   version="1.1"
   id="svg1"
   inkscape:version="1.3 (0e150ed6c4, 2023-07-21)"
   sodipodi:docname="Ground1.svg"
   xml:space="preserve"
   xmlns:inkscape="http://www.inkscape.org/namespaces/inkscape"
   xmlns:sodipodi="http://sodipodi.sourceforge.net/DTD/sodipodi-0.dtd"
   xmlns:xlink="http://www.w3.org/1999/xlink"
   xmlns="http://www.w3.org/2000/svg"
   xmlns:svg="http://www.w3.org/2000/svg"><sodipodi:namedview
     id="namedview1"
     pagecolor="#505050"
     bordercolor="#eeeeee"
     borderopacity="1"
     inkscape:showpageshadow="0"
     inkscape:pageopacity="0"
     inkscape:pagecheckerboard="0"
     inkscape:deskcolor="#d1d1d1"
     inkscape:document-units="mm"
     inkscape:zoom="1"
     inkscape:cx="166.5"
     inkscape:cy="-126"
     inkscape:window-width="1280"
     inkscape:window-height="961"
     inkscape:window-x="-8"
     inkscape:window-y="-8"
     inkscape:window-maximized="1"
     inkscape:current-layer="layer1" /><defs
     id="defs1"><inkscape:path-effect
       effect="bspline"
       id="path-effect237"
       is_visible="true"
       lpeversion="1.3"
       weight="33.333333"
       steps="2"
       helper_size="0"
       apply_no_weight="true"
       apply_with_weight="true"
       only_selected="false"
       uniform="false" /><inkscape:path-effect
       effect="bspline"
       id="path-effect235"
       is_visible="true"
       lpeversion="1.3"
       weight="33.333333"
       steps="2"
       helper_size="0"
       apply_no_weight="true"
       apply_with_weight="true"
       only_selected="false"
       uniform="false" /><inkscape:path-effect
       effect="bspline"
       id="path-effect232"
       is_visible="true"
       lpeversion="1.3"
       weight="33.333333"
       steps="2"
       helper_size="0"
       apply_no_weight="true"
       apply_with_weight="true"
       only_selected="false"
       uniform="false" /><inkscape:path-effect
       effect="bspline"
       id="path-effect230"
       is_visible="true"
       lpeversion="1.3"
       weight="33.333333"
       steps="2"
       helper_size="0"
       apply_no_weight="true"
       apply_with_weight="true"
       only_selected="false"
       uniform="false" /><inkscape:path-effect
       effect="bspline"
       id="path-effect228"
       is_visible="true"
       lpeversion="1.3"
       weight="33.333333"
       steps="2"
       helper_size="0"
       apply_no_weight="true"
       apply_with_weight="true"
       only_selected="false"
       uniform="false" /><inkscape:path-effect
       effect="bspline"
       id="path-effect226"
       is_visible="true"
       lpeversion="1.3"
       weight="33.333333"
       steps="2"
       helper_size="0"
       apply_no_weight="true"
       apply_with_weight="true"
       only_selected="false"
       uniform="false" /><inkscape:path-effect
       effect="bspline"
       id="path-effect224"
       is_visible="true"
       lpeversion="1.3"
       weight="33.333333"
       steps="2"
       helper_size="0"
       apply_no_weight="true"
       apply_with_weight="true"
       only_selected="false"
       uniform="false" /><inkscape:path-effect
       effect="bspline"
       id="path-effect222"
       is_visible="true"
       lpeversion="1.3"
       weight="33.333333"
       steps="2"
       helper_size="0"
       apply_no_weight="true"
       apply_with_weight="true"
       only_selected="false"
       uniform="false" /><inkscape:path-effect
       effect="bspline"
       id="path-effect220"
       is_visible="true"
       lpeversion="1.3"
       weight="33.333333"
       steps="2"
       helper_size="0"
       apply_no_weight="true"
       apply_with_weight="true"
       only_selected="false"
       uniform="false" /><inkscape:path-effect
       effect="bspline"
       id="path-effect218"
       is_visible="true"
       lpeversion="1.3"
       weight="33.333333"
       steps="2"
       helper_size="0"
       apply_no_weight="true"
       apply_with_weight="true"
       only_selected="false"
       uniform="false" /><linearGradient
       id="linearGradient116"
       inkscape:collect="always"><stop
         style="stop-color:#11481f;stop-opacity:1;"
         offset="0.00651466"
         id="stop112" /><stop
         style="stop-color:#2d9a0c;stop-opacity:1;"
         offset="0.22312704"
         id="stop113" /><stop
         style="stop-color:#2fa30b;stop-opacity:1;"
         offset="0.47455215"
         id="stop114" /><stop
         style="stop-color:#328218;stop-opacity:1;"
         offset="0.7813518"
         id="stop115" /><stop
         style="stop-color:#19420f;stop-opacity:1;"
         offset="0.97497272"
         id="stop116" /></linearGradient><linearGradient
       id="linearGradient49"
       inkscape:collect="always"><stop
         style="stop-color:#521a02;stop-opacity:1;"
         offset="0"
         id="stop49" /><stop
         style="stop-color:#9a3409;stop-opacity:1;"
         offset="0.24830508"
         id="stop124" /><stop
         style="stop-color:#621e01;stop-opacity:1;"
         offset="0.49661016"
         id="stop122" /><stop
         style="stop-color:#a34117;stop-opacity:1;"
         offset="0.74830508"
         id="stop123" /><stop
         style="stop-color:#441602;stop-opacity:1;"
         offset="1"
         id="stop50" /></linearGradient><linearGradient
       inkscape:collect="always"
       xlink:href="#linearGradient49"
       id="linearGradient237"
       gradientUnits="userSpaceOnUse"
       x1="124.01074"
       y1="162.0327"
       x2="123.97898"
       y2="170.83011" /><linearGradient
       inkscape:collect="always"
       xlink:href="#linearGradient116"
       id="linearGradient240"
       gradientUnits="userSpaceOnUse"
       x1="125.39442"
       y1="158.25374"
       x2="125.35163"
       y2="167.11728" /></defs><g
     inkscape:label="Layer 1"
     inkscape:groupmode="layer"
     id="layer1"
     transform="translate(-87.603161,-182.66156)"><g
       id="g217"
       transform="translate(-10.896783,-0.33296776)"><path
         id="path176"
         style="fill:url(#linearGradient237);fill-opacity:1;fill-rule:evenodd;stroke:none;stroke-width:0.264583px;stroke-linecap:butt;stroke-linejoin:miter;stroke-opacity:1"
         d="m 148.96242,162.2167 -47.05294,0.0186 v 9.88777 c 0.33157,0.0187 0.6454,0.0491 0.89865,0.10593 0.47369,0.10631 0.74044,0.29956 1.08883,0.35915 0.34839,0.0596 0.77832,-0.0146 1.33635,-0.0191 0.55803,-0.005 1.24418,0.061 1.75028,0.061 0.5061,0 0.83229,-0.0654 1.25677,-0.24494 0.42448,-0.17959 0.94675,-0.4735 1.55081,-0.6041 0.60407,-0.1306 1.29,-0.0978 1.94304,-0.0651 0.65302,0.0327 1.27334,0.065 1.8774,-0.0656 0.60406,-0.13062 1.19158,-0.42419 1.74666,-0.53847 0.55509,-0.11428 1.07781,-0.0493 1.66553,0.17932 0.58774,0.22856 1.24078,0.62021 2.28565,1.02836 1.04487,0.40815 2.48168,0.83276 4.09794,1.01234 1.61628,0.17958 3.41204,0.11439 4.96301,0.0491 1.55097,-0.0653 2.8571,-0.13069 3.77134,-0.32659 0.91426,-0.19592 1.43645,-0.52261 2.10582,-0.73484 0.66937,-0.21224 1.48581,-0.31018 2.41639,-0.35915 0.93058,-0.049 1.97528,-0.0486 2.87321,-0.13023 0.89793,-0.0816 1.64911,-0.24487 2.13889,-0.35915 0.48978,-0.11428 0.71795,-0.17993 1.01182,-0.14728 0.29387,0.0327 0.65308,0.16343 1.0449,0.29404 0.39182,0.13061 0.81661,0.26118 1.30638,0.2775 0.48977,0.0163 1.04447,-0.0816 1.45262,-0.19585 0.40815,-0.11428 0.66939,-0.2448 0.88057,-0.20154 0.21118,0.0433 0.37263,0.26006 0.53588,0.39067 0.16326,0.13062 0.32867,0.17484 0.41135,0.19689 0.0773,0.0206 0.12467,0.0326 0.64285,0.0321 z"
         transform="translate(-3.4074839,23.639652)"
         sodipodi:nodetypes="cccsscscsssscsssssssscsssssscc" /><path
         style="opacity:0.508064;fill:#a94614;fill-opacity:1;fill-rule:evenodd;stroke:#3e1201;stroke-width:0.264583px;stroke-linecap:butt;stroke-linejoin:miter;stroke-opacity:1"
         d="m 127.86272,146.79509 c 0,0.69264 -0.83118,1.06206 -1.68545,1.33912 -0.85427,0.27706 -1.73161,0.46176 -2.26264,0.20778 -0.53103,-0.25398 -0.71573,-0.94661 -0.60029,-1.57 0.11545,-0.62339 0.53103,-1.17749 1.06206,-1.61617 0.53104,-0.43868 1.1775,-0.76191 1.91633,-0.41558 0.73884,0.34634 1.56999,1.3622 1.56999,2.05485 z"
         id="path181"
         transform="translate(-1.7860411,47.86542)"
         inkscape:original-d="m 128.6939,147.11832 c -0.83118,0.36941 -1.66236,0.73882 -2.49353,1.10824 -0.87737,0.18471 -1.75471,0.36941 -2.63206,0.55412 -0.18471,-0.69267 -0.36941,-1.3853 -0.55412,-2.07795 0.4156,-0.55413 0.83118,-1.10823 1.24677,-1.66235 0.64648,-0.32324 1.29294,-0.64647 1.93941,-0.96971 0.83119,1.01591 1.66235,2.03177 2.49353,3.04765 z"
         inkscape:path-effect="#path-effect218" /><path
         style="opacity:0.508064;fill:#a94614;fill-opacity:1;fill-rule:evenodd;stroke:#3e1201;stroke-width:0.264583px;stroke-linecap:butt;stroke-linejoin:miter;stroke-opacity:1"
         d="m 128.85552,143.49347 c 0.90044,0.62338 1.9625,1.3622 2.65515,2.07795 0.69265,0.71574 1.01588,1.40837 1.45456,1.47763 0.43868,0.0693 0.9928,-0.48484 1.66236,-0.50793 0.66956,-0.0231 1.45455,0.48485 2.12411,0.66955 0.66957,0.18471 1.22368,0.0462 1.54691,-0.25398 0.32324,-0.30015 0.41559,-0.7619 0.78501,-0.87734 0.36942,-0.11543 1.01588,0.11544 1.20058,-0.0693 0.1847,-0.18471 -0.0924,-0.78499 -0.50795,-1.20058 -0.41559,-0.4156 -0.9697,-0.64648 -1.73162,-0.83118 -0.76192,-0.18471 -1.73161,-0.32324 -2.47044,-0.55412 -0.73883,-0.23089 -1.24676,-0.55412 -1.75471,-0.69264 -0.50794,-0.13853 -1.01587,-0.0924 -0.96969,0.13853 0.0462,0.23088 0.64646,0.64646 0.62337,0.94661 -0.0231,0.30015 -0.66955,0.48485 -1.26985,0.20779 -0.6003,-0.27707 -1.15441,-1.01588 -2.10104,-1.45456 -0.94663,-0.43867 -2.28573,-0.5772 -2.58587,-0.39249 -0.30013,0.18471 0.43868,0.69265 1.33912,1.31603 z"
         id="path182"
         transform="translate(-4.3424272,47.816861)"
         inkscape:original-d="m 128.6939,143.37803 c 1.06206,0.73882 2.12412,1.47764 3.18618,2.21647 0.32324,0.69266 0.64647,1.38529 0.96971,2.07794 0.55412,-0.55413 1.10823,-1.10824 1.66235,-1.66235 0.78501,0.50795 1.57,1.01588 2.355,1.52382 0.55413,-0.13853 1.10824,-0.27706 1.66235,-0.41559 0.0924,-0.46177 0.18471,-0.92353 0.27706,-1.38529 0.64649,0.23088 1.29295,0.46176 1.93941,0.69264 -0.27706,-0.6003 -0.55411,-1.20058 -0.83117,-1.80088 -0.55413,-0.23089 -1.10824,-0.46176 -1.66236,-0.69265 -0.96972,-0.13853 -1.93941,-0.27705 -2.90912,-0.41559 -0.50795,-0.32324 -1.01588,-0.64647 -1.52382,-0.9697 -0.50795,0.0462 -1.01588,0.0923 -1.52382,0.13853 0.6003,0.41559 1.20058,0.83117 1.80088,1.24676 -0.64648,0.18471 -1.29294,0.36941 -1.93941,0.55412 -0.55413,-0.73884 -1.10824,-1.47765 -1.66236,-2.21647 -1.33914,-0.13853 -2.67824,-0.27706 -4.01735,-0.41559 0.73884,0.50795 1.47765,1.01588 2.21647,1.52383 z"
         inkscape:path-effect="#path-effect220" /><path
         style="opacity:0.508064;fill:#a94614;fill-opacity:1;fill-rule:evenodd;stroke:#3e1201;stroke-width:0.264583px;stroke-linecap:butt;stroke-linejoin:miter;stroke-opacity:1"
         d="m 150.74318,143.19332 c 0.30015,0.50794 -0.0693,1.52382 -0.64648,2.03177 -0.57722,0.50794 -1.3622,0.50794 -2.14721,0.73883 -0.78501,0.23088 -1.56999,0.69264 -2.28573,0.57719 -0.71575,-0.11545 -1.3622,-0.80809 -2.00868,-1.29294 -0.64648,-0.48486 -1.29294,-0.76191 -1.57,-1.10824 -0.27705,-0.34633 -0.1847,-0.7619 0.23089,-0.83116 0.4156,-0.0693 1.15441,0.20778 1.84707,0.32322 0.69265,0.11545 1.3391,0.0693 2.05485,-0.11543 0.71574,-0.18471 1.50073,-0.50794 2.37809,-0.66956 0.87736,-0.16162 1.84705,-0.16162 2.1472,0.34632 z"
         id="path183"
         transform="rotate(-149.90323,148.93662,169.2323)"
         inkscape:original-d="m 151.41274,142.68538 c -0.36942,1.01588 -0.73883,2.03176 -1.10824,3.04765 -0.78502,0 -1.57,0 -2.355,0 -0.78502,0.46177 -1.57,0.92353 -2.355,1.38529 -0.64649,-0.69266 -1.29295,-1.38529 -1.93941,-2.07794 -0.64649,-0.27707 -1.29295,-0.55412 -1.93942,-0.83118 0.0924,-0.41559 0.18471,-0.83117 0.27706,-1.24676 0.73884,0.27706 1.47765,0.55411 2.21647,0.83117 0.64649,-0.0462 1.29294,-0.0924 1.93942,-0.13852 0.78501,-0.32325 1.57,-0.64648 2.355,-0.96971 0.96972,0 1.93941,0 2.90912,0 z"
         inkscape:path-effect="#path-effect222" /><path
         style="opacity:0.508064;fill:#a94614;fill-opacity:1;fill-rule:evenodd;stroke:#6a2508;stroke-width:0.264583px;stroke-linecap:butt;stroke-linejoin:miter;stroke-opacity:1"
         d="m 141.16155,141.04611 c -0.36941,-0.11544 -0.73882,0.2078 -0.69264,0.6003 0.0462,0.3925 0.50794,0.85426 0.87735,0.9697 0.36942,0.11544 0.64647,-0.11544 0.60029,-0.50794 -0.0462,-0.39251 -0.41558,-0.94662 -0.785,-1.06206 z"
         id="path190"
         transform="translate(-19.975052,50.405413)"
         inkscape:original-d="m 141.16155,140.60743 c -0.36941,0.32324 -0.73882,0.64648 -1.10823,0.96971 0.46177,0.46177 0.92353,0.92353 1.38529,1.3853 0.27707,-0.23089 0.55412,-0.46177 0.83118,-0.69265 -0.36942,-0.55413 -0.73882,-1.10824 -1.10824,-1.66236 z"
         inkscape:path-effect="#path-effect224" /><path
         style="opacity:0.508064;fill:#a94614;fill-opacity:1;fill-rule:evenodd;stroke:#551c05;stroke-width:0.264583px;stroke-linecap:butt;stroke-linejoin:miter;stroke-opacity:1"
         d="m 138.09081,141.27699 c -0.3925,-0.34632 -0.94661,-0.43868 -1.29294,-0.1847 -0.34632,0.25398 -0.48485,0.85426 -0.30014,1.26985 0.18471,0.4156 0.69265,0.64648 1.15441,0.69265 0.46177,0.0462 0.87735,-0.0924 0.9697,-0.46177 0.0924,-0.36942 -0.13852,-0.9697 -0.53103,-1.31603 z"
         id="path191"
         transform="translate(-18.863242,52.5048)"
         inkscape:original-d="m 138.25243,141.02302 c -0.55411,-0.0924 -1.10823,-0.1847 -1.66235,-0.27706 -0.13853,0.60031 -0.27706,1.20059 -0.41559,1.80089 0.50795,0.23088 1.01589,0.46176 1.52383,0.69265 0.41559,-0.13854 0.83117,-0.27706 1.24676,-0.41559 -0.23088,-0.60031 -0.46176,-1.20059 -0.69265,-1.80089 z"
         inkscape:path-effect="#path-effect226" /><path
         style="opacity:0.508064;fill:#a94614;fill-opacity:1;fill-rule:evenodd;stroke:#3e1201;stroke-width:0.264583px;stroke-linecap:butt;stroke-linejoin:miter;stroke-opacity:1"
         d="m 116.20316,146.5642 c 0.71573,-0.23088 1.26985,-0.60029 2.03177,-0.85426 0.76192,-0.25397 1.73161,-0.3925 2.40117,-0.71574 0.66957,-0.32324 1.03897,-0.83117 1.54692,-1.06205 0.50795,-0.23089 1.1544,-0.18471 1.3622,-0.39251 0.20779,-0.2078 -0.0231,-0.66956 -0.6003,-0.80809 -0.57722,-0.13852 -1.50073,0.0462 -2.23956,0.0693 -0.73883,0.0231 -1.29294,-0.11544 -1.91633,-0.25397 -0.62339,-0.13853 -1.31602,-0.27706 -1.89323,-0.16162 -0.57721,0.11545 -1.03897,0.48486 -1.06205,0.90045 -0.0231,0.41559 0.39249,0.87735 0.1616,1.29294 -0.23089,0.41559 -1.10822,0.78499 -1.59308,1.17749 -0.48485,0.3925 -0.57721,0.80809 -0.1847,0.96971 0.39251,0.16161 1.26985,0.0693 1.98559,-0.16162 z"
         id="path199"
         transform="translate(-2.1295293,47.019947)"
         inkscape:original-d="m 116.36478,146.70273 c 0.55411,-0.36941 1.10823,-0.73882 1.66235,-1.10823 0.96972,-0.13853 1.93941,-0.27706 2.90912,-0.41559 0.36942,-0.50795 0.73882,-1.01588 1.10823,-1.52382 0.64649,0.0462 1.29294,0.0924 1.93942,0.13852 -0.23089,-0.46177 -0.46177,-0.92353 -0.69265,-1.38529 -0.92355,0.18471 -1.84706,0.36941 -2.77059,0.55412 -0.55413,-0.13854 -1.10824,-0.27706 -1.66235,-0.41559 -0.69267,-0.13853 -1.3853,-0.27706 -2.07795,-0.41559 -0.46177,0.36942 -0.92353,0.73882 -1.38529,1.10824 0.41559,0.46177 0.83117,0.92353 1.24676,1.38529 -0.87737,0.36942 -1.7547,0.73882 -2.63206,1.10824 -0.0923,0.41559 -0.1847,0.83117 -0.27706,1.24676 0.87737,-0.0924 1.75471,-0.1847 2.63207,-0.27706 z"
         inkscape:path-effect="#path-effect228" /><path
         style="opacity:0.508064;fill:#a94614;fill-opacity:1;fill-rule:evenodd;stroke:#3e1201;stroke-width:0.264583px;stroke-linecap:butt;stroke-linejoin:miter;stroke-opacity:1"
         d="m 101.91153,165.77362 c -0.50794,0.18471 -0.92353,0.6003 -1.40839,0.92354 -0.48486,0.32324 -1.038962,0.55412 -1.33911,0.9928 -0.300148,0.43868 -0.346324,1.08514 -0.253969,1.61617 0.09235,0.53104 0.323233,0.94662 0.692651,1.1775 0.369419,0.23088 0.877348,0.27706 1.200588,-0.0693 0.32323,-0.34633 0.46176,-1.08514 0.785,-1.68544 0.32324,-0.6003 0.83117,-1.06206 1.33912,-1.57001 0.50795,-0.50794 1.01588,-1.06205 1.13131,-1.31602 0.11544,-0.25397 -0.16162,-0.2078 -0.60029,-0.2078 -0.43868,0 -1.03897,-0.0462 -1.54691,0.13853 z"
         id="path200"
         transform="rotate(-86.735974,115.01358,179.78918)"
         inkscape:original-d="m 101.81918,165.54274 c -0.41559,0.41559 -0.83118,0.83118 -1.24677,1.24677 -0.55413,0.23089 -1.108234,0.46176 -1.662351,0.69265 -0.04618,0.64648 -0.09235,1.29294 -0.13853,1.93941 0.230886,0.4156 0.461764,0.83118 0.692647,1.24677 0.507953,0.0462 1.015884,0.0924 1.523824,0.13852 0.13853,-0.73883 0.27706,-1.47764 0.41559,-2.21647 0.50795,-0.46177 1.01588,-0.92353 1.52382,-1.38529 0.50796,-0.55413 1.01589,-1.10824 1.52383,-1.66236 -0.27707,0.0462 -0.55412,0.0924 -0.83118,0.13853 -0.6003,-0.0462 -1.20059,-0.0924 -1.80088,-0.13853 z"
         inkscape:path-effect="#path-effect230" /><path
         style="opacity:0.508064;fill:#a94614;fill-opacity:1;fill-rule:evenodd;stroke:#3e1201;stroke-width:0.264583px;stroke-linecap:butt;stroke-linejoin:miter;stroke-opacity:1"
         d="m 112.50904,164.6423 c -0.57721,-0.20779 -1.26986,-0.34632 -1.87016,-0.50794 -0.60029,-0.16162 -1.10823,-0.34632 -1.59309,-0.1847 -0.48485,0.16162 -0.94661,0.66956 -1.22367,1.15442 -0.27706,0.48486 -0.36941,0.94661 -0.11543,1.24676 0.25397,0.30014 0.85426,0.43867 1.3622,0.20778 0.50795,-0.23089 0.92353,-0.83117 1.40839,-0.92352 0.48485,-0.0923 1.03896,0.32323 1.54691,0.62338 0.50794,0.30015 0.9697,0.48485 1.45456,0.53103 0.48487,0.0462 0.99279,-0.0462 1.08514,-0.30015 0.0923,-0.25398 -0.23089,-0.66956 -0.62339,-1.01588 -0.3925,-0.34633 -0.85426,-0.62338 -1.43146,-0.83118 z"
         id="path208"
         transform="translate(-3.1334989,25.517186)"
         inkscape:original-d="m 112.62448,164.57304 c -0.69265,-0.13853 -1.3853,-0.27706 -2.07795,-0.41559 -0.50794,-0.18471 -1.01588,-0.36941 -1.52382,-0.55412 -0.46177,0.50795 -0.92353,1.01589 -1.38529,1.52382 -0.0924,0.46178 -0.18471,0.92354 -0.27706,1.3853 0.6003,0.13853 1.20059,0.27706 1.80088,0.41559 0.4156,-0.60031 0.83118,-1.20059 1.24677,-1.80089 0.55412,0.4156 1.10823,0.83118 1.66235,1.24677 0.46177,0.18471 0.92353,0.36941 1.38529,0.55412 0.50796,-0.0924 1.01589,-0.18471 1.52383,-0.27706 -0.32324,-0.4156 -0.64647,-0.83118 -0.96971,-1.24676 -0.46177,-0.27707 -0.92353,-0.55412 -1.38529,-0.83118 z"
         inkscape:path-effect="#path-effect232" /><path
         style="opacity:0.508064;fill:#a94614;fill-opacity:1;fill-rule:evenodd;stroke:#3e1201;stroke-width:0.264583px;stroke-linecap:butt;stroke-linejoin:miter;stroke-opacity:1"
         d="m 113.77889,169.53701 c -0.1847,0.16161 -0.73882,0.71573 -1.40839,0.87735 -0.66957,0.16161 -1.45455,-0.0693 -1.9625,-0.25397 -0.50794,-0.18471 -0.73882,-0.32323 -0.85426,-0.69265 -0.11544,-0.36942 -0.11544,-0.9697 0.18472,-1.01587 0.30015,-0.0462 0.90043,0.46176 1.59308,0.785 0.69266,0.32323 1.47764,0.46176 1.9625,0.41558 0.48486,-0.0462 0.66956,-0.27706 0.48485,-0.11544 z"
         id="path209"
         transform="translate(-2.9464102,24.30111)"
         inkscape:original-d="m 114.1483,169.14451 c -0.55411,0.55412 -1.10823,1.10824 -1.66235,1.66235 -0.78502,-0.23088 -1.57,-0.46176 -2.355,-0.69264 -0.23089,-0.13854 -0.46177,-0.27706 -0.69265,-0.41559 0,-0.60031 0,-1.20059 0,-1.80089 0.60031,0.50796 1.20059,1.01589 1.80088,1.52383 0.78502,0.13853 1.57,0.27706 2.35501,0.41559 0.1847,-0.23089 0.36941,-0.46177 0.55411,-0.69265 z"
         inkscape:path-effect="#path-effect235" /><path
         id="path216"
         style="fill:url(#linearGradient240);fill-opacity:1;fill-rule:evenodd;stroke:none;stroke-width:0.264583px;stroke-linecap:butt;stroke-linejoin:miter"
         d="m 147.50171,157.9469 c -15.92485,0.0586 -31.35364,-0.0439 -39.92521,0.0274 -3.24981,0.027 -5.48759,-0.0241 -7.12773,-0.0279 v 8.88995 c 0.3623,0.0148 0.61323,0.3416 0.78393,0.29145 0.18159,-0.0533 0.27366,-0.53846 0.42374,-0.57309 0.15008,-0.0346 0.35825,0.38126 0.48835,0.4346 0.1301,0.0533 0.18215,-0.25587 0.43925,-0.34106 0.2571,-0.0852 0.71907,0.0534 1.10846,0.36948 0.3894,0.31608 0.70638,0.80968 0.87643,0.90641 0.17005,0.0967 0.19285,-0.20344 0.3576,-0.54261 0.16475,-0.33914 0.4715,-0.71731 0.89865,-0.54415 0.42715,0.17317 0.97486,0.89785 1.39888,1.14463 0.42402,0.24681 0.7241,0.0161 0.85111,-0.15709 0.12701,-0.1732 0.0808,-0.28878 0.17312,-0.46199 0.0924,-0.17322 0.3234,-0.40426 0.66973,-0.46199 0.34633,-0.0577 0.80811,0.058 1.22369,0.11576 0.41559,0.0577 0.78489,0.0575 1.06196,-0.0579 0.27707,-0.11545 0.46172,-0.34604 0.71571,-0.39222 0.25398,-0.0462 0.57746,0.092 0.8692,0.0992 0.29173,0.007 0.5516,-0.11672 1.01338,0.21807 0.46177,0.33478 1.12522,1.1283 1.54926,1.37511 0.42403,0.24682 0.60868,-0.0534 0.85111,-0.48059 0.24243,-0.42714 0.54271,-0.98102 0.77359,-1.47743 0.23089,-0.4964 0.39232,-0.93513 0.62322,-1.05058 0.23089,-0.11545 0.5312,0.0924 0.66973,0.36949 0.13853,0.27705 0.115,0.62332 0.36897,0.85421 0.25397,0.23088 0.78502,0.34642 1.15445,0.30024 0.36942,-0.0462 0.57735,-0.25434 0.73897,-0.55449 0.16163,-0.30016 0.27724,-0.69224 0.49661,-0.84233 0.21937,-0.15008 0.54251,-0.0581 0.85421,0.16123 0.31171,0.21934 0.61181,0.56591 0.78497,0.96997 0.17317,0.40405 0.21921,0.86588 0.4501,1.0852 0.23088,0.21933 0.64636,0.1959 1.02733,0.0574 0.38098,-0.13854 0.72735,-0.39233 0.98133,-0.65785 0.25397,-0.2655 0.41577,-0.54233 0.60048,-0.83095 0.18472,-0.28862 0.39214,-0.58898 0.66921,-0.46199 0.27707,0.12699 0.62359,0.68114 0.8661,0.91209 0.2425,0.23094 0.38078,0.13872 0.55397,0.0579 0.1732,-0.0808 0.38111,-0.15038 0.60048,-0.15038 0.21937,0 0.45021,0.0693 0.6811,-0.0346 0.23089,-0.1039 0.46172,-0.38087 0.78496,-0.34624 0.32324,0.0346 0.73852,0.38114 1.10794,0.56586 0.36943,0.18472 0.6929,0.2074 1.00459,0.16123 0.3117,-0.0462 0.61178,-0.16118 0.81959,-0.29972 0.20781,-0.13854 0.32324,-0.30054 0.61185,-0.45062 0.28861,-0.15008 0.7504,-0.28865 1.15445,-0.47336 0.40405,-0.1847 0.75045,-0.41513 1.05058,-0.40359 0.30015,0.0115 0.55378,0.26554 0.66921,0.5426 0.11544,0.27706 0.0927,0.57685 0.38138,0.70384 0.2886,0.12698 0.78042,0.0502 1.19062,-0.0408 0.42561,-0.0944 0.42345,-0.082 0.99426,-0.32349 0.35385,-0.14973 0.57234,-0.0856 0.724,0.007 0.26555,0.16158 0.33459,0.48473 0.65784,0.48473 0.32324,0 0.86876,-0.18392 1.09915,-0.46354 0.0402,-0.0488 0.37696,-0.30428 0.79983,-0.11688 0.44234,0.19601 0.63427,1.06564 0.75461,1.1344 0.24244,0.13852 0.64826,0.2539 1.07539,0.24235 0.42714,-0.0115 0.84237,-0.0343 1.24643,0.11576 0.40406,0.15007 0.79656,0.47331 1.12293,0.28422 0.32637,-0.18909 0.58679,-0.89055 0.91002,-0.91364 0.0782,-0.006 0.16038,0.0296 0.24495,0.0873 z"
         transform="translate(-1.9467684,25.04813)"
         sodipodi:nodetypes="cscccssssssssscsscscssssssssssssssssssssssssssssssssssssscssscc" /><path
         style="fill:none;fill-rule:evenodd;stroke:#000000;stroke-width:0.265;stroke-linecap:butt;stroke-linejoin:miter;stroke-dasharray:none;stroke-opacity:1"
         d="m 145.55426,191.91644 c -0.0584,0.001 -0.11674,0.002 -0.18,0.0146 -0.0633,0.0126 -0.13127,0.0368 -0.31121,0.24025 -0.17993,0.20341 -0.47191,0.58618 -0.86071,0.66145 -0.3888,0.0753 -0.87447,-0.15685 -1.4798,-0.25148 -0.60533,-0.0946 -1.33029,-0.0518 -1.67553,-0.28499 -0.34524,-0.23323 -0.31077,-0.74256 -0.51956,-1.00427 -0.2088,-0.26171 -0.66085,-0.27577 -0.93897,-0.17849 -0.27812,0.0973 -0.38227,0.30591 -0.66071,0.43315 -0.27844,0.12724 -0.73109,0.17306 -0.98472,0.0362 -0.25363,-0.1369 -0.30819,-0.45649 -0.54453,-0.50897 -0.23634,-0.0525 -0.65446,0.16217 -1.07257,0.37682 -0.38481,0.0738 -0.76962,0.14755 -1.07896,0.13377 -0.30934,-0.0138 -0.54319,-0.11511 -0.74977,-0.40355 -0.20658,-0.28843 -0.38586,-0.76393 -0.84191,-0.83019 -0.45604,-0.0663 -1.18878,0.27672 -1.72277,0.56905 -0.53398,0.29233 -0.86918,0.53398 -1.23946,0.69379 -0.37029,0.15981 -0.77564,0.23776 -1.24589,0.13433 -0.47024,-0.10344 -1.00534,-0.38823 -1.4146,-0.4389 -0.40927,-0.0507 -0.69266,0.1328 -0.96688,0.21283 -0.27421,0.08 -0.53925,0.0566 -0.80429,0.13848 -0.26505,0.0818 -0.53008,0.26893 -0.86919,0.0312 -0.3391,-0.23776 -0.75224,-0.90034 -1.14221,-0.87786 -0.38997,0.0225 -0.75672,0.73001 -1.16989,1.22503 -0.41316,0.49503 -0.87266,0.77745 -1.23107,0.79395 -0.35841,0.0165 -0.61565,-0.23295 -0.83002,-0.57985 -0.21437,-0.34689 -0.38587,-0.79122 -0.70548,-1.18489 -0.31962,-0.39366 -0.78732,-0.73665 -1.14591,-0.56515 -0.3586,0.1715 -0.60804,0.85747 -1.0251,1.142 -0.41706,0.28454 -1.00167,0.16762 -1.34079,-0.0935 -0.33911,-0.26116 -0.43265,-0.66649 -0.62755,-0.93154 -0.19489,-0.26504 -0.49109,-0.38976 -0.83799,0.0195 -0.34689,0.40926 -0.74446,1.35249 -1.03288,1.94104 -0.28843,0.58854 -0.46772,0.8224 -0.74056,0.76394 -0.27284,-0.0585 -0.63922,-0.40926 -1.0212,-0.72887 -0.38198,-0.31962 -0.77953,-0.60803 -1.06017,-0.74835 -0.28064,-0.14031 -0.44433,-0.13251 -0.6704,-0.1481 -0.22607,-0.0156 -0.5145,-0.0546 -0.838,0.0117 -0.32351,0.0663 -0.68209,0.23775 -1.181,0.28452 -0.49892,0.0468 -1.13811,-0.0312 -1.56296,-0.0117 -0.42485,0.0195 -0.63532,0.13642 -0.77954,0.29234 -0.14422,0.15592 -0.22217,0.35078 -0.35469,0.50669 -0.13252,0.1559 -0.31961,0.27283 -0.53398,0.25724 -0.21438,-0.0156 -0.45603,-0.1637 -0.75682,-0.41229 -0.30079,-0.24858 -0.6607,-0.59763 -0.96083,-0.67949 -0.30013,-0.0819 -0.54044,0.1035 -0.7108,0.35973 -0.17036,0.25623 -0.27075,0.58331 -0.43835,0.59501 -0.16761,0.0117 -0.40241,-0.29201 -0.66792,-0.54521 -0.26552,-0.25319 -0.56174,-0.45587 -0.8151,-0.55721 -0.25335,-0.10134 -0.46382,-0.10134 -0.61584,-0.0351 -0.15201,0.0663 -0.24553,0.19877 -0.38098,0.15103 -0.13545,-0.0478 -0.312781,-0.27575 -0.472595,-0.24845 -0.159814,0.0273 -0.30207,0.30991 -0.483982,0.38547 -0.181912,0.0756 -0.403465,-0.056 -0.536306,-0.12166 -0.132841,-0.0657 -0.176971,-0.0656 -0.221103,-0.0655"
         id="path217"
         sodipodi:nodetypes="ccccccccccscccccccccccccccccccccccccccccccccccccccccccc"
         inkscape:original-d="m 145.55426,191.91644 c -0.0584,0.001 -0.11674,0.002 -0.17514,0.003 -0.0681,0.0243 -0.13612,0.0485 -0.20416,0.0727 -0.29184,0.38259 -0.58382,0.76536 -0.87574,1.14804 -0.48568,-0.23213 -0.97135,-0.46426 -1.45703,-0.6964 -0.72498,0.0429 -1.44994,0.0857 -2.1749,0.12863 0.0345,-0.50934 0.069,-1.01867 0.10343,-1.52802 -0.45207,-0.0141 -0.90412,-0.0281 -1.35619,-0.0422 -0.10417,0.20864 -0.20832,0.41726 -0.31249,0.62591 -0.45271,0.0458 -0.90536,0.0916 -1.35805,0.13747 -0.0546,-0.31961 -0.10913,-0.63921 -0.1637,-0.95882 -0.41811,0.21465 -1.25434,0.64395 -1.25434,0.64395 0,0 -0.76962,0.14755 -1.15443,0.22133 -0.23387,-0.10134 -0.46772,-0.20267 -0.70158,-0.30401 -0.1793,-0.47553 -0.35858,-0.95103 -0.53788,-1.42656 -0.73279,0.34301 -1.46553,0.68599 -2.1983,1.02899 -0.3352,0.24166 -0.6704,0.48331 -1.0056,0.72497 -0.40536,0.078 -0.81072,0.15591 -1.21607,0.23386 -0.53514,-0.28482 -1.07024,-0.56961 -1.60537,-0.85442 -0.2834,0.18347 -0.56679,0.36694 -0.85017,0.5504 -0.26505,-0.0234 -0.53009,-0.0468 -0.79513,-0.0702 -0.26505,0.18709 -0.53008,0.37418 -0.79513,0.56127 -0.41316,-0.66262 -0.8263,-1.3252 -1.23946,-1.98782 -0.36678,0.70758 -0.73353,1.41511 -1.10031,2.1227 -0.45955,0.28246 -0.91905,0.56488 -1.37861,0.84734 -0.25726,-0.24946 -0.5145,-0.49891 -0.77174,-0.74836 -0.1715,-0.44434 -0.343,-0.88867 -0.5145,-1.333 -0.46773,-0.343 -0.93543,-0.68599 -1.40316,-1.029 -0.24946,0.68601 -0.49891,1.37198 -0.74836,2.05798 -0.58466,-0.11693 -1.16927,-0.23386 -1.75395,-0.35079 -0.0936,-0.40538 -0.18709,-0.81072 -0.28064,-1.21608 -0.29624,-0.12473 -0.59244,-0.24944 -0.88866,-0.37417 -0.39758,0.94325 -0.79514,1.88648 -1.1927,2.82971 -0.17929,0.23386 -0.35858,0.46772 -0.53787,0.70159 -0.36639,-0.3508 -0.73277,-0.70159 -1.09915,-1.05238 -0.39758,-0.28843 -0.79513,-0.57685 -1.19269,-0.86528 -0.16371,0.008 -0.32741,0.0156 -0.49111,0.0234 -0.28844,-0.039 -0.57686,-0.078 -0.86529,-0.11693 -0.35859,0.1715 -0.71717,0.34299 -1.07576,0.51449 -0.63923,-0.078 -1.27843,-0.15591 -1.91765,-0.23386 -0.21048,0.11693 -0.42095,0.23386 -0.63143,0.35079 -0.078,0.19489 -0.15591,0.38977 -0.23386,0.58465 -0.18709,0.11694 -0.37418,0.23386 -0.56127,0.35079 -0.24166,-0.14811 -0.48331,-0.29622 -0.72497,-0.44433 -0.35992,-0.34906 -0.71983,-0.69811 -1.07976,-1.04719 -0.24033,0.18537 -0.48064,0.37072 -0.72096,0.55608 -0.1004,0.3271 -0.20079,0.65418 -0.30119,0.98129 -0.23481,-0.30372 -0.46961,-0.60742 -0.70441,-0.91113 -0.29623,-0.20268 -0.59245,-0.40536 -0.88868,-0.60804 -0.21048,0 -0.42095,0 -0.63142,0 -0.0936,0.13252 -0.18709,0.26504 -0.28063,0.39757 -0.17735,-0.22802 -0.354684,-0.45602 -0.532035,-0.68405 -0.142273,0.28264 -0.284531,0.56524 -0.426799,0.84787 -0.221556,-0.13151 -0.443108,-0.26302 -0.66466,-0.39453 -0.04413,9e-5 -0.08826,1.8e-4 -0.132392,2.7e-4"
         inkscape:path-effect="#path-effect237" /></g></g></svg>
