<?xml version="1.0" encoding="UTF-8" standalone="no"?>
<!-- Created with Inkscape (http://www.inkscape.org/) -->

<svg
   width="70.580566mm"
   height="70.463516mm"
   viewBox="0 0 250.08862 249.67388"
   id="svg2"
   version="1.1"
   inkscape:version="0.91 r13725"
   sodipodi:docname="Helicopter.svg"
   xmlns:inkscape="http://www.inkscape.org/namespaces/inkscape"
   xmlns:sodipodi="http://sodipodi.sourceforge.net/DTD/sodipodi-0.dtd"
   xmlns="http://www.w3.org/2000/svg"
   xmlns:svg="http://www.w3.org/2000/svg"
   xmlns:rdf="http://www.w3.org/1999/02/22-rdf-syntax-ns#"
   xmlns:cc="http://creativecommons.org/ns#"
   xmlns:dc="http://purl.org/dc/elements/1.1/">
  <defs
     id="defs4" />
  <sodipodi:namedview
     id="base"
     pagecolor="#ffffff"
     bordercolor="#666666"
     borderopacity="1.0"
     inkscape:pageopacity="0.0"
     inkscape:pageshadow="2"
     inkscape:zoom="0.98994949"
     inkscape:cx="163.32034"
     inkscape:cy="404.20006"
     inkscape:document-units="px"
     inkscape:current-layer="layer1"
     showgrid="false"
     inkscape:window-width="1440"
     inkscape:window-height="837"
     inkscape:window-x="-8"
     inkscape:window-y="-8"
     inkscape:window-maximized="1"
     inkscape:showpageshadow="0"
     inkscape:pagecheckerboard="0"
     inkscape:deskcolor="#d1d1d1" />
  <metadata
     id="metadata7">
    <rdf:RDF>
      <cc:Work
         rdf:about="">
        <dc:format>image/svg+xml</dc:format>
        <dc:type
           rdf:resource="http://purl.org/dc/dcmitype/StillImage" />
        <dc:title />
      </cc:Work>
    </rdf:RDF>
  </metadata>
  <g
     inkscape:label="Calque 1"
     inkscape:groupmode="layer"
     id="layer1"
     transform="translate(-94.448519,-574.36125)">
    <g
       id="g5029"
       transform="translate(329.98513,-206.13271)"
       inkscape:export-xdpi="90"
       inkscape:export-ydpi="90">
      <g
         transform="rotate(0.33680544,-5141.5103,-28041.605)"
         id="g4897">
        <path
           style="fill:#6d6d6b;fill-opacity:1;fill-rule:evenodd;stroke:#2e1e1d;stroke-width:1.968;stroke-linecap:butt;stroke-linejoin:miter;stroke-miterlimit:4;stroke-dasharray:none;stroke-opacity:1"
           d="m 46.062206,878.52941 c 0,0 -10.462591,1.93433 -16.490214,8.82295 -18.575905,2.30424 -83.139775,1.63539 -92.575767,2.48027 -1.890673,-4.01041 -0.898131,-17.76392 0.912764,-21.51019 17.983316,-0.45178 108.358775,3.70768 108.358775,3.70768 z"
           id="path4755"
           inkscape:connector-curvature="0"
           sodipodi:nodetypes="cccccc"
           inkscape:transform-center-x="56.330977"
           inkscape:transform-center-y="3.7595876" />
        <path
           style="fill:#faab27;fill-opacity:1;fill-rule:evenodd;stroke:#ff4400;stroke-width:1.668;stroke-linecap:butt;stroke-linejoin:miter;stroke-miterlimit:4;stroke-dasharray:none;stroke-opacity:1"
           d="m -63.146136,889.80204 c 3.060117,0.0673 11.092257,-0.41537 11.092257,-0.41537 l 0.805107,-21.0997 -11.260768,-0.39798 c 0,0 -4.214994,13.63781 -0.636596,21.91305 z"
           id="path4757"
           inkscape:connector-curvature="0"
           sodipodi:nodetypes="ccccc" />
      </g>
      <g
         transform="rotate(179.66319,-25.463748,890.17784)"
         id="g4901">
        <path
           inkscape:transform-center-y="3.7595876"
           inkscape:transform-center-x="56.330977"
           sodipodi:nodetypes="cccccc"
           inkscape:connector-curvature="0"
           id="path4903"
           d="m 46.062206,878.52941 c 0,0 -10.462591,1.93433 -16.490214,8.82295 -18.575905,2.30424 -83.139775,1.63539 -92.575767,2.48027 -1.890673,-4.01041 -0.898131,-17.76392 0.912764,-21.51019 17.983316,-0.45178 108.358775,3.70768 108.358775,3.70768 z"
           style="fill:#6d6d6b;fill-opacity:1;fill-rule:evenodd;stroke:#2e1e1d;stroke-width:1.968;stroke-linecap:butt;stroke-linejoin:miter;stroke-miterlimit:4;stroke-dasharray:none;stroke-opacity:1" />
        <path
           sodipodi:nodetypes="ccccc"
           inkscape:connector-curvature="0"
           id="path4905"
           d="m -63.146136,889.80204 c 3.060117,0.0673 11.092257,-0.41537 11.092257,-0.41537 l 0.805107,-21.0997 -11.260768,-0.39798 c 0,0 -4.214994,13.63781 -0.636596,21.91305 z"
           style="fill:#faab27;fill-opacity:1;fill-rule:evenodd;stroke:#ff4400;stroke-width:1.668;stroke-linecap:butt;stroke-linejoin:miter;stroke-miterlimit:4;stroke-dasharray:none;stroke-opacity:1" />
      </g>
      <g
         transform="rotate(89.605719,-40.355628,805.04098)"
         inkscape:transform-center-y="-56.127741"
         inkscape:transform-center-x="4.9691392"
         id="g4907">
        <path
           inkscape:transform-center-y="3.7595876"
           inkscape:transform-center-x="56.330977"
           sodipodi:nodetypes="cccccc"
           inkscape:connector-curvature="0"
           id="path4909"
           d="m 46.062206,878.52941 c 0,0 -10.462591,1.93433 -16.490214,8.82295 -18.575905,2.30424 -83.139775,1.63539 -92.575767,2.48027 -1.890673,-4.01041 -0.898131,-17.76392 0.912764,-21.51019 17.983316,-0.45178 108.358775,3.70768 108.358775,3.70768 z"
           style="fill:#6d6d6b;fill-opacity:1;fill-rule:evenodd;stroke:#2e1e1d;stroke-width:1.968;stroke-linecap:butt;stroke-linejoin:miter;stroke-miterlimit:4;stroke-dasharray:none;stroke-opacity:1" />
        <path
           sodipodi:nodetypes="ccccc"
           inkscape:connector-curvature="0"
           id="path4911"
           d="m -63.146136,889.80204 c 3.060117,0.0673 11.092257,-0.41537 11.092257,-0.41537 l 0.805107,-21.0997 -11.260768,-0.39798 c 0,0 -4.214994,13.63781 -0.636596,21.91305 z"
           style="fill:#faab27;fill-opacity:1;fill-rule:evenodd;stroke:#ff4400;stroke-width:1.668;stroke-linecap:butt;stroke-linejoin:miter;stroke-miterlimit:4;stroke-dasharray:none;stroke-opacity:1" />
      </g>
      <g
         id="g4913"
         inkscape:transform-center-x="-4.96913"
         inkscape:transform-center-y="56.12774"
         transform="rotate(-91.067891,-10.526699,973.55395)">
        <path
           style="fill:#6d6d6b;fill-opacity:1;fill-rule:evenodd;stroke:#2e1e1d;stroke-width:1.968;stroke-linecap:butt;stroke-linejoin:miter;stroke-miterlimit:4;stroke-dasharray:none;stroke-opacity:1"
           d="m 46.062206,878.52941 c 0,0 -10.462591,1.93433 -16.490214,8.82295 -18.575905,2.30424 -83.139775,1.63539 -92.575767,2.48027 -1.890673,-4.01041 -0.898131,-17.76392 0.912764,-21.51019 17.983316,-0.45178 108.358775,3.70768 108.358775,3.70768 z"
           id="path4915"
           inkscape:connector-curvature="0"
           sodipodi:nodetypes="cccccc"
           inkscape:transform-center-x="56.330977"
           inkscape:transform-center-y="3.7595876" />
        <path
           style="fill:#faab27;fill-opacity:1;fill-rule:evenodd;stroke:#ff4400;stroke-width:1.668;stroke-linecap:butt;stroke-linejoin:miter;stroke-miterlimit:4;stroke-dasharray:none;stroke-opacity:1"
           d="m -63.146136,889.80204 c 3.060117,0.0673 11.092257,-0.41537 11.092257,-0.41537 l 0.805107,-21.0997 -11.260768,-0.39798 c 0,0 -4.214994,13.63781 -0.636596,21.91305 z"
           id="path4917"
           inkscape:connector-curvature="0"
           sodipodi:nodetypes="ccccc" />
      </g>
      <path
         inkscape:connector-curvature="0"
         id="path4863"
         d="m -110.77539,891.96975 c -1.53894,-0.009 -2.78458,1.22204 -2.79362,2.76097 l -0.0105,1.77927 a 9.9436894,9.9436894 0 0 0 -5.46471,4.94452 l -2.01363,-0.0118 c -1.53895,-0.009 -2.78653,1.22203 -2.79558,2.76097 l -0.0119,2.02144 c -0.009,1.53895 1.22398,2.7846 2.76292,2.79363 l 1.56833,0.009 a 9.9436894,9.9436894 0 0 0 5.84525,6.07549 l -0.006,1.09373 c -0.009,1.53894 1.22203,2.78457 2.76097,2.79362 l 2.02145,0.0119 c 1.53894,0.009 2.78457,-1.22202 2.79362,-2.76097 l 0.008,-1.33005 a 9.9436894,9.9436894 0 0 0 5.34653,-5.77336 l 1.12693,0.007 c 1.53894,0.009 2.78653,-1.22201 2.79558,-2.76095 l 0.0119,-2.02145 c 0.009,-1.53894 -1.22398,-2.78459 -2.76292,-2.79364 l -1.56638,-0.009 a 9.9436894,9.9436894 0 0 0 -4.84511,-4.76684 l 0.0119,-2.01754 c 0.009,-1.53894 -1.22203,-2.78458 -2.76097,-2.79362 l -2.02145,-0.0119 z"
         style="opacity:1;fill:#fac827;fill-opacity:1;fill-rule:nonzero;stroke:#2e1e1d;stroke-width:1.668;stroke-linecap:butt;stroke-linejoin:miter;stroke-miterlimit:4;stroke-dasharray:none;stroke-dashoffset:0;stroke-opacity:1" />
    </g>
  </g>
</svg>
