<?xml version="1.0" encoding="UTF-8" standalone="no"?>
<!-- Created with Inkscape (http://www.inkscape.org/) -->

<svg
   width="86.577827mm"
   height="70.83519mm"
   viewBox="0 0 86.577828 70.83519"
   version="1.1"
   id="svg1"
   sodipodi:docname="SpaceShip.svg"
   xmlns:inkscape="http://www.inkscape.org/namespaces/inkscape"
   xmlns:sodipodi="http://sodipodi.sourceforge.net/DTD/sodipodi-0.dtd"
   xmlns:xlink="http://www.w3.org/1999/xlink"
   xmlns="http://www.w3.org/2000/svg"
   xmlns:svg="http://www.w3.org/2000/svg">
  <sodipodi:namedview
     id="namedview1"
     pagecolor="#505050"
     bordercolor="#eeeeee"
     borderopacity="1"
     inkscape:showpageshadow="0"
     inkscape:pageopacity="0"
     inkscape:pagecheckerboard="0"
     inkscape:deskcolor="#d1d1d1"
     inkscape:document-units="mm" />
  <defs
     id="defs1">
    <inkscape:path-effect
       effect="bspline"
       id="path-effect38"
       is_visible="true"
       lpeversion="1.3"
       weight="33.333333"
       steps="2"
       helper_size="0"
       apply_no_weight="true"
       apply_with_weight="true"
       only_selected="false"
       uniform="false" />
    <inkscape:path-effect
       effect="bspline"
       id="path-effect37"
       is_visible="true"
       lpeversion="1.3"
       weight="33.333333"
       steps="2"
       helper_size="0"
       apply_no_weight="true"
       apply_with_weight="true"
       only_selected="false"
       uniform="false" />
    <inkscape:path-effect
       effect="bspline"
       id="path-effect36"
       is_visible="true"
       lpeversion="1.3"
       weight="33.333333"
       steps="2"
       helper_size="0"
       apply_no_weight="true"
       apply_with_weight="true"
       only_selected="false"
       uniform="false" />
    <inkscape:path-effect
       effect="bspline"
       id="path-effect35"
       is_visible="true"
       lpeversion="1.3"
       weight="33.333333"
       steps="2"
       helper_size="0"
       apply_no_weight="true"
       apply_with_weight="true"
       only_selected="false"
       uniform="false" />
    <inkscape:path-effect
       effect="bspline"
       id="path-effect34"
       is_visible="true"
       lpeversion="1.3"
       weight="33.333333"
       steps="2"
       helper_size="0"
       apply_no_weight="true"
       apply_with_weight="true"
       only_selected="false"
       uniform="false" />
    <inkscape:path-effect
       effect="bspline"
       id="path-effect33"
       is_visible="true"
       lpeversion="1.3"
       weight="33.333333"
       steps="2"
       helper_size="0"
       apply_no_weight="true"
       apply_with_weight="true"
       only_selected="false"
       uniform="false" />
    <inkscape:path-effect
       effect="bspline"
       id="path-effect32"
       is_visible="true"
       lpeversion="1.3"
       weight="33.333333"
       steps="2"
       helper_size="0"
       apply_no_weight="true"
       apply_with_weight="true"
       only_selected="false"
       uniform="false" />
    <inkscape:path-effect
       effect="bspline"
       id="path-effect31"
       is_visible="true"
       lpeversion="1.3"
       weight="33.333333"
       steps="2"
       helper_size="0"
       apply_no_weight="true"
       apply_with_weight="true"
       only_selected="false"
       uniform="false" />
    <inkscape:path-effect
       effect="bspline"
       id="path-effect30"
       is_visible="true"
       lpeversion="1.3"
       weight="33.333333"
       steps="2"
       helper_size="0"
       apply_no_weight="true"
       apply_with_weight="true"
       only_selected="false"
       uniform="false" />
    <inkscape:path-effect
       effect="bspline"
       id="path-effect29"
       is_visible="true"
       lpeversion="1.3"
       weight="33.333333"
       steps="2"
       helper_size="0"
       apply_no_weight="true"
       apply_with_weight="true"
       only_selected="false"
       uniform="false" />
    <inkscape:path-effect
       effect="bspline"
       id="path-effect28"
       is_visible="true"
       lpeversion="1.3"
       weight="33.333333"
       steps="2"
       helper_size="0"
       apply_no_weight="true"
       apply_with_weight="true"
       only_selected="false"
       uniform="false" />
    <inkscape:path-effect
       effect="bspline"
       id="path-effect27"
       is_visible="true"
       lpeversion="1.3"
       weight="33.333333"
       steps="2"
       helper_size="0"
       apply_no_weight="true"
       apply_with_weight="true"
       only_selected="false"
       uniform="false" />
    <linearGradient
       id="linearGradient26"
       inkscape:collect="always">
      <stop
         style="stop-color:#eba779;stop-opacity:1;"
         offset="0"
         id="stop26" />
      <stop
         style="stop-color:#e96208;stop-opacity:1;"
         offset="0.88385826"
         id="stop32" />
      <stop
         style="stop-color:#943c06;stop-opacity:1;"
         offset="1"
         id="stop27" />
    </linearGradient>
    <inkscape:path-effect
       effect="bspline"
       id="path-effect25"
       is_visible="true"
       lpeversion="1.3"
       weight="33.333333"
       steps="2"
       helper_size="0"
       apply_no_weight="true"
       apply_with_weight="true"
       only_selected="false"
       uniform="false" />
    <radialGradient
       inkscape:collect="always"
       xlink:href="#linearGradient26"
       id="radialGradient32"
       cx="38.485794"
       cy="-17.461721"
       fx="38.485794"
       fy="-17.461721"
       r="43.288918"
       gradientTransform="matrix(0.94914131,-0.03440992,0.02744482,0.75702016,2.4365707,-2.783207)"
       gradientUnits="userSpaceOnUse" />
  </defs>
  <g
     inkscape:label="Layer 1"
     inkscape:groupmode="layer"
     id="layer1"
     transform="translate(-134.70094,-15.350257)">
    <g
       id="g38"
       transform="translate(136.33379,67.485224)"
       inkscape:export-filename="SpaceMeteor.svg"
       inkscape:export-xdpi="60"
       inkscape:export-ydpi="60">
      <path
         style="fill:url(#radialGradient32);fill-rule:evenodd;stroke:#000000;stroke-width:0.264583px;stroke-linecap:butt;stroke-linejoin:miter;stroke-opacity:1"
         d="m 38.363805,-51.845826 c -2.974935,0.08059 -7.31305,0.08059 -9.909161,0.507643 -2.596112,0.427054 -3.454038,1.28498 -4.546368,2.152431 -1.09233,0.867452 -2.239775,1.579121 -3.828602,2.825002 -1.588827,1.245881 -3.729518,3.143712 -5.142442,4.467025 -1.412924,1.323312 -2.212842,2.153169 -3.230897,3.30828 -1.018055,1.155111 -1.865947,2.189088 -2.9282401,3.29646 -1.062293,1.107372 -1.6619492,1.62202 -2.8087929,2.794474 -1.1468437,1.172453 -2.5372366,2.786566 -3.5545182,4.376998 -1.0172816,1.590432 -1.87382357,3.470711 -2.4830173,4.920566 -0.60919372,1.449854 -1.0356534,2.627613 -1.2652068,3.846868 -0.2295534,1.219255 -0.2506767,2.705401 0.1189285,4.038373 0.36960525,1.332971 1.18042158,2.885462 1.70372516,4.19171 0.52330354,1.3062482 0.83655224,2.4862019 1.23807494,3.7341727 0.4015227,1.2479709 0.8733714,2.506234 1.5398425,3.8840411 0.6664712,1.3778071 1.4790187,2.77142877 2.292634,4.08990408 C 6.37338,1.9065972 7.0391322,2.9125748 7.8014347,3.9561152 c 0.7623025,1.0435404 1.3383669,1.7615839 2.0431991,2.7826997 0.7048322,1.0211158 1.2960112,2.0731567 2.0703702,3.132873 0.774359,1.0597161 1.657934,2.0201001 2.745882,2.9273991 1.087948,0.907299 2.344249,1.741849 4.10358,2.46183 1.759332,0.719981 4.04585,1.326731 5.643216,1.683673 1.597366,0.356943 2.919427,0.535623 4.345834,0.698554 1.426407,0.162931 3.049324,0.323067 4.952973,0.483869 1.903649,0.160802 4.094765,0.322703 7.140944,0.402154 3.046179,0.07945 6.988024,0.07945 9.706388,-0.436815 2.718365,-0.516266 4.271266,-1.588869 5.512375,-2.398837 1.241108,-0.809969 2.177577,-1.371175 3.310218,-1.845943 1.132641,-0.474768 2.461991,-0.848841 3.455417,-1.456882 0.993426,-0.608042 1.647901,-1.327868 2.114251,-2.240839 0.46635,-0.9129704 0.644663,-2.1371591 0.892017,-3.3355137 0.247354,-1.1983546 0.601442,-2.5559757 1.051158,-3.4252547 0.449715,-0.8692791 1.419219,-1.9094374 2.401746,-2.87935261 0.982527,-0.96991525 1.559791,-1.49974328 2.837252,-2.57990849 1.277462,-1.0801652 2.820537,-2.3032853 4.272295,-3.6087414 1.451758,-1.3054562 3.092373,-2.9460709 4.183873,-4.2572158 1.0915,-1.3111453 1.671783,-2.2776773 2.3276,-3.3976923 0.655817,-1.120015 1.126899,-1.946742 1.48701,-3.133237 0.36011,-1.186496 0.499688,-2.587565 0.359426,-3.590943 -0.140262,-1.003378 -1.028425,-2.335622 -1.621286,-3.328257 -0.592861,-0.992635 -1.363664,-2.431404 -2.033415,-3.386672 -0.669751,-0.955269 -1.395087,-1.735801 -2.510772,-2.729798 -1.115686,-0.993997 -2.402559,-1.991429 -3.529522,-2.893682 -1.126962,-0.902252 -2.007514,-1.636307 -3.249741,-2.69702 -1.242228,-1.060713 -2.883892,-2.486198 -4.121209,-3.57361 -1.237317,-1.087412 -2.22392,-1.970162 -3.22645,-2.789724 -1.00253,-0.819562 -1.849669,-1.444045 -2.887982,-1.987588 -1.038313,-0.543543 -1.370238,-0.662067 -2.528127,-1.23542 -1.157888,-0.573354 -2.075826,-1.1643 -3.563925,-1.951042 -1.4881,-0.786743 -3.381127,-1.664924 -4.830647,-2.486506 -1.44952,-0.821582 -2.371431,-1.523092 -3.322526,-2.020733 -0.951095,-0.497641 -1.489305,-0.677044 -2.949579,-0.811912 -1.460273,-0.134868 -3.044538,0.02356 -6.019473,0.104146 z"
         id="path25"
         inkscape:path-effect="#path-effect25"
         inkscape:original-d="m 39.726984,-51.765238 c -4.338114,0 -8.676229,0 -13.014343,0 -0.513627,1.194591 -1.914115,1.509955 -2.712435,2.712435 -1.038259,0.969904 -2.449023,1.257017 -3.55346,2.20393 -2.321559,1.321552 -4.580424,3.086086 -5.985476,5.306429 -1.649753,0.284956 -1.86727,1.676202 -2.685849,2.786376 -1.224902,1.212766 -1.712457,2.54223 -3.0183988,3.680841 -0.786918,1.189922 -1.9031695,1.102644 -2.6910226,2.309537 -1.6332256,1.107959 -3.1559255,2.608103 -3.8767199,4.5005 -1.30518938,1.504229 -1.41762794,3.723477 -2.46935067,5.420714 0.0601538,1.263045 -0.94684073,2.230595 -1.26560483,3.495235 -0.3110995,1.214241 -0.2490281,2.70157 -0.055745,3.921989 1.07952081,1.279821 1.38693784,3.095221 2.28537526,4.375866 -0.45924701,1.4467822 0.73698684,2.3923251 0.96402524,3.6313167 0.5340267,1.2622686 0.9715266,2.5334125 1.4460379,3.856101 1.536032,1.0339312 1.0570002,3.18060489 2.5250016,4.33069662 1.011906,0.96942648 1.0985981,2.35862378 2.1258312,3.21221448 0.8953847,0.9593408 0.7150948,2.2841844 2.2697526,2.8291645 0.186118,1.1477953 1.210911,1.9561732 1.755644,3.124283 1.170811,0.7674487 1.539933,2.2011407 2.676177,2.9088147 1.313209,0.848924 2.146537,2.320202 3.827724,2.542727 2.228882,0.675228 4.284612,2.151696 6.702782,1.778648 0.945936,0.74702 2.336146,0.421467 3.566429,0.482012 1.670187,-0.179275 3.270947,0.205416 4.885014,0.482013 2.192825,0.01153 4.409167,-0.167967 6.523395,0.482012 3.941844,0 7.883689,0 11.825533,0 1.495,-1.032364 2.894804,-2.32662 4.495849,-3.105324 1.177585,-0.380407 1.862161,-1.361941 2.952415,-1.76932 1.318303,-0.237455 2.567223,-0.897353 3.796975,-1.068453 1.062777,-0.646422 1.62262,-1.452289 2.251118,-2.475901 0.73232,-0.8662836 0.432409,-2.1601295 0.482012,-3.3092024 0.09601,-1.3254055 -0.456805,-2.9195605 0.964026,-3.6962056 -0.477993,-1.6871429 2.041414,-1.2826778 2.467533,-2.64735963 0.571074,-1.55839227 2.287688,-0.84686378 2.743396,-2.51796277 1.461863,-1.1859213 3.657794,-1.585406 4.429325,-3.5109074 1.996454,-0.9882607 3.329524,-2.9364205 4.656007,-4.6560062 1.212796,-0.76735 1.209155,-2.084456 1.932358,-3.218582 1.070219,-0.830423 0.994503,-1.968725 1.676934,-2.942938 0.635694,-1.294025 0.351765,-2.737285 0.41093,-4.124868 -1.184221,-0.116147 -0.751846,-2.32875 -1.928051,-2.892075 -0.194639,-1.250194 -0.818663,-2.767598 -1.928051,-3.598873 -0.587212,-0.950469 -1.756553,-1.318395 -2.330157,-2.507478 -1.743682,-0.585154 -2.521443,-2.239436 -3.930835,-3.046719 -1.309416,-0.427051 -1.513757,-1.97227 -2.897249,-2.415236 -0.846732,-1.954504 -2.812155,-3.007131 -4.580407,-3.977247 -1.302856,-0.528544 -1.561071,-2.225375 -2.994981,-2.679719 -0.706385,-1.099697 -1.736217,-1.476348 -2.739219,-2.019264 -1.201878,-0.32049 -1.224661,-1.304762 -2.699737,-0.964025 -1.054277,-0.813068 -2.201439,-1.047951 -3.105325,-1.999133 -1.99469,-0.688399 -3.930366,-1.474644 -5.69205,-2.64056 -1.054885,-0.697629 -2.362213,-0.89263 -2.77093,-2.108484 -1.269092,0.282528 -1.222677,-1.650754 -2.892076,-0.964025 -1.642816,-0.02469 -3.249805,-0.0935 -4.820127,0.482013 z" />
      <path
         style="fill:none;fill-rule:evenodd;stroke:#000000;stroke-width:0.556154;stroke-linecap:butt;stroke-linejoin:miter;stroke-dasharray:none;stroke-opacity:0.438967"
         d="m 23.33855,-33.448756 c -2.088721,0.964025 -4.177443,1.928051 -5.221803,2.651069 -1.044361,0.723019 -1.044361,1.205035 -1.124697,1.847718 -0.08033,0.642684 -0.241006,1.446038 -0.16067,2.088721 0.08034,0.642684 0.401677,1.124697 0.642684,1.606709 0.241006,0.482013 0.401676,0.964025 0.482012,1.365702 0.08034,0.401678 0.08034,0.72302 0.160671,0.964026 0.08034,0.241006 0.241006,0.401677 0.321342,0.642683 0.08033,0.241007 0.08033,0.562348 0.16067,0.803355 0.08034,0.241006 0.241007,0.401677 0.321342,0.562348 0.08034,0.160671 0.08034,0.321341 0.160671,0.562347 0.08034,0.241007 0.241006,0.562349 0.321342,0.964026 0.08033,0.401677 0.08033,0.88369 0.160671,1.205032 0.08033,0.321341 0.241006,0.482012 0.321341,0.964025 0.08034,0.482012 0.08034,1.285369 0.08034,1.847717 0,0.562349 0,0.88369 0.08033,1.124697 0.08034,0.241006 0.241006,0.401677 0.321342,0.803354 0.08033,0.401677 0.08033,1.044361 0.08033,1.446038 0,0.401677 0,0.562348 -0.160671,0.642683 -0.16067,0.08034 -0.482012,0.08034 -0.723019,0.160671 -0.241006,0.08034 -0.401677,0.241007 -0.642683,0.401677 -0.241006,0.160671 -0.562348,0.321342 -0.723019,0.482013 -0.160671,0.160671 -0.160671,0.3213417 -0.241006,0.4016771 -0.08034,0.080336 -0.241007,0.080336 -0.321342,0.4016772 -0.08034,0.3213418 -0.08034,0.9640253 -0.08034,1.6067088"
         id="path27"
         inkscape:path-effect="#path-effect27"
         inkscape:original-d="m 23.33855,-33.448756 c -2.088721,0.964025 -4.177443,1.92805 -6.266164,2.892076 0,0.482012 0,0.964028 0,1.44604 -0.160671,0.803355 -0.321342,1.606709 -0.482013,2.410063 0.321342,0.482013 0.642684,0.964026 0.964026,1.446038 0.16067,0.482013 0.321341,0.964025 0.482012,1.446038 0,0.321342 0,0.642684 0,0.964025 0.160671,0.160671 0.321342,0.321342 0.482013,0.482013 0,0.321342 0,0.642683 0,0.964025 0.160671,0.160671 0.321342,0.321342 0.482012,0.482013 0,0.160671 0,0.321341 0,0.482012 0.160671,0.321342 0.321342,0.642684 0.482013,0.964026 0,0.482012 0,0.964025 0,1.446037 0.160671,0.160671 0.321342,0.321342 0.482013,0.482013 0,0.803354 0,1.606711 0,2.410066 0,0.321342 0,0.642683 0,0.964025 0.160671,0.160671 0.321341,0.321342 0.482012,0.482013 0,0.642683 0,1.285367 0,1.92805 0,0.160671 0,0.321342 0,0.482013 -0.321341,0 -0.642683,0 -0.964025,0 -0.160671,0.160671 -0.321342,0.321342 -0.482013,0.482012 -0.321341,0.160671 -0.642683,0.321342 -0.964025,0.482013 0,0.160671 0,0.3213417 0,0.4820126 -0.160671,0 -0.321342,0 -0.482012,0 0,0.6426835 0,1.285367 0,1.9280505" />
      <path
         style="fill:none;fill-rule:evenodd;stroke:#000000;stroke-width:0.556154;stroke-linecap:butt;stroke-linejoin:miter;stroke-dasharray:none;stroke-opacity:0.438967"
         d="m 46.475162,-35.858819 c 2.410063,0.321342 4.820127,0.642683 6.426836,0.964025 1.606709,0.321342 2.410063,0.642683 2.972412,1.124696 0.562348,0.482013 0.88369,1.124696 1.365703,1.606709 0.482012,0.482013 1.124696,0.803354 1.606708,1.124696 0.482013,0.321342 0.803355,0.642684 1.124698,1.044362 0.321342,0.401678 0.642683,0.883691 0.883689,1.124697 0.241006,0.241007 0.401677,0.241007 0.723019,0.401678 0.321342,0.160671 0.803354,0.482012 1.124696,0.723019 0.321342,0.241006 0.482013,0.401677 0.803355,0.562348 0.321342,0.160671 0.803354,0.321341 1.205031,0.562348 0.401678,0.241006 0.72302,0.562348 1.205032,0.88369 0.482013,0.321342 1.124697,0.642684 1.526374,0.88369 0.401677,0.241006 0.562348,0.401677 1.044361,0.964025 0.482013,0.562348 1.285367,1.526373 1.847715,2.169056 0.562348,0.642684 0.88369,0.964026 1.044361,1.205032 0.160671,0.241006 0.160671,0.401677 0.160671,0.642684 0,0.241006 0,0.562347 0,1.124695 0,0.562349 0,1.365703 0,2.169057"
         id="path28"
         inkscape:path-effect="#path-effect28"
         inkscape:original-d="m 46.475162,-35.858819 c 2.410063,0.321342 4.820127,0.642683 7.23019,0.964025 0.803355,0.321342 1.606709,0.642684 2.410064,0.964025 0.321342,0.642684 0.642684,1.285367 0.964026,1.928051 0.642683,0.321342 1.285367,0.642683 1.92805,0.964025 0.321342,0.321342 0.642684,0.642684 0.964026,0.964025 0.321342,0.482016 0.642683,0.964028 0.964025,1.446041 0.160671,0 0.321342,0 0.482013,0 0.482013,0.321342 0.964025,0.642683 1.446038,0.964025 0.160671,0.160671 0.321342,0.321342 0.482013,0.482013 0.482013,0.160671 0.964025,0.321341 1.446038,0.482012 0.321342,0.321342 0.642684,0.642684 0.964025,0.964026 0.642684,0.321341 1.285368,0.642683 1.928051,0.964025 0.160671,0.160671 0.321342,0.321342 0.482013,0.482012 0.803354,0.964026 1.606709,1.928051 2.410063,2.892076 0.321342,0.321342 0.642684,0.642684 0.964026,0.964025 0,0.160671 0,0.321342 0,0.482013 0,0.321342 0,0.642683 0,0.964025 0,0.803355 0,1.606709 0,2.410063" />
      <path
         style="fill:none;fill-rule:evenodd;stroke:#000000;stroke-width:0.556154;stroke-linecap:butt;stroke-linejoin:miter;stroke-dasharray:none;stroke-opacity:0.438967"
         d="m 53.22334,-11.27617 c 0.321342,5.1414677 0.642683,10.28293826 0.723019,13.175014 0.08033,2.8920757 -0.08034,3.5347592 -0.241007,4.1774427"
         id="path29"
         inkscape:path-effect="#path-effect29"
         inkscape:original-d="m 53.22334,-11.27617 c 0.321342,5.1414677 0.642683,10.28293828 0.964025,15.4244062 -0.160671,0.6426835 -0.321342,1.285367 -0.482013,1.9280505" />
      <path
         style="fill:none;fill-rule:evenodd;stroke:#000000;stroke-width:0.556154;stroke-linecap:butt;stroke-linejoin:miter;stroke-dasharray:none;stroke-opacity:0.438967"
         d="m 40.208997,-5.9740314 c -0.964025,1.1246963 -1.92805,2.2493931 -3.374089,3.6150968 -1.446039,1.36570371 -3.37409,2.97241177 -4.659457,3.8561014 -1.285367,0.8836897 -1.928051,1.0443608 -2.410063,1.285367 -0.482013,0.2410063 -0.803355,0.5623481 -1.044361,0.7230189 -0.241006,0.1606709 -0.401677,0.1606709 -0.723019,0.1606709 -0.321342,0 -0.803354,0 -1.124696,0 -0.321342,0 -0.482013,0 -0.803355,0.2410062 -0.321341,0.2410062 -0.803354,0.7230192 -1.205031,0.9640254 -0.401677,0.2410063 -0.723019,0.2410063 -1.044361,0.4016767 -0.321342,0.1606705 -0.642686,0.4820134 -0.883692,0.6426841 -0.241006,0.1606707 -0.401677,0.1606707 -0.482013,0.3213416 -0.08034,0.1606708 -0.08034,0.4820126 -0.160671,0.6426834 -0.08033,0.1606709 -0.241006,0.1606709 -0.321342,0.3213418 -0.08034,0.1606709 -0.08034,0.4820126 -0.160671,0.6426835 -0.08034,0.1606709 -0.241006,0.1606709 -0.321341,0.2410063 -0.08034,0.080335 -0.08034,0.2410063 -0.08034,0.4016772 0,0.1606709 0,0.3213417 0,0.4820126 0,0.1606709 0,0.3213418 0.08034,0.6426847 0.08033,0.3213428 0.241005,0.8033559 0.401676,1.2853689"
         id="path30"
         inkscape:path-effect="#path-effect30"
         inkscape:original-d="m 40.208997,-5.9740314 c -0.964025,1.1246961 -1.928051,2.2493922 -2.892076,3.374091 -1.928053,1.60670868 -3.856103,3.21341741 -5.784154,4.8201261 -0.642683,0.1606709 -1.285367,0.3213418 -1.92805,0.4820127 -0.321342,0.3213417 -0.642684,0.6426835 -0.964026,0.9640252 -0.16067,0 -0.321341,0 -0.482012,0 -0.482013,0 -0.964025,0 -1.446038,0 -0.160671,0 -0.321342,0 -0.482013,0 -0.482012,0.4820126 -0.964025,0.9640252 -1.446037,1.4460379 -0.321342,0 -0.642684,0 -0.964026,0 -0.321341,0.3213417 -0.642686,0.6426834 -0.964028,0.9640252 -0.16067,0 -0.321341,0 -0.482012,0 0,0.3213417 0,0.6426835 0,0.9640252 -0.160671,0 -0.321342,0 -0.482013,0 0,0.3213418 0,0.6426835 0,0.9640253 -0.160671,0 -0.321342,0 -0.482012,0 0,0.1606708 0,0.3213417 0,0.4820126 0,0.1606709 0,0.3213417 0,0.4820126 0,0.1606709 0,0.3213418 0,0.4820126 0.16067,0.4820153 0.321341,0.964028 0.482012,1.446041" />
      <path
         style="fill:none;fill-rule:evenodd;stroke:#000000;stroke-width:0.556154;stroke-linecap:butt;stroke-linejoin:miter;stroke-dasharray:none;stroke-opacity:0.438967"
         d="m 32.496792,-41.160958 c 0.321342,0.964025 0.642684,1.928051 1.446039,3.133082 0.803355,1.205032 2.088722,2.651069 2.811742,3.936436 0.723019,1.285367 0.88369,2.410064 1.044361,3.534761 0.160671,1.124697 0.321341,2.249394 0.642683,3.213419 0.321342,0.964025 0.803354,1.767379 1.124696,2.410063 0.321342,0.642683 0.482013,1.124696 0.723019,1.446038 0.241007,0.321342 0.562348,0.482012 0.723019,0.642683 0.160671,0.160671 0.160671,0.321342 0.482013,0.401678 0.321342,0.08033 0.964025,0.08033 1.446038,0.241006 0.482013,0.160671 0.803354,0.482012 1.205031,0.723019 0.401678,0.241006 0.88369,0.401677 1.205032,0.562348 0.321342,0.160671 0.482013,0.321341 0.642684,0.401677 0.160671,0.08034 0.321342,0.08034 0.401678,0.160671 0.08033,0.08034 0.08033,0.241006 0,0.321342 -0.08034,0.08033 -0.241007,0.08033 -0.401678,0.08033"
         id="path31"
         inkscape:path-effect="#path-effect31"
         inkscape:original-d="m 32.496792,-41.160958 c 0.321342,0.964025 0.642684,1.928051 0.964026,2.892076 1.285367,1.446038 2.570734,2.892076 3.856103,4.338113 0.160671,1.124696 0.321342,2.249393 0.482013,3.374089 0.160671,1.124698 0.321342,2.249395 0.482012,3.374091 0.482013,0.803354 0.964026,1.606708 1.446038,2.410063 0.160671,0.482012 0.321342,0.964025 0.482013,1.446038 0.321342,0.160671 0.642683,0.321341 0.964025,0.482012 0,0.160671 0,0.321342 0,0.482013 0.642684,0 1.285367,0 1.928051,0 0.321341,0.321342 0.642683,0.642683 0.964025,0.964025 0.482013,0.160671 0.964025,0.321342 1.446038,0.482013 0.160671,0.160671 0.321342,0.321341 0.482013,0.482012 0.160671,0 0.321342,0 0.482013,0 0,0.160671 0,0.321342 0,0.482013 -0.160671,0 -0.321342,0 -0.482013,0" />
      <path
         style="fill:#341806;fill-opacity:1;fill-rule:evenodd;stroke:none;stroke-width:0.264583px;stroke-linecap:butt;stroke-linejoin:miter;stroke-opacity:1"
         d="M 66.759863,2.5013598 C 66.518857,2.3808566 66.077012,2.3005211 65.775754,2.2201857 65.474496,2.1398503 65.313825,2.0595148 65.173238,1.9590951 65.032651,1.8586754 64.912148,1.7381727 64.771561,1.6176694 64.630974,1.4971662 64.470303,1.3766629 64.309632,1.2561596 64.148961,1.1356564 63.988291,1.0151533 63.88787,0.95490151 63.78745,0.89464971 63.74728,0.89464971 63.707114,0.87456571 63.666948,0.8544817 63.626783,0.8143174 63.546446,0.754065 63.46611,0.69381261 63.345607,0.61347732 63.26527,0.55322457 63.184934,0.49297182 63.144771,0.45280838 63.1046,0.43272274 63.06443,0.4126371 63.02427,0.4126371 62.923848,0.39255345 62.823426,0.37246979 62.662755,0.33230233 62.58242,0.2921343 c -0.08033,-0.040168 -0.08033,-0.0803344 -0.120505,-0.10041898 -0.04017,-0.0200845 -0.120502,-0.0200845 -0.200835,-0.040167 -0.08033,-0.0200825 -0.160673,-0.06025238 -0.200841,-0.06025266 -0.04017,-2.9e-7 -0.04017,0.04016875 -0.04017,0.08033645 0,0.0401677 0,0.0803341 0.02009,0.10041864 0.02009,0.0200845 0.06025,0.0200845 0.08033,0.0602522 0.02009,0.0401677 0.02009,0.12050318 0.04017,0.16067089 0.02009,0.0401677 0.06025,0.0401677 0.100421,0.0602517 0.04017,0.020084 0.08034,0.0602533 0.120502,0.10042037 0.04017,0.040167 0.08034,0.0803353 0.120503,0.1405868 0.04017,0.0602515 0.08033,0.14058389 0.100418,0.20083567 0.02008,0.0602518 0.02008,0.10042079 0.04017,0.12050419 0.02008,0.020083 0.06024,0.020083 0.100415,0.060251 0.04017,0.040168 0.08034,0.1205008 0.140587,0.1606695 0.06025,0.040169 0.14059,0.040169 0.200841,0.080337 0.06025,0.040168 0.10042,0.1205048 0.160674,0.1606715 0.06025,0.040167 0.140584,0.040167 0.180752,0.080334 0.04017,0.040168 0.04017,0.1205034 0.08033,0.1606712 0.04016,0.040168 0.120506,0.040168 0.160674,0.060252 0.04017,0.020085 0.04017,0.06025 0.100419,0.1004189 0.06025,0.040168 0.180755,0.080336 0.301258,0.140587 0.120503,0.060251 0.241006,0.1405867 0.341427,0.1807545 0.100422,0.040168 0.180753,0.040168 0.241006,0.040168 0.06025,0 0.100413,0 0.140584,0.020085 0.04017,0.020085 0.08033,0.060248 0.140585,0.080334 0.06025,0.020086 0.140591,0.020086 0.180758,0.040169 0.04017,0.020083 0.04017,0.060252 0.10042,0.080335 0.06025,0.020083 0.180755,0.020083 0.241006,0.040168 0.06025,0.020084 0.06025,0.06025 0.08034,0.080335 0.02008,0.020085 0.06025,0.020085 0.120505,0.060254 0.06025,0.040169 0.140584,0.1205022 0.200836,0.1606698 0.06025,0.040168 0.100423,0.040168 0.14059,0.040168 0.04017,0 0.08033,0 0.200832,0 0.120506,0 0.321345,0 0.461934,0 0.14059,0 0.220921,0 0.281173,0 0.06025,0 0.100423,0 0.100421,-0.080335 -3e-6,-0.080335 -0.04017,-0.2410063 -0.281177,-0.3615095 z"
         id="path32"
         inkscape:path-effect="#path-effect32"
         inkscape:original-d="M 66.960702,2.461192 C 66.518857,2.3808566 66.077012,2.3005212 65.635167,2.2201857 65.474496,2.1398503 65.313825,2.0595149 65.153154,1.9791794 65.032651,1.858675 64.912148,1.7381731 64.791645,1.6176686 64.630974,1.4971668 64.470303,1.3766623 64.309632,1.2561605 64.148961,1.135656 63.98829,1.0151542 63.82762,0.89464971 c -0.04017,0 -0.08034,0 -0.120504,0 -0.04017,-0.0401664 -0.08033,-0.0803354 -0.120503,-0.12050183 -0.120503,-0.0803354 -0.241006,-0.16067087 -0.36151,-0.24100631 -0.04017,-0.040169 -0.08033,-0.0803354 -0.120503,-0.12050447 -0.04017,0 -0.08033,0 -0.120503,0 -0.160671,-0.0401664 -0.321342,-0.0803354 -0.482012,-0.12050184 0,-0.040169 0,-0.0803354 0,-0.12050447 -0.08034,0 -0.160672,0 -0.241007,0 -0.08033,-0.0401664 -0.160671,-0.08033544 -0.241006,-0.12050184 0,0.0401664 0,0.08033544 0,0.12050184 0,0.040169 0,0.0803354 0,0.12050447 0.04017,0 0.08033,0 0.120503,0 0,0.0803354 0,0.16067088 0,0.24100631 0.04017,0 0.08034,0 0.120503,0 0.04017,0.0401664 0.08034,0.0803354 0.120503,0.12050184 0.04017,0.040169 0.08034,0.0803354 0.120504,0.12050447 0.04017,0.0803354 0.08033,0.16067088 0.120503,0.24100632 0,0.040166 0,0.080335 0,0.1205018 0.04017,0 0.08033,0 0.120503,0 0.04017,0.080335 0.08033,0.1606709 0.120503,0.2410063 0.08033,0 0.160671,0 0.241006,0 0.04017,0.080335 0.08034,0.1606709 0.120503,0.2410063 0.08034,0 0.160671,0 0.241007,0 0,0.080335 0,0.1606709 0,0.2410064 0.08033,0 0.160671,0 0.241006,0 0,0.040169 0,0.080335 0,0.1205044 0.120504,0.040166 0.241007,0.080335 0.36151,0.1205019 0.120503,0.080335 0.241006,0.1606708 0.361509,0.2410063 0.08034,0 0.160671,0 0.241007,0 0.04017,0 0.08033,0 0.120503,0 0.04017,0.040169 0.08033,0.080335 0.120503,0.1205044 0.08033,0 0.160671,0 0.241006,0 0,0.040166 0,0.080335 0,0.1205019 0.120504,0 0.241007,0 0.36151,0 0,0.040169 0,0.080335 0,0.1205045 0.04017,0 0.08034,0 0.120503,0 0.08034,0.080335 0.160671,0.1606708 0.241006,0.2410063 0.04017,0 0.08034,0 0.120504,0 0.04017,0 0.08033,0 0.120503,0 0.200838,0 0.401677,0 0.602516,0 0.08034,0 0.160671,0 0.241006,0 0.04017,0 0.08034,0 0.120503,0 C 67.041038,2.7825338 67.00087,2.6218629 66.960702,2.461192 Z" />
      <path
         style="fill:#341806;fill-opacity:1;fill-rule:evenodd;stroke:none;stroke-width:0.264583px;stroke-linecap:butt;stroke-linejoin:miter;stroke-opacity:1"
         d="m 9.6212717,-35.939155 c -0.020084,0 -0.020084,0.160671 7e-7,0.261091 0.020085,0.100421 0.060253,0.140589 0.080336,0.180758 0.020083,0.04017 0.020083,0.08033 0.020083,0.160666 0,0.08034 0,0.20084 0.020084,0.341427 0.020084,0.140588 0.060251,0.301259 0.080335,0.40168 0.020084,0.10042 0.020084,0.14058 0.020084,0.200836 0,0.06026 0,0.140587 0,0.301258 0,0.16067 0,0.401677 0,0.602516 0,0.200838 0,0.361509 0.020085,0.461929 0.020085,0.10042 0.060248,0.140584 0.080334,0.180754 0.020086,0.04017 0.020086,0.08034 0.020086,0.140592 0,0.06025 0,0.140582 0.020084,0.200834 0.020084,0.06025 0.060253,0.100422 0.1004208,0.160675 0.04017,0.06025 0.08033,0.140585 0.100418,0.220922 0.02008,0.08034 0.02008,0.160668 0.04017,0.241006 0.02008,0.08034 0.06025,0.160666 0.08033,0.241005 0.02008,0.08034 0.02008,0.16067 0.04017,0.220922 0.02008,0.06025 0.06025,0.100412 0.08033,0.160669 0.02009,0.06026 0.02009,0.140587 0.02009,0.220924 0,0.08034 0,0.160669 -0.02008,0.261089 -0.02008,0.10042 -0.06025,0.22092 -0.08034,0.321343 -0.02008,0.100423 -0.02008,0.180754 -0.06025,0.261092 -0.04017,0.08034 -0.120501,0.160668 -0.160669,0.241006 -0.04017,0.08034 -0.04017,0.160669 -0.08034,0.241004 -0.04017,0.08033 -0.1205028,0.160671 -0.1606704,0.220923 -0.040168,0.06025 -0.040168,0.100423 -0.060252,0.160673 -0.020084,0.06025 -0.060251,0.140586 -0.080334,0.200838 -0.020083,0.06025 -0.020083,0.100423 -0.040168,0.140589 -0.020085,0.04017 -0.060253,0.08033 -0.120505,0.140586 -0.060252,0.06025 -0.1405854,0.140585 -0.1807532,0.200838 -0.040168,0.06025 -0.040168,0.100423 -0.060252,0.140588 -0.020084,0.04017 -0.060248,0.08033 -0.1004179,0.1205 -0.04017,0.04017 -0.080339,0.08034 -0.1205056,0.120505 -0.040167,0.04017 -0.080336,0.08034 -0.1004183,0.140589 -0.020082,0.06025 -0.020082,0.140584 -0.060251,0.220921 -0.040169,0.08034 -0.1205021,0.16067 -0.1606697,0.261088 -0.040168,0.100419 -0.040168,0.220923 -0.080336,0.321343 -0.040169,0.10042 -0.1205019,0.180753 -0.1606697,0.321341 -0.040168,0.140587 -0.040168,0.341425 -0.040168,0.46193 0,0.120505 0,0.160665 -0.020085,0.200835 -0.020085,0.04017 -0.060253,0.08034 -0.080336,0.120507 -0.020084,0.04017 -0.020084,0.08034 -0.040167,0.120504 -0.020084,0.04016 -0.060249,0.08033 -0.1004183,0.140586 -0.04017,0.06025 -0.080336,0.140586 -0.1205024,0.220919 -0.040167,0.08033 -0.080336,0.160674 -0.1405878,0.281177 -0.060251,0.120503 -0.140587,0.281174 -0.1807546,0.381594 -0.040168,0.10042 -0.040168,0.14059 -0.060252,0.160671 -0.020085,0.02008 -0.06025,0.02008 -0.1205039,0.06025 -0.060253,0.04017 -0.1405868,0.120502 -0.200839,0.200839 -0.060252,0.08034 -0.1004178,0.160669 -0.1405846,0.241003 -0.040167,0.08033 -0.080337,0.160672 -0.1405888,0.220924 -0.060252,0.06025 -0.1405885,0.100421 -0.200838,0.16067 -0.06025,0.06025 -0.1004194,0.14059 -0.1405874,0.180758 -0.040168,0.04017 -0.080335,0.04017 -0.1004193,0.06025 -0.020084,0.02009 -0.020084,0.06025 -0.060252,0.100415 -0.040168,0.04017 -0.1205046,0.08034 -0.1807559,0.140592 -0.060251,0.06025 -0.100417,0.140585 -0.1405857,0.200838 -0.040169,0.06025 -0.080338,0.10042 -0.1004204,0.140587 -0.020083,0.04017 -0.020083,0.08034 -0.020083,0.140584 0,0.06025 0,0.140589 0.020084,0.241008 0.020084,0.100418 0.060252,0.220923 0.1004194,0.281175 0.040167,0.06025 0.080336,0.06025 0.1205041,0.06025 0.040168,0 0.080334,0 0.1205029,-0.04017 0.040169,-0.04017 0.080335,-0.120503 0.1205029,-0.160671 0.040168,-0.04017 0.080334,-0.04017 0.1205036,-0.08034 0.040169,-0.04017 0.080335,-0.120502 0.1405861,-0.16067 0.060251,-0.04017 0.1405869,-0.04017 0.2008386,-0.140586 0.060252,-0.100418 0.10042,-0.301258 0.1405871,-0.401677 0.040167,-0.100419 0.080336,-0.100419 0.1004195,-0.120504 0.020083,-0.02009 0.020083,-0.06025 0.040168,-0.100417 0.020085,-0.04017 0.060254,-0.08034 0.1004211,-0.140591 0.040167,-0.06025 0.080333,-0.140584 0.1405842,-0.180752 0.060251,-0.04017 0.1405869,-0.04017 0.2008396,-0.08034 0.060253,-0.04017 0.1004188,-0.120501 0.140586,-0.160669 0.040167,-0.04017 0.080336,-0.04017 0.1405859,-0.08033 0.06025,-0.04017 0.1405877,-0.120504 0.2209235,-0.180756 0.080336,-0.06025 0.1606684,-0.100419 0.2008374,-0.140588 0.040169,-0.04017 0.040169,-0.08034 0.080338,-0.14059 0.040169,-0.06025 0.120502,-0.140583 0.1606698,-0.200836 0.040168,-0.06025 0.040168,-0.100423 0.060252,-0.120505 0.020084,-0.02008 0.060251,-0.02008 0.080335,-0.08033 0.020085,-0.06025 0.020085,-0.180755 0.060253,-0.26109 0.040168,-0.08034 0.1205042,-0.120504 0.1606713,-0.160673 0.040167,-0.04017 0.040167,-0.08033 0.040167,-0.18075 0,-0.100421 0,-0.261092 0,-0.361513 0,-0.10042 0,-0.14059 0,-0.180758 0,-0.04017 0,-0.08034 0.040169,-0.140586 0.040169,-0.06025 0.120502,-0.140583 0.1606698,-0.220921 0.040168,-0.08034 0.040168,-0.160669 0.1205032,-0.281172 0.080336,-0.120503 0.2410063,-0.281174 0.3213418,-0.421761 0.080335,-0.140588 0.080335,-0.26109 0.1004188,-0.381593 0.020083,-0.120503 0.060251,-0.241008 0.080335,-0.381594 0.02008,-0.140586 0.02008,-0.301257 0.04017,-0.401678 0.02008,-0.10042 0.06025,-0.14059 0.08034,-0.200843 0.02008,-0.06025 0.02008,-0.140583 0.02008,-0.200836 0,-0.06025 0,-0.100412 0.02008,-0.140583 0.02008,-0.04017 0.06025,-0.08034 0.160669,-0.180756 0.100419,-0.10042 0.261092,-0.261091 0.361512,-0.381597 0.100421,-0.120505 0.140585,-0.200834 0.160669,-0.261088 0.02008,-0.06025 0.02008,-0.100423 0.04017,-0.120506 0.02008,-0.02008 0.06025,-0.02008 0.08033,-0.100418 0.02009,-0.08033 0.02009,-0.241005 0.02009,-0.602515 0,-0.361509 0,-0.923857 0,-1.30545 0,-0.381593 0,-0.582433 0,-0.723022 0,-0.140588 0,-0.220919 -0.02008,-0.281172 -0.02008,-0.06025 -0.06025,-0.100417 -0.08033,-0.200838 -0.02008,-0.10042 -0.02008,-0.26109 -0.04017,-0.341426 -0.02008,-0.08034 -0.06025,-0.08034 -0.10042,-0.140586 -0.04017,-0.06025 -0.08033,-0.180757 -0.120503,-0.261092 -0.04017,-0.08034 -0.08033,-0.120501 -0.100416,-0.180756 -0.02008,-0.06025 -0.02008,-0.140585 -0.04017,-0.180753 -0.02008,-0.04017 -0.06025,-0.04017 -0.100423,-0.08034 -0.04017,-0.04017 -0.08033,-0.120499 -0.100416,-0.200833 -0.02008,-0.08033 -0.02008,-0.160674 -0.02008,-0.220927 0,-0.06025 0,-0.100423 -0.02008,-0.120504 -0.02008,-0.02008 -0.06025,-0.02008 -0.120504,-0.100417 -0.06025,-0.08034 -0.140584,-0.241005 -0.2008362,-0.321341 -0.060252,-0.08033 -0.1004183,-0.08033 -0.120503,-0.10042 -0.020085,-0.02009 -0.020085,-0.06026 -0.040168,-0.08034 -0.020083,-0.02008 -0.060252,-0.02008 -0.1004195,-0.100418 -0.040168,-0.08033 -0.080336,-0.241006 -0.1004198,-0.241006 z"
         id="path33"
         inkscape:path-effect="#path-effect33"
         inkscape:original-d="m 9.6011877,-36.099825 c 0,0.16067 0,0.321341 0,0.482012 0.040169,0.04017 0.080336,0.08034 0.1205045,0.120505 0,0.04017 0,0.08033 0,0.120502 0,0.120504 0,0.241006 0,0.36151 0.040166,0.160671 0.080335,0.321342 0.1205018,0.482013 0,0.04017 0,0.08033 0,0.120502 0,0.08034 0,0.160671 0,0.241006 0,0.241006 0,0.482013 0,0.723019 0,0.160671 0,0.321342 0,0.482013 0.040169,0.04017 0.080336,0.08033 0.1205045,0.120504 0,0.04017 0,0.08034 0,0.120502 0,0.08034 0,0.160671 0,0.241006 0.040166,0.04017 0.080336,0.08034 0.1205015,0.120505 0.04017,0.08034 0.08034,0.160671 0.120505,0.241006 0,0.08034 0,0.160671 0,0.241006 0.04017,0.08034 0.08033,0.160671 0.120502,0.241007 0,0.08034 0,0.160671 0,0.241006 0.04017,0.04017 0.08033,0.08033 0.120504,0.120502 0,0.08034 0,0.160671 0,0.241006 0,0.08034 0,0.160671 0,0.241006 -0.04017,0.120505 -0.08033,0.241007 -0.120504,0.361511 0,0.08034 0,0.160671 0,0.241007 -0.08034,0.08034 -0.160671,0.16067 -0.241007,0.241006 0,0.08034 0,0.160671 0,0.241006 -0.08033,0.08034 -0.1606705,0.160671 -0.241006,0.241006 0,0.04017 0,0.08034 0,0.120502 -0.040166,0.08034 -0.080335,0.160674 -0.1205018,0.241009 0,0.04017 0,0.08034 0,0.120502 -0.040169,0.04017 -0.080335,0.08034 -0.1205045,0.120505 -0.080335,0.08034 -0.1606709,0.16067 -0.2410063,0.241006 0,0.04017 0,0.08034 0,0.120502 -0.040166,0.04017 -0.080335,0.08033 -0.1205018,0.120504 -0.040169,0.04017 -0.080336,0.08034 -0.1205045,0.120502 -0.040166,0.04017 -0.080335,0.08034 -0.1205018,0.120504 0,0.08034 0,0.160671 0,0.241007 -0.080336,0.08034 -0.1606709,0.160671 -0.2410063,0.241006 0,0.120502 0,0.241006 0,0.361508 -0.080336,0.08034 -0.1606709,0.160671 -0.2410064,0.241007 0,0.200839 0,0.401677 0,0.602517 0,0.04017 0,0.08033 0,0.120501 -0.040169,0.04017 -0.080335,0.08034 -0.1205044,0.120505 0,0.04017 0,0.08034 0,0.120502 -0.040166,0.04017 -0.080336,0.08033 -0.1205019,0.120504 -0.040169,0.08034 -0.080335,0.160671 -0.1205044,0.241007 -0.040166,0.08033 -0.080336,0.16067 -0.1205019,0.241006 -0.080335,0.160671 -0.1606708,0.321342 -0.2410063,0.482012 0,0.04017 0,0.08034 0,0.120502 -0.040169,0 -0.080335,0 -0.1205045,0 -0.080335,0.08034 -0.1606708,0.160671 -0.2410063,0.241007 -0.040166,0.08034 -0.080335,0.16067 -0.1205018,0.241006 -0.040169,0.08033 -0.080335,0.160671 -0.1205045,0.241006 -0.080335,0.04017 -0.1606709,0.08034 -0.2410063,0.120505 -0.040166,0.08033 -0.080335,0.160671 -0.1205018,0.241006 -0.040169,0 -0.080336,0 -0.1205045,0 0,0.04017 0,0.08033 0,0.120502 -0.080335,0.04017 -0.1606709,0.08034 -0.2410063,0.120504 -0.040166,0.08034 -0.080335,0.160671 -0.1205018,0.241007 -0.040169,0.04017 -0.080336,0.08034 -0.1205045,0.120501 0,0.04017 0,0.08034 0,0.120505 0,0.08033 0,0.160671 0,0.241006 0.040169,0.120502 0.080335,0.241007 0.1205045,0.361511 0.040166,0 0.080335,0 0.1205018,0 0.040169,0 0.080335,0 0.1205045,0 0.040166,-0.08034 0.080335,-0.160671 0.1205018,-0.241009 0.040169,0 0.080335,0 0.1205045,0 0.040166,-0.08034 0.080335,-0.160671 0.1205018,-0.241006 0.080335,0 0.1606709,0 0.2410063,0 0.040169,-0.200837 0.080335,-0.401677 0.1205045,-0.602515 0.040166,0 0.080335,0 0.1205018,0 0,-0.04017 0,-0.08033 0,-0.120504 0.040169,-0.04017 0.080336,-0.08034 0.1205045,-0.120502 0.040166,-0.08034 0.080335,-0.160671 0.1205018,-0.241006 0.080335,0 0.1606709,0 0.2410063,0 0.040169,-0.08034 0.080336,-0.160671 0.1205045,-0.241007 0.040166,0 0.080335,0 0.1205019,0 0.080335,-0.08033 0.1606708,-0.16067 0.2410063,-0.241006 0.080335,-0.04017 0.1606708,-0.08033 0.2410063,-0.120504 0,-0.04017 0,-0.08034 0,-0.120502 0.080335,-0.08034 0.1606708,-0.160671 0.2410063,-0.241007 0,-0.04017 0,-0.08034 0,-0.120504 0.040169,0 0.080335,0 0.1205045,0 0,-0.120502 0,-0.241006 0,-0.361508 0.080335,-0.04017 0.1606708,-0.08034 0.2410063,-0.120505 0,-0.04017 0,-0.08033 0,-0.120501 0,-0.160671 0,-0.321342 0,-0.482013 0,-0.04017 0,-0.08034 0,-0.120505 0,-0.04017 0,-0.08034 0,-0.120501 0.080335,-0.08034 0.1606708,-0.160671 0.2410063,-0.241007 0,-0.08034 0,-0.160671 0,-0.241006 0.1606709,-0.160671 0.3213417,-0.321342 0.4820126,-0.482013 0,-0.120504 0,-0.241006 0,-0.36151 0.040166,-0.120502 0.080336,-0.241007 0.1205015,-0.361509 0,-0.16067 0,-0.321341 0,-0.482012 0.04017,-0.04017 0.08034,-0.08034 0.120505,-0.120505 0,-0.08034 0,-0.160671 0,-0.241006 0,-0.04017 0,-0.08033 0,-0.120502 0.04017,-0.04017 0.08033,-0.08034 0.120502,-0.120504 0.160671,-0.160671 0.321344,-0.321342 0.482015,-0.482013 0.04017,-0.08034 0.08033,-0.160671 0.120502,-0.241006 0,-0.04017 0,-0.08034 0,-0.120505 0.04017,0 0.08033,0 0.120504,0 0,-0.160671 0,-0.321341 0,-0.482012 0,-0.562348 0,-1.124696 0,-1.687044 0,-0.200838 0,-0.401678 0,-0.602515 0,-0.08034 0,-0.160671 0,-0.241006 -0.04017,-0.04017 -0.08033,-0.08034 -0.120504,-0.120505 0,-0.160671 0,-0.321341 0,-0.482012 -0.04017,0 -0.08034,0 -0.120502,0 -0.04017,-0.120502 -0.08034,-0.241007 -0.120505,-0.361508 -0.04017,-0.04017 -0.08033,-0.08034 -0.120501,-0.120505 0,-0.08034 0,-0.160671 0,-0.241006 -0.04017,0 -0.08034,0 -0.120505,0 -0.04017,-0.08034 -0.08033,-0.160671 -0.120504,-0.241007 0,-0.08033 0,-0.16067 0,-0.241006 0,-0.04017 0,-0.08034 0,-0.120502 -0.04017,0 -0.08034,0 -0.120502,0 -0.08034,-0.160671 -0.160671,-0.321341 -0.2410065,-0.482012 -0.040169,0 -0.080335,0 -0.1205045,0 0,-0.04017 0,-0.08034 0,-0.120505 -0.040166,0 -0.080335,0 -0.1205018,0 -0.040169,-0.160671 -0.080335,-0.321342 -0.1205045,-0.482012 z" />
      <path
         style="fill:#341806;fill-opacity:1;fill-rule:evenodd;stroke:none;stroke-width:0.264583px;stroke-linecap:butt;stroke-linejoin:miter;stroke-opacity:1"
         d="m 25.672529,-50.072107 c -0.0284,0.340835 0.142014,1.022503 0.227222,1.476948 0.08521,0.454445 0.08521,0.681669 0.08521,1.022504 0,0.340835 0,0.795281 -0.05681,1.164517 -0.05681,0.369236 -0.170418,0.653266 -0.255627,0.88049 -0.08521,0.227224 -0.142014,0.397639 -0.170417,0.568057 -0.0284,0.170418 -0.0284,0.340833 -0.0568,0.426042 -0.0284,0.08521 -0.08521,0.08521 -0.113612,0.113614 -0.0284,0.0284 -0.0284,0.08521 -0.05681,0.142015 -0.0284,0.05681 -0.08521,0.11361 -0.113611,0.170417 -0.0284,0.05681 -0.0284,0.113609 -0.08521,0.198818 -0.05681,0.08521 -0.170417,0.19882 -0.227223,0.312431 -0.05681,0.113612 -0.05681,0.227224 -0.08521,0.28403 -0.02841,0.05681 -0.08521,0.05681 -0.142013,0.142014 -0.05681,0.08521 -0.113612,0.255626 -0.170417,0.369237 -0.05681,0.113612 -0.113611,0.170416 -0.142014,0.284028 -0.0284,0.113612 -0.0284,0.28403 -0.05681,0.454448 -0.0284,0.170417 -0.08521,0.340834 -0.08521,0.426042 2e-6,0.08521 0.0568,0.08521 0.227221,0.08521 0.170417,0 0.454447,0 0.624866,0 0.170419,0 0.227221,0 0.312429,-0.05681 0.08521,-0.05681 0.198819,-0.170416 0.28403,-0.255627 0.08521,-0.08521 0.142014,-0.142013 0.170417,-0.198821 0.0284,-0.05681 0.0284,-0.113608 0.0284,-0.170416 0,-0.05681 0,-0.11361 0,-0.255625 0,-0.142015 0,-0.369236 0,-0.539653 0,-0.170417 0,-0.284029 0.05681,-0.39764 0.05681,-0.113612 0.170416,-0.227223 0.227222,-0.312434 0.05681,-0.08521 0.05681,-0.142013 0.05681,-0.198821 0,-0.05681 0,-0.11361 0,-0.31243 0,-0.19882 0,-0.539653 0,-0.738471 0,-0.198818 0,-0.255628 0,-0.312436 0,-0.05681 0,-0.11361 0.0284,-0.170418 0.02841,-0.05681 0.08521,-0.11361 0.11361,-0.227221 0.0284,-0.113611 0.0284,-0.284029 0.05681,-0.369238 0.0284,-0.08521 0.08521,-0.08521 0.113608,-0.142013 0.0284,-0.05681 0.0284,-0.170417 0.08521,-0.340834 0.0568,-0.170417 0.170418,-0.397641 0.255629,-0.511253 0.08521,-0.113612 0.14201,-0.113612 0.170413,-0.142012 0.0284,-0.0284 0.0284,-0.08521 0.0284,-0.198822 0,-0.113612 0,-0.28403 0,-0.539656 0,-0.255626 0,-0.596459 0,-0.852085 0,-0.255626 0,-0.426042 -0.0284,-0.539656 -0.0284,-0.113614 -0.0852,-0.170416 -0.113608,-0.255625 -0.0284,-0.08521 -0.0284,-0.198818 -0.05681,-0.284029 -0.0284,-0.08521 -0.08521,-0.142014 -0.11361,-0.198822 -0.0284,-0.05681 -0.0284,-0.11361 -0.08521,-0.142012 -0.05681,-0.0284 -0.170418,-0.0284 -0.227223,-0.05681 -0.05681,-0.0284 -0.05681,-0.08521 -0.08521,-0.11361 -0.0284,-0.0284 -0.08521,-0.0284 -0.227222,-0.0284 -0.142015,0 -0.369236,0 -0.39764,0.340835 z"
         id="path34"
         inkscape:path-effect="#path-effect34"
         inkscape:original-d="m 25.473708,-50.412942 c 0.170418,0.68167 0.340837,1.363337 0.511252,2.045007 0,0.227221 0,0.454445 0,0.681667 0,0.454448 0,0.908894 0,1.36334 -0.113609,0.284027 -0.227221,0.568057 -0.340834,0.852085 -0.05681,0.170418 -0.113612,0.340834 -0.170418,0.511252 0,0.170418 0,0.340833 0,0.511251 -0.0568,0 -0.113609,0 -0.170415,0 0,0.05681 0,0.113612 0,0.170418 -0.05681,0.05681 -0.113612,0.113613 -0.170418,0.170416 0,0.05681 0,0.113612 0,0.170418 -0.113612,0.113612 -0.227222,0.227224 -0.340834,0.340834 0,0.113612 0,0.227224 0,0.340836 -0.05681,0 -0.113612,0 -0.170418,0 -0.05681,0.170415 -0.113612,0.340834 -0.170418,0.511252 -0.0568,0.05681 -0.11361,0.113609 -0.170416,0.170415 0,0.170418 0,0.340836 0,0.511252 -0.05681,0.170418 -0.113612,0.340836 -0.170418,0.511252 0.05681,0 0.113612,0 0.170418,0 0.284028,0 0.568058,0 0.852086,0 0.05681,0 0.113612,0 0.170418,0 0.113612,-0.11361 0.227221,-0.227222 0.340833,-0.340834 0.05681,-0.05681 0.113613,-0.113612 0.170419,-0.170418 0,-0.05681 0,-0.11361 0,-0.170416 0,-0.05681 0,-0.113612 0,-0.170418 0,-0.227224 0,-0.454445 0,-0.68167 0,-0.113609 0,-0.227221 0,-0.340833 0.113609,-0.113612 0.227221,-0.227222 0.340833,-0.340834 0,-0.05681 0,-0.113612 0,-0.170418 0,-0.05681 0,-0.113612 0,-0.170418 0,-0.340834 0,-0.681667 0,-1.022503 0,-0.0568 0,-0.11361 0,-0.170416 0,-0.05681 0,-0.113612 0,-0.170418 0.05681,-0.05681 0.113612,-0.113612 0.170418,-0.170418 0,-0.170416 0,-0.340834 0,-0.511252 0.05681,0 0.11361,0 0.170416,0 0,-0.113609 0,-0.227221 0,-0.340834 0.113612,-0.227221 0.227224,-0.454445 0.340836,-0.681669 0.05681,0 0.113609,0 0.170416,0 0,-0.0568 0,-0.11361 0,-0.170416 0,-0.170418 0,-0.340836 0,-0.511252 0,-0.340836 0,-0.681669 0,-1.022503 0,-0.170418 0,-0.340834 0,-0.511252 -0.05681,-0.05681 -0.11361,-0.113612 -0.170416,-0.170418 0,-0.113612 0,-0.227221 0,-0.340833 -0.05681,-0.05681 -0.113612,-0.113613 -0.170418,-0.170419 0,-0.05681 0,-0.113612 0,-0.170415 -0.113612,0 -0.227224,0 -0.340834,0 0,-0.05681 0,-0.113612 0,-0.170418 -0.05681,0 -0.113612,0 -0.170418,0 -0.227224,0 -0.454445,0 -0.68167,0 z" />
      <path
         style="fill:#341806;fill-opacity:1;fill-rule:evenodd;stroke:none;stroke-width:0.264583px;stroke-linecap:butt;stroke-linejoin:miter;stroke-opacity:1"
         d="m 45.128496,-50.725374 c -0.284029,0.369238 -0.852086,1.448546 -1.334935,2.811884 -0.482848,1.363337 -0.880488,3.010705 -1.136114,4.090014 -0.255626,1.07931 -0.369238,1.590561 -0.596461,2.158618 -0.227222,0.568056 -0.568057,1.19292 -0.766879,1.533757 -0.198823,0.340837 -0.255623,0.397639 -0.284026,0.511249 -0.0284,0.113611 -0.0284,0.28403 -0.05681,0.426045 -0.0284,0.142014 -0.08521,0.255624 -0.113612,0.369236 -0.0284,0.113612 -0.0284,0.227222 -0.05681,0.312433 -0.0284,0.08521 -0.08521,0.142013 -0.11361,0.340833 -0.0284,0.19882 -0.0284,0.539656 -0.05681,0.852087 -0.0284,0.312431 -0.08521,0.59646 -0.11361,0.823683 -0.0284,0.227223 -0.0284,0.397641 -0.0284,0.511254 0,0.113613 0,0.170415 0.0284,0.198818 0.0284,0.0284 0.0852,0.0284 0.142013,0.0284 0.05681,0 0.11361,0 0.142013,-0.0284 0.0284,-0.0284 0.0284,-0.08521 0.08521,-0.170416 0.05681,-0.08521 0.170417,-0.19882 0.312431,-0.426043 0.142014,-0.227223 0.312432,-0.568059 0.454446,-0.795281 0.142015,-0.227222 0.255628,-0.340834 0.340838,-0.426044 0.08521,-0.08521 0.142011,-0.142011 0.170413,-0.227221 0.0284,-0.08521 0.0284,-0.198821 0.08521,-0.312432 0.05681,-0.113611 0.170418,-0.227223 0.227224,-0.426043 0.05681,-0.19882 0.05681,-0.48285 0.08521,-0.653269 0.0284,-0.170419 0.08521,-0.22722 0.113608,-0.42604 0.0284,-0.19882 0.0284,-0.539654 0.0284,-0.766877 0,-0.227222 0,-0.340834 0.0284,-0.426046 0.02841,-0.08521 0.08521,-0.142013 0.11361,-0.284027 0.0284,-0.142013 0.0284,-0.369237 0.05681,-0.539655 0.0284,-0.170418 0.08521,-0.284028 0.113612,-0.369239 0.0284,-0.08521 0.0284,-0.142011 0.05681,-0.255624 0.0284,-0.113612 0.08521,-0.284029 0.170417,-0.482849 0.08521,-0.19882 0.198819,-0.426041 0.255625,-0.653264 0.05681,-0.227223 0.05681,-0.454447 0.08521,-0.624865 0.0284,-0.170417 0.08521,-0.284028 0.113611,-0.454445 0.0284,-0.170416 0.0284,-0.39764 0.05681,-0.568058 0.0284,-0.170418 0.08521,-0.284028 0.113611,-0.369239 0.0284,-0.08521 0.0284,-0.142013 0.05681,-0.227222 0.0284,-0.08521 0.08521,-0.198819 0.113611,-0.28403 0.0284,-0.08521 0.0284,-0.142013 0.0284,-0.31243 0,-0.170416 0,-0.454444 0.0284,-0.624864 0.0284,-0.17042 0.08521,-0.227222 0.11361,-0.340833 0.0284,-0.113611 0.0284,-0.284029 0.05681,-0.39764 0.0284,-0.113612 0.08521,-0.170417 0.113611,-0.255626 0.0284,-0.08521 0.0284,-0.198821 0.05681,-0.284029 0.0284,-0.08521 0.08521,-0.142013 0.113611,-0.198821 0.0284,-0.05681 0.0284,-0.11361 0.05681,-0.170418 0.0284,-0.05681 0.08521,-0.113609 0.142013,-0.22722 0.0568,-0.11361 0.113612,-0.28403 0.170414,-0.369238 0.0568,-0.08521 0.113614,-0.08521 0.142017,-0.142014 0.0284,-0.05681 0.0284,-0.170418 0.08521,-0.312432 0.05681,-0.142014 0.170417,-0.312432 0.227223,-0.426046 0.05681,-0.113614 0.05681,-0.170416 0.05681,-0.227223 0,-0.05681 0,-0.113608 0,-0.312428 0,-0.19882 0,-0.539656 -0.284029,-0.170418 z"
         id="path35"
         inkscape:path-effect="#path-effect35"
         inkscape:original-d="m 45.412525,-51.435446 c -0.568057,1.07931 -1.136114,2.158619 -1.704172,3.237926 -0.39764,1.647367 -0.79528,3.294735 -1.19292,4.942102 -0.113612,0.511252 -0.227224,1.022503 -0.340836,1.533755 -0.340834,0.624861 -0.681667,1.249725 -1.022503,1.874589 -0.05681,0.05681 -0.11361,0.113612 -0.170416,0.170418 0,0.170415 0,0.340834 0,0.511252 -0.05681,0.113609 -0.113612,0.227221 -0.170418,0.340833 0,0.113612 0,0.227222 0,0.340834 -0.05681,0.05681 -0.113612,0.113612 -0.170418,0.170418 0,0.340834 0,0.68167 0,1.022503 -0.05681,0.284028 -0.11361,0.568058 -0.170416,0.852086 0,0.170418 0,0.340836 0,0.511252 0,0.05681 0,0.113612 0,0.170418 0.05681,0 0.11361,0 0.170416,0 0.05681,0 0.113612,0 0.170418,0 0,-0.05681 0,-0.113612 0,-0.170418 0.113612,-0.113613 0.227224,-0.227222 0.340834,-0.340834 0.170418,-0.340834 0.340836,-0.68167 0.511251,-1.022504 0.113612,-0.113612 0.227225,-0.227224 0.340837,-0.340833 0.05681,-0.05681 0.113609,-0.113612 0.170415,-0.170418 0,-0.113612 0,-0.227224 0,-0.340834 0.113612,-0.113612 0.227224,-0.227224 0.340836,-0.340836 0,-0.284028 0,-0.568058 0,-0.852085 0.05681,-0.05681 0.11361,-0.113612 0.170416,-0.170419 0,-0.340833 0,-0.681667 0,-1.022503 0,-0.113609 0,-0.227221 0,-0.340834 0.05681,-0.05681 0.113612,-0.113612 0.170418,-0.170418 0,-0.227221 0,-0.454445 0,-0.681667 0.05681,-0.113612 0.113612,-0.227224 0.170418,-0.340836 0,-0.05681 0,-0.11361 0,-0.170416 0.05681,-0.170418 0.11361,-0.340836 0.170416,-0.511251 0.113612,-0.227225 0.227223,-0.454446 0.340835,-0.68167 0,-0.227222 0,-0.454446 0,-0.68167 0.05681,-0.113609 0.113611,-0.227222 0.170417,-0.340834 0,-0.227221 0,-0.454445 0,-0.681669 0.05681,-0.11361 0.113612,-0.227222 0.170417,-0.340834 0,-0.05681 0,-0.113612 0,-0.170418 0.05681,-0.11361 0.113612,-0.227222 0.170417,-0.340834 0,-0.05681 0,-0.113612 0,-0.170418 0,-0.284027 0,-0.568055 0,-0.852085 0.05681,-0.05681 0.113612,-0.113612 0.170418,-0.170418 0,-0.170416 0,-0.340834 0,-0.511252 0.05681,-0.0568 0.113611,-0.11361 0.170417,-0.170416 0,-0.113612 0,-0.227224 0,-0.340836 0.05681,-0.0568 0.113611,-0.113609 0.170417,-0.170415 0,-0.05681 0,-0.113612 0,-0.170418 0.05681,-0.05681 0.113612,-0.113612 0.170418,-0.170416 0.0568,-0.170418 0.113611,-0.340836 0.170417,-0.511252 0.0568,0 0.113611,0 0.170417,0 0,-0.113612 0,-0.227224 0,-0.340836 0.113611,-0.170415 0.227223,-0.340833 0.340834,-0.511252 0,-0.05681 0,-0.113612 0,-0.170415 0,-0.05681 0,-0.113612 0,-0.170418 0,-0.340834 0,-0.68167 0,-1.022504 z" />
      <path
         style="fill:#341806;fill-opacity:1;fill-rule:evenodd;stroke:none;stroke-width:0.264583px;stroke-linecap:butt;stroke-linejoin:miter;stroke-opacity:1"
         d="m 12.266375,9.6591305 c -0.08521,-0.2556264 -0.08521,-0.9372936 -0.113612,-1.4201427 -0.0284,-0.4828491 -0.08521,-0.7668785 -0.113612,-1.0225043 -0.0284,-0.2556259 -0.0284,-0.4828475 -0.05681,-0.7100708 -0.0284,-0.2272233 -0.08521,-0.4544464 -0.113612,-0.6816693 -0.0284,-0.2272229 -0.0284,-0.4544471 -0.0284,-0.5964608 0,-0.1420138 0,-0.1988199 -0.0284,-0.2272229 -0.0284,-0.028403 -0.08521,-0.028403 -0.142015,-0.1420142 -0.05681,-0.1136112 -0.113613,-0.3408345 -0.142016,-0.5396543 -0.0284,-0.1988198 -0.0284,-0.3692379 1e-6,-0.4828496 0.0284,-0.1136117 0.08521,-0.1704155 0.113612,-0.2556248 0.0284,-0.085209 0.0284,-0.1988213 0.05681,-0.3408358 0.0284,-0.1420145 0.08521,-0.3124316 0.142014,-0.4260432 0.05681,-0.1136115 0.11361,-0.1704155 0.198819,-0.2840276 0.08521,-0.1136121 0.19882,-0.2840285 0.312431,-0.3976401 0.113612,-0.1136116 0.227224,-0.1704177 0.312433,-0.2556266 0.08521,-0.085209 0.142012,-0.1988184 0.227222,-0.2840277 0.08521,-0.085209 0.198821,-0.1420153 0.369237,-0.2556262 0.170417,-0.1136109 0.39764,-0.2840293 0.568057,-0.454446 0.170417,-0.17041669 0.28403,-0.34083455 0.369239,-0.4828493 0.08521,-0.14201476 0.142013,-0.25562453 0.198821,-0.31243061 0.05681,-0.05680609 0.11361,-0.05680609 0.142013,-0.11361213 0.0284,-0.05680604 0.0284,-0.17041812 0.05681,-0.22722284 0.02841,-0.0568047 0.08521,-0.0568047 0.142013,-0.11361176 0.05681,-0.056807 0.11361,-0.17041672 0.198818,-0.3124309 0.08521,-0.14201417 0.198821,-0.31243187 0.312432,-0.48284846 0.113612,-0.1704166 0.227223,-0.340835 0.340835,-0.5112523 0.113611,-0.1704173 0.227223,-0.3408355 0.369237,-0.4544467 0.142014,-0.1136113 0.312433,-0.1704168 0.39764,-0.2556252 0.08521,-0.085208 0.08521,-0.1988205 0.113613,-0.2556265 0.02841,-0.056806 0.08521,-0.056806 0.142014,-0.1420144 0.05681,-0.085208 0.113612,-0.2556253 0.170416,-0.3692351 0.0568,-0.1136099 0.113611,-0.1704176 0.170418,-0.2272247 0.05681,-0.056807 0.113611,-0.1136111 0.19882,-0.1420142 0.08521,-0.028403 0.198819,-0.028403 0.255625,-0.056806 0.05681,-0.028403 0.05681,-0.085209 0.142014,-0.1988204 0.08521,-0.1136114 0.255627,-0.2840294 0.426044,-0.3976405 0.170417,-0.1136112 0.340836,-0.1704167 0.426043,-0.2272221 0.08521,-0.056805 0.08521,-0.1136114 0.19882,-0.2272236 0.113613,-0.1136121 0.340834,-0.2840276 0.511252,-0.3976397 0.170418,-0.1136121 0.284028,-0.1704176 0.369238,-0.2272238 0.08521,-0.056806 0.142014,-0.11361 0.284027,-0.1420128 0.142014,-0.028403 0.369239,-0.028403 0.539656,-0.056805 0.170416,-0.028403 0.284028,-0.085209 0.369239,-0.1136123 0.08521,-0.028403 0.142013,-0.028403 0.198818,-0.056805 0.0568,-0.028402 0.113611,-0.08521 0.255626,-0.1136131 0.142015,-0.028403 0.369237,-0.028403 0.511254,-0.028403 0.142017,0 0.198819,0 0.198821,0 10e-7,0 -0.05681,0 -0.142017,0 -0.08521,0 -0.198821,0 -0.312432,0 -0.113611,0 -0.227223,0 -0.340835,0.028403 -0.113612,0.028403 -0.227222,0.085209 -0.369237,0.142015 -0.142015,0.056806 -0.31243,0.1136118 -0.397639,0.1704179 -0.08521,0.056806 -0.08521,0.1136123 -0.113614,0.142014 -0.0284,0.028402 -0.08521,0.028402 -0.170416,0.085208 -0.08521,0.056807 -0.198819,0.1704174 -0.28403,0.2272236 -0.08521,0.056806 -0.142013,0.056806 -0.170416,0.085209 -0.0284,0.028403 -0.0284,0.085209 -0.05681,0.1136108 -0.0284,0.028402 -0.08521,0.028402 -0.142012,0.085209 -0.05681,0.056807 -0.113611,0.1704173 -0.19882,0.2556262 -0.08521,0.085209 -0.198821,0.1420147 -0.312432,0.2556255 -0.113611,0.1136109 -0.227224,0.284029 -0.312434,0.369237 -0.08521,0.085208 -0.142013,0.085208 -0.198818,0.1420147 -0.05681,0.056807 -0.11361,0.1704174 -0.142013,0.2556265 -0.0284,0.085209 -0.0284,0.142015 -0.05681,0.1704167 -0.0284,0.028402 -0.08521,0.028402 -0.11361,0.056805 -0.0284,0.028403 -0.0284,0.085209 -0.05681,0.1420163 -0.0284,0.056807 -0.08521,0.1136116 -0.11361,0.1704173 -0.0284,0.056806 -0.0284,0.1136118 -0.08521,0.1420135 -0.05681,0.028402 -0.170418,0.028402 -0.227224,0.056805 -0.05681,0.028403 -0.05681,0.085209 -0.08521,0.1420162 -0.0284,0.056807 -0.08521,0.1136117 -0.142014,0.1704181 -0.05681,0.056806 -0.113611,0.1136101 -0.255626,0.2556243 -0.142014,0.1420142 -0.369235,0.3692354 -0.511253,0.4828476 -0.142017,0.1136123 -0.198816,0.1136123 -0.227219,0.1704184 -0.0284,0.056806 -0.0284,0.1704181 -0.08521,0.2556258 -0.05681,0.085208 -0.170418,0.1420138 -0.227224,0.25562589 -0.05681,0.11361209 -0.05681,0.28402757 -0.08521,0.36923663 -0.02841,0.0852091 -0.08521,0.0852091 -0.113608,0.11361206 -0.0284,0.028403 -0.0284,0.0852091 -0.05681,0.1136121 -0.0284,0.028403 -0.08521,0.028403 -0.11361,0.056806 -0.0284,0.028403 -0.0284,0.0852064 -0.05681,0.11360946 -0.0284,0.028403 -0.08521,0.028403 -0.11361,0.08520906 -0.0284,0.05680604 -0.0284,0.17041812 -0.05681,0.2556282 -0.0284,0.0852101 -0.08521,0.14201138 -0.170414,0.22722064 -0.08521,0.0852093 -0.198822,0.19882117 -0.340835,0.31243199 -0.142014,0.11361082 -0.312432,0.22722274 -0.397641,0.34083475 -0.08521,0.113612 -0.08521,0.2272241 -0.113613,0.312433 -0.0284,0.085209 -0.08521,0.1420123 -0.142013,0.1988195 -0.05681,0.056807 -0.113611,0.1136113 -0.170419,0.1420143 -0.05681,0.028403 -0.11361,0.028403 -0.170416,0.085209 -0.05681,0.056806 -0.11361,0.1704156 -0.170417,0.2556257 -0.05681,0.08521 -0.113611,0.1420142 -0.142014,0.1988202 -0.0284,0.056806 -0.0284,0.1136095 -0.05681,0.1420125 -0.0284,0.028403 -0.08521,0.028403 -0.11361,0.1136121 -0.0284,0.085209 -0.0284,0.2556271 -0.08521,0.3692375 -0.0568,0.1136103 -0.170416,0.1704168 -0.227222,0.3408338 -0.05681,0.170417 -0.05681,0.4544472 -0.113612,0.6532674 -0.05681,0.1988203 -0.170418,0.3124327 -0.227223,0.4828489 -0.05681,0.1704162 -0.05681,0.3976404 -0.05681,0.6532663 0,0.2556258 0,0.5396534 0.0284,0.7384744 0.0284,0.198821 0.08521,0.3124305 0.113609,0.4260427 0.0284,0.1136122 0.0284,0.2272216 0.0284,0.3124306 0,0.085209 0,0.1420152 0.0284,0.1988221 0.0284,0.056807 0.08521,0.1136113 0.113612,0.2840281 0.0284,0.1704167 0.0284,0.4544442 0.0284,0.7100701 0,0.2556259 0,0.48285 0,0.6532668 0,0.1704168 0,0.2840289 -0.0284,0.3976416 -0.0284,0.1136128 -0.08521,0.2272212 -0.113612,0.3124301 -0.0284,0.085209 -0.0284,0.142015 -0.05681,0.198822 -0.0284,0.056807 -0.08521,0.1136097 -0.113609,0.1704151 -0.0284,0.056805 -0.0284,0.1136115 -0.113611,0.2272235 -0.08521,0.113612 -0.255626,0.2840287 -0.340834,0.028402 z"
         id="path36"
         inkscape:path-effect="#path-effect36"
         inkscape:original-d="m 12.181166,10.085174 c 0,-0.6816699 0,-1.3633371 0,-2.045007 -0.05681,-0.2840275 -0.113612,-0.5680577 -0.170418,-0.8520853 0,-0.2272241 0,-0.4544457 0,-0.6816698 -0.05681,-0.2272215 -0.113612,-0.4544457 -0.170418,-0.6816672 0,-0.2272242 0,-0.4544484 0,-0.6816699 0,-0.056806 0,-0.1136121 0,-0.1704181 -0.0568,0 -0.113609,0 -0.170415,0 -0.05681,-0.2272215 -0.113613,-0.4544457 -0.170419,-0.6816672 0,-0.1704181 0,-0.3408362 0,-0.5112517 0.05681,-0.056806 0.113612,-0.1136121 0.170419,-0.1704181 0,-0.1136121 0,-0.2272242 0,-0.3408336 0.05681,-0.1704182 0.113612,-0.3408363 0.170415,-0.5112518 0.05681,-0.056806 0.113612,-0.113612 0.170418,-0.1704181 0.113612,-0.1704181 0.227224,-0.3408336 0.340834,-0.5112517 0.113612,-0.056806 0.227224,-0.1136121 0.340836,-0.1704181 0.05681,-0.1136095 0.113609,-0.2272215 0.170415,-0.3408336 0.113613,-0.056806 0.227225,-0.1136121 0.340837,-0.1704182 0.227221,-0.1704154 0.454445,-0.3408336 0.681667,-0.51125168 0.113612,-0.17041547 0.227224,-0.3408336 0.340836,-0.51125172 0.05681,-0.11360944 0.11361,-0.22722152 0.170416,-0.3408336 0.05681,0 0.113612,0 0.170418,0 0,-0.11361208 0,-0.22722416 0,-0.3408336 0.05681,0 0.113612,0 0.170418,0 0.05681,-0.11361208 0.113609,-0.22722416 0.170415,-0.34083624 0.113612,-0.17041548 0.227224,-0.3408336 0.340837,-0.51125176 0.113609,-0.1704154 0.227221,-0.3408336 0.340833,-0.5112517 0.113612,-0.1704155 0.227224,-0.3408336 0.340834,-0.5112517 0.170418,-0.056803 0.340836,-0.1136094 0.511251,-0.1704155 0,-0.1136121 0,-0.2272242 0,-0.3408362 0.05681,0 0.113613,0 0.170419,0 0.05681,-0.1704155 0.113612,-0.3408336 0.170418,-0.5112518 0.0568,-0.056803 0.113609,-0.1136094 0.170415,-0.1704154 0.05681,-0.056806 0.113612,-0.1136121 0.170418,-0.1704182 0.113612,0 0.227222,0 0.340834,0 0,-0.056806 0,-0.113612 0,-0.1704181 0.170418,-0.1704155 0.340836,-0.3408336 0.511252,-0.5112517 0.170418,-0.056803 0.340836,-0.1136094 0.511251,-0.1704155 0,-0.056806 0,-0.1136121 0,-0.1704181 0.227225,-0.1704181 0.454446,-0.3408336 0.68167,-0.5112517 0.113612,-0.056806 0.227222,-0.1136121 0.340834,-0.1704181 0.05681,-0.056803 0.113612,-0.1136095 0.170418,-0.1704155 0.227221,0 0.454446,0 0.68167,0 0.113609,-0.056806 0.227221,-0.1136121 0.340833,-0.1704181 0.05681,0 0.113612,0 0.170419,0 0.0568,-0.056806 0.113609,-0.1136121 0.170415,-0.1704182 0.227224,0 0.454446,0 0.68167,0 0.05681,0 0.113612,0 0.170415,0 -0.0568,0 -0.113609,0 -0.170415,0 -0.113612,0 -0.227224,0 -0.340836,0 -0.11361,0 -0.227222,0 -0.340834,0 -0.113612,0.056806 -0.227222,0.1136121 -0.340834,0.1704182 -0.170418,0.056806 -0.340833,0.113612 -0.511251,0.1704181 0,0.056806 0,0.1136121 0,0.1704155 -0.05681,0 -0.113612,0 -0.170418,0 -0.113613,0.113612 -0.227222,0.2272241 -0.340834,0.3408362 -0.05681,0 -0.113612,0 -0.170418,0 0,0.056806 0,0.1136121 0,0.1704155 -0.05681,0 -0.113612,0 -0.170416,0 -0.05681,0.1136121 -0.113612,0.2272241 -0.170418,0.3408362 -0.113612,0.056806 -0.227224,0.1136121 -0.340833,0.1704155 -0.113612,0.1704181 -0.227225,0.3408362 -0.340837,0.5112517 -0.05681,0 -0.113612,0 -0.170415,0 -0.05681,0.1136121 -0.113612,0.2272242 -0.170418,0.3408363 0,0.056806 0,0.113612 0,0.1704154 -0.05681,0 -0.113612,0 -0.170418,0 0,0.056806 0,0.1136121 0,0.1704182 -0.05681,0.056806 -0.113612,0.113612 -0.170416,0.1704181 0,0.056806 0,0.1136121 0,0.1704155 -0.113612,0 -0.227224,0 -0.340836,0 0,0.056806 0,0.113612 0,0.1704181 -0.05681,0.056806 -0.113612,0.1136121 -0.170416,0.1704181 -0.05681,0.056806 -0.113612,0.1136121 -0.170418,0.1704155 -0.227224,0.2272242 -0.454445,0.4544457 -0.68167,0.6816698 -0.05681,0 -0.113609,0 -0.170415,0 0,0.1136121 0,0.2272242 0,0.3408336 -0.113612,0.056806 -0.227224,0.1136121 -0.340836,0.17041816 0,0.17041812 0,0.3408336 0,0.51125172 -0.05681,0 -0.11361,0 -0.170416,0 0,0.056806 0,0.11361208 0,0.17041812 -0.05681,0 -0.113612,0 -0.170418,0 0,0.056806 0,0.11360944 0,0.17041548 -0.05681,0 -0.113612,0 -0.170418,0 0,0.11361208 0,0.22722416 0,0.34083624 -0.05681,0.056806 -0.113609,0.11360944 -0.170415,0.17041548 -0.113613,0.11361208 -0.227225,0.22722416 -0.340837,0.34083625 -0.170415,0.11360943 -0.340833,0.22722151 -0.511251,0.34083355 0,0.1136121 0,0.2272242 0,0.3408336 -0.05681,0.056806 -0.11361,0.1136121 -0.170416,0.1704182 -0.05681,0.056806 -0.113612,0.1136121 -0.170418,0.1704181 -0.05681,0 -0.113612,0 -0.170418,0 -0.05681,0.1136094 -0.11361,0.2272215 -0.170416,0.3408336 -0.05681,0.056806 -0.113612,0.1136121 -0.170418,0.1704181 0,0.056806 0,0.1136095 0,0.1704155 -0.05681,0 -0.113612,0 -0.170418,0 0,0.1704181 0,0.3408362 0,0.5112517 -0.113609,0.056806 -0.227221,0.1136121 -0.340833,0.1704181 0,0.2840276 0,0.5680578 0,0.8520854 -0.113613,0.113612 -0.227225,0.2272241 -0.340834,0.3408362 0,0.2272215 0,0.4544457 0,0.6816672 0,0.2840302 0,0.5680578 0,0.852088 0.05681,0.1136094 0.113609,0.2272215 0.170415,0.3408336 0,0.1136121 0,0.2272215 0,0.3408336 0,0.056806 0,0.1136121 0,0.1704181 0.05681,0.056806 0.113613,0.1136121 0.170419,0.1704181 0,0.2840276 0,0.5680551 0,0.8520853 0,0.2272216 0,0.4544457 0,0.6816672 0,0.1136121 0,0.2272242 0,0.3408363 -0.05681,0.1136121 -0.113613,0.2272215 -0.170419,0.3408336 0,0.056806 0,0.1136121 0,0.1704181 -0.05681,0.056806 -0.113609,0.1136121 -0.170415,0.1704155 0,0.056806 0,0.1136121 0,0.1704181 C 12.522,9.7443403 12.351582,9.9147558 12.181166,10.085174 Z" />
      <path
         style="fill:#341806;fill-opacity:1;fill-rule:evenodd;stroke:none;stroke-width:0.264583px;stroke-linecap:butt;stroke-linejoin:miter;stroke-opacity:1"
         d="m 22.832242,-26.128487 c 0.312432,0.08521 1.050908,0.08521 1.533756,0.170418 0.482848,0.08521 0.710071,0.255625 0.880488,0.39764 0.170418,0.142014 0.284028,0.255625 0.340834,0.340836 0.05681,0.08521 0.05681,0.142013 0.113611,0.198818 0.05681,0.05681 0.170419,0.113612 0.227224,0.170419 0.05681,0.05681 0.05681,0.113609 0.08521,0.170417 0.0284,0.05681 0.08521,0.113611 0.142013,0.198819 0.05681,0.08521 0.113612,0.198819 0.17042,0.28403 0.05681,0.08521 0.113608,0.142013 0.22722,0.255624 0.113611,0.113612 0.284029,0.28403 0.39764,0.397641 0.113612,0.113611 0.170418,0.170416 0.198821,0.227223 0.0284,0.05681 0.0284,0.113611 0.08521,0.255625 0.05681,0.142014 0.170417,0.369238 0.227222,0.511249 0.05681,0.142012 0.05681,0.198822 0.08521,0.25563 0.0284,0.05681 0.08521,0.11361 0.142013,0.227223 0.05681,0.113612 0.113612,0.284027 0.142016,0.397641 0.0284,0.113614 0.0284,0.170416 0.05681,0.227221 0.0284,0.05681 0.08521,0.11361 0.113609,0.170418 0.0284,0.05681 0.0284,0.11361 0.05681,0.19882 0.0284,0.08521 0.08521,0.198818 0.113611,0.31243 0.0284,0.113612 0.0284,0.227224 0.0284,0.369238 0,0.142014 0,0.312432 0.0284,0.48285 0.0284,0.170417 0.08521,0.340834 0.142015,0.539654 0.05681,0.19882 0.113611,0.426043 0.170417,0.653266 0.05681,0.227224 0.113611,0.454445 0.170418,0.624864 0.05681,0.170418 0.113611,0.284026 0.142014,0.426042 0.0284,0.142015 0.0284,0.31243 0.05681,0.454446 0.0284,0.142016 0.08521,0.255625 0.142013,0.369237 0.05681,0.113612 0.113612,0.227223 0.170418,0.340836 0.05681,0.113612 0.113612,0.227221 0.17042,0.284027 0.05681,0.05681 0.113607,0.05681 0.170413,0.142016 0.05681,0.08521 0.113612,0.255623 0.17042,0.369237 0.05681,0.113614 0.11361,0.170416 0.198818,0.31243 0.08521,0.142014 0.198821,0.369238 0.284031,0.482849 0.08521,0.113611 0.142013,0.113611 0.170416,0.142016 0.0284,0.0284 0.0284,0.08521 0.05681,0.142013 0.0284,0.05681 0.08521,0.113612 0.142014,0.19882 0.05681,0.08521 0.113612,0.198819 0.170419,0.312432 0.05681,0.113613 0.113612,0.227224 0.142014,0.312433 0.0284,0.08521 0.0284,0.142012 0.08521,0.22722 0.05681,0.08521 0.170417,0.198821 0.227223,0.284031 0.05681,0.08521 0.05681,0.142013 0.08521,0.198821 0.02841,0.05681 0.08521,0.11361 0.198819,0.227221 0.11361,0.113611 0.284028,0.284029 0.369237,0.397643 0.08521,0.113614 0.08521,0.170413 0.19882,0.255622 0.113611,0.08521 0.340834,0.198822 0.482851,0.284033 0.142016,0.08521 0.198817,0.142011 0.284027,0.198817 0.08521,0.05681 0.198818,0.113611 0.369236,0.227223 0.170418,0.113612 0.39764,0.284028 0.653266,0.369237 0.255626,0.08521 0.539656,0.08521 0.738476,0.142015 0.19882,0.05681 0.312431,0.170416 0.454445,0.227221 0.142014,0.05681 0.312432,0.05681 0.426045,0.08521 0.113613,0.02841 0.170415,0.08521 0.255624,0.113611 0.08521,0.0284 0.198821,0.0284 0.312433,0.05681 0.113611,0.0284 0.227222,0.08521 0.340834,0.113611 0.113612,0.0284 0.227221,0.0284 0.312432,0.0284 0.08521,0 0.142013,0 0.255624,0.0568 0.11361,0.05681 0.284029,0.170416 0.426044,0.255625 0.142015,0.085209 0.255625,0.142015 0.39764,0.1988208 0.142014,0.056806 0.31243,0.1136105 0.511251,0.1988197 0.198822,0.085209 0.426043,0.1988203 0.596461,0.2556264 0.170418,0.056806 0.284028,0.056806 0.369237,0.085209 0.08521,0.028403 0.142015,0.085207 0.227224,0.1136097 0.08521,0.028403 0.198819,0.028403 0.369237,0.1136118 0.170418,0.085209 0.39764,0.2556256 0.568057,0.3408342 0.170416,0.085209 0.284028,0.085209 0.39764,0.1136116 0.113612,0.028403 0.227224,0.085209 0.340835,0.1136123 0.113611,0.028403 0.227223,0.028403 0.312434,0.028403 0.08521,0 0.14201,0 0.198817,0.028404 0.05681,0.028404 0.113611,0.085208 0.19882,0.1704167 0.08521,0.085209 0.19882,0.1988206 0.28403,0.2840299 0.08521,0.085209 0.142013,0.1420132 0.31243,0.2272216 0.170416,0.085208 0.454447,0.1988202 0.624866,0.2556258 0.170419,0.056806 0.227221,0.056806 0.31243,0.1136112 0.08521,0.056806 0.198819,0.1704164 0.28403,0.2272222 0.08521,0.056806 0.142013,0.056806 0.255624,0.1136117 0.113611,0.056806 0.284029,0.1704183 0.397642,0.2272242 0.113614,0.056806 0.170415,0.056806 0.255623,0.1136113 0.08521,0.056805 0.198821,0.1704165 0.312432,0.2272224 0.113612,0.056806 0.227224,0.056806 0.312435,0.056806 0.08521,0 0.142012,0 0.198818,0.056807 0.05681,0.056807 0.113611,0.1704149 0.198819,0.2272208 0.08521,0.056806 0.19882,0.056806 0.255626,0.085209 0.05681,0.028403 0.05681,0.085209 0.113612,0.1136122 0.05681,0.028403 0.170417,0.028403 0.255627,0.056807 0.08521,0.028404 0.142014,0.085207 0.227222,0.1420124 0.08521,0.056805 0.19882,0.1136115 0.284029,0.1704185 0.08521,0.056807 0.142014,0.1136113 0.198821,0.1420141 0.05681,0.028403 0.11361,0.028403 0.142013,0.056806 0.0284,0.028403 0.0284,0.085209 0.0568,0.1136108 0.0284,0.028402 0.08521,0.028402 0.142019,0.028402 0.05681,0 0.113609,0 0.113607,0 -2e-6,0 -0.0568,0 -0.113609,-0.056806 -0.05681,-0.056806 -0.113611,-0.1704162 -0.227223,-0.2840279 -0.113612,-0.1136117 -0.284029,-0.2272222 -0.397641,-0.3408348 -0.113612,-0.1136125 -0.170416,-0.2272228 -0.227224,-0.2840289 -0.05681,-0.056806 -0.11361,-0.056806 -0.142013,-0.085208 -0.0284,-0.028402 -0.0284,-0.085208 -0.05681,-0.1136109 -0.0284,-0.028403 -0.08521,-0.028403 -0.170415,-0.056806 -0.08521,-0.028403 -0.19882,-0.085209 -0.312432,-0.1704182 -0.113611,-0.085209 -0.227222,-0.1988188 -0.312433,-0.2556247 -0.08521,-0.056806 -0.142012,-0.056806 -0.227221,-0.1136116 -0.08521,-0.056806 -0.198821,-0.1704178 -0.312432,-0.2272228 -0.113611,-0.056805 -0.227222,-0.056805 -0.340834,-0.1136111 -0.113611,-0.056806 -0.227223,-0.1704183 -0.340834,-0.2272243 -0.113612,-0.056806 -0.227223,-0.056806 -0.340834,-0.1704167 -0.113612,-0.1136108 -0.227224,-0.3408349 -0.340835,-0.4828487 -0.113612,-0.1420139 -0.227223,-0.1988197 -0.312433,-0.255627 -0.08521,-0.056807 -0.142012,-0.1136106 -0.19882,-0.1420138 -0.05681,-0.028403 -0.11361,-0.028403 -0.142013,-0.056806 -0.0284,-0.028403 -0.0284,-0.085209 -0.08521,-0.1420139 -0.05681,-0.056805 -0.170418,-0.1136112 -0.227223,-0.1704169 -0.0568,-0.056806 -0.0568,-0.1136119 -0.113611,-0.1420149 -0.05681,-0.028403 -0.170418,-0.028403 -0.284029,-0.085208 -0.113612,-0.056805 -0.227222,-0.1704159 -0.340835,-0.2840282 -0.113612,-0.1136124 -0.227224,-0.2272245 -0.312432,-0.3124332 -0.08521,-0.085209 -0.142013,-0.1420128 -0.340833,-0.255624 -0.198821,-0.113612 -0.539655,-0.284029 -0.738478,-0.397643 -0.198822,-0.113613 -0.255624,-0.170416 -0.340832,-0.198819 -0.08521,-0.0284 -0.198819,-0.0284 -0.369236,-0.08521 -0.170418,-0.05681 -0.397641,-0.170417 -0.596461,-0.227222 -0.19882,-0.05681 -0.369238,-0.05681 -0.568058,-0.113611 -0.19882,-0.05681 -0.426044,-0.170418 -0.596461,-0.227224 -0.170416,-0.05681 -0.284028,-0.05681 -0.454445,-0.08521 -0.170418,-0.0284 -0.397641,-0.08521 -0.539657,-0.113612 -0.142016,-0.0284 -0.198818,-0.0284 -0.284028,-0.05681 -0.08521,-0.0284 -0.198817,-0.08521 -0.284028,-0.113611 -0.08521,-0.0284 -0.142013,-0.0284 -0.227223,-0.05681 -0.08521,-0.0284 -0.198818,-0.08521 -0.31243,-0.113609 -0.113612,-0.0284 -0.227224,-0.0284 -0.369238,-0.0284 -0.142014,0 -0.312432,0 -0.454445,0 -0.142014,0 -0.255627,0 -0.369239,-0.05681 -0.113612,-0.05681 -0.227222,-0.170417 -0.340833,-0.227224 -0.113612,-0.05681 -0.227224,-0.05681 -0.312434,-0.08521 -0.08521,-0.0284 -0.142012,-0.08521 -0.19882,-0.113607 -0.05681,-0.0284 -0.11361,-0.0284 -0.170418,-0.05681 -0.05681,-0.0284 -0.113609,-0.08521 -0.170417,-0.11361 -0.05681,-0.0284 -0.113609,-0.0284 -0.170417,-0.05681 -0.05681,-0.0284 -0.11361,-0.08521 -0.170418,-0.11361 -0.05681,-0.0284 -0.11361,-0.0284 -0.142011,-0.05681 -0.0284,-0.0284 -0.0284,-0.08521 -0.08521,-0.142011 -0.05681,-0.05681 -0.170417,-0.113612 -0.284029,-0.198821 -0.113613,-0.08521 -0.227223,-0.19882 -0.340835,-0.255625 -0.113611,-0.05681 -0.227223,-0.05681 -0.284028,-0.08521 -0.0568,-0.0284 -0.0568,-0.08521 -0.113611,-0.170416 -0.05681,-0.08521 -0.170419,-0.19882 -0.227224,-0.28403 -0.05681,-0.08521 -0.05681,-0.142012 -0.113612,-0.170415 -0.05681,-0.0284 -0.170415,-0.0284 -0.227221,-0.05681 -0.05681,-0.0284 -0.05681,-0.08521 -0.142015,-0.198818 -0.08521,-0.113611 -0.255625,-0.284028 -0.340834,-0.426042 -0.08521,-0.142014 -0.08521,-0.255626 -0.142015,-0.397641 -0.05681,-0.142015 -0.170417,-0.312432 -0.227222,-0.511252 -0.05681,-0.198821 -0.05681,-0.426042 -0.08521,-0.624863 -0.0284,-0.19882 -0.08521,-0.369237 -0.113612,-0.511251 -0.0284,-0.142014 -0.0284,-0.255626 -0.05681,-0.369239 -0.0284,-0.113612 -0.08521,-0.22722 -0.113611,-0.312431 -0.0284,-0.08521 -0.0284,-0.142014 -0.08521,-0.227222 -0.05681,-0.08521 -0.170416,-0.198819 -0.227222,-0.28403 -0.05681,-0.08521 -0.05681,-0.142013 -0.05681,-0.284027 0,-0.142014 0,-0.369238 -0.0284,-0.539656 -0.0284,-0.170418 -0.08521,-0.284028 -0.142017,-0.369239 -0.05681,-0.08521 -0.113608,-0.142012 -0.14201,-0.255623 -0.0284,-0.113611 -0.0284,-0.284029 -0.05681,-0.397641 -0.0284,-0.113612 -0.08521,-0.170417 -0.113612,-0.255625 -0.0284,-0.08521 -0.0284,-0.198821 -0.05681,-0.284029 -0.0284,-0.08521 -0.08521,-0.142015 -0.113613,-0.227223 -0.0284,-0.08521 -0.0284,-0.198821 -0.08521,-0.369237 -0.05681,-0.170417 -0.170417,-0.397641 -0.227222,-0.568058 -0.05681,-0.170417 -0.05681,-0.284029 -0.08521,-0.369239 -0.0284,-0.08521 -0.08521,-0.142012 -0.170416,-0.31243 -0.08521,-0.170417 -0.19882,-0.454446 -0.284031,-0.596459 -0.08521,-0.142014 -0.142012,-0.142014 -0.170415,-0.19882 -0.0284,-0.05681 -0.0284,-0.170418 -0.113611,-0.312432 -0.08521,-0.142014 -0.255626,-0.312432 -0.340835,-0.454447 -0.08521,-0.142015 -0.08521,-0.255625 -0.142014,-0.369236 -0.05681,-0.113611 -0.170418,-0.227223 -0.227223,-0.312434 -0.05681,-0.08521 -0.05681,-0.142013 -0.08521,-0.170416 -0.0284,-0.0284 -0.08521,-0.0284 -0.11361,-0.05681 -0.0284,-0.02841 -0.0284,-0.08521 -0.05681,-0.142015 -0.0284,-0.05681 -0.08521,-0.113609 -0.113609,-0.170416 -0.0284,-0.05681 -0.0284,-0.113609 -0.08521,-0.198818 -0.05681,-0.08521 -0.170419,-0.19882 -0.227224,-0.284031 -0.05681,-0.08521 -0.05681,-0.142012 -0.142014,-0.22722 -0.08521,-0.08521 -0.255627,-0.198821 -0.340835,-0.312432 -0.08521,-0.113612 -0.08521,-0.227224 -0.142014,-0.28403 -0.0568,-0.05681 -0.170416,-0.05681 -0.255626,-0.113612 -0.08521,-0.05681 -0.142015,-0.170415 -0.227222,-0.227221 -0.08521,-0.05681 -0.19882,-0.05681 -0.284031,-0.08521 -0.08521,-0.0284 -0.142013,-0.08521 -0.198816,-0.113611 -0.0568,-0.0284 -0.113613,-0.0284 -0.170421,-0.05681 -0.05681,-0.0284 -0.11361,-0.08521 -0.255623,-0.113607 -0.142014,-0.0284 -0.369239,-0.0284 -0.511251,-0.0284 -0.142012,0 -0.198821,0 -0.255629,0 -0.05681,0 -0.11361,0 -0.142013,0.02841 -0.0284,0.0284 -0.0284,0.0852 -0.08521,0.113607 -0.05681,0.0284 -0.170416,0.0284 -0.255626,0.08521 -0.08521,0.05681 -0.142014,0.170418 -0.227223,0.227224 -0.08521,0.05681 -0.198819,0.05681 -0.312431,0.142014 -0.113611,0.08521 -0.227224,0.255625 0.08521,0.340834 z"
         id="path37"
         inkscape:path-effect="#path-effect37"
         inkscape:original-d="m 22.406198,-26.043278 c 0.738476,0 1.476952,0 2.215425,0 0.227224,0.170416 0.454446,0.340834 0.68167,0.511252 0.113612,0.11361 0.227221,0.227222 0.340833,0.340834 0,0.05681 0,0.113612 0,0.170418 0.113613,0.0568 0.227225,0.113609 0.340834,0.170415 0,0.05681 0,0.113612 0,0.170418 0.05681,0.05681 0.113612,0.113613 0.170418,0.170419 0.05681,0.113609 0.113612,0.227221 0.170418,0.340833 0.05681,0.05681 0.11361,0.113612 0.170416,0.170418 0.170418,0.170416 0.340836,0.340834 0.511252,0.511252 0.05681,0.0568 0.113612,0.113609 0.170418,0.170415 0,0.05681 0,0.113613 0,0.170419 0.113612,0.227221 0.227224,0.454445 0.340833,0.681669 0,0.0568 0,0.11361 0,0.170416 0.05681,0.05681 0.113612,0.113612 0.170418,0.170418 0.05681,0.170418 0.113612,0.340834 0.170419,0.511252 0,0.05681 0,0.113612 0,0.170418 0.05681,0.0568 0.113609,0.113609 0.170415,0.170415 0,0.05681 0,0.113612 0,0.170418 0.05681,0.113613 0.113612,0.227222 0.170418,0.340834 0,0.113612 0,0.227224 0,0.340834 0,0.170418 0,0.340836 0,0.511251 0.05681,0.170419 0.113612,0.340837 0.170418,0.511252 0.05681,0.227224 0.11361,0.454448 0.170416,0.68167 0.05681,0.227224 0.113612,0.454446 0.170418,0.68167 0.05681,0.113612 0.113612,0.227221 0.170418,0.340833 0,0.170419 0,0.340834 0,0.511252 0.05681,0.113612 0.113609,0.227224 0.170415,0.340834 0.05681,0.113612 0.113613,0.227224 0.170419,0.340836 0.05681,0.113612 0.113612,0.227222 0.170418,0.340834 0.05681,0 0.113609,0 0.170415,0 0.05681,0.170418 0.113612,0.340833 0.170418,0.511251 0.05681,0.05681 0.113612,0.113612 0.170418,0.170418 0.11361,0.227222 0.227222,0.454446 0.340834,0.681668 0.05681,0 0.113612,0 0.170418,0 0,0.05681 0,0.113612 0,0.170418 0.0568,0.05681 0.11361,0.113612 0.170416,0.170418 0.05681,0.113609 0.113612,0.227221 0.170418,0.340833 0.05681,0.113613 0.113612,0.227225 0.170418,0.340834 0,0.05681 0,0.113612 0,0.170418 0.113609,0.113612 0.227221,0.227224 0.340833,0.340834 0,0.05681 0,0.113612 0,0.170418 0.05681,0.05681 0.113613,0.113612 0.170419,0.170418 0.170415,0.170416 0.340833,0.340834 0.511251,0.511252 0,0.05681 0,0.113609 0,0.170415 0.227222,0.113612 0.454446,0.227224 0.681667,0.340837 0.05681,0.05681 0.113613,0.113609 0.170419,0.170415 0.113612,0.05681 0.227221,0.113612 0.340833,0.170418 0.227224,0.170418 0.454446,0.340834 0.68167,0.511252 0.284028,0 0.568058,0 0.852085,0 0.113612,0.113612 0.227225,0.227221 0.340837,0.340833 0.170415,0 0.340833,0 0.511249,0 0.05681,0.05681 0.113612,0.113613 0.170418,0.170419 0.113612,0 0.227224,0 0.340833,0 0.113613,0.05681 0.227225,0.113612 0.340837,0.170418 0.113612,0 0.227221,0 0.340833,0 0.05681,0 0.113612,0 0.170418,0 0.170416,0.113609 0.340834,0.227221 0.511252,0.340833 0.113612,0.056806 0.227222,0.1136124 0.340834,0.1704184 0.170418,0.056803 0.340833,0.1136094 0.511251,0.1704155 0.227225,0.1136121 0.454446,0.2272241 0.68167,0.3408362 0.113612,0 0.227222,0 0.340834,0 0.05681,0.056803 0.113612,0.1136095 0.170418,0.1704155 0.113612,0 0.227222,0 0.340834,0 0.227224,0.1704181 0.454445,0.3408362 0.681669,0.5112517 0.11361,0 0.227222,0 0.340834,0 0.113612,0.056806 0.227224,0.1136121 0.340834,0.1704181 0.113612,0 0.227224,0 0.340836,0 0.05681,0 0.113609,0 0.170415,0 0.05681,0.056806 0.113612,0.1136121 0.170418,0.1704182 0.113613,0.1136094 0.227225,0.2272215 0.340834,0.3408336 0.05681,0.056806 0.113612,0.113612 0.170418,0.1704181 0.284028,0.1136094 0.568058,0.2272215 0.852086,0.3408336 0.05681,0 0.113612,0 0.170418,0 0.113611,0.1136121 0.227223,0.2272215 0.340834,0.3408336 0.05681,0 0.113612,0 0.170417,0 0.170417,0.1136121 0.340835,0.2272241 0.511252,0.3408362 0.05681,0 0.113611,0 0.170417,0 0.113612,0.1136095 0.227223,0.2272215 0.340835,0.3408336 0.113611,0 0.227223,0 0.340834,0 0.05681,0 0.113612,0 0.170417,0 0.05681,0.1136121 0.113612,0.2272215 0.170418,0.3408336 0.113611,0 0.227222,0 0.340834,0 0,0.056806 0,0.1136121 0,0.1704182 0.113612,0 0.227223,0 0.340834,0 0.05681,0.056806 0.113612,0.113612 0.170418,0.1704154 0.113611,0.056806 0.227223,0.1136121 0.340834,0.1704182 0.05681,0.056806 0.113612,0.113612 0.170417,0.1704181 0.05681,0 0.113612,0 0.170418,0 0,0.056806 0,0.1136121 0,0.1704155 0.0568,0 0.113611,0 0.170417,0 0.05681,0 0.113611,0 0.170417,0 -0.05681,0 -0.113611,0 -0.170417,0 -0.05681,-0.1136095 -0.113612,-0.2272216 -0.170417,-0.3408336 -0.170418,-0.1136121 -0.340835,-0.2272216 -0.511252,-0.3408336 -0.05681,-0.1136121 -0.113611,-0.2272242 -0.170417,-0.3408363 -0.05681,0 -0.113612,0 -0.170418,0 0,-0.056803 0,-0.1136094 0,-0.1704155 -0.05681,0 -0.113611,0 -0.170417,0 -0.113611,-0.056806 -0.227223,-0.1136121 -0.340834,-0.1704181 -0.113612,-0.1136121 -0.227223,-0.2272215 -0.340835,-0.3408336 -0.05681,0 -0.113611,0 -0.170417,0 -0.113611,-0.1136121 -0.227223,-0.2272242 -0.340834,-0.3408336 -0.113612,0 -0.227223,0 -0.340835,0 -0.113611,-0.1136121 -0.227223,-0.2272242 -0.340834,-0.3408362 -0.113612,0 -0.227223,0 -0.340835,0 -0.113611,-0.2272216 -0.227223,-0.4544457 -0.340834,-0.6816672 -0.113612,-0.056806 -0.227223,-0.1136121 -0.340835,-0.1704182 -0.05681,-0.056806 -0.11361,-0.113612 -0.170416,-0.1704181 -0.05681,0 -0.113612,0 -0.170418,0 0,-0.056806 0,-0.1136121 0,-0.1704155 -0.113612,-0.056806 -0.227224,-0.113612 -0.340834,-0.1704181 0,-0.056806 0,-0.1136121 0,-0.1704181 -0.113612,0 -0.227224,0 -0.340836,0 -0.113609,-0.1136121 -0.227221,-0.2272215 -0.340834,-0.3408336 -0.113612,-0.1136121 -0.227224,-0.2272242 -0.340833,-0.3408336 -0.05681,-0.056806 -0.113612,-0.1136121 -0.170418,-0.1704184 -0.340834,-0.170418 -0.68167,-0.340833 -1.022504,-0.511251 -0.05681,-0.05681 -0.113612,-0.113613 -0.170418,-0.170419 -0.113609,0 -0.227221,0 -0.340833,0 -0.227222,-0.113612 -0.454446,-0.227221 -0.68167,-0.340833 -0.170416,0 -0.340834,0 -0.511252,0 -0.227221,-0.113612 -0.454446,-0.227224 -0.681667,-0.340834 -0.113612,0 -0.227224,0 -0.340836,0 -0.227222,-0.05681 -0.454446,-0.113612 -0.681668,-0.170418 -0.05681,0 -0.113612,0 -0.170418,0 -0.113612,-0.05681 -0.227221,-0.113612 -0.340833,-0.170418 -0.05681,0 -0.113612,0 -0.170418,0 -0.113613,-0.05681 -0.227222,-0.113609 -0.340834,-0.170415 -0.113612,0 -0.227224,0 -0.340836,0 -0.170416,0 -0.340834,0 -0.511249,0 -0.113612,0 -0.227225,0 -0.340837,0 -0.113612,-0.113613 -0.227221,-0.227225 -0.340833,-0.340837 -0.113612,0 -0.227224,0 -0.340834,0 -0.05681,-0.05681 -0.113612,-0.113609 -0.170418,-0.170415 -0.05681,0 -0.113612,0 -0.170418,0 -0.05681,-0.05681 -0.113612,-0.113612 -0.170416,-0.170418 -0.05681,0 -0.113612,0 -0.170418,0 -0.05681,-0.05681 -0.113612,-0.113612 -0.170418,-0.170418 -0.05681,0 -0.113612,0 -0.170415,0 0,-0.05681 0,-0.11361 0,-0.170416 -0.113612,-0.05681 -0.227224,-0.113612 -0.340837,-0.170418 -0.113612,-0.113612 -0.227221,-0.227224 -0.340833,-0.340834 -0.113612,0 -0.227224,0 -0.340834,0 0,-0.05681 0,-0.113612 0,-0.170418 -0.113612,-0.113612 -0.227224,-0.227224 -0.340836,-0.340833 0,-0.05681 0,-0.113612 0,-0.170419 -0.113612,0 -0.227221,0 -0.340834,0 0,-0.05681 0,-0.113612 0,-0.170418 -0.170418,-0.170415 -0.340833,-0.340833 -0.511251,-0.511251 0,-0.11361 0,-0.227222 0,-0.340834 -0.113612,-0.170418 -0.227224,-0.340834 -0.340834,-0.511252 0,-0.227224 0,-0.454445 0,-0.68167 -0.05681,-0.170415 -0.113612,-0.340833 -0.170418,-0.511251 0,-0.11361 0,-0.227222 0,-0.340834 -0.05681,-0.113612 -0.113612,-0.227221 -0.170418,-0.340833 0,-0.05681 0,-0.113613 0,-0.170419 -0.11361,-0.113612 -0.227222,-0.227221 -0.340834,-0.340833 0,-0.05681 0,-0.113612 0,-0.170418 0,-0.227222 0,-0.454446 0,-0.68167 -0.05681,-0.11361 -0.113612,-0.227222 -0.170418,-0.340834 -0.05681,-0.05681 -0.113609,-0.113612 -0.170415,-0.170418 0,-0.170415 0,-0.340833 0,-0.511252 -0.05681,-0.0568 -0.113612,-0.113609 -0.170418,-0.170415 0,-0.113612 0,-0.227224 0,-0.340836 -0.05681,-0.0568 -0.113613,-0.11361 -0.170419,-0.170416 0,-0.113612 0,-0.227224 0,-0.340833 -0.113609,-0.227225 -0.227221,-0.454449 -0.340833,-0.68167 0,-0.113612 0,-0.227224 0,-0.340834 -0.05681,-0.05681 -0.113612,-0.113612 -0.170418,-0.170418 -0.11361,-0.28403 -0.227222,-0.568058 -0.340834,-0.852085 -0.05681,0 -0.113612,0 -0.170418,0 0,-0.113612 0,-0.227224 0,-0.340837 -0.170415,-0.170415 -0.340834,-0.340833 -0.511252,-0.511251 0,-0.113612 0,-0.227222 0,-0.340834 -0.113609,-0.113612 -0.227221,-0.227224 -0.340833,-0.340833 0,-0.05681 0,-0.113613 0,-0.170419 -0.05681,0 -0.113612,0 -0.170418,0 0,-0.05681 0,-0.113612 0,-0.170418 -0.05681,-0.05681 -0.11361,-0.113612 -0.170416,-0.170415 0,-0.05681 0,-0.113612 0,-0.170418 -0.113612,-0.113612 -0.227224,-0.227224 -0.340836,-0.340834 0,-0.05681 0,-0.113612 0,-0.170418 -0.170416,-0.113612 -0.340834,-0.227224 -0.511252,-0.340834 0,-0.113612 0,-0.227224 0,-0.340836 -0.113609,0 -0.227221,0 -0.340834,0 -0.05681,-0.113609 -0.113612,-0.227221 -0.170418,-0.340833 -0.113609,0 -0.227221,0 -0.340833,0 -0.05681,-0.05681 -0.113612,-0.113613 -0.170418,-0.170419 -0.0568,0 -0.11361,0 -0.170416,0 -0.05681,-0.05681 -0.113612,-0.113609 -0.170418,-0.170415 -0.227221,0 -0.454446,0 -0.68167,0 -0.0568,0 -0.113609,0 -0.170415,0 -0.05681,0 -0.113612,0 -0.170418,0 0,0.05681 0,0.113609 0,0.170415 -0.113612,0 -0.227222,0 -0.340834,0 -0.05681,0.113613 -0.113612,0.227225 -0.170418,0.340837 -0.113612,0 -0.227222,0 -0.340834,0 -0.113612,0.170415 -0.227224,0.340833 -0.340836,0.511251 z" />
      <path
         style="fill:#341806;fill-opacity:1;fill-rule:evenodd;stroke:none;stroke-width:0.264583px;stroke-linecap:butt;stroke-linejoin:miter;stroke-opacity:1"
         d="m 54.813876,16.248598 c -0.142014,0.0284 -0.426043,-0.08521 -0.738474,-0.312432 -0.312432,-0.227224 -0.653266,-0.568058 -1.164518,-0.908893 -0.511252,-0.340834 -1.19292,-0.681668 -1.846187,-0.9941 -0.653266,-0.312431 -1.278129,-0.59646 -2.016604,-0.79528 -0.738475,-0.19882 -1.590561,-0.312431 -2.07341,-0.426042 -0.482848,-0.113612 -0.59646,-0.227224 -0.79528,-0.340836 -0.198819,-0.113611 -0.482849,-0.227223 -0.795281,-0.369237 -0.312431,-0.142014 -0.653265,-0.312431 -0.965697,-0.426043 -0.312433,-0.113612 -0.59646,-0.170418 -0.823682,-0.227223 -0.227223,-0.05681 -0.397642,-0.113611 -0.568059,-0.170417 -0.170418,-0.05681 -0.340835,-0.113612 -0.596461,-0.227224 -0.255626,-0.113612 -0.596459,-0.284028 -0.795281,-0.397642 -0.198822,-0.113613 -0.255624,-0.170415 -0.369236,-0.198818 -0.113612,-0.0284 -0.284028,-0.0284 -0.39764,-0.08521 -0.113612,-0.05681 -0.170418,-0.170416 -0.227224,-0.284029 -0.05681,-0.1136128 -0.11361,-0.2272205 -0.142013,-0.3408326 -0.0284,-0.1136121 -0.0284,-0.2272242 -0.0284,-0.340835 0,-0.1136107 0,-0.2272228 0,-0.5680578 0,-0.3408349 0,-0.9088926 0,-1.2781293 0,-0.3692366 0,-0.5396547 -0.0284,-0.6532655 -0.0284,-0.1136107 -0.08521,-0.1704168 -0.142015,-0.2556258 -0.05681,-0.085209 -0.113613,-0.1988208 -0.142015,-0.3976408 -0.0284,-0.19882 -0.0284,-0.4828476 -0.0284,-0.6532657 0,-0.1704181 0,-0.2272242 -0.0284,-0.2840301 -0.0284,-0.056806 -0.08521,-0.113609 -0.113608,-0.2272214 -0.0284,-0.1136123 -0.0284,-0.2840278 -0.0284,-0.4260429 0,-0.1420151 0,-0.2556272 0,-0.397641 0,-0.1420137 0,-0.3124318 0,-0.4260426 0,-0.1136107 0,-0.1704168 0.0284,-0.1988198 0.0284,-0.028403 0.0852,-0.028403 0.142011,1e-6 0.05681,0.028404 0.113611,0.085208 0.170419,0.1136111 0.05681,0.028403 0.11361,0.028403 0.170416,0.056806 0.05681,0.028403 0.11361,0.085206 0.170417,0.1420133 0.05681,0.056807 0.113611,0.113611 0.142014,0.1704171 0.0284,0.056806 0.0284,0.1136121 0.0284,0.1704166 0,0.056805 0,0.1136109 0,0.312432 0,0.1988212 0,0.5396548 0,0.7952807 0,0.2556259 0,0.426044 0.0284,0.5112517 0.02841,0.085208 0.08521,0.085208 0.11361,0.2272229 0.0284,0.1420151 0.0284,0.4260426 0.0284,0.6532654 0,0.2272229 0,0.397641 0.0284,0.5112529 0.0284,0.1136119 0.08521,0.1704154 0.113609,0.2272215 0.0284,0.056806 0.0284,0.1136123 0.0284,0.1704183 0,0.056806 0,0.1136121 0,0.2840289 0,0.1704168 0,0.4544444 0.05681,0.6816675 0.0568,0.2272231 0.170418,0.397641 0.255628,0.5112539 0.08521,0.113613 0.142012,0.1704156 0.19882,0.198818 0.05681,0.028402 0.113609,0.028402 0.170416,0.056806 0.05681,0.028404 0.113612,0.085208 0.17042,0.1136113 0.05681,0.028403 0.113607,0.028403 0.14201,0.056806 0.0284,0.028403 0.0284,0.085209 0.08521,0.1136121 0.05681,0.028403 0.170418,0.028403 0.255628,0.056807 0.08521,0.028404 0.142013,0.085207 0.19882,0.1420132 0.05681,0.056806 0.11361,0.1136105 0.142013,0.1704185 0.0284,0.05681 0.0284,0.11361 0.05681,0.142013 0.0284,0.0284 0.08521,0.0284 0.142015,0.05681 0.05681,0.02841 0.113609,0.08521 0.198818,0.142012 0.08521,0.05681 0.198819,0.113611 0.255625,0.170419 0.05681,0.05681 0.05681,0.11361 0.113611,0.142013 0.05681,0.0284 0.170418,0.0284 0.255627,0.08521 0.08521,0.05681 0.142013,0.170414 0.227222,0.22722 0.08521,0.05681 0.198821,0.05681 0.28403,0.113613 0.08521,0.05681 0.142014,0.170417 0.198822,0.227222 0.05681,0.05681 0.113609,0.05681 0.142012,0.08521 0.0284,0.02841 0.0284,0.08521 0.113611,0.11361 0.08521,0.0284 0.255626,0.0284 0.369239,0.05681 0.113614,0.0284 0.170416,0.08521 0.255624,0.11361 0.08521,0.0284 0.19882,0.0284 0.284029,0.0568 0.08521,0.0284 0.142014,0.08521 0.284028,0.113611 0.142015,0.0284 0.369238,0.0284 0.568059,0.05681 0.19882,0.0284 0.369236,0.08521 0.539654,0.113612 0.170417,0.0284 0.340834,0.0284 0.482849,0.0284 0.142014,0 0.255625,0 0.340833,0.0284 0.08521,0.0284 0.142015,0.08521 0.227224,0.113612 0.08521,0.0284 0.19882,0.0284 0.340835,0.0284 0.142014,0 0.312431,0 0.454445,0 0.142015,0 0.255626,0 0.369239,0.0284 0.113612,0.0284 0.227222,0.08521 0.340833,0.113609 0.113612,0.0284 0.227223,0.0284 0.340835,0.05681 0.113613,0.0284 0.227223,0.08521 0.39764,0.170419 0.170417,0.08521 0.397641,0.198819 0.568058,0.255625 0.170417,0.0568 0.284028,0.0568 0.340834,0.08521 0.0568,0.0284 0.0568,0.08521 0.142015,0.142013 0.08521,0.05681 0.255625,0.113612 0.369236,0.198821 0.113612,0.08521 0.170417,0.198819 0.255627,0.284029 0.08521,0.08521 0.198819,0.142014 0.28403,0.198822 0.08521,0.05681 0.142012,0.113608 0.19882,0.142011 0.05681,0.0284 0.113609,0.0284 0.142012,0.05681 0.0284,0.0284 0.0284,0.08521 0.113612,0.11361 0.08521,0.0284 0.255626,0.0284 0.369238,0.08521 0.113612,0.05681 0.170417,0.170416 0.227225,0.227221 0.05681,0.05681 0.113609,0.05681 0.198817,0.05681 0.08521,0 0.19882,0 0.255626,0.0284 0.05681,0.02841 0.05681,0.08521 0.113612,0.142013 0.05681,0.05681 0.170417,0.113613 0.255628,0.170421 0.08521,0.05681 0.142011,0.113608 0.198819,0.170415 0.05681,0.05681 0.11361,0.11361 0.142013,0.170418 0.0284,0.05681 0.0284,0.11361 0.05681,0.142013 0.0284,0.0284 0.08521,0.0284 0.113609,0.05681 0.0284,0.0284 0.0284,0.08521 0.05681,0.113608 0.0284,0.0284 0.08521,0.0284 0.113609,0.05681 0.0284,0.02841 0.0284,0.08521 0.0284,0.142015 0,0.05681 0,0.11361 0,0.22722 0,0.113611 0,0.28403 -0.142014,0.312433 z"
         id="path38"
         inkscape:path-effect="#path-effect38"
         inkscape:original-d="m 54.95589,16.390613 c -0.284028,-0.113612 -0.568057,-0.227224 -0.852086,-0.340837 -0.340834,-0.340833 -0.681669,-0.681667 -1.022503,-1.022503 -0.681669,-0.340834 -1.363338,-0.681667 -2.045007,-1.022503 -0.624863,-0.284028 -1.249726,-0.568058 -1.87459,-0.852086 -0.852086,-0.113612 -1.704172,-0.227224 -2.556258,-0.340833 -0.113611,-0.113612 -0.227223,-0.227224 -0.340835,-0.340837 -0.284028,-0.113609 -0.568057,-0.227221 -0.852086,-0.340833 -0.340834,-0.170418 -0.681668,-0.340834 -1.022503,-0.511252 -0.284029,-0.05681 -0.568057,-0.113612 -0.852086,-0.170418 -0.170417,-0.0568 -0.340835,-0.113609 -0.511251,-0.170415 -0.170418,-0.05681 -0.340836,-0.113613 -0.511252,-0.170419 -0.340836,-0.170418 -0.68167,-0.340833 -1.022503,-0.511251 -0.05681,-0.05681 -0.113612,-0.113612 -0.170418,-0.170418 -0.170418,0 -0.340834,0 -0.511252,0 -0.05681,-0.11361 -0.113612,-0.227222 -0.170418,-0.340834 -0.05681,-0.1136121 -0.11361,-0.2272216 -0.170416,-0.3408337 0,-0.113612 0,-0.2272241 0,-0.3408362 0,-0.1136094 0,-0.2272215 0,-0.3408336 0,-0.5680578 0,-1.1361155 0,-1.7041733 0,-0.1704155 0,-0.3408336 0,-0.5112491 C 40.41362,6.7904421 40.356814,6.733636 40.300008,6.67683 40.243202,6.5632179 40.186396,6.4496058 40.12959,6.3359964 c 0,-0.2840302 0,-0.5680578 0,-0.852088 0,-0.056806 0,-0.1136121 0,-0.1704154 -0.05681,-0.056806 -0.113609,-0.1136121 -0.170415,-0.1704182 0,-0.1704181 0,-0.3408336 0,-0.5112517 0,-0.1136121 0,-0.2272242 0,-0.3408336 0,-0.1704181 0,-0.3408362 0,-0.5112517 0,-0.056806 0,-0.1136121 0,-0.1704181 0.05681,0 0.113609,0 0.170415,0 0.05681,0.056806 0.113612,0.113612 0.170418,0.1704181 0.05681,0 0.113612,0 0.170418,0 0.05681,0.056803 0.11361,0.1136094 0.170416,0.1704155 0.05681,0.056806 0.113612,0.113612 0.170418,0.1704181 0,0.056806 0,0.1136121 0,0.1704181 0,0.056803 0,0.1136094 0,0.1704155 0,0.3408362 0,0.6816698 0,1.0225034 0,0.1704182 0,0.3408363 0,0.5112518 0.05681,0 0.113612,0 0.170418,0 0,0.2840302 0,0.5680577 0,0.8520879 0,0.1704155 0,0.3408336 0,0.5112491 0.05681,0.056806 0.11361,0.1136121 0.170416,0.1704181 0,0.056806 0,0.1136121 0,0.1704181 0,0.056806 0,0.1136121 0,0.1704155 0,0.2840302 0,0.5680578 0,0.852088 0.113612,0.1704155 0.227224,0.3408336 0.340836,0.5112517 0.05681,0.056806 0.113609,0.1136121 0.170415,0.1704155 0.05681,0 0.113612,0 0.170418,0 0.05681,0.056806 0.113613,0.1136121 0.170419,0.1704181 0.05681,0 0.113609,0 0.170415,0 0,0.056806 0,0.1136121 0,0.1704181 0.113612,0 0.227224,0 0.340836,0 0.05681,0.056806 0.11361,0.1136121 0.170416,0.1704155 0.05681,0.056806 0.113612,0.1136122 0.170418,0.1704182 0,0.05681 0,0.113612 0,0.170418 0.05681,0 0.113612,0 0.170418,0 0.05681,0.05681 0.11361,0.113612 0.170416,0.170416 0.113612,0.05681 0.227223,0.113612 0.340835,0.170418 0,0.05681 0,0.113612 0,0.170418 0.113611,0 0.227223,0 0.340834,0 0.05681,0.113612 0.113612,0.227221 0.170417,0.340833 0.113612,0 0.227224,0 0.340835,0 0.05681,0.113612 0.113611,0.227225 0.170417,0.340834 0.05681,0 0.113612,0 0.170418,0 0,0.05681 0,0.113612 0,0.170418 0.170417,0 0.340834,0 0.511251,0 0.05681,0.05681 0.113612,0.113612 0.170417,0.170418 0.113612,0 0.227223,0 0.340835,0 0.0568,0.05681 0.113611,0.11361 0.170417,0.170416 0.227223,0 0.454446,0 0.681669,0 0.170417,0.05681 0.340834,0.113612 0.511252,0.170418 0.170417,0 0.340834,0 0.511251,0 0.113612,0 0.227223,0 0.340835,0 0.0568,0.05681 0.113611,0.113612 0.170417,0.170418 0.113612,0 0.227223,0 0.340834,0 0.170418,0 0.340835,0 0.511252,0 0.113612,0 0.227223,0 0.340835,0 0.113611,0.05681 0.227223,0.113609 0.340834,0.170415 0.113612,0 0.227223,0 0.340835,0 0.113611,0.05681 0.227223,0.113613 0.340834,0.170419 0.227223,0.113612 0.454446,0.227224 0.681669,0.340833 0.113612,0 0.227223,0 0.340834,0 0,0.05681 0,0.113612 0,0.170418 0.170418,0.05681 0.340835,0.113612 0.511252,0.170418 0.05681,0.11361 0.113612,0.227222 0.170417,0.340834 0.113612,0.05681 0.227223,0.113612 0.340835,0.170418 0.05681,0.05681 0.113611,0.11361 0.170417,0.170416 0.05681,0 0.113611,0 0.170417,0 0,0.05681 0,0.113612 0,0.170418 0.170418,0 0.340835,0 0.511252,0 0.05681,0.113612 0.113611,0.227224 0.170417,0.340833 0.05681,0 0.113612,0 0.170417,0 0.113612,0 0.227223,0 0.340835,0 0,0.05681 0,0.113612 0,0.170418 0.113611,0.05681 0.227223,0.113613 0.340834,0.170419 0.05681,0.05681 0.113612,0.113609 0.170417,0.170415 0.05681,0.05681 0.113612,0.113612 0.170418,0.170418 0,0.05681 0,0.113612 0,0.170418 0.05681,0 0.113611,0 0.170417,0 0,0.05681 0,0.11361 0,0.170416 0.05681,0 0.113611,0 0.170417,0 0,0.05681 0,0.113612 0,0.170418 0,0.05681 0,0.113612 0,0.170418 0,0.170415 0,0.340834 0,0.511252 z" />
    </g>
  </g>
</svg>
