<?xml version="1.0" encoding="UTF-8" standalone="no"?>
<!-- Created with Inkscape (http://www.inkscape.org/) -->

<svg
   width="66.494621"
   height="30.343809"
   viewBox="0 0 17.593368 8.0284661"
   version="1.1"
   id="svg1517"
   inkscape:version="1.3.2 (091e20ef0f, 2023-11-25)"
   sodipodi:docname="LRHomeInnerFireBG.svg"
   xml:space="preserve"
   xmlns:inkscape="http://www.inkscape.org/namespaces/inkscape"
   xmlns:sodipodi="http://sodipodi.sourceforge.net/DTD/sodipodi-0.dtd"
   xmlns:xlink="http://www.w3.org/1999/xlink"
   xmlns="http://www.w3.org/2000/svg"
   xmlns:svg="http://www.w3.org/2000/svg"><sodipodi:namedview
     id="namedview1519"
     pagecolor="#505050"
     bordercolor="#eeeeee"
     borderopacity="1"
     inkscape:showpageshadow="0"
     inkscape:pageopacity="0"
     inkscape:pagecheckerboard="0"
     inkscape:deskcolor="#505050"
     inkscape:document-units="mm"
     showgrid="false"
     inkscape:zoom="0.5"
     inkscape:cx="417"
     inkscape:cy="-18"
     inkscape:window-width="1366"
     inkscape:window-height="706"
     inkscape:window-x="-8"
     inkscape:window-y="-8"
     inkscape:window-maximized="1"
     inkscape:current-layer="svg1517" /><defs
     id="defs1514"><linearGradient
       id="linearGradient119"
       inkscape:collect="always"><stop
         style="stop-color:#762101;stop-opacity:1;"
         offset="0.64791325"
         id="stop119" /><stop
         style="stop-color:#a53b05;stop-opacity:1;"
         offset="1"
         id="stop118" /></linearGradient><linearGradient
       id="linearGradient117"
       inkscape:collect="always"><stop
         style="stop-color:#672306;stop-opacity:1;"
         offset="0.02425732"
         id="stop117" /><stop
         style="stop-color:#832e04;stop-opacity:1;"
         offset="0.58064514"
         id="stop111" /></linearGradient><linearGradient
       id="linearGradient49"
       inkscape:collect="always"><stop
         style="stop-color:#521a02;stop-opacity:1;"
         offset="0"
         id="stop49" /><stop
         style="stop-color:#9a3409;stop-opacity:1;"
         offset="0.24830508"
         id="stop124" /><stop
         style="stop-color:#621e01;stop-opacity:1;"
         offset="0.49661016"
         id="stop122" /><stop
         style="stop-color:#a34117;stop-opacity:1;"
         offset="0.74830508"
         id="stop123" /><stop
         style="stop-color:#441602;stop-opacity:1;"
         offset="1"
         id="stop50" /></linearGradient><linearGradient
       inkscape:collect="always"
       xlink:href="#linearGradient117"
       id="linearGradient192"
       gradientUnits="userSpaceOnUse"
       x1="7.9824505"
       y1="104.6085"
       x2="7.7828884"
       y2="167.47029"
       gradientTransform="matrix(1.0163455,0,0,0.38074491,20.52019,64.678336)" /><radialGradient
       inkscape:collect="always"
       xlink:href="#linearGradient49"
       id="radialGradient192"
       gradientUnits="userSpaceOnUse"
       gradientTransform="matrix(1.0163455,0,0,0.88100397,21.366857,24.450451)"
       cx="6.5855212"
       cy="114.68635"
       fx="6.5855212"
       fy="114.68635"
       r="1.1391388" /><linearGradient
       inkscape:collect="always"
       xlink:href="#linearGradient119"
       id="linearGradient202"
       gradientUnits="userSpaceOnUse"
       gradientTransform="matrix(1.0163455,0,0,0.38074491,20.52019,64.678336)"
       x1="7.9824505"
       y1="104.6085"
       x2="7.7828884"
       y2="167.47029" /><radialGradient
       inkscape:collect="always"
       xlink:href="#linearGradient49"
       id="radialGradient202"
       gradientUnits="userSpaceOnUse"
       gradientTransform="matrix(1.0163455,0,0,0.88100397,22.072413,12.87934)"
       cx="6.5855212"
       cy="114.68635"
       fx="6.5855212"
       fy="114.68635"
       r="1.1391388" /><linearGradient
       inkscape:collect="always"
       xlink:href="#linearGradient119"
       id="linearGradient396"
       gradientUnits="userSpaceOnUse"
       gradientTransform="matrix(1.0163455,0,0,0.38074491,20.52019,64.678336)"
       x1="7.9824505"
       y1="104.6085"
       x2="7.7828884"
       y2="167.47029" /><radialGradient
       inkscape:collect="always"
       xlink:href="#linearGradient49"
       id="radialGradient396"
       gradientUnits="userSpaceOnUse"
       gradientTransform="matrix(1.0163455,0,0,0.88100397,22.072413,12.87934)"
       cx="6.5855212"
       cy="114.68635"
       fx="6.5855212"
       fy="114.68635"
       r="1.1391388" /><linearGradient
       inkscape:collect="always"
       xlink:href="#linearGradient119"
       id="linearGradient1"
       gradientUnits="userSpaceOnUse"
       gradientTransform="matrix(1.0163455,0,0,0.38074491,20.52019,64.678336)"
       x1="7.9824505"
       y1="104.6085"
       x2="7.7828884"
       y2="167.47029" /><radialGradient
       inkscape:collect="always"
       xlink:href="#linearGradient49"
       id="radialGradient1"
       gradientUnits="userSpaceOnUse"
       gradientTransform="matrix(1.0163455,0,0,0.88100397,22.072413,12.87934)"
       cx="6.5855212"
       cy="114.68635"
       fx="6.5855212"
       fy="114.68635"
       r="1.1391388" /><linearGradient
       inkscape:collect="always"
       xlink:href="#linearGradient119"
       id="linearGradient2"
       gradientUnits="userSpaceOnUse"
       gradientTransform="matrix(1.0163455,0,0,0.38074491,20.52019,64.678336)"
       x1="7.9824505"
       y1="104.6085"
       x2="7.7828884"
       y2="167.47029" /><radialGradient
       inkscape:collect="always"
       xlink:href="#linearGradient49"
       id="radialGradient2"
       gradientUnits="userSpaceOnUse"
       gradientTransform="matrix(1.0163455,0,0,0.88100397,22.072413,12.87934)"
       cx="6.5855212"
       cy="114.68635"
       fx="6.5855212"
       fy="114.68635"
       r="1.1391388" /><linearGradient
       inkscape:collect="always"
       xlink:href="#linearGradient119"
       id="linearGradient3"
       gradientUnits="userSpaceOnUse"
       gradientTransform="matrix(1.0163455,0,0,0.38074491,20.52019,64.678336)"
       x1="7.9824505"
       y1="104.6085"
       x2="7.7828884"
       y2="167.47029" /><radialGradient
       inkscape:collect="always"
       xlink:href="#linearGradient49"
       id="radialGradient3"
       gradientUnits="userSpaceOnUse"
       gradientTransform="matrix(1.0163455,0,0,0.88100397,22.072413,12.87934)"
       cx="6.5855212"
       cy="114.68635"
       fx="6.5855212"
       fy="114.68635"
       r="1.1391388" /></defs><g
     id="g4"
     transform="translate(-9.9462645,-21.518326)"><g
       id="g3"
       transform="matrix(0.00258593,-0.41399328,-0.67995153,-0.00260979,98.010802,39.666907)"><path
         id="path3"
         style="fill:url(#linearGradient3);stroke:#421f05;stroke-width:0.175837;stroke-linejoin:round"
         d="m 24.691825,104.35553 5.545569,0.89011 c 0,0 0.305811,1.62033 0.332568,3.64439 0.02679,2.02673 0.31178,5.68117 0.287252,7.70793 -0.02474,2.04421 -0.927227,3.28226 -0.899977,5.32644 0.02691,2.01887 0.690393,6.17835 0.690393,6.17835 l -4.311948,0.34528 c 0,0 -2.385594,-2.6959 -2.385594,-4.72321 0,-2.02731 0.473377,-5.42567 0.389213,-7.45123 -0.08474,-2.03961 0.587703,-5.84738 0.587703,-5.84738 z"
         sodipodi:nodetypes="ccsssccsscc" /><ellipse
         style="opacity:0.808594;fill:url(#radialGradient3);stroke:#421f05;stroke-width:0.175837;stroke-linejoin:round;stroke-opacity:1"
         id="ellipse3"
         cx="28.765577"
         cy="113.91846"
         rx="1.0141159"
         ry="0.94977415" /></g><g
       id="g2"
       transform="matrix(0.11342656,-0.2599438,0.38987306,0.19186101,-26.557787,9.214217)"><path
         id="path2"
         style="fill:url(#linearGradient2);stroke:#421f05;stroke-width:0.175837;stroke-linejoin:round"
         d="m 24.691825,104.35553 5.545569,0.89011 c 0,0 0.305811,1.62033 0.332568,3.64439 0.02679,2.02673 0.31178,5.68117 0.287252,7.70793 -0.02474,2.04421 -0.927227,3.28226 -0.899977,5.32644 0.02691,2.01887 0.690393,6.17835 0.690393,6.17835 l -4.311948,0.34528 c 0,0 -2.385594,-2.6959 -2.385594,-4.72321 0,-2.02731 0.473377,-5.42567 0.389213,-7.45123 -0.08474,-2.03961 0.587703,-5.84738 0.587703,-5.84738 z"
         sodipodi:nodetypes="ccsssccsscc" /><ellipse
         style="opacity:0.808594;fill:url(#radialGradient2);stroke:#421f05;stroke-width:0.175837;stroke-linejoin:round;stroke-opacity:1"
         id="ellipse2"
         cx="28.765577"
         cy="113.91846"
         rx="1.0141159"
         ry="0.94977415" /></g><g
       id="g201"
       transform="matrix(0.12536028,-0.43707014,0.56497505,0.16204591,-48.69158,19.388056)"><path
         id="path191"
         style="fill:url(#linearGradient192);stroke:#421f05;stroke-width:0.175837;stroke-linejoin:round"
         d="m 25.185123,104.35553 5.927598,0.8901 c 0,0 -0.378419,2.82956 -0.351662,4.85362 0.02679,2.02673 1.138769,5.97569 1.114239,8.00245 -0.02474,2.04421 -0.848563,2.56895 -0.821316,4.61313 0.02691,2.01887 0.664751,5.08562 0.664751,5.08562 l -6.110274,0.79873 c 0,0 0.246233,-1.09879 0.246233,-3.1261 0,-2.02731 -0.921728,-8.83355 -1.005892,-10.85911 -0.08474,-2.03961 1.356357,-6.62625 1.356357,-6.62625 z"
         sodipodi:nodetypes="ccsssccsscc" /><ellipse
         style="opacity:0.808594;fill:url(#radialGradient192);stroke:#421f05;stroke-width:0.175837;stroke-linejoin:round;stroke-opacity:1"
         id="ellipse191"
         cx="28.060022"
         cy="125.48958"
         rx="1.0141159"
         ry="0.94977415" /></g><g
       id="g202"
       transform="matrix(-0.05314256,-0.41210526,0.53057268,-0.06841939,-44.062861,46.825638)"><path
         id="path202"
         style="fill:url(#linearGradient202);stroke:#421f05;stroke-width:0.175837;stroke-linejoin:round"
         d="m 24.691825,104.35553 5.545569,0.89011 c 0,0 0.305811,1.62033 0.332568,3.64439 0.02679,2.02673 0.31178,5.68117 0.287252,7.70793 -0.02474,2.04421 -0.927227,3.28226 -0.899977,5.32644 0.02691,2.01887 0.690393,6.17835 0.690393,6.17835 l -4.311948,0.34528 c 0,0 -2.385594,-2.6959 -2.385594,-4.72321 0,-2.02731 0.473377,-5.42567 0.389213,-7.45123 -0.08474,-2.03961 0.587703,-5.84738 0.587703,-5.84738 z"
         sodipodi:nodetypes="ccsssccsscc" /><ellipse
         style="opacity:0.808594;fill:url(#radialGradient202);stroke:#421f05;stroke-width:0.175837;stroke-linejoin:round;stroke-opacity:1"
         id="ellipse202"
         cx="28.765577"
         cy="113.91846"
         rx="1.0141159"
         ry="0.94977415" /></g><g
       id="g395"
       transform="matrix(0.04327201,-0.28029252,-0.43202559,-0.0465353,70.81706,40.767138)"><path
         id="path395"
         style="fill:url(#linearGradient396);stroke:#421f05;stroke-width:0.175837;stroke-linejoin:round"
         d="m 24.691825,104.35553 5.545569,0.89011 c 0,0 0.305811,1.62033 0.332568,3.64439 0.02679,2.02673 0.31178,5.68117 0.287252,7.70793 -0.02474,2.04421 -0.927227,3.28226 -0.899977,5.32644 0.02691,2.01887 0.690393,6.17835 0.690393,6.17835 l -4.311948,0.34528 c 0,0 -2.385594,-2.6959 -2.385594,-4.72321 0,-2.02731 0.473377,-5.42567 0.389213,-7.45123 -0.08474,-2.03961 0.587703,-5.84738 0.587703,-5.84738 z"
         sodipodi:nodetypes="ccsssccsscc" /><ellipse
         style="opacity:0.808594;fill:url(#radialGradient396);stroke:#421f05;stroke-width:0.175837;stroke-linejoin:round;stroke-opacity:1"
         id="ellipse395"
         cx="28.765577"
         cy="113.91846"
         rx="1.0141159"
         ry="0.94977415" /></g><g
       id="g1"
       transform="matrix(-0.14389504,-0.24439841,-0.36394037,0.23740062,62.488283,4.6817048)"><path
         id="path1"
         style="fill:url(#linearGradient1);stroke:#421f05;stroke-width:0.175837;stroke-linejoin:round"
         d="m 24.691825,104.35553 5.545569,0.89011 c 0,0 0.305811,1.62033 0.332568,3.64439 0.02679,2.02673 0.31178,5.68117 0.287252,7.70793 -0.02474,2.04421 -0.927227,3.28226 -0.899977,5.32644 0.02691,2.01887 0.690393,6.17835 0.690393,6.17835 l -4.311948,0.34528 c 0,0 -2.385594,-2.6959 -2.385594,-4.72321 0,-2.02731 0.473377,-5.42567 0.389213,-7.45123 -0.08474,-2.03961 0.587703,-5.84738 0.587703,-5.84738 z"
         sodipodi:nodetypes="ccsssccsscc" /><ellipse
         style="opacity:0.808594;fill:url(#radialGradient1);stroke:#421f05;stroke-width:0.175837;stroke-linejoin:round;stroke-opacity:1"
         id="ellipse1"
         cx="28.765577"
         cy="113.91846"
         rx="1.0141159"
         ry="0.94977415" /></g></g></svg>
