<?xml version="1.0" encoding="UTF-8" standalone="no"?>
<!-- Created with Inkscape (http://www.inkscape.org/) -->

<svg
   width="6.8114057mm"
   height="8.3459053mm"
   viewBox="0 0 6.8114057 8.3459053"
   version="1.1"
   id="svg1"
   xml:space="preserve"
   inkscape:version="1.3.2 (091e20ef0f, 2023-11-25)"
   sodipodi:docname="LittleRed.svg"
   xmlns:inkscape="http://www.inkscape.org/namespaces/inkscape"
   xmlns:sodipodi="http://sodipodi.sourceforge.net/DTD/sodipodi-0.dtd"
   xmlns="http://www.w3.org/2000/svg"
   xmlns:svg="http://www.w3.org/2000/svg"><sodipodi:namedview
     id="namedview1"
     pagecolor="#505050"
     bordercolor="#eeeeee"
     borderopacity="1"
     inkscape:showpageshadow="0"
     inkscape:pageopacity="0"
     inkscape:pagecheckerboard="0"
     inkscape:deskcolor="#d1d1d1"
     inkscape:document-units="mm"
     inkscape:zoom="1.3505331"
     inkscape:cx="329.49952"
     inkscape:cy="747.85283"
     inkscape:window-width="1366"
     inkscape:window-height="706"
     inkscape:window-x="-8"
     inkscape:window-y="-8"
     inkscape:window-maximized="1"
     inkscape:current-layer="layer2"
     showgrid="false" /><defs
     id="defs1" /><g
     inkscape:groupmode="layer"
     id="layer2"
     inkscape:label="Layer 2"
     transform="translate(-136.15485,-225.83172)"><g
       id="g432"
       transform="translate(69.793042,67.491096)"><path
         style="fill:#dd923e;fill-opacity:1;fill-rule:evenodd;stroke:#c76f44;stroke-width:0.264583px;stroke-linecap:butt;stroke-linejoin:miter;stroke-opacity:1"
         d="m 66.632687,165.47348 c 0,0 1.736335,0.98608 2.701324,1.0736 0.820723,0.0744 2.424266,-0.48485 2.424266,-0.48485 l 0.692648,-2.94375 c 0,0 -1.495133,0.16895 -1.668295,0.16895 -0.173162,0 -1.203064,-0.0379 -1.799143,-0.11403 -0.529767,-0.0676 -1.400001,-0.26902 -1.573163,-0.30365 -0.173161,-0.0346 -0.67374,-0.34002 -0.67374,-0.34002 z"
         id="path412"
         sodipodi:nodetypes="csccssscc" /><rect
         style="fill:#ac5a2a;fill-opacity:0.524306;stroke:none;stroke-width:0.93138;stroke-linecap:round;stroke-linejoin:round;stroke-dasharray:none;stroke-opacity:0.993056"
         id="rect412"
         width="0.46702731"
         height="0.50165969"
         x="68.071625"
         y="163.14471" /><path
         style="fill:#8b5b3c;fill-opacity:1;fill-rule:evenodd;stroke:#ac5a2a;stroke-width:0.264583px;stroke-linecap:butt;stroke-linejoin:miter;stroke-opacity:1"
         d="m 69.531303,160.96113 c 0,0 -1.149731,0.0204 -1.582586,0.0794 -0.300238,0.041 -0.86581,0.27706 -0.86581,0.27706 0,0 -0.402392,0.19943 -0.513182,0.40124 -0.08019,0.14607 -0.07557,0.4992 -0.07557,0.4992 0,0 0.450221,0.48485 0.658017,0.51948 0.207793,0.0346 1.419926,0.3117 1.558456,0.34633 0.138531,0.0346 1.108237,0.17316 1.281398,0.17316 0.173162,0 0.894138,-0.0144 1.212133,-0.0346 0.305749,-0.008 0.835018,-0.0588 1.157215,-0.15672 0.132538,-0.0403 0.53977,-0.18961 0.643669,-0.36277 0.103897,-0.17316 -0.05738,-0.43203 -0.05738,-0.43203 0,0 -0.219679,-0.22598 -0.358207,-0.36451 -0.13853,-0.13853 -0.813354,-0.44419 -0.979851,-0.50304 -0.271116,-0.0958 -0.865955,-0.30451 -1.136565,-0.36871 -0.20218,-0.048 -0.941735,-0.0735 -0.941735,-0.0735 z"
         id="path413"
         sodipodi:nodetypes="cscscssscsscsssc" /><path
         style="fill:#f3f3f3;fill-opacity:1;fill-rule:evenodd;stroke:none;stroke-width:0.307301px;stroke-linecap:butt;stroke-linejoin:miter;stroke-opacity:1"
         d="m 66.776576,162.13034 c 0,0.23433 0.516838,0.4386 0.691641,0.46637 0.174805,0.0278 2.196278,0.39576 2.429083,0.3846 l 1.786869,-0.0857 c 0.320108,-0.0154 0.848939,-0.0171 0.996894,-0.34043 0.118814,-0.25971 -0.459835,-0.59204 -0.663743,-0.70315 -0.203951,-0.11113 -0.998378,-0.47562 -1.552555,-0.42041 -0.305291,0.0304 -0.922036,-0.2031 -1.426717,-0.1979 -0.318092,0.003 -0.806034,0.21043 -0.951705,0.21043 -0.145672,0 -0.513677,-0.0562 -0.793384,0.0436 -0.153791,0.0549 -0.516383,0.16521 -0.516383,0.39774 z"
         id="path414"
         sodipodi:nodetypes="ssssssssssss" /><path
         style="fill:none;fill-rule:evenodd;stroke:#ac5a2a;stroke-width:0.365;stroke-linecap:butt;stroke-linejoin:miter;stroke-dasharray:none;stroke-opacity:1"
         d="m 66.80541,161.45457 c -0.03673,-0.0857 -0.04943,-0.55952 0,-0.83262 0.05817,-0.3214 0.166836,-0.64296 0.343456,-0.91772 0.177908,-0.27675 0.424029,-0.51535 0.697317,-0.69854 0.308512,-0.2068 0.665179,-0.35158 1.028528,-0.42855 0.351462,-0.0745 0.720053,-0.0605 1.077507,-0.0245 0.366474,0.0369 0.734279,0.11125 1.077505,0.24489 0.214645,0.0836 0.420084,0.19899 0.599977,0.34285 0.192595,0.15402 0.450326,0.46021 0.499303,0.54592 0.04898,0.0857 0.206632,0.37711 0.272093,0.58056 0.07503,0.23318 0.105386,0.47922 0.134689,0.72242 0.03521,0.29221 0.04898,0.8816 0.04898,0.8816"
         id="path415"
         sodipodi:nodetypes="caaaaaaasaac" /><rect
         style="fill:#ac5a2a;fill-opacity:0.524306;stroke:none;stroke-width:0.93138;stroke-linecap:round;stroke-linejoin:round;stroke-dasharray:none;stroke-opacity:0.993056"
         id="rect415"
         width="0.46702731"
         height="0.50165969"
         x="67.01329"
         y="163.14471" /><rect
         style="fill:#ac5a2a;fill-opacity:0.524306;stroke:none;stroke-width:0.93138;stroke-linecap:round;stroke-linejoin:round;stroke-dasharray:none;stroke-opacity:0.993056"
         id="rect416"
         width="0.46702731"
         height="0.50165969"
         x="67.542458"
         y="163.67387" /><rect
         style="fill:#ac5a2a;fill-opacity:0.524306;stroke:none;stroke-width:0.93138;stroke-linecap:round;stroke-linejoin:round;stroke-dasharray:none;stroke-opacity:0.993056"
         id="rect417"
         width="0.46702731"
         height="0.50165969"
         x="67.01329"
         y="164.20303" /><rect
         style="fill:#ac5a2a;fill-opacity:0.524306;stroke:none;stroke-width:0.93138;stroke-linecap:round;stroke-linejoin:round;stroke-dasharray:none;stroke-opacity:0.993056"
         id="rect418"
         width="0.46702731"
         height="0.50165969"
         x="67.542458"
         y="164.73219" /><rect
         style="fill:#ac5a2a;fill-opacity:0.524306;stroke:none;stroke-width:0.93138;stroke-linecap:round;stroke-linejoin:round;stroke-dasharray:none;stroke-opacity:0.993056"
         id="rect419"
         width="0.46702731"
         height="0.50165969"
         x="68.071625"
         y="164.20303" /><rect
         style="fill:#ac5a2a;fill-opacity:0.524306;stroke:none;stroke-width:0.93138;stroke-linecap:round;stroke-linejoin:round;stroke-dasharray:none;stroke-opacity:0.993056"
         id="rect420"
         width="0.46702731"
         height="0.50165969"
         x="68.600792"
         y="163.67387" /><rect
         style="fill:#ac5a2a;fill-opacity:0.524306;stroke:none;stroke-width:0.93138;stroke-linecap:round;stroke-linejoin:round;stroke-dasharray:none;stroke-opacity:0.993056"
         id="rect421"
         width="0.46702731"
         height="0.50165969"
         x="68.600792"
         y="164.73219" /><rect
         style="fill:#ac5a2a;fill-opacity:0.524306;stroke:none;stroke-width:0.93138;stroke-linecap:round;stroke-linejoin:round;stroke-dasharray:none;stroke-opacity:0.993056"
         id="rect422"
         width="0.46702731"
         height="0.50165969"
         x="68.071625"
         y="165.26135" /><rect
         style="fill:#ac5a2a;fill-opacity:0.524306;stroke:none;stroke-width:0.93138;stroke-linecap:round;stroke-linejoin:round;stroke-dasharray:none;stroke-opacity:0.993056"
         id="rect423"
         width="0.46702731"
         height="0.50165969"
         x="69.129959"
         y="165.26135" /><rect
         style="fill:#ac5a2a;fill-opacity:0.524306;stroke:none;stroke-width:0.93138;stroke-linecap:round;stroke-linejoin:round;stroke-dasharray:none;stroke-opacity:0.993056"
         id="rect424"
         width="0.46702731"
         height="0.50165969"
         x="70.188293"
         y="165.26135" /><rect
         style="fill:#ac5a2a;fill-opacity:0.524306;stroke:none;stroke-width:0.93138;stroke-linecap:round;stroke-linejoin:round;stroke-dasharray:none;stroke-opacity:0.993056"
         id="rect425"
         width="0.46702731"
         height="0.50165969"
         x="69.659126"
         y="164.73219" /><rect
         style="fill:#ac5a2a;fill-opacity:0.524306;stroke:none;stroke-width:0.93138;stroke-linecap:round;stroke-linejoin:round;stroke-dasharray:none;stroke-opacity:0.993056"
         id="rect426"
         width="0.46702731"
         height="0.50165969"
         x="69.129959"
         y="164.20303" /><rect
         style="fill:#ac5a2a;fill-opacity:0.524306;stroke:none;stroke-width:0.93138;stroke-linecap:round;stroke-linejoin:round;stroke-dasharray:none;stroke-opacity:0.993056"
         id="rect427"
         width="0.46702731"
         height="0.50165969"
         x="69.659126"
         y="163.67387" /><rect
         style="fill:#ac5a2a;fill-opacity:0.524306;stroke:none;stroke-width:0.93138;stroke-linecap:round;stroke-linejoin:round;stroke-dasharray:none;stroke-opacity:0.993056"
         id="rect428"
         width="0.46702731"
         height="0.50165969"
         x="70.717461"
         y="163.67387" /><rect
         style="fill:#ac5a2a;fill-opacity:0.524306;stroke:none;stroke-width:0.93138;stroke-linecap:round;stroke-linejoin:round;stroke-dasharray:none;stroke-opacity:0.993056"
         id="rect429"
         width="0.46702731"
         height="0.50165969"
         x="70.188293"
         y="164.20303" /><rect
         style="fill:#ac5a2a;fill-opacity:0.524306;stroke:none;stroke-width:0.93138;stroke-linecap:round;stroke-linejoin:round;stroke-dasharray:none;stroke-opacity:0.993056"
         id="rect430"
         width="0.46702731"
         height="0.50165969"
         x="70.717461"
         y="164.73219" /><rect
         style="fill:#ac5a2a;fill-opacity:0.524306;stroke:none;stroke-width:0.93138;stroke-linecap:round;stroke-linejoin:round;stroke-dasharray:none;stroke-opacity:0.993056"
         id="rect431"
         width="0.46702731"
         height="0.50165969"
         x="71.246628"
         y="164.20303" /><rect
         style="fill:#ac5a2a;fill-opacity:0.524306;stroke:none;stroke-width:0.93138;stroke-linecap:round;stroke-linejoin:round;stroke-dasharray:none;stroke-opacity:0.993056"
         id="rect432"
         width="0.46702731"
         height="0.50165969"
         x="71.246628"
         y="165.26135" /></g></g></svg>
