<?xml version="1.0" encoding="UTF-8" standalone="no"?>
<!-- Created with Inkscape (http://www.inkscape.org/) -->

<svg
   width="16.545332mm"
   height="17.875977mm"
   viewBox="0 0 16.545332 17.875977"
   version="1.1"
   id="svg1"
   xml:space="preserve"
   inkscape:version="1.3.2 (091e20ef0f, 2023-11-25)"
   sodipodi:docname="LittleRed.svg"
   xmlns:inkscape="http://www.inkscape.org/namespaces/inkscape"
   xmlns:sodipodi="http://sodipodi.sourceforge.net/DTD/sodipodi-0.dtd"
   xmlns="http://www.w3.org/2000/svg"
   xmlns:svg="http://www.w3.org/2000/svg"><sodipodi:namedview
     id="namedview1"
     pagecolor="#505050"
     bordercolor="#eeeeee"
     borderopacity="1"
     inkscape:showpageshadow="0"
     inkscape:pageopacity="0"
     inkscape:pagecheckerboard="0"
     inkscape:deskcolor="#d1d1d1"
     inkscape:document-units="mm"
     inkscape:zoom="1.3505331"
     inkscape:cx="329.49952"
     inkscape:cy="747.85283"
     inkscape:window-width="1366"
     inkscape:window-height="706"
     inkscape:window-x="-8"
     inkscape:window-y="-8"
     inkscape:window-maximized="1"
     inkscape:current-layer="layer2"
     showgrid="false" /><defs
     id="defs1"><inkscape:path-effect
       effect="bspline"
       id="path-effect473"
       is_visible="true"
       lpeversion="1.3"
       weight="33.333333"
       steps="2"
       helper_size="0"
       apply_no_weight="true"
       apply_with_weight="true"
       only_selected="false"
       uniform="false" /><inkscape:path-effect
       effect="bspline"
       id="path-effect471"
       is_visible="true"
       lpeversion="1.3"
       weight="33.333333"
       steps="2"
       helper_size="0"
       apply_no_weight="true"
       apply_with_weight="true"
       only_selected="false"
       uniform="false" /><inkscape:path-effect
       effect="bspline"
       id="path-effect469"
       is_visible="true"
       lpeversion="1.3"
       weight="33.333333"
       steps="2"
       helper_size="0"
       apply_no_weight="true"
       apply_with_weight="true"
       only_selected="false"
       uniform="false" /><inkscape:path-effect
       effect="bspline"
       id="path-effect467"
       is_visible="true"
       lpeversion="1.3"
       weight="33.333333"
       steps="2"
       helper_size="0"
       apply_no_weight="true"
       apply_with_weight="true"
       only_selected="false"
       uniform="false" /></defs><g
     inkscape:groupmode="layer"
     id="layer2"
     inkscape:label="Layer 2"
     transform="translate(-130.6917,-215.14314)"><g
       id="g412"
       transform="translate(79.539579,15.868734)"><g
         id="g411"
         transform="translate(-27.427441,50.740765)"><path
           style="fill:#aeebe1;fill-opacity:1;fill-rule:evenodd;stroke:#000000;stroke-width:0.264583px;stroke-linecap:butt;stroke-linejoin:miter;stroke-opacity:1"
           d="m 78.869457,164.43451 c 0.184706,0.17316 0.554116,0.51948 0.900443,0.75037 0.346328,0.23088 0.66956,0.34632 1.073608,0.4329 0.404048,0.0866 0.888894,0.1443 1.26408,0.16161 0.375186,0.0173 0.640695,-0.006 0.842722,-0.0404 0.202028,-0.0346 0.340563,-0.0808 0.525261,-0.075 0.184699,0.006 0.415582,0.0635 0.629155,0.12698 0.213574,0.0635 0.40981,0.13276 0.675328,0.21934 0.265518,0.0866 0.600291,0.19048 0.906212,0.23666 0.305921,0.0462 0.582977,0.0346 0.836947,2e-5 0.25397,-0.0346 0.484855,-0.0923 0.698419,-0.15007 0.213564,-0.0577 0.409817,-0.11544 0.611843,-0.12121 0.202027,-0.006 0.409822,0.0404 0.709967,0.0808 0.300145,0.0404 0.692644,0.075 1.027422,0.10967 0.334778,0.0346 0.611839,0.0693 0.883125,0.0577 0.271286,-0.0115 0.536801,-0.0693 0.738828,-0.12122 0.202027,-0.052 0.340529,-0.0981 0.484839,-0.19625 0.14431,-0.0981 0.29438,-0.24819 0.513723,-0.27128 0.219342,-0.0231 0.507943,0.0808 0.756143,0.0808 0.248199,0 0.455988,-0.10389 0.63493,-0.19048 0.178943,-0.0866 0.329002,-0.15584 0.484844,-0.21933 0.155842,-0.0635 0.317463,-0.12122 0.493536,-0.18472 0.176074,-0.0635 0.366498,-0.13274 0.417006,-0.24674 0.05051,-0.114 -0.03896,-0.27273 -0.148425,-0.44012 -0.109467,-0.1674 -0.238921,-0.34344 -0.356592,-0.59716 -0.11767,-0.25373 -0.223543,-0.58511 -0.316189,-0.91005 -0.09265,-0.32493 -0.172052,-0.64337 -0.248081,-1.04095 -0.07603,-0.39759 -0.148672,-0.87425 -0.227092,-1.29661 -0.07842,-0.42236 -0.162601,-0.79034 -0.200617,-1.0915 -0.03802,-0.30115 -0.02985,-0.5354 -0.05393,-0.79614 -0.02408,-0.26074 -0.0804,-0.54793 -0.135027,-0.92312 -0.05463,-0.37519 -0.107567,-0.83835 -0.211466,-1.34192 -0.103898,-0.50358 -0.258746,-1.04752 -0.490456,-1.5742 -0.231711,-0.52667 -0.540253,-1.036 -0.833061,-1.44075 -0.292807,-0.40475 -0.569859,-0.70489 -0.81806,-0.98772 -0.248201,-0.28284 -0.467536,-0.54835 -0.629155,-0.85427 -0.161618,-0.30592 -0.265513,-0.65224 -0.415589,-0.90044 -0.150076,-0.2482 -0.346322,-0.39827 -0.536799,-0.51371 -0.190478,-0.11544 -0.375183,-0.19625 -0.502171,-0.34056 -0.126987,-0.1443 -0.19625,-0.35209 -0.33478,-0.52525 -0.13853,-0.17316 -0.346322,-0.31169 -0.709964,-0.4329 -0.363642,-0.12122 -0.883114,-0.22511 -1.27562,-0.19624 -0.392506,0.0289 -0.658007,0.19048 -0.93219,0.34345 -0.274182,0.15297 -0.557003,0.29727 -0.822521,0.45023 -0.265517,0.15296 -0.513707,0.31457 -0.712849,0.45599 -0.199142,0.14142 -0.349211,0.26263 -0.614725,0.69842 -0.265514,0.43579 -0.646471,1.18616 -1.027428,1.93653 -0.288603,1.22368 -0.577205,2.44735 -0.865808,3.67103 -0.06927,0.34632 -0.138529,0.69264 -0.202022,1.0332 -0.06349,0.34055 -0.121214,0.67533 -0.184707,0.98703 -0.06349,0.31169 -0.132755,0.60028 -0.196248,0.91198 -0.06349,0.31169 -0.121214,0.64647 -0.190479,0.95816 -0.06926,0.31169 -0.150074,0.60029 -0.253972,0.95816 -0.103898,0.35787 -0.230882,0.785 -0.357868,1.13133 -0.126986,0.34632 -0.253968,0.61183 -0.380954,0.83117 -0.126987,0.21934 -0.253971,0.3925 -0.380969,0.52527 -0.126998,0.13276 -0.25396,0.2251 -0.375174,0.33477 -0.121215,0.10967 -0.236651,0.23665 -0.294373,0.30015 -0.05772,0.0635 -0.05772,0.0635 0.126983,0.23663 z"
           id="path408"
           inkscape:path-effect="#path-effect467"
           inkscape:original-d="m 78.684751,164.26135 c 0.369414,0.34632 0.738825,0.69264 1.108237,1.03897 0.323241,0.11544 0.646472,0.23088 0.969706,0.34632 0.484864,0.0577 0.969708,0.11544 1.45456,0.17316 0.26552,-0.0231 0.531029,-0.0462 0.796544,-0.0693 0.138533,-0.0462 0.277061,-0.0924 0.415589,-0.13853 0.230888,0.0577 0.461766,0.11544 0.692647,0.17316 0.196255,0.0693 0.392501,0.13853 0.588751,0.20779 0.334788,0.1039 0.66956,0.2078 1.00434,0.3117 0.277063,-0.0115 0.554117,-0.0231 0.831175,-0.0346 0.230889,-0.0577 0.461767,-0.11545 0.692647,-0.17317 0.196255,-0.0577 0.392502,-0.11544 0.588751,-0.17316 0.207799,0.0462 0.415589,0.0924 0.623382,0.13853 0.39251,0.0346 0.785003,0.0693 1.177502,0.1039 0.277064,0.0346 0.554117,0.0693 0.831178,0.1039 0.26552,-0.0577 0.531029,-0.11545 0.796544,-0.17317 0.138533,-0.0462 0.277058,-0.0923 0.415589,-0.13853 0.150077,-0.15007 0.300146,-0.30014 0.45022,-0.45022 0.288608,0.1039 0.577207,0.2078 0.865809,0.31169 0.207799,-0.1039 0.415589,-0.20779 0.623383,-0.31169 0.150077,-0.0693 0.300148,-0.13853 0.45022,-0.20779 0.161621,-0.0577 0.323236,-0.11544 0.484854,-0.17317 0.19052,-0.0693 0.380953,-0.13852 0.571434,-0.20779 -0.08947,-0.15873 -0.178932,-0.31746 -0.2684,-0.47619 -0.129464,-0.17606 -0.258919,-0.3521 -0.388383,-0.52815 -0.10588,-0.3314 -0.211753,-0.66278 -0.317634,-0.99419 -0.07941,-0.31846 -0.158814,-0.6369 -0.238226,-0.95536 -0.07265,-0.47671 -0.145291,-0.95337 -0.217939,-1.43007 -0.08419,-0.36802 -0.168375,-0.736 -0.252569,-1.10404 0.0082,-0.23427 0.01633,-0.46852 0.02449,-0.70279 -0.05632,-0.28721 -0.11264,-0.5744 -0.168961,-0.86161 -0.05294,-0.46317 -0.105876,-0.92633 -0.158815,-1.3895 -0.154858,-0.54398 -0.309706,-1.08792 -0.464567,-1.63191 -0.30856,-0.50936 -0.617102,-1.01869 -0.92565,-1.52803 -0.277066,-0.30016 -0.554119,-0.6003 -0.831178,-0.90045 -0.219342,-0.26552 -0.438676,-0.53103 -0.658016,-0.79654 -0.103899,-0.34633 -0.207793,-0.69265 -0.31169,-1.03897 -0.196254,-0.15008 -0.392501,-0.30015 -0.58875,-0.45022 -0.184711,-0.0808 -0.369412,-0.16162 -0.55412,-0.24243 -0.06927,-0.2078 -0.138528,-0.41559 -0.207793,-0.62338 -0.207799,-0.13853 -0.415589,-0.27706 -0.623382,-0.41559 -0.519491,-0.1039 -1.038963,-0.20779 -1.558456,-0.31169 -0.26552,0.16163 -0.531022,0.32325 -0.796547,0.48489 -0.28284,0.1443 -0.565659,0.2886 -0.848492,0.4329 -0.248201,0.16162 -0.496392,0.32323 -0.744597,0.48485 -0.150077,0.12122 -0.300146,0.24243 -0.450219,0.36364 -0.380959,0.75037 -1.142871,2.25111 -1.142871,2.25111 -0.288603,1.22368 -0.577205,2.44735 -0.865808,3.67103 0,0 -0.138529,0.69264 -0.207795,1.03897 -0.05772,0.33478 -0.11544,0.66956 -0.173161,1.00434 -0.06927,0.28861 -0.138528,0.5772 -0.207794,0.86581 -0.05772,0.33478 -0.115443,0.66956 -0.173161,1.00434 -0.08081,0.2886 -0.161619,0.5772 -0.242428,0.8658 -0.126986,0.42714 -0.25397,0.85427 -0.380955,1.2814 -0.126989,0.26552 -0.25397,0.53103 -0.380957,0.79655 -0.126987,0.17316 -0.253971,0.34632 -0.380955,0.51948 -0.12699,0.0924 -0.253971,0.18471 -0.380958,0.27706 -0.115443,0.12699 -0.230881,0.25397 -0.346324,0.38096 z"
           sodipodi:nodetypes="sccccccccccccccccccccccccccccccccccccccccccccccccccccccccss" /><path
           style="fill:#32dfc3;fill-opacity:0.652778;fill-rule:evenodd;stroke:none;stroke-width:0.264583px;stroke-linecap:butt;stroke-linejoin:miter;stroke-opacity:1"
           d="m 83.605435,165.27435 c -0.01443,-0.30304 -0.04329,-0.90911 -0.06349,-1.39108 -0.0202,-0.48197 -0.03175,-0.83983 -0.04906,-1.11112 -0.01732,-0.27129 -0.04041,-0.45599 -0.0837,-0.40115 -0.04329,0.0548 -0.106784,0.34921 -0.164504,0.62915 -0.05772,0.27995 -0.109668,0.54546 -0.164504,0.80521 -0.05483,0.25974 -0.112555,0.51371 -0.152961,0.74171 -0.04041,0.22799 -0.06349,0.43001 -0.08081,0.58586 -0.01732,0.15585 -0.02886,0.26551 -0.03175,0.355 -0.0029,0.0895 0.0029,0.15871 0.07502,0.19335 0.07215,0.0346 0.210677,0.0346 0.314582,0.0202 0.103906,-0.0144 0.173141,-0.0433 0.236635,-0.0664 0.06349,-0.0231 0.121206,-0.0404 0.150075,-0.0491 0.02887,-0.009 0.02889,-0.009 0.01446,-0.31163 z"
           id="path409"
           inkscape:path-effect="#path-effect469"
           inkscape:original-d="m 83.619865,165.57738 c -0.02886,-0.60607 -0.05772,-1.21214 -0.08658,-1.8182 -0.01154,-0.35788 -0.0231,-0.71574 -0.03463,-1.07361 -0.0231,-0.18471 -0.04618,-0.36941 -0.06927,-0.55412 -0.06349,0.29439 -0.126984,0.58876 -0.190477,0.88313 -0.05195,0.26552 -0.103899,0.53103 -0.155847,0.79655 -0.05772,0.25397 -0.11544,0.50794 -0.173162,0.76191 -0.0231,0.20202 -0.04618,0.40404 -0.06927,0.60607 -0.01154,0.10967 -0.0231,0.21933 -0.03463,0.329 0.0058,0.0693 0.01154,0.13853 0.0173,0.2078 0.138531,0 0.277059,0 0.415589,0 0.06927,-0.0289 0.138528,-0.0577 0.207793,-0.0866 0.05772,-0.0173 0.115441,-0.0346 0.173162,-0.052 z"
           transform="translate(0,-0.09795515)" /><path
           style="fill:#32dfc3;fill-opacity:0.258216;fill-rule:evenodd;stroke:none;stroke-width:0.264583px;stroke-linecap:butt;stroke-linejoin:miter;stroke-opacity:1"
           d="m 88.33564,165.87176 c -0.02886,-0.12122 -0.08658,-0.36365 -0.144303,-0.64937 -0.05772,-0.28572 -0.115439,-0.61472 -0.17316,-0.89178 -0.05772,-0.27706 -0.115441,-0.50217 -0.176049,-0.70131 -0.06061,-0.19913 -0.124099,-0.37229 -0.176048,-0.38672 -0.05195,-0.0144 -0.09235,0.12987 -0.115438,0.36364 -0.02309,0.23377 -0.02885,0.557 -0.03174,0.83118 -0.0029,0.27417 -0.0029,0.49928 -0.02597,0.71285 -0.02309,0.21356 -0.06927,0.41558 -0.08947,0.55699 -0.02021,0.14141 -0.01444,0.22223 0.06637,0.25109 0.08081,0.0289 0.236649,0.006 0.35786,0.003 0.121211,-0.003 0.207785,0.0144 0.291487,0.0231 0.0837,0.009 0.164509,0.009 0.204913,0.009 0.0404,0 0.04041,-10e-6 0.01155,-0.12122 z"
           id="path410"
           inkscape:path-effect="#path-effect471"
           inkscape:original-d="m 88.364501,165.99297 c -0.05772,-0.24243 -0.115441,-0.48486 -0.173162,-0.72728 -0.05772,-0.32902 -0.11544,-0.65802 -0.173162,-0.98703 -0.05772,-0.22511 -0.11544,-0.45022 -0.173162,-0.67533 -0.0635,-0.17316 -0.126987,-0.34632 -0.190479,-0.51948 -0.0404,0.1443 -0.08081,0.2886 -0.121213,0.4329 -0.0058,0.32324 -0.01154,0.64647 -0.0173,0.96971 0,0.22511 0,0.45022 0,0.67533 -0.04618,0.20202 -0.09235,0.40404 -0.13853,0.60606 0.0058,0.0808 0.01154,0.16162 0.0173,0.24243 0.155848,-0.0231 0.31169,-0.0462 0.467538,-0.0693 0.08658,0.0173 0.173161,0.0346 0.259741,0.052 0.08081,0 0.161618,0 0.242427,0 z"
           transform="translate(0,-0.13468832)" /><path
           style="fill:#32dfc3;fill-opacity:0.649306;fill-rule:evenodd;stroke:none;stroke-width:0.264583px;stroke-linecap:butt;stroke-linejoin:miter;stroke-opacity:1"
           d="m 92.104797,165.45039 c -0.05195,-0.1443 -0.155843,-0.4329 -0.236653,-0.74171 -0.08081,-0.30881 -0.13853,-0.63781 -0.274646,-1.25405 -0.136116,-0.61624 -0.350559,-1.51942 -0.477,-1.85 -0.126441,-0.33057 -0.164733,-0.0881 -0.118084,0.39822 0.04665,0.48637 0.178244,1.21658 0.255587,1.68559 0.07734,0.469 0.100433,0.67679 0.123524,0.89036 0.02309,0.21357 0.04618,0.4329 0.05484,0.63781 0.0087,0.20491 0.0029,0.39539 0.0058,0.52527 0.0029,0.12989 0.01443,0.19912 0.07792,0.20201 0.0635,0.003 0.178933,-0.0606 0.294366,-0.12987 0.115434,-0.0693 0.230887,-0.1443 0.288609,-0.18182 0.05772,-0.0375 0.05769,-0.0375 0.0057,-0.18181 z"
           id="path411"
           inkscape:path-effect="#path-effect473"
           inkscape:original-d="m 92.156745,165.59469 c -0.103897,-0.2886 -0.207794,-0.5772 -0.31169,-0.86581 -0.05772,-0.32901 -0.115443,-0.65801 -0.173162,-0.98702 -0.214511,-0.90347 -0.428954,-1.80665 -0.643522,-2.71036 -0.03831,0.24256 -0.07661,0.48498 -0.11491,0.72748 0.131601,0.73024 0.263197,1.46045 0.394793,2.19066 0.0231,0.2078 0.04618,0.41559 0.06927,0.62338 0.0231,0.21935 0.04618,0.43868 0.06927,0.65802 -0.0058,0.19048 -0.01154,0.38096 -0.0173,0.57143 0.01154,0.0693 0.0231,0.13853 0.03463,0.2078 0.115446,-0.0635 0.230884,-0.12699 0.346324,-0.19048 0.115446,-0.075 0.230883,-0.15007 0.346324,-0.22511 z"
           transform="translate(0,-0.1714215)"
           sodipodi:nodetypes="sccccccccccss" /></g><circle
         style="opacity:1;fill:#ff0302;fill-opacity:1;stroke:#871a09;stroke-width:0.165;stroke-linecap:round;stroke-linejoin:round;stroke-dasharray:none;stroke-opacity:1"
         id="circle411"
         cx="59.837204"
         cy="203.27663"
         r="0.66119725" /><circle
         style="opacity:1;fill:#ff0302;fill-opacity:1;stroke:#871a09;stroke-width:0.165;stroke-linecap:round;stroke-linejoin:round;stroke-dasharray:none;stroke-opacity:1"
         id="circle412"
         cx="59.767941"
         cy="205.28531"
         r="0.66119725" /></g></g></svg>
