<?xml version="1.0" encoding="UTF-8" standalone="no"?>
<!-- Created with Inkscape (http://www.inkscape.org/) -->

<svg
   width="22.958473mm"
   height="36.993172mm"
   viewBox="0 0 22.958473 36.993172"
   version="1.1"
   id="svg1"
   xml:space="preserve"
   inkscape:version="1.3.2 (091e20ef0f, 2023-11-25)"
   sodipodi:docname="LittleRed.svg"
   xmlns:inkscape="http://www.inkscape.org/namespaces/inkscape"
   xmlns:sodipodi="http://sodipodi.sourceforge.net/DTD/sodipodi-0.dtd"
   xmlns:xlink="http://www.w3.org/1999/xlink"
   xmlns="http://www.w3.org/2000/svg"
   xmlns:svg="http://www.w3.org/2000/svg"><sodipodi:namedview
     id="namedview1"
     pagecolor="#505050"
     bordercolor="#eeeeee"
     borderopacity="1"
     inkscape:showpageshadow="0"
     inkscape:pageopacity="0"
     inkscape:pagecheckerboard="0"
     inkscape:deskcolor="#d1d1d1"
     inkscape:document-units="mm"
     inkscape:zoom="1.3505331"
     inkscape:cx="329.49952"
     inkscape:cy="747.85283"
     inkscape:window-width="1366"
     inkscape:window-height="706"
     inkscape:window-x="-8"
     inkscape:window-y="-8"
     inkscape:window-maximized="1"
     inkscape:current-layer="layer2"
     showgrid="false" /><defs
     id="defs1"><inkscape:path-effect
       effect="bspline"
       id="path-effect487"
       is_visible="true"
       lpeversion="1.3"
       weight="33.333333"
       steps="2"
       helper_size="0"
       apply_no_weight="true"
       apply_with_weight="true"
       only_selected="false"
       uniform="false" /><inkscape:path-effect
       effect="bspline"
       id="path-effect485"
       is_visible="true"
       lpeversion="1.3"
       weight="33.333333"
       steps="2"
       helper_size="0"
       apply_no_weight="true"
       apply_with_weight="true"
       only_selected="false"
       uniform="false" /><inkscape:path-effect
       effect="bspline"
       id="path-effect483"
       is_visible="true"
       lpeversion="1.3"
       weight="33.333333"
       steps="2"
       helper_size="0"
       apply_no_weight="true"
       apply_with_weight="true"
       only_selected="false"
       uniform="false" /><linearGradient
       id="linearGradient6"
       inkscape:collect="always"><stop
         style="stop-color:#df6c69;stop-opacity:1;"
         offset="0"
         id="stop6" /><stop
         style="stop-color:#fa0002;stop-opacity:1;"
         offset="0.28644067"
         id="stop8" /><stop
         style="stop-color:#c30003;stop-opacity:1;"
         offset="0.63474578"
         id="stop9" /><stop
         style="stop-color:#f94c48;stop-opacity:1;"
         offset="0.68855935"
         id="stop10" /><stop
         style="stop-color:#c90001;stop-opacity:1;"
         offset="1"
         id="stop7" /></linearGradient><linearGradient
       inkscape:collect="always"
       xlink:href="#linearGradient6"
       id="linearGradient517"
       gradientUnits="userSpaceOnUse"
       x1="103.08064"
       y1="126.95338"
       x2="107.81947"
       y2="164.07837" /></defs><g
     inkscape:groupmode="layer"
     id="layer2"
     inkscape:label="Layer 2"
     transform="translate(-126.61811,-192.88453)"><g
       id="g439"
       transform="translate(32.717019,59.164908)"><path
         style="fill:url(#linearGradient517);fill-rule:evenodd;stroke:#7d220e;stroke-width:0.264583px;stroke-linecap:butt;stroke-linejoin:miter;stroke-opacity:1"
         d="m 113.41573,163.10347 c -0.11428,-0.38365 -0.34284,-1.15097 -0.49794,-1.83666 -0.15509,-0.68569 -0.23672,-1.28973 -0.29387,-1.86931 -0.0571,-0.57957 -0.0898,-1.13464 -0.23676,-1.79584 -0.14694,-0.66121 -0.40815,-1.42851 -0.67753,-1.99175 -0.26937,-0.56325 -0.54691,-0.92241 -0.87343,-1.28158 -0.32652,-0.35918 -0.70201,-0.71834 -1.10199,-1.06119 -0.39999,-0.34284 -0.82446,-0.66935 -1.17547,-1.02036 -0.351,-0.35101 -0.62854,-0.7265 -0.84078,-1.0122 -0.21223,-0.28571 -0.35916,-0.48161 -0.53058,-0.64487 -0.17143,-0.16326 -0.36734,-0.29387 -0.5306,-0.34284 -0.16326,-0.049 -0.29385,-0.0163 -0.35916,0.17145 -0.0653,0.18776 -0.0653,0.5306 -0.16327,0.86528 -0.0979,0.33468 -0.29386,0.66119 -0.5714,1.02853 -0.27754,0.36734 -0.63671,0.77548 -0.95506,1.17547 -0.31836,0.39998 -0.59589,0.79179 -0.9469,1.22443 -0.35101,0.43264 -0.77548,0.90608 -1.08567,1.30607 -0.3102,0.39999 -0.5061,0.7265 -0.75099,0.95506 -0.24489,0.22856 -0.53875,0.35917 -0.73466,0.68568 -0.19591,0.32652 -0.29387,0.84895 -0.39999,1.39587 -0.10611,0.54692 -0.2204,1.11832 -0.32652,1.64891 -0.10611,0.53059 -0.20407,1.02036 -0.33467,1.44484 -0.13061,0.42447 -0.29387,0.78364 -0.448968,1.06934 -0.155098,0.28571 -0.302027,0.49794 -0.473449,0.51426 -0.171423,0.0163 -0.36733,-0.16326 -0.530589,-0.31835 -0.163259,-0.1551 -0.293861,-0.2857 -0.465284,-0.34284 -0.171423,-0.0571 -0.383662,-0.0408 -0.628553,-0.008 -0.244891,0.0327 -0.522427,0.0816 -0.832624,0.0571 -0.310197,-0.0245 -0.653022,-0.12244 -0.938728,-0.31019 -0.285706,-0.18775 -0.514262,-0.46528 -0.685685,-0.66119 -0.171423,-0.19592 -0.285701,-0.3102 -0.367331,-0.43264 -0.08163,-0.12245 -0.130604,-0.25305 -0.0653,-0.35101 0.0653,-0.098 0.244884,-0.16326 0.432635,-0.26121 0.187751,-0.098 0.383655,-0.22856 0.555078,-0.41631 0.171424,-0.18775 0.318357,-0.43264 0.473453,-0.75916 0.155097,-0.32652 0.318353,-0.73466 0.47345,-1.1673 0.155097,-0.43264 0.302026,-0.88975 0.457123,-1.42851 0.155098,-0.53876 0.318353,-1.15913 0.489775,-1.69789 0.171422,-0.53875 0.351005,-0.99587 0.587733,-1.40402 0.236728,-0.40815 0.530587,-0.76731 0.799965,-1.15097 0.269378,-0.38366 0.514261,-0.7918 0.816293,-1.14281 0.302033,-0.35101 0.661196,-0.64487 0.906086,-0.8816 0.24489,-0.23672 0.37549,-0.4163 0.51425,-0.55506 0.13875,-0.13877 0.28571,-0.23674 0.22858,-0.33469 -0.0571,-0.098 -0.31836,-0.19592 -0.71018,-0.3102 -0.39183,-0.11428 -0.914249,-0.24488 -1.444845,-0.43263 -0.530596,-0.18775 -1.069341,-0.43263 -1.583609,-0.7265 -0.514268,-0.29387 -1.004036,-0.63671 -1.428512,-0.98772 -0.424475,-0.35101 -0.783636,-0.71017 -1.085666,-1.14281 -0.30203,-0.43264 -0.546914,-0.93873 -0.734663,-1.54279 -0.187749,-0.60407 -0.318353,-1.30607 -0.383656,-2.04074 -0.0653,-0.73467 -0.0653,-1.50197 0.0082,-2.17134 0.07347,-0.66936 0.2204,-1.24076 0.416313,-1.77135 0.195913,-0.5306 0.440793,-1.02036 0.742826,-1.54279 0.302032,-0.52244 0.661196,-1.07751 1.118325,-1.64892 0.457129,-0.57141 1.012197,-1.15913 1.567279,-1.76319 0.555082,-0.60406 1.110151,-1.22443 1.632584,-1.80401 0.522433,-0.57957 1.0122,-1.11831 1.41219,-1.56727 0.39998,-0.44897 0.71017,-0.80813 0.97138,-1.22445 0.26122,-0.41631 0.47345,-0.88975 0.65304,-1.24076 0.17959,-0.35101 0.32652,-0.57957 0.51426,-0.76731 0.18775,-0.18775 0.41631,-0.33468 0.66936,-0.41632 0.25306,-0.0816 0.53059,-0.098 0.82446,0.0571 0.29387,0.15509 0.60405,0.4816 1.00404,0.84893 0.39999,0.36734 0.88976,0.77548 1.33872,1.1918 0.44897,0.41631 0.8571,0.84077 1.33872,1.31422 0.48162,0.47346 1.03669,0.99588 1.59994,1.4775 0.56325,0.48162 1.13464,0.9224 1.70605,1.39586 0.57141,0.47345 1.1428,0.97955 1.66523,1.49381 0.52244,0.51427 0.99588,1.03669 1.3877,1.51831 0.39182,0.48161 0.70201,0.92241 0.97139,1.48565 0.26938,0.56325 0.49794,1.24892 0.65303,1.82849 0.1551,0.57957 0.23673,1.05302 0.20408,1.70607 -0.0327,0.65304 -0.17959,1.48564 -0.42448,2.30194 -0.24489,0.8163 -0.58773,1.61625 -1.00404,2.26929 -0.41632,0.65304 -0.90608,1.15913 -1.35505,1.59177 -0.44896,0.43264 -0.8571,0.7918 -1.22444,1.0775 -0.36733,0.28571 -0.69384,0.49794 -1.02036,0.6612 -0.32652,0.16326 -0.65303,0.27754 -0.90608,0.36733 -0.25306,0.0898 -0.43264,0.1551 -0.48162,0.24488 -0.049,0.0898 0.0327,0.20408 0.21225,0.34285 0.17958,0.13877 0.45711,0.30203 0.77547,0.53876 0.31836,0.23673 0.67752,0.54691 0.96323,0.88159 0.2857,0.33469 0.49793,0.69385 0.71833,1.07751 0.2204,0.38366 0.44896,0.7918 0.62854,1.19995 0.17959,0.40815 0.31019,0.81629 0.40815,1.22444 0.098,0.40815 0.16326,0.81629 0.25306,1.24893 0.0898,0.43264 0.20407,0.88975 0.40814,1.37954 0.20408,0.48978 0.49794,1.0122 0.75099,1.41218 0.25305,0.39999 0.46529,0.67752 0.66936,0.91425 0.20407,0.23673 0.39998,0.43263 0.56324,0.62038 0.16326,0.18775 0.29386,0.36733 0.31019,0.56324 0.0163,0.1959 -0.0816,0.40815 -0.24489,0.57957 -0.16326,0.17142 -0.39182,0.30203 -0.60406,0.39998 -0.21223,0.0979 -0.40814,0.16326 -0.57956,0.21224 -0.17143,0.049 -0.31834,0.0816 -0.47345,0.098 -0.1551,0.0163 -0.31835,0.0163 -0.47345,0.0816 -0.1551,0.0653 -0.30203,0.1959 -0.41631,0.34283 -0.11428,0.14693 -0.19591,0.3102 -0.23673,0.39182 -0.0408,0.0816 -0.0408,0.0816 -0.15505,-0.3021 z"
         id="path436"
         inkscape:path-effect="#path-effect483"
         inkscape:original-d="m 113.53001,163.48713 c -0.22856,-0.76731 -0.45712,-1.53463 -0.68568,-2.30194 -0.0816,-0.60407 -0.16326,-1.20811 -0.24489,-1.81217 -0.0327,-0.55509 -0.0653,-1.11016 -0.098,-1.66524 -0.26122,-0.76733 -0.52242,-1.53463 -0.78364,-2.30194 -0.27754,-0.35918 -0.55508,-0.71834 -0.83262,-1.07751 -0.3755,-0.35918 -0.75099,-0.71834 -1.12648,-1.07751 -0.42448,-0.32652 -0.84895,-0.65303 -1.27342,-0.97955 -0.27754,-0.3755 -0.55508,-0.75099 -0.83262,-1.12648 -0.14693,-0.19592 -0.29386,-0.39182 -0.44079,-0.58773 -0.19592,-0.13061 -0.39183,-0.26122 -0.58774,-0.39183 -0.1306,0.0327 -0.26121,0.0653 -0.39182,0.098 0,0.34285 0,0.68569 0,1.02853 -0.19591,0.32652 -0.39182,0.65303 -0.58773,0.97955 -0.35917,0.40816 -0.71834,0.8163 -1.0775,1.22444 -0.27755,0.39183 -0.55508,0.78364 -0.83262,1.17546 -0.42448,0.47346 -0.84895,0.9469 -1.27342,1.42035 -0.19591,0.32653 -0.39182,0.65304 -0.58773,0.97955 -0.29387,0.13061 -0.58773,0.26122 -0.8816,0.39183 -0.0979,0.52243 -0.19591,1.04485 -0.29386,1.56728 -0.11429,0.57141 -0.22856,1.14281 -0.34285,1.71421 -0.0979,0.48979 -0.19591,0.97955 -0.29386,1.46933 -0.163262,0.35917 -0.326518,0.71834 -0.489776,1.0775 -0.146936,0.21225 -0.293865,0.42448 -0.440799,0.63671 -0.195913,-0.17959 -0.391821,-0.35917 -0.587729,-0.53875 -0.130612,-0.13061 -0.261215,-0.26121 -0.391822,-0.39182 -0.21224,0.0163 -0.424473,0.0327 -0.636709,0.049 -0.277545,0.049 -0.555077,0.098 -0.832617,0.14693 -0.34285,-0.098 -0.685686,-0.19591 -1.028531,-0.29386 -0.228565,-0.27755 -0.457123,-0.55508 -0.685686,-0.83262 -0.114281,-0.11429 -0.22856,-0.22857 -0.342842,-0.34285 -0.04898,-0.13061 -0.09795,-0.26121 -0.146933,-0.39182 0.179588,-0.0653 0.359169,-0.1306 0.538755,-0.19591 0.195913,-0.13061 0.391819,-0.26121 0.587729,-0.39182 0.146937,-0.24489 0.293865,-0.48978 0.440799,-0.73466 0.163261,-0.40816 0.326517,-0.8163 0.489775,-1.22444 0.146937,-0.45714 0.293865,-0.91425 0.440799,-1.37137 0.163261,-0.6204 0.326517,-1.24077 0.489775,-1.86115 0.179589,-0.45713 0.359169,-0.91425 0.538753,-1.37137 0.293872,-0.35918 0.587732,-0.71834 0.881597,-1.07751 0.244893,-0.40815 0.489775,-0.81629 0.734663,-1.22444 0.359177,-0.29387 0.718339,-0.58773 1.077509,-0.8816 0.13061,-0.17958 0.26121,-0.35916 0.39182,-0.53875 0.14693,-0.0979 0.29386,-0.19591 0.4408,-0.29387 -0.26122,-0.0979 -0.52243,-0.1959 -0.78364,-0.29386 -0.52244,-0.13061 -1.04486,-0.26121 -1.567288,-0.39182 -0.538763,-0.24489 -1.077505,-0.48978 -1.61626,-0.73466 -0.489783,-0.34285 -0.979551,-0.68569 -1.469326,-1.02853 -0.359175,-0.35918 -0.718339,-0.71834 -1.077505,-1.07751 -0.244893,-0.50611 -0.489776,-1.0122 -0.734666,-1.5183 -0.130609,-0.70203 -0.261213,-1.40403 -0.391819,-2.10604 0,-0.76733 0,-1.53463 0,-2.30195 0.146936,-0.57141 0.293865,-1.14281 0.440799,-1.71421 0.244893,-0.48979 0.489775,-0.97955 0.734663,-1.46933 0.359174,-0.55509 0.718338,-1.11016 1.077505,-1.66523 0.55509,-0.58775 1.11016,-1.17547 1.665237,-1.7632 0.555091,-0.62039 1.11016,-1.24076 1.66524,-1.86115 0.489783,-0.53876 0.97955,-1.0775 1.46933,-1.61626 0.31019,-0.35917 0.62038,-0.71833 0.93057,-1.0775 0.21224,-0.47346 0.42447,-0.9469 0.63671,-1.42035 0.14693,-0.22857 0.29386,-0.45713 0.4408,-0.68569 0.22856,-0.14693 0.45712,-0.29386 0.68568,-0.4408 0.27755,-0.0163 0.55508,-0.0327 0.83262,-0.049 0.3102,0.32652 0.62038,0.65303 0.93058,0.97955 0.48978,0.40815 0.97955,0.81629 1.46932,1.22444 0.40816,0.42448 0.81629,0.84894 1.22444,1.27341 0.55509,0.52244 1.11016,1.04486 1.66524,1.56729 0.57142,0.4408 1.14281,0.88159 1.71421,1.32239 0.57142,0.50611 1.14281,1.01221 1.71422,1.51831 0.47346,0.52243 0.9469,1.04485 1.42035,1.56728 0.3102,0.4408 0.62038,0.8816 0.93057,1.32239 0.22857,0.6857 0.45713,1.37137 0.68569,2.05706 0.0816,0.47346 0.16326,0.9469 0.24489,1.42035 -0.14694,0.83264 -0.29387,1.66524 -0.4408,2.49786 -0.34285,0.79998 -0.68569,1.59993 -1.02853,2.3999 -0.48979,0.50611 -0.97955,1.0122 -1.46933,1.5183 -0.40815,0.35918 -0.81629,0.71834 -1.22444,1.07751 -0.32652,0.21224 -0.65303,0.42447 -0.97955,0.63671 -0.32652,0.11428 -0.65303,0.22856 -0.97955,0.34284 -0.17959,0.0653 -0.35917,0.13061 -0.53875,0.19591 0.0816,0.11428 0.16326,0.22856 0.24489,0.34284 0.27754,0.16327 0.55507,0.32652 0.83261,0.48978 0.35918,0.3102 0.71834,0.62038 1.07751,0.93057 0.21224,0.35918 0.42447,0.71834 0.63671,1.07751 0.22857,0.40815 0.45712,0.81629 0.68568,1.22444 0.13061,0.40815 0.26122,0.81629 0.39182,1.22444 0.0653,0.40815 0.13061,0.81629 0.19592,1.22444 0.11428,0.45713 0.22856,0.91424 0.34284,1.37137 0.29387,0.52244 0.58773,1.04486 0.88159,1.56728 0.21224,0.27755 0.42448,0.55508 0.63671,0.83262 0.19592,0.19591 0.39182,0.39182 0.58773,0.58773 0.13061,0.17959 0.26122,0.35917 0.39182,0.53876 -0.0979,0.21224 -0.19591,0.42447 -0.29386,0.6367 -0.22857,0.13061 -0.45713,0.26122 -0.68569,0.39182 -0.19591,0.0653 -0.39182,0.13061 -0.58773,0.19591 -0.14693,0.0327 -0.29386,0.0653 -0.4408,0.098 -0.16326,0 -0.32651,0 -0.48977,0 -0.14694,0.13061 -0.29387,0.26121 -0.4408,0.39182 -0.0816,0.16326 -0.16326,0.32652 -0.24489,0.48977 z"
         transform="translate(0.126171,6.8472626)" /><g
         id="g438"
         transform="translate(-0.152454,6.7887899)"><path
           style="fill:none;fill-rule:evenodd;stroke:#faf6f6;stroke-width:0.264583px;stroke-linecap:butt;stroke-linejoin:miter;stroke-opacity:1"
           d="m 107.64896,152.68259 c 0.11544,0.0231 0.34631,0.0693 0.55122,0.0721 0.20492,0.003 0.38386,-0.0375 0.51951,-0.12699 0.13565,-0.0895 0.22798,-0.22799 0.25685,-0.39827 0.0289,-0.17027 -0.006,-0.37231 -0.1039,-0.56278 -0.0981,-0.19047 -0.25975,-0.36941 -0.44157,-0.52526 -0.18182,-0.15584 -0.38384,-0.28859 -0.58009,-0.40981 -0.19625,-0.12121 -0.38672,-0.23088 -0.53968,-0.31457 -0.15296,-0.0837 -0.26841,-0.14142 -0.36078,-0.18184 -0.0924,-0.0404 -0.1616,-0.0635 -0.18468,0.009 -0.0231,0.0721 2e-5,0.23953 0.0202,0.40692 0.0202,0.1674 0.0375,0.33478 0.0375,0.49063 0,0.15585 -0.0173,0.30015 0.006,0.43002 0.0231,0.12987 0.0866,0.24531 0.14143,0.37808 0.0548,0.13276 0.101,0.28278 0.17894,0.39248 0.0779,0.10969 0.18758,0.17894 0.25686,0.22513 0.0693,0.0462 0.0981,0.0693 0.11255,0.0808 0.0144,0.0116 0.0144,0.0116 0.12982,0.0346 z"
           id="path437"
           inkscape:path-effect="#path-effect485"
           inkscape:original-d="m 107.53352,152.6595 c 0.23088,0.0462 0.46176,0.0923 0.69265,0.13853 0.17893,-0.0404 0.35787,-0.0808 0.5368,-0.12121 0.0924,-0.13853 0.1847,-0.27706 0.27706,-0.41559 -0.0346,-0.20203 -0.0693,-0.40405 -0.1039,-0.60607 -0.16162,-0.17893 -0.32324,-0.35787 -0.48485,-0.5368 -0.20203,-0.13276 -0.40405,-0.26551 -0.60607,-0.39827 -0.19048,-0.10967 -0.38095,-0.21934 -0.57143,-0.32901 -0.11545,-0.0577 -0.23089,-0.11544 -0.34633,-0.17316 -0.0693,-0.0231 -0.13853,-0.0462 -0.20779,-0.0693 0.0231,0.16739 0.0462,0.33477 0.0693,0.50216 0.0173,0.1674 0.0346,0.33478 0.0519,0.50217 -0.0173,0.14431 -0.0346,0.28861 -0.0519,0.43291 0.0635,0.11544 0.12699,0.23088 0.19048,0.34632 0.0462,0.15009 0.0923,0.30013 0.13854,0.45022 0.10968,0.0693 0.21933,0.13853 0.329,0.2078 0.0289,0.0231 0.0577,0.0462 0.0866,0.0693 z"
           sodipodi:nodetypes="cccccccccccccccccc" /><path
           style="fill:none;fill-rule:evenodd;stroke:#faf6f6;stroke-width:0.264583px;stroke-linecap:butt;stroke-linejoin:miter;stroke-opacity:1"
           d="m 106.58402,151.6263 c -0.0491,0.14429 -0.14719,0.43291 -0.3319,0.69265 -0.18471,0.25975 -0.45599,0.49063 -0.69265,0.6003 -0.23665,0.10968 -0.43867,0.0981 -0.60895,0.003 -0.17028,-0.0952 -0.3088,-0.27417 -0.3925,-0.45888 -0.0837,-0.1847 -0.11256,-0.37517 -0.0462,-0.57142 0.0664,-0.19626 0.22799,-0.39827 0.41847,-0.55989 0.19048,-0.16162 0.40982,-0.28284 0.60894,-0.38961 0.19913,-0.10678 0.37808,-0.19915 0.52528,-0.29151 0.1472,-0.0924 0.26262,-0.18469 0.35208,-0.24818 0.0895,-0.0635 0.15298,-0.0981 0.19916,-0.0289 0.0462,0.0693 0.075,0.24242 0.0837,0.3925 0.009,0.15008 -0.003,0.27706 -0.0173,0.39251 -0.0144,0.11544 -0.0317,0.21933 -0.0404,0.27128 -0.009,0.052 -0.009,0.0519 -0.0578,0.19622 z"
           id="path438"
           inkscape:path-effect="#path-effect487"
           inkscape:original-d="m 106.63308,151.482 c -0.0981,0.2886 -0.19625,0.57721 -0.29438,0.86581 -0.27129,0.23089 -0.54257,0.46177 -0.81386,0.69265 -0.20202,-0.0115 -0.40404,-0.0231 -0.60606,-0.0346 -0.13854,-0.17894 -0.27707,-0.35787 -0.41559,-0.53681 -0.0289,-0.19048 -0.0577,-0.38095 -0.0866,-0.57143 0.16163,-0.20203 0.32324,-0.40404 0.48486,-0.60607 0.21934,-0.12121 0.43868,-0.24242 0.65802,-0.36364 0.17893,-0.0923 0.35786,-0.1847 0.53679,-0.27706 0.11545,-0.0924 0.23089,-0.1847 0.34633,-0.27705 0.0635,-0.0346 0.12699,-0.0693 0.19048,-0.1039 0.0289,0.17316 0.0577,0.34632 0.0866,0.51948 -0.0115,0.12699 -0.0231,0.25397 -0.0346,0.38096 -0.0173,0.1039 -0.0346,0.20779 -0.0519,0.31169 z" /></g></g></g></svg>
