<?xml version="1.0" encoding="UTF-8" standalone="no"?>
<!-- Created with Inkscape (http://www.inkscape.org/) -->

<svg
   width="5.0720096mm"
   height="6.7746353mm"
   viewBox="0 0 5.0720096 6.7746353"
   version="1.1"
   id="svg1"
   xml:space="preserve"
   inkscape:version="1.3.2 (091e20ef0f, 2023-11-25)"
   sodipodi:docname="LittleRed.svg"
   xmlns:inkscape="http://www.inkscape.org/namespaces/inkscape"
   xmlns:sodipodi="http://sodipodi.sourceforge.net/DTD/sodipodi-0.dtd"
   xmlns:xlink="http://www.w3.org/1999/xlink"
   xmlns="http://www.w3.org/2000/svg"
   xmlns:svg="http://www.w3.org/2000/svg"><sodipodi:namedview
     id="namedview1"
     pagecolor="#505050"
     bordercolor="#eeeeee"
     borderopacity="1"
     inkscape:showpageshadow="0"
     inkscape:pageopacity="0"
     inkscape:pagecheckerboard="0"
     inkscape:deskcolor="#d1d1d1"
     inkscape:document-units="mm"
     inkscape:zoom="1.3505331"
     inkscape:cx="329.49952"
     inkscape:cy="747.85283"
     inkscape:window-width="1366"
     inkscape:window-height="706"
     inkscape:window-x="-8"
     inkscape:window-y="-8"
     inkscape:window-maximized="1"
     inkscape:current-layer="layer2"
     showgrid="false" /><defs
     id="defs1"><inkscape:path-effect
       effect="bspline"
       id="path-effect465"
       is_visible="true"
       lpeversion="1.3"
       weight="33.333333"
       steps="2"
       helper_size="0"
       apply_no_weight="true"
       apply_with_weight="true"
       only_selected="false"
       uniform="false" /><inkscape:path-effect
       effect="bspline"
       id="path-effect461"
       is_visible="true"
       lpeversion="1.3"
       weight="33.333333"
       steps="2"
       helper_size="0"
       apply_no_weight="true"
       apply_with_weight="true"
       only_selected="false"
       uniform="false" /><inkscape:path-effect
       effect="bspline"
       id="path-effect457"
       is_visible="true"
       lpeversion="1.3"
       weight="33.333333"
       steps="2"
       helper_size="0"
       apply_no_weight="true"
       apply_with_weight="true"
       only_selected="false"
       uniform="false" /><linearGradient
       id="linearGradient47"
       inkscape:collect="always"><stop
         style="stop-color:#f84a4a;stop-opacity:1;"
         offset="0"
         id="stop47" /><stop
         style="stop-color:#de0b0c;stop-opacity:1;"
         offset="1"
         id="stop48" /></linearGradient><linearGradient
       id="linearGradient43"
       inkscape:collect="always"><stop
         style="stop-color:#f0a084;stop-opacity:1;"
         offset="0"
         id="stop43" /><stop
         style="stop-color:#fdbfa3;stop-opacity:1;"
         offset="1"
         id="stop44" /></linearGradient><linearGradient
       inkscape:collect="always"
       xlink:href="#linearGradient43"
       id="linearGradient519"
       gradientUnits="userSpaceOnUse"
       x1="90.031593"
       y1="163.66962"
       x2="90.092003"
       y2="169.05714" /><linearGradient
       inkscape:collect="always"
       xlink:href="#linearGradient47"
       id="linearGradient521"
       gradientUnits="userSpaceOnUse"
       x1="87.055992"
       y1="169.09024"
       x2="92.056755"
       y2="169.09024" /></defs><g
     inkscape:groupmode="layer"
     id="layer2"
     inkscape:label="Layer 2"
     transform="translate(-139.64926,-230.40255)"><g
       id="g521"><path
         style="fill:url(#linearGradient519);fill-rule:evenodd;stroke:#2a1e0b;stroke-width:0.165;stroke-linecap:butt;stroke-linejoin:miter;stroke-dasharray:none;stroke-opacity:1"
         d="m 92.004369,164.5075 c 0.02449,0.67752 0.07347,2.03257 0.09795,2.9958 0.02449,0.96323 0.02449,1.53463 -0.114283,1.65707 -0.138771,0.12244 -0.416304,-0.20407 -0.702011,-0.45712 -0.285708,-0.25306 -0.579567,-0.43264 -0.963228,-0.5306 -0.383661,-0.0979 -0.8571,-0.11429 -1.232595,-0.0816 -0.375494,0.0326 -0.653037,0.11428 -0.808132,-0.10612 -0.155096,-0.22041 -0.187745,-0.74283 -0.171418,-1.22444 0.01633,-0.48162 0.08163,-0.92241 0.13877,-1.33056 0.05714,-0.40815 0.106117,-0.78364 0.138769,-1.0775 0.03265,-0.29387 0.04898,-0.50611 0.644885,-0.57957 0.595906,-0.0735 1.771343,-0.008 2.359074,0.0245 0.587731,0.0326 0.587727,0.0327 0.612215,0.71019 z"
         id="path403"
         inkscape:path-effect="#path-effect457"
         inkscape:original-d="m 91.979881,163.82998 c 0.04898,1.35504 0.09795,2.71009 0.146931,4.06514 0,0.57141 0,1.14281 0,1.71421 -0.277545,-0.32652 -0.555077,-0.65303 -0.832617,-0.97955 -0.293873,-0.17959 -0.587732,-0.35917 -0.881597,-0.53875 -0.473459,-0.0163 -0.946899,-0.0326 -1.420349,-0.049 -0.277546,0.0816 -0.55508,0.16326 -0.83262,0.24489 -0.03265,-0.52244 -0.0653,-1.04486 -0.09795,-1.56728 0.0653,-0.44081 0.130606,-0.8816 0.19591,-1.3224 0.04898,-0.3755 0.09795,-0.75099 0.146931,-1.12648 0.01632,-0.21224 0.03265,-0.42448 0.04898,-0.63671 1.175486,0.0653 2.350923,0.1306 3.526385,0.19591 z"
         transform="translate(52.524058,66.74634)" /><path
         style="fill:url(#linearGradient521);fill-rule:evenodd;stroke:#2a1e0b;stroke-width:0.165;stroke-linecap:butt;stroke-linejoin:miter;stroke-dasharray:none;stroke-opacity:1"
         d="m 87.792297,170.22972 c 0.171421,0.0326 0.514266,0.098 0.857111,0.11428 0.342845,0.0163 0.685685,-0.0163 1.028527,-0.0489 0.342843,-0.0326 0.685683,-0.0653 0.93874,-0.10614 0.253058,-0.0408 0.41629,-0.0898 0.587721,-0.17958 0.171431,-0.0898 0.35101,-0.2204 0.506101,-0.32652 0.155091,-0.10611 0.285709,-0.18775 0.261218,-0.31836 -0.02449,-0.13061 -0.204073,-0.31019 -0.375496,-0.49794 -0.171424,-0.18775 -0.334676,-0.38365 -0.604058,-0.56324 -0.269382,-0.17958 -0.644867,-0.34284 -1.028528,-0.4163 -0.383662,-0.0735 -0.775475,-0.0571 -1.028525,-0.0408 -0.253049,0.0163 -0.367338,0.0327 -0.522432,0.098 -0.155095,0.0653 -0.351001,0.17959 -0.519363,0.30918 -0.168361,0.12958 -0.30917,0.27447 -0.407125,0.41324 -0.09796,0.13877 -0.153057,0.27142 -0.206044,0.44098 -0.05299,0.16956 -0.10386,0.37602 -0.04672,0.56376 0.05714,0.18775 0.222295,0.35678 0.304873,0.44129 0.08258,0.0845 0.08258,0.0845 0.254,0.11713 z"
         id="path405"
         inkscape:path-effect="#path-effect461"
         inkscape:original-d="m 87.620876,170.19706 c 0.342843,0.0653 0.685686,0.13061 1.028528,0.19591 0.342852,-0.0326 0.685686,-0.0653 1.028531,-0.0979 0.342849,-0.0326 0.685686,-0.0653 1.028528,-0.098 0.163264,-0.049 0.326517,-0.0979 0.489775,-0.14693 0.179589,-0.13061 0.359169,-0.26121 0.538755,-0.39182 0.130609,-0.0816 0.261213,-0.16326 0.391819,-0.24489 -0.179586,-0.17959 -0.359169,-0.35917 -0.538752,-0.53875 -0.163261,-0.19592 -0.326517,-0.39182 -0.489776,-0.58773 -0.375502,-0.16327 -0.75099,-0.32652 -1.126485,-0.48978 -0.391829,0.0163 -0.78364,0.0327 -1.175461,0.049 -0.114284,0.0163 -0.228563,0.0327 -0.342842,0.049 -0.195916,0.11428 -0.391821,0.22856 -0.587732,0.34284 -0.140814,0.14489 -0.281621,0.28978 -0.422431,0.43467 -0.0551,0.13265 -0.110203,0.2653 -0.165302,0.39795 -0.05087,0.20647 -0.101746,0.41293 -0.15262,0.61939 0.165154,0.16903 0.330308,0.33806 0.495462,0.50709 10e-7,-2e-5 2e-6,-3e-5 3e-6,-5e-5 z"
         transform="translate(52.524058,66.74634)"
         sodipodi:nodetypes="ccsccccccccccscsac" /><path
         style="fill:#feae99;fill-opacity:1;fill-rule:evenodd;stroke:none;stroke-width:0.264583px;stroke-linecap:butt;stroke-linejoin:miter;stroke-opacity:1"
         d="m 64.80549,167.48697 c 0.383659,0.0653 1.265254,0.0653 1.56728,-0.0163 0.302025,-0.0816 0.02449,-0.24488 -0.261215,-0.351 -0.285708,-0.10612 -0.579572,-0.15509 -0.824453,-0.13877 -0.244882,0.0163 -0.440796,0.0979 -0.595893,0.20407 -0.155097,0.10612 -0.269379,0.23673 0.114281,0.30203 z"
         id="path407"
         inkscape:path-effect="#path-effect465"
         inkscape:original-d="m 64.307553,167.55227 c 0.881596,0 1.763191,0 2.644788,0 -0.277546,-0.16326 -0.55508,-0.32651 -0.832618,-0.48977 -0.293872,-0.049 -0.587732,-0.098 -0.881597,-0.14693 -0.195916,0.0816 -0.391821,0.16325 -0.587732,0.24488 -0.114281,0.13061 -0.22856,0.26122 -0.342841,0.39182 z"
         transform="matrix(-1.3002788,0,0,1,226.95487,67.872824)" /></g></g></svg>
