<?xml version="1.0" encoding="UTF-8" standalone="no"?>
<!-- Created with Inkscape (http://www.inkscape.org/) -->

<svg
   width="5.9951768mm"
   height="9.2194633mm"
   viewBox="0 0 5.9951768 9.2194633"
   version="1.1"
   id="svg1"
   xml:space="preserve"
   inkscape:version="1.3.2 (091e20ef0f, 2023-11-25)"
   sodipodi:docname="LittleRed.svg"
   xmlns:inkscape="http://www.inkscape.org/namespaces/inkscape"
   xmlns:sodipodi="http://sodipodi.sourceforge.net/DTD/sodipodi-0.dtd"
   xmlns="http://www.w3.org/2000/svg"
   xmlns:svg="http://www.w3.org/2000/svg"><sodipodi:namedview
     id="namedview1"
     pagecolor="#505050"
     bordercolor="#eeeeee"
     borderopacity="1"
     inkscape:showpageshadow="0"
     inkscape:pageopacity="0"
     inkscape:pagecheckerboard="0"
     inkscape:deskcolor="#d1d1d1"
     inkscape:document-units="mm"
     inkscape:zoom="1.3505331"
     inkscape:cx="329.49952"
     inkscape:cy="747.85283"
     inkscape:window-width="1366"
     inkscape:window-height="706"
     inkscape:window-x="-8"
     inkscape:window-y="-8"
     inkscape:window-maximized="1"
     inkscape:current-layer="layer2"
     showgrid="false" /><defs
     id="defs1"><inkscape:path-effect
       effect="bspline"
       id="path-effect481"
       is_visible="true"
       lpeversion="1.3"
       weight="33.333333"
       steps="2"
       helper_size="0"
       apply_no_weight="true"
       apply_with_weight="true"
       only_selected="false"
       uniform="false" /><inkscape:path-effect
       effect="bspline"
       id="path-effect479"
       is_visible="true"
       lpeversion="1.3"
       weight="33.333333"
       steps="2"
       helper_size="0"
       apply_no_weight="true"
       apply_with_weight="true"
       only_selected="false"
       uniform="false" /></defs><g
     inkscape:groupmode="layer"
     id="layer2"
     inkscape:label="Layer 2"
     transform="translate(-139.60524,-218.69233)"><g
       id="g435"
       transform="matrix(-0.45379733,0.89110492,0.89110492,0.45379733,53.192027,55.552128)"
       inkscape:transform-center-x="1.8020129"
       inkscape:transform-center-y="4.365763"><path
         style="fill:#de2120;fill-opacity:1;fill-rule:evenodd;stroke:#7d220e;stroke-width:0.264583px;stroke-linecap:butt;stroke-linejoin:miter;stroke-opacity:1"
         d="m 138.79895,155.72247 c 0.9399,0.0986 1.87978,0.19712 2.74565,0.27498 0.86587,0.0779 1.65766,0.135 2.44947,0.19215 0.0245,0.82447 0.049,1.64895 0.0735,2.47342 -0.84078,-0.0245 -1.68156,-0.0489 -2.56724,-0.0857 -0.88568,-0.0367 -1.81625,-0.0857 -2.74682,-0.13468 z"
         id="path434"
         inkscape:path-effect="#path-effect479"
         inkscape:original-d="m 138.79895,155.72247 c 0,0 1.87978,0.19712 2.8197,0.29569 0.79182,0.0571 2.37542,0.17144 2.37542,0.17144 0.0245,0.82447 0.049,1.64895 0.0735,2.47342 0,0 -1.68156,-0.0489 -2.52234,-0.0734 -0.93058,-0.049 -2.79172,-0.14694 -2.79172,-0.14694 z"
         sodipodi:nodetypes="ccccccc"
         transform="translate(-34.008436,-1.5939337)" /><path
         style="fill:#fbbb9f;fill-opacity:1;fill-rule:evenodd;stroke:#2a1e0b;stroke-width:0.264583px;stroke-linecap:butt;stroke-linejoin:miter;stroke-opacity:1"
         d="m 144.189,156.14006 c 0.20491,0 0.61473,0 0.94662,-0.006 0.3319,-0.006 0.58586,-0.0173 0.85138,-0.0231 0.26552,-0.006 0.54257,-0.006 0.77346,0.052 0.23088,0.0577 0.41558,0.17316 0.51948,0.40117 0.10391,0.228 0.12701,0.56854 0.12989,0.88312 0.003,0.31458 -0.0145,0.60318 -0.0462,0.84272 -0.0317,0.23955 -0.0779,0.43003 -0.17028,0.55413 -0.0924,0.12409 -0.23088,0.18181 -0.40693,0.21067 -0.17605,0.0289 -0.38962,0.0289 -0.58876,-0.006 -0.19914,-0.0346 -0.38383,-0.10389 -0.54834,-0.15008 -0.16451,-0.0462 -0.3088,-0.0693 -0.46176,-0.0866 -0.15297,-0.0173 -0.31458,-0.0289 -0.46754,-0.0433 -0.15296,-0.0144 -0.29726,-0.0317 -0.40691,-0.0461 -0.10965,-0.0144 -0.18473,-0.026 -0.2338,-0.45598 -0.0491,-0.43002 -0.0722,-1.27849 -0.0837,-1.70274 -0.0115,-0.42424 -0.0115,-0.42436 0.1934,-0.42436 z"
         id="path435"
         inkscape:path-effect="#path-effect481"
         inkscape:original-d="m 143.98409,156.14006 c 0.40982,0 0.81964,0 1.22945,0 0.25398,-0.0115 0.50794,-0.0231 0.76191,-0.0346 0.27707,0 0.55412,0 0.83118,0 0.18471,0.11545 0.36941,0.23088 0.55412,0.34633 0.0231,0.34056 0.0462,0.6811 0.0693,1.02165 -0.0173,0.28861 -0.0346,0.57721 -0.052,0.86581 -0.0462,0.19048 -0.0924,0.38096 -0.13852,0.57144 -0.13854,0.0577 -0.27706,0.11544 -0.41559,0.17316 -0.21357,0 -0.42714,0 -0.6407,0 -0.18471,-0.0693 -0.36941,-0.13853 -0.55412,-0.2078 -0.14431,-0.0231 -0.2886,-0.0462 -0.43291,-0.0693 -0.16162,-0.0115 -0.32323,-0.0231 -0.48485,-0.0346 -0.1443,-0.0173 -0.2886,-0.0346 -0.4329,-0.0519 -0.075,-0.0115 -0.15008,-0.0231 -0.22511,-0.0346 -0.0231,-0.84851 -0.0462,-1.69698 -0.0693,-2.54547 z"
         transform="translate(-34.008436,-1.5939337)" /></g></g></svg>
