<?xml version="1.0" encoding="UTF-8" standalone="no"?>
<!-- Created with Inkscape (http://www.inkscape.org/) -->

<svg
   width="8.7480984mm"
   height="2.1197774mm"
   viewBox="0 0 8.7480984 2.1197774"
   version="1.1"
   id="svg1"
   xml:space="preserve"
   inkscape:version="1.3 (0e150ed6c4, 2023-07-21)"
   sodipodi:docname="LittleRedFaceMouthSmile.svg"
   xmlns:inkscape="http://www.inkscape.org/namespaces/inkscape"
   xmlns:sodipodi="http://sodipodi.sourceforge.net/DTD/sodipodi-0.dtd"
   xmlns="http://www.w3.org/2000/svg"
   xmlns:svg="http://www.w3.org/2000/svg"><sodipodi:namedview
     id="namedview1"
     pagecolor="#505050"
     bordercolor="#eeeeee"
     borderopacity="1"
     inkscape:showpageshadow="0"
     inkscape:pageopacity="0"
     inkscape:pagecheckerboard="0"
     inkscape:deskcolor="#d1d1d1"
     inkscape:document-units="mm"
     inkscape:zoom="3.8198844"
     inkscape:cx="32.985291"
     inkscape:cy="22.775558"
     inkscape:window-width="1280"
     inkscape:window-height="961"
     inkscape:window-x="-8"
     inkscape:window-y="-8"
     inkscape:window-maximized="1"
     inkscape:current-layer="layer2"
     showgrid="false" /><defs
     id="defs1"><inkscape:path-effect
       effect="bspline"
       id="path-effect25"
       is_visible="true"
       lpeversion="1.3"
       weight="33.333333"
       steps="2"
       helper_size="0"
       apply_no_weight="true"
       apply_with_weight="true"
       only_selected="false"
       uniform="false" /></defs><g
     inkscape:label="Layer 1"
     inkscape:groupmode="layer"
     id="layer1"
     transform="translate(-78.086235,-181.68293)" /><g
     inkscape:groupmode="layer"
     id="layer2"
     inkscape:label="Layer 2"
     transform="translate(-78.086235,-181.68293)"><path
       style="fill:#f17769;fill-opacity:1;fill-rule:evenodd;stroke:none;stroke-width:0.264583px;stroke-linecap:butt;stroke-linejoin:miter;stroke-opacity:1"
       d="m 81.882473,147.557 c 0.427132,0.23088 1.2814,0.69265 2.089499,0.96971 0.808099,0.27706 1.569991,0.36941 2.228015,0.36941 0.658023,-1e-5 1.212123,-0.0924 1.80088,-0.3117 0.588757,-0.21934 1.212127,-0.56566 1.639262,-0.94662 0.427134,-0.38096 0.658012,-0.79654 0.606059,-0.85426 -0.05195,-0.0577 -0.386723,0.24243 -0.779228,0.50218 -0.392505,0.25974 -0.842716,0.47907 -1.367983,0.63492 -0.525267,0.15585 -1.125545,0.2482 -1.714301,0.28282 -0.588756,0.0346 -1.165949,0.0115 -1.673894,-0.052 -0.507945,-0.0635 -0.946614,-0.16739 -1.362207,-0.30015 -0.415592,-0.13276 -0.808084,-0.29437 -1.119778,-0.38673 -0.311695,-0.0924 -0.542573,-0.11546 -0.658015,-0.12701 -0.115441,-0.0115 -0.115441,-0.0115 0.311691,0.2194 z"
       id="path24"
       transform="translate(-3.4190805,34.906593)"
       inkscape:original-d="m 81.455341,147.32612 c 0.854265,0.46176 1.708531,0.92353 2.562796,1.38529 0.761929,0.0924 1.523826,0.18471 2.285738,0.27706 0.554128,-0.0924 1.108234,-0.18471 1.662354,-0.27706 0.623395,-0.34633 1.246764,-0.69265 1.870146,-1.03897 0.230889,-0.4156 0.461767,-0.83118 0.692648,-1.24677 -0.334786,0.30016 -0.669558,0.6003 -1.004338,0.90045 -0.45023,0.21934 -0.900443,0.43867 -1.350663,0.65801 -0.600305,0.0924 -1.200589,0.18471 -1.800884,0.27706 -0.577218,-0.0231 -1.154411,-0.0462 -1.731618,-0.0693 -0.438685,-0.10389 -0.877353,-0.20779 -1.31603,-0.31169 -0.392507,-0.16162 -0.785,-0.32323 -1.177502,-0.48485 -0.230886,-0.0231 -0.461764,-0.0462 -0.692647,-0.0693 z"
       inkscape:path-effect="#path-effect25" /></g></svg>
