<?xml version="1.0" encoding="UTF-8" standalone="no"?>
<!-- Created with Inkscape (http://www.inkscape.org/) -->

<svg
   width="15.171532mm"
   height="12.492281mm"
   viewBox="0 0 15.171532 12.492281"
   version="1.1"
   id="svg1"
   xml:space="preserve"
   inkscape:version="1.3 (0e150ed6c4, 2023-07-21)"
   sodipodi:docname="LittleRedFaceCloseEye.svg"
   xmlns:inkscape="http://www.inkscape.org/namespaces/inkscape"
   xmlns:sodipodi="http://sodipodi.sourceforge.net/DTD/sodipodi-0.dtd"
   xmlns:xlink="http://www.w3.org/1999/xlink"
   xmlns="http://www.w3.org/2000/svg"
   xmlns:svg="http://www.w3.org/2000/svg"><sodipodi:namedview
     id="namedview1"
     pagecolor="#505050"
     bordercolor="#eeeeee"
     borderopacity="1"
     inkscape:showpageshadow="0"
     inkscape:pageopacity="0"
     inkscape:pagecheckerboard="0"
     inkscape:deskcolor="#d1d1d1"
     inkscape:document-units="mm"
     inkscape:zoom="0.95497111"
     inkscape:cx="113.09243"
     inkscape:cy="-23.037346"
     inkscape:window-width="1280"
     inkscape:window-height="961"
     inkscape:window-x="-8"
     inkscape:window-y="-8"
     inkscape:window-maximized="1"
     inkscape:current-layer="layer2"
     showgrid="false" /><defs
     id="defs1"><inkscape:path-effect
       effect="bspline"
       id="path-effect240"
       is_visible="true"
       lpeversion="1.3"
       weight="33.333333"
       steps="2"
       helper_size="0"
       apply_no_weight="true"
       apply_with_weight="true"
       only_selected="false"
       uniform="false" /><inkscape:path-effect
       effect="bspline"
       id="path-effect239"
       is_visible="true"
       lpeversion="1.3"
       weight="33.333333"
       steps="2"
       helper_size="0"
       apply_no_weight="true"
       apply_with_weight="true"
       only_selected="false"
       uniform="false" /><inkscape:path-effect
       effect="bspline"
       id="path-effect234"
       is_visible="true"
       lpeversion="1.3"
       weight="33.333333"
       steps="2"
       helper_size="0"
       apply_no_weight="true"
       apply_with_weight="true"
       only_selected="false"
       uniform="false" /><inkscape:path-effect
       effect="bspline"
       id="path-effect230"
       is_visible="true"
       lpeversion="1.3"
       weight="33.333333"
       steps="2"
       helper_size="0"
       apply_no_weight="true"
       apply_with_weight="true"
       only_selected="false"
       uniform="false" /><inkscape:path-effect
       effect="bspline"
       id="path-effect228"
       is_visible="true"
       lpeversion="1.3"
       weight="33.333333"
       steps="2"
       helper_size="0"
       apply_no_weight="true"
       apply_with_weight="true"
       only_selected="false"
       uniform="false" /><inkscape:path-effect
       effect="bspline"
       id="path-effect226"
       is_visible="true"
       lpeversion="1.3"
       weight="33.333333"
       steps="2"
       helper_size="0"
       apply_no_weight="true"
       apply_with_weight="true"
       only_selected="false"
       uniform="false" /><inkscape:path-effect
       effect="bspline"
       id="path-effect220"
       is_visible="true"
       lpeversion="1.3"
       weight="33.333333"
       steps="2"
       helper_size="0"
       apply_no_weight="true"
       apply_with_weight="true"
       only_selected="false"
       uniform="false" /><inkscape:path-effect
       effect="bspline"
       id="path-effect218"
       is_visible="true"
       lpeversion="1.3"
       weight="33.333333"
       steps="2"
       helper_size="0"
       apply_no_weight="true"
       apply_with_weight="true"
       only_selected="false"
       uniform="false" /><inkscape:path-effect
       effect="bspline"
       id="path-effect216"
       is_visible="true"
       lpeversion="1.3"
       weight="33.333333"
       steps="2"
       helper_size="0"
       apply_no_weight="true"
       apply_with_weight="true"
       only_selected="false"
       uniform="false" /><inkscape:path-effect
       effect="bspline"
       id="path-effect212"
       is_visible="true"
       lpeversion="1.3"
       weight="33.333333"
       steps="2"
       helper_size="0"
       apply_no_weight="true"
       apply_with_weight="true"
       only_selected="false"
       uniform="false" /><linearGradient
       id="linearGradient21"
       inkscape:collect="always"><stop
         style="stop-color:#fd4878;stop-opacity:1;"
         offset="0"
         id="stop21" /><stop
         style="stop-color:#f8438c;stop-opacity:0.147651;"
         offset="1"
         id="stop22" /></linearGradient><radialGradient
       inkscape:collect="always"
       xlink:href="#linearGradient21"
       id="radialGradient236"
       gradientUnits="userSpaceOnUse"
       gradientTransform="translate(18.265358,41.445718)"
       cx="102.06926"
       cy="153.20184"
       fx="102.06926"
       fy="153.20184"
       r="1.2734169" /><radialGradient
       inkscape:collect="always"
       xlink:href="#linearGradient21"
       id="radialGradient237"
       gradientUnits="userSpaceOnUse"
       gradientTransform="translate(28.239482,41.030129)"
       cx="102.06926"
       cy="153.20184"
       fx="102.06926"
       fy="153.20184"
       r="1.2734169" /></defs><g
     inkscape:label="Layer 1"
     inkscape:groupmode="layer"
     id="layer1"
     transform="translate(-91.909628,-185.00582)" /><g
     inkscape:groupmode="layer"
     id="layer2"
     inkscape:label="Layer 2"
     transform="translate(-91.909628,-185.00582)"><g
       id="g243"
       transform="translate(-25.350898,-1.108236)"><path
         style="fill:#f9ab99;fill-opacity:1;fill-rule:evenodd;stroke:none;stroke-width:0.264583px;stroke-linecap:butt;stroke-linejoin:miter;stroke-opacity:1"
         d="m 79.446665,146.52957 c -0.25397,-0.2886 -0.577209,-0.47331 -0.854271,-0.63493 -0.277062,-0.16162 -0.507937,-0.30014 -0.715735,-0.39249 -0.207799,-0.0924 -0.392508,-0.13854 -0.484855,-0.0231 -0.09235,0.11544 -0.09235,0.3925 -0.04617,0.66956 0.04618,0.27706 0.138527,0.55411 0.311693,0.79654 0.173165,0.24243 0.427132,0.45022 0.692649,0.55411 0.265518,0.1039 0.542571,0.1039 0.831178,0.1039 0.288606,0 0.588746,0 0.646466,-0.19625 0.05772,-0.19625 -0.126985,-0.58875 -0.380955,-0.87735 z"
         id="path196"
         transform="translate(39.945224,48.302928)"
         inkscape:original-d="m 79.515929,146.42567 c -0.323236,-0.1847 -0.646472,-0.36941 -0.969706,-0.55411 -0.230888,-0.13854 -0.461766,-0.27706 -0.692647,-0.41559 -0.184711,-0.0462 -0.369414,-0.0924 -0.554119,-0.13853 0,0.27706 0,0.55412 0,0.83118 0.09235,0.27706 0.184705,0.55411 0.277058,0.83117 0.253976,0.2078 0.507942,0.41559 0.761913,0.62338 0.277066,0 0.554119,0 0.831178,0 0.300154,0 0.600294,0 0.90044,0 -0.184708,-0.3925 -0.369411,-0.785 -0.554117,-1.1775 z"
         inkscape:path-effect="#path-effect212" /><path
         style="fill:#f9ab99;fill-opacity:1;fill-rule:evenodd;stroke:none;stroke-width:0.264583px;stroke-linecap:butt;stroke-linejoin:miter;stroke-opacity:1"
         d="m 91.845055,144.07067 c 0.06927,-0.13853 0.207792,-0.41558 0.3925,-0.55411 0.184709,-0.13853 0.415588,-0.13853 0.542573,0.0924 0.126985,0.23088 0.150071,0.69263 0.09235,1.03896 -0.05772,0.34633 -0.196251,0.57721 -0.369419,0.72728 -0.173169,0.15008 -0.38095,0.21934 -0.588745,0.26552 -0.207795,0.0462 -0.415586,0.0693 -0.519484,-0.17315 -0.103898,-0.24243 -0.103898,-0.75036 -0.02309,-1.00433 0.08081,-0.25397 0.242425,-0.25397 0.323234,-0.25397 0.08081,0 0.08081,-3e-5 0.15008,-0.13856 z"
         id="path198"
         transform="translate(39.529636,48.095133)"
         inkscape:original-d="m 91.775789,144.2092 c 0.138531,-0.27706 0.277059,-0.55411 0.415589,-0.83117 0.230886,0 0.461765,0 0.692648,0 0.0231,0.46177 0.04617,0.92352 0.06926,1.38529 -0.138533,0.23089 -0.277061,0.46177 -0.415589,0.69265 -0.207798,0.0693 -0.415589,0.13853 -0.623382,0.20779 -0.207798,0.0231 -0.415589,0.0462 -0.623385,0.0693 0,-0.50796 0,-1.01589 0,-1.52383 0.161621,0 0.323236,0 0.484854,0 z"
         inkscape:path-effect="#path-effect216" /><path
         style="fill:#d6866b;fill-opacity:1;fill-rule:evenodd;stroke:#d5856a;stroke-width:0.165;stroke-linecap:butt;stroke-linejoin:miter;stroke-dasharray:none;stroke-opacity:1"
         d="m 101.79988,144.75321 c 0.0245,-0.0735 0.1714,-0.0245 0.30202,0.0898 0.13062,0.11429 0.2449,0.29387 0.30204,0.44081 0.0571,0.14693 0.0571,0.26121 -0.0245,0.24488 -0.0816,-0.0163 -0.24489,-0.16326 -0.37549,-0.33467 -0.1306,-0.17141 -0.22857,-0.36734 -0.20408,-0.44081 z"
         id="path199"
         transform="rotate(47.886458,63.372208,202.39124)"
         inkscape:original-d="m 101.67744,144.63077 c 0.14693,0.049 0.29386,0.0979 0.4408,0.14693 0.11428,0.17959 0.22856,0.35917 0.34284,0.53876 0,0.11428 0,0.22856 0,0.34284 -0.16326,-0.14694 -0.32652,-0.29387 -0.48978,-0.4408 -0.0979,-0.19591 -0.19591,-0.39182 -0.29386,-0.58773 z"
         inkscape:path-effect="#path-effect218" /><path
         style="fill:#fdc1a6;fill-opacity:1;fill-rule:evenodd;stroke:none;stroke-width:0.264583px;stroke-linecap:butt;stroke-linejoin:miter;stroke-opacity:1"
         d="m 101.35741,148.43435 c 0.36941,0.17316 1.10824,0.51949 1.8817,0.77346 0.77347,0.25397 1.58154,0.41559 2.28574,0.49063 0.7042,0.0751 1.30448,0.0635 1.85283,-0.0115 0.54835,-0.075 1.04474,-0.21356 1.55846,-0.45022 0.51372,-0.23666 1.04473,-0.57142 1.52381,-0.97547 0.47909,-0.40405 0.90622,-0.87735 1.22368,-1.36221 0.31747,-0.48486 0.52526,-0.98125 0.64647,-1.56423 0.12121,-0.58299 0.15585,-1.25253 0.13276,-1.86438 -0.0231,-0.61184 -0.1039,-1.16595 -0.28284,-1.77779 -0.17893,-0.61185 -0.45598,-1.28139 -0.90044,-1.89323 -0.44445,-0.61185 -1.05628,-1.16596 -1.7143,-1.57578 -0.65802,-0.40982 -1.3622,-0.67533 -2.14144,-0.81963 -0.77923,-0.14431 -1.63348,-0.16741 -2.45313,-0.13278 -0.81965,0.0346 -1.60462,0.12698 -2.25687,0.37518 -0.65225,0.2482 -1.17171,0.65223 -1.52381,1.10246 -0.35211,0.45023 -0.5368,0.94661 -0.75615,1.47765 -0.21934,0.53104 -0.473299,1.09668 -0.634922,1.65081 -0.161623,0.55413 -0.230887,1.09669 -0.311697,1.59886 -0.08081,0.50218 -0.173162,0.96393 -0.16739,1.44879 0.0058,0.48486 0.109666,0.99278 0.225111,1.40838 0.115445,0.4156 0.242428,0.73883 0.427138,1.01589 0.18471,0.27706 0.42713,0.50793 0.60606,0.65223 0.17893,0.14431 0.29438,0.20203 0.3521,0.23089 0.0577,0.0289 0.0577,0.0289 0.42713,0.20201 z"
         id="path200"
         transform="translate(19.304329,48.857046)"
         sodipodi:nodetypes="sccccccccccccccccccccccss"
         inkscape:original-d="m 100.988,148.26119 c 0.73882,0.34632 1.47765,0.69265 2.21647,1.03897 0.80811,0.16162 1.61618,0.32324 2.42427,0.48486 0.60031,-0.0115 1.20059,-0.0231 1.80088,-0.0346 0.49641,-0.13853 0.9928,-0.27706 1.48919,-0.41559 0.53105,-0.33478 1.06206,-0.66955 1.59309,-1.00433 0.42714,-0.47332 0.85427,-0.94662 1.2814,-1.41993 0.2078,-0.49641 0.41559,-0.9928 0.62338,-1.4892 0.0346,-0.66957 0.0693,-1.33911 0.1039,-2.00867 -0.0808,-0.55413 -0.16162,-1.10824 -0.24243,-1.66236 -0.27706,-0.66957 -0.55411,-1.33911 -0.83117,-2.00867 -0.61185,-0.55413 -1.22368,-1.10824 -1.83552,-1.66236 -0.7042,-0.26552 -1.40838,-0.53103 -2.11257,-0.79654 -0.85428,-0.0231 -1.70853,-0.0462 -2.5628,-0.0693 -0.78502,0.0924 -1.57,0.18471 -2.355,0.27706 -0.5195,0.40405 -1.03896,0.80808 -1.55846,1.21213 -0.18471,0.49641 -0.36941,0.99279 -0.55411,1.4892 -0.25398,0.56567 -0.507941,1.13131 -0.761919,1.69699 -0.06927,0.54258 -0.13853,1.08514 -0.207796,1.62772 -0.09235,0.46177 -0.184705,0.92352 -0.277061,1.38529 0.1039,0.50795 0.207793,1.01587 0.311693,1.52382 0.126988,0.32325 0.253972,0.64648 0.380956,0.96971 0.242437,0.23089 0.484857,0.46176 0.727287,0.69265 0.11544,0.0577 0.23088,0.11544 0.34632,0.17316 z"
         inkscape:path-effect="#path-effect220" /><circle
         style="opacity:0.657258;fill:url(#radialGradient236);stroke:none;stroke-width:0.165;stroke-linecap:round;stroke-linejoin:round;stroke-dasharray:none;stroke-opacity:1"
         id="circle200"
         cx="120.33461"
         cy="194.64754"
         r="1.2734169" /><circle
         style="opacity:0.657258;fill:url(#radialGradient237);stroke:none;stroke-width:0.165;stroke-linecap:round;stroke-linejoin:round;stroke-dasharray:none;stroke-opacity:1"
         id="circle201"
         cx="130.30875"
         cy="194.23195"
         r="1.2734169" /><path
         style="fill:#651900;fill-opacity:1;fill-rule:evenodd;stroke:none;stroke-width:0.165;stroke-linecap:butt;stroke-linejoin:miter;stroke-dasharray:none;stroke-opacity:1"
         d="m 80.855054,144.34774 c -0.01154,-0.0173 -0.03466,-0.052 -0.06062,-0.13855 -0.02597,-0.0866 -0.05483,-0.2251 0.0058,-0.38961 0.06061,-0.1645 0.210678,-0.35497 0.404046,-0.51371 0.193368,-0.15873 0.430015,-0.28571 0.663793,-0.37518 0.233778,-0.0895 0.464644,-0.14141 0.712847,-0.1544 0.248203,-0.013 0.513709,0.013 0.77634,0.10099 0.262632,0.088 0.522369,0.23809 0.699862,0.38672 0.177493,0.14864 0.27273,0.29583 0.34488,0.43147 0.07215,0.13565 0.12121,0.25974 0.03174,0.21789 -0.08947,-0.0419 -0.317453,-0.24963 -0.536797,-0.40981 -0.219344,-0.16018 -0.430016,-0.27273 -0.636368,-0.35787 -0.206351,-0.0851 -0.408375,-0.14286 -0.633487,-0.14286 -0.225111,0 -0.473308,0.0577 -0.67821,0.1241 -0.204902,0.0664 -0.366535,0.14141 -0.49063,0.21933 -0.124096,0.0779 -0.210682,0.15874 -0.285719,0.27129 -0.07504,0.11256 -0.138527,0.25686 -0.187591,0.38674 -0.04906,0.12987 -0.08369,0.24531 -0.101011,0.30303 -0.01732,0.0577 -0.01731,0.0577 -0.02885,0.0404 z"
         id="path205"
         transform="translate(39.336156,48.612158)"
         sodipodi:nodetypes="sccccccccccccccccss"
         inkscape:original-d="m 80.866593,144.36505 c -0.0231,-0.0346 -0.04618,-0.0693 -0.06927,-0.1039 -0.02886,-0.13853 -0.05772,-0.27706 -0.08658,-0.41559 0.150077,-0.19048 0.300149,-0.38095 0.450221,-0.57143 0.236661,-0.12699 0.47331,-0.25397 0.709964,-0.38096 0.230889,-0.052 0.461767,-0.10389 0.692647,-0.15584 0.265522,0.026 0.531024,0.052 0.796546,0.0779 0.25975,0.15007 0.519484,0.30014 0.779229,0.45021 0.09524,0.1472 0.190477,0.29439 0.285716,0.44158 0.04906,0.1241 0.09812,0.24819 0.147187,0.37229 -0.228002,-0.2078 -0.455987,-0.41558 -0.683989,-0.62338 -0.210685,-0.11256 -0.421358,-0.22511 -0.632041,-0.33767 -0.202025,-0.0577 -0.404043,-0.11544 -0.606065,-0.17316 -0.248206,0.0577 -0.496398,0.11544 -0.744596,0.17316 -0.161621,0.075 -0.323236,0.15008 -0.484854,0.22511 -0.08658,0.0808 -0.173162,0.16162 -0.259744,0.24243 -0.06349,0.1443 -0.126985,0.2886 -0.190477,0.43291 -0.03463,0.11544 -0.06927,0.23088 -0.103896,0.34632 z"
         inkscape:path-effect="#path-effect226" /><path
         style="fill:#651900;fill-opacity:1;fill-rule:evenodd;stroke:none;stroke-width:0.165;stroke-linecap:butt;stroke-linejoin:miter;stroke-dasharray:none;stroke-opacity:1"
         d="m 80.855054,144.34774 c -0.01154,-0.0173 -0.03466,-0.052 -0.06062,-0.13855 -0.02597,-0.0866 -0.05483,-0.2251 0.0058,-0.38961 0.06061,-0.1645 0.210678,-0.35497 0.404046,-0.51371 0.193368,-0.15873 0.430015,-0.28571 0.663793,-0.37518 0.233778,-0.0895 0.464644,-0.14141 0.709959,-0.14718 0.245315,-0.006 0.505051,0.0346 0.721506,0.12121 0.216455,0.0866 0.389617,0.21934 0.510829,0.35209 0.121213,0.13276 0.190475,0.26552 0.245309,0.39539 0.05483,0.12987 0.09524,0.25686 0.02886,0.23088 -0.06638,-0.026 -0.23954,-0.20491 -0.395386,-0.35787 -0.155847,-0.15296 -0.294371,-0.27994 -0.464647,-0.3723 -0.170275,-0.0923 -0.372299,-0.15007 -0.597411,-0.15007 -0.225111,0 -0.473308,0.0577 -0.67821,0.1241 -0.204902,0.0664 -0.366535,0.14141 -0.49063,0.21933 -0.124096,0.0779 -0.210682,0.15874 -0.285719,0.27129 -0.07504,0.11256 -0.138527,0.25686 -0.187591,0.38674 -0.04906,0.12987 -0.08369,0.24531 -0.101011,0.30303 -0.01732,0.0577 -0.01731,0.0577 -0.02885,0.0404 z"
         id="path206"
         transform="translate(46.678219,48.161937)"
         inkscape:original-d="m 80.866593,144.36505 c -0.0231,-0.0346 -0.04618,-0.0693 -0.06927,-0.1039 -0.02886,-0.13853 -0.05772,-0.27706 -0.08658,-0.41559 0.150077,-0.19048 0.300149,-0.38095 0.450221,-0.57143 0.236661,-0.12699 0.47331,-0.25397 0.709964,-0.38096 0.230889,-0.052 0.461767,-0.10389 0.692647,-0.15584 0.25975,0.0404 0.519486,0.0808 0.77923,0.12121 0.173165,0.13276 0.346324,0.26552 0.519486,0.39827 0.06927,0.13276 0.138527,0.26552 0.207793,0.39828 0.0404,0.12698 0.08081,0.25397 0.121213,0.38095 -0.173164,-0.17894 -0.346323,-0.35787 -0.519485,-0.5368 -0.138533,-0.12699 -0.277059,-0.25397 -0.415589,-0.38096 -0.202025,-0.0577 -0.404043,-0.11544 -0.606065,-0.17316 -0.248206,0.0577 -0.496398,0.11544 -0.744596,0.17316 -0.161621,0.075 -0.323236,0.15008 -0.484854,0.22511 -0.08658,0.0808 -0.173162,0.16162 -0.259744,0.24243 -0.06349,0.1443 -0.126985,0.2886 -0.190477,0.43291 -0.03463,0.11544 -0.06927,0.23088 -0.103896,0.34632 z"
         inkscape:path-effect="#path-effect228" /><path
         style="fill:none;fill-rule:evenodd;stroke:#e2836a;stroke-width:0.565;stroke-linecap:butt;stroke-linejoin:miter;stroke-dasharray:none;stroke-opacity:0.633803"
         d="m 87.55064,145.17891 c 0.115448,0.0462 0.145832,0.0583 0.315741,0.19745 0.169909,0.13912 0.111713,0.0564 0.194145,0.26709 0.08243,0.21069 0.08246,0.21173 0.06542,0.29327 -0.01704,0.0815 -0.05376,0.14671 -0.08366,0.19084 -0.0299,0.0441 -0.05301,0.0673 -0.09839,0.12315 -0.04538,0.0559 -0.08077,0.1023 -0.172509,0.20041 -0.09174,0.0981 -0.06569,0.074 -0.185067,0.0904 -0.119377,0.0165 -0.12569,0.009 -0.149981,-0.007 -0.02429,-0.0163 -0.02429,0.007 -0.02514,0.0181 -8.49e-4,0.0113 -0.01923,0.006 -0.08911,-0.0118 -0.06988,-0.0175 -0.112464,-0.0277 -0.157011,-0.0416 -0.04455,-0.0139 -0.12079,-0.0655 -0.169567,-0.12406 -0.04878,-0.0585 -0.124606,-0.17236 -0.206859,-0.29581"
         id="path207"
         transform="translate(39.5989,48.302928)"
         sodipodi:nodetypes="ccscccccccsccc"
         inkscape:original-d="m 87.55064,145.17891 c 0.11544,0.0462 0.145845,0.0583 0.346323,0.13853 0.139328,0.19804 0.08113,0.11532 0.240691,0.34212 0.0053,0.19458 0.0054,0.19562 0.008,0.2935 -0.03675,0.0652 -0.07346,0.13037 -0.1102,0.19556 -0.08637,-0.0402 -0.04617,0.0462 -0.06927,0.0693 -0.06765,0.0887 -0.103055,0.13509 -0.171068,0.22424 -0.115459,0.10707 -0.08943,0.0829 -0.23736,0.22011 -0.09081,-0.10424 -0.09712,-0.11149 -0.145704,-0.16726 0,0.0231 0,0.0462 0,0.0693 -0.0017,-5.1e-4 -0.02011,-0.006 -0.04057,-0.0123 -0.119252,-0.0288 -0.161856,-0.039 -0.236486,-0.057 -0.01432,-0.01 -0.09071,-0.0614 -0.126286,-0.0855 -0.06199,-0.093 -0.137802,-0.20682 -0.220054,-0.33027"
         inkscape:path-effect="#path-effect230" /><path
         style="fill:#d6866b;fill-opacity:1;fill-rule:evenodd;stroke:#d5856a;stroke-width:0.165;stroke-linecap:butt;stroke-linejoin:miter;stroke-dasharray:none;stroke-opacity:1"
         d="m 101.79988,144.75321 c 0.0245,-0.0735 0.1714,-0.0245 0.30202,0.0898 0.13062,0.11429 0.2449,0.29387 0.30204,0.44081 0.0571,0.14693 0.0571,0.26121 -0.0245,0.24488 -0.0816,-0.0163 -0.24489,-0.16326 -0.37549,-0.33467 -0.1306,-0.17141 -0.22857,-0.36734 -0.20408,-0.44081 z"
         id="path209"
         transform="translate(15.967737,49.678079)"
         inkscape:original-d="m 101.67744,144.63077 c 0.14693,0.049 0.29386,0.0979 0.4408,0.14693 0.11428,0.17959 0.22856,0.35917 0.34284,0.53876 0,0.11428 0,0.22856 0,0.34284 -0.16326,-0.14694 -0.32652,-0.29387 -0.48978,-0.4408 -0.0979,-0.19591 -0.19591,-0.39182 -0.29386,-0.58773 z"
         inkscape:path-effect="#path-effect234" /><path
         style="fill:none;fill-rule:evenodd;stroke:#000000;stroke-width:0.264583px;stroke-linecap:round;stroke-linejoin:miter;stroke-opacity:1"
         d="m 120.08163,193.06959 c 0.67316,0.26122 1.34631,0.52243 1.97288,0.54642 0.62656,0.024 1.20653,-0.18923 1.78652,-0.40246"
         id="path239"
         sodipodi:nodetypes="ccc"
         inkscape:original-d="m 120.08163,193.06959 c 0.67316,0.26122 1.34631,0.52243 2.01946,0.78364 0.57998,-0.21323 1.15995,-0.42645 1.73994,-0.63968"
         inkscape:path-effect="#path-effect239" /><path
         style="fill:none;fill-rule:evenodd;stroke:#000000;stroke-width:0.264583px;stroke-linecap:round;stroke-linejoin:miter;stroke-opacity:1"
         d="m 127.63555,192.72675 c 0.55508,0.17958 1.11016,0.35917 1.64892,0.34284 0.53876,-0.0163 1.06118,-0.22857 1.5836,-0.4408"
         id="path240"
         inkscape:original-d="m 127.63555,192.72675 c 0.55508,0.17958 1.11016,0.35917 1.66524,0.53875 0.52244,-0.21224 1.04486,-0.42447 1.56728,-0.63671"
         inkscape:path-effect="#path-effect240" /></g></g></svg>
