<?xml version="1.0" encoding="UTF-8" standalone="no"?>
<!-- Created with Inkscape (http://www.inkscape.org/) -->

<svg
   width="15.171532mm"
   height="12.492591mm"
   viewBox="0 0 15.171532 12.492591"
   version="1.1"
   id="svg1"
   xml:space="preserve"
   inkscape:version="1.3 (0e150ed6c4, 2023-07-21)"
   sodipodi:docname="LittleRedFaceOpenEye.svg"
   xmlns:inkscape="http://www.inkscape.org/namespaces/inkscape"
   xmlns:sodipodi="http://sodipodi.sourceforge.net/DTD/sodipodi-0.dtd"
   xmlns:xlink="http://www.w3.org/1999/xlink"
   xmlns="http://www.w3.org/2000/svg"
   xmlns:svg="http://www.w3.org/2000/svg"><sodipodi:namedview
     id="namedview1"
     pagecolor="#505050"
     bordercolor="#eeeeee"
     borderopacity="1"
     inkscape:showpageshadow="0"
     inkscape:pageopacity="0"
     inkscape:pagecheckerboard="0"
     inkscape:deskcolor="#d1d1d1"
     inkscape:document-units="mm"
     inkscape:zoom="0.95497111"
     inkscape:cx="115.18673"
     inkscape:cy="29.320259"
     inkscape:window-width="1280"
     inkscape:window-height="961"
     inkscape:window-x="-8"
     inkscape:window-y="-8"
     inkscape:window-maximized="1"
     inkscape:current-layer="layer2"
     showgrid="false" /><defs
     id="defs1"><inkscape:path-effect
       effect="bspline"
       id="path-effect30"
       is_visible="true"
       lpeversion="1.3"
       weight="33.333333"
       steps="2"
       helper_size="0"
       apply_no_weight="true"
       apply_with_weight="true"
       only_selected="false"
       uniform="false" /><inkscape:path-effect
       effect="bspline"
       id="path-effect28"
       is_visible="true"
       lpeversion="1.3"
       weight="33.333333"
       steps="2"
       helper_size="0"
       apply_no_weight="true"
       apply_with_weight="true"
       only_selected="false"
       uniform="false" /><inkscape:path-effect
       effect="bspline"
       id="path-effect27"
       is_visible="true"
       lpeversion="1.3"
       weight="33.333333"
       steps="2"
       helper_size="0"
       apply_no_weight="true"
       apply_with_weight="true"
       only_selected="false"
       uniform="false" /><inkscape:path-effect
       effect="bspline"
       id="path-effect26"
       is_visible="true"
       lpeversion="1.3"
       weight="33.333333"
       steps="2"
       helper_size="0"
       apply_no_weight="true"
       apply_with_weight="true"
       only_selected="false"
       uniform="false" /><inkscape:path-effect
       effect="bspline"
       id="path-effect24"
       is_visible="true"
       lpeversion="1.3"
       weight="33.333333"
       steps="2"
       helper_size="0"
       apply_no_weight="true"
       apply_with_weight="true"
       only_selected="false"
       uniform="false" /><linearGradient
       id="linearGradient21"
       inkscape:collect="always"><stop
         style="stop-color:#fd4878;stop-opacity:1;"
         offset="0"
         id="stop21" /><stop
         style="stop-color:#f8438c;stop-opacity:0.147651;"
         offset="1"
         id="stop22" /></linearGradient><inkscape:path-effect
       effect="bspline"
       id="path-effect21"
       is_visible="true"
       lpeversion="1.3"
       weight="33.333333"
       steps="2"
       helper_size="0"
       apply_no_weight="true"
       apply_with_weight="true"
       only_selected="false"
       uniform="false" /><inkscape:path-effect
       effect="bspline"
       id="path-effect19"
       is_visible="true"
       lpeversion="1.3"
       weight="33.333333"
       steps="2"
       helper_size="0"
       apply_no_weight="true"
       apply_with_weight="true"
       only_selected="false"
       uniform="false" /><radialGradient
       inkscape:collect="always"
       xlink:href="#linearGradient21"
       id="radialGradient22"
       cx="102.06926"
       cy="153.20184"
       fx="102.06926"
       fy="153.20184"
       r="1.2734169"
       gradientUnits="userSpaceOnUse"
       gradientTransform="translate(-7.5947998,26.556535)" /><radialGradient
       inkscape:collect="always"
       xlink:href="#linearGradient21"
       id="radialGradient23"
       gradientUnits="userSpaceOnUse"
       gradientTransform="translate(2.379324,26.140946)"
       cx="102.06926"
       cy="153.20184"
       fx="102.06926"
       fy="153.20184"
       r="1.2734169" /></defs><g
     inkscape:label="Layer 1"
     inkscape:groupmode="layer"
     id="layer1"
     transform="translate(-91.400368,-171.22466)" /><g
     inkscape:groupmode="layer"
     id="layer2"
     inkscape:label="Layer 2"
     transform="translate(-91.400368,-171.22466)"><g
       id="g242"><path
         style="fill:#f9ab99;fill-opacity:1;fill-rule:evenodd;stroke:none;stroke-width:0.264583px;stroke-linecap:butt;stroke-linejoin:miter;stroke-opacity:1"
         d="m 79.446665,146.52957 c -0.25397,-0.2886 -0.577209,-0.47331 -0.854271,-0.63493 -0.277062,-0.16162 -0.507937,-0.30014 -0.715735,-0.39249 -0.207799,-0.0924 -0.392508,-0.13854 -0.484855,-0.0231 -0.09235,0.11544 -0.09235,0.3925 -0.04617,0.66956 0.04618,0.27706 0.138527,0.55411 0.311693,0.79654 0.173165,0.24243 0.427132,0.45022 0.692649,0.55411 0.265518,0.1039 0.542571,0.1039 0.831178,0.1039 0.288606,0 0.588746,0 0.646466,-0.19625 0.05772,-0.19625 -0.126985,-0.58875 -0.380955,-0.87735 z"
         id="path26"
         inkscape:path-effect="#path-effect27"
         inkscape:original-d="m 79.515929,146.42567 c -0.323236,-0.1847 -0.646472,-0.36941 -0.969706,-0.55411 -0.230888,-0.13854 -0.461766,-0.27706 -0.692647,-0.41559 -0.184711,-0.0462 -0.369414,-0.0924 -0.554119,-0.13853 0,0.27706 0,0.55412 0,0.83118 0.09235,0.27706 0.184705,0.55411 0.277058,0.83117 0.253976,0.2078 0.507942,0.41559 0.761913,0.62338 0.277066,0 0.554119,0 0.831178,0 0.300154,0 0.600294,0 0.90044,0 -0.184708,-0.3925 -0.369411,-0.785 -0.554117,-1.1775 z"
         transform="translate(14.085066,33.413745)" /><path
         style="fill:#f9ab99;fill-opacity:1;fill-rule:evenodd;stroke:none;stroke-width:0.264583px;stroke-linecap:butt;stroke-linejoin:miter;stroke-opacity:1"
         d="m 91.845055,144.07067 c 0.06927,-0.13853 0.207792,-0.41558 0.3925,-0.55411 0.184709,-0.13853 0.415588,-0.13853 0.542573,0.0924 0.126985,0.23088 0.150071,0.69263 0.09235,1.03896 -0.05772,0.34633 -0.196251,0.57721 -0.369419,0.72728 -0.173169,0.15008 -0.38095,0.21934 -0.588745,0.26552 -0.207795,0.0462 -0.415586,0.0693 -0.519484,-0.17315 -0.103898,-0.24243 -0.103898,-0.75036 -0.02309,-1.00433 0.08081,-0.25397 0.242425,-0.25397 0.323234,-0.25397 0.08081,0 0.08081,-3e-5 0.15008,-0.13856 z"
         id="path25"
         inkscape:path-effect="#path-effect26"
         inkscape:original-d="m 91.775789,144.2092 c 0.138531,-0.27706 0.277059,-0.55411 0.415589,-0.83117 0.230886,0 0.461765,0 0.692648,0 0.0231,0.46177 0.04617,0.92352 0.06926,1.38529 -0.138533,0.23089 -0.277061,0.46177 -0.415589,0.69265 -0.207798,0.0693 -0.415589,0.13853 -0.623382,0.20779 -0.207798,0.0231 -0.415589,0.0462 -0.623385,0.0693 0,-0.50796 0,-1.01589 0,-1.52383 0.161621,0 0.323236,0 0.484854,0 z"
         transform="translate(13.669478,33.20595)" /><path
         style="fill:#d6866b;fill-opacity:1;fill-rule:evenodd;stroke:#d5856a;stroke-width:0.165;stroke-linecap:butt;stroke-linejoin:miter;stroke-dasharray:none;stroke-opacity:1"
         d="m 101.79988,144.75321 c 0.0245,-0.0735 0.1714,-0.0245 0.30202,0.0898 0.13062,0.11429 0.2449,0.29387 0.30204,0.44081 0.0571,0.14693 0.0571,0.26121 -0.0245,0.24488 -0.0816,-0.0163 -0.24489,-0.16326 -0.37549,-0.33467 -0.1306,-0.17141 -0.22857,-0.36734 -0.20408,-0.44081 z"
         id="path28"
         inkscape:path-effect="#path-effect30"
         inkscape:original-d="m 101.67744,144.63077 c 0.14693,0.049 0.29386,0.0979 0.4408,0.14693 0.11428,0.17959 0.22856,0.35917 0.34284,0.53876 0,0.11428 0,0.22856 0,0.34284 -0.16326,-0.14694 -0.32652,-0.29387 -0.48978,-0.4408 -0.0979,-0.19591 -0.19591,-0.39182 -0.29386,-0.58773 z"
         transform="rotate(47.886458,67.207643,165.8276)" /><path
         id="path10"
         style="fill:#fdc1a6;fill-opacity:1;fill-rule:evenodd;stroke:none;stroke-width:0.264583px;stroke-linecap:butt;stroke-linejoin:miter;stroke-opacity:1"
         d="m 105.59009,137.25683 c -0.20752,4.5e-4 -0.41468,0.006 -0.6196,0.0145 -0.81964,0.0346 -1.60446,0.12697 -2.25671,0.37517 -0.65224,0.2482 -1.17183,0.65203 -1.52393,1.10226 -0.35211,0.45023 -0.53669,0.9469 -0.75603,1.47794 -0.21934,0.53104 -0.473481,1.09642 -0.635104,1.65055 -0.161623,0.55413 -0.230799,1.09669 -0.311609,1.59887 -0.08081,0.50217 -0.173204,0.96414 -0.167432,1.449 0.0058,0.48486 0.109865,0.99259 0.22531,1.40819 0.115445,0.4156 0.242654,0.7389 0.427364,1.01595 0.184711,0.27707 0.426711,0.50786 0.605651,0.65216 0.17893,0.1443 0.29471,0.20214 0.35243,0.231 0.0577,0.0289 0.0574,0.0289 0.42685,0.20205 0.36941,0.17316 1.10859,0.51962 1.88205,0.7736 0.77347,0.25397 1.58145,0.41536 2.28565,0.49041 0.7042,0.075 1.30425,0.0637 1.8526,-0.0114 0.54835,-0.075 1.04485,-0.21396 1.55856,-0.45062 0.51372,-0.23666 1.04485,-0.57109 1.52394,-0.97514 0.47909,-0.40404 0.90623,-0.87733 1.2237,-1.36219 0.31746,-0.48486 0.52526,-0.98126 0.64647,-1.56424 0.12121,-0.58299 0.1559,-1.25265 0.13281,-1.86449 -0.0231,-0.61184 -0.10425,-1.16582 -0.28319,-1.77767 -0.17893,-0.61184 -0.45575,-1.28158 -0.9002,-1.89342 -0.44446,-0.61185 -1.05661,-1.1658 -1.71463,-1.57562 -0.658,-0.40981 -1.36172,-0.67528 -2.14095,-0.81958 -0.58442,-0.10823 -1.21142,-0.14863 -1.834,-0.14728 z m 4.33772,4.91856 c 0.093,-0.002 0.18495,0.004 0.27802,0.0191 0.2482,0.0404 0.50215,0.14464 0.69298,0.26924 0.19083,0.12459 0.31889,0.26961 0.45166,0.44855 0.13276,0.17894 0.27017,0.39184 0.29869,0.5674 0.0285,0.17557 -0.0519,0.31409 -0.15245,0.44959 -0.10051,0.1355 -0.22108,0.26795 -0.36742,0.40514 -0.14634,0.13719 -0.31868,0.27892 -0.51831,0.39739 -0.19964,0.11848 -0.42642,0.21345 -0.65526,0.26097 -0.22884,0.0475 -0.45973,0.0476 -0.71004,-0.0672 -0.2503,-0.1148 -0.52015,-0.34453 -0.70486,-0.59273 -0.18471,-0.2482 -0.28398,-0.51514 -0.33383,-0.64854 -0.0499,-0.13339 -0.0501,-0.13295 -0.0155,-0.22531 0.0346,-0.0924 0.10376,-0.2771 0.1788,-0.43873 0.075,-0.16163 0.15584,-0.30029 0.34054,-0.43305 0.18471,-0.13275 0.47346,-0.25982 0.73898,-0.33486 0.16595,-0.0469 0.32305,-0.0735 0.478,-0.077 z m -7.10706,0.43925 c 0.17461,0.003 0.34615,0.0215 0.50488,0.0532 0.31747,0.0635 0.58285,0.17925 0.82528,0.42168 0.24241,0.24242 0.46214,0.61194 0.51986,0.91209 0.0577,0.30014 -0.0463,0.53057 -0.23099,0.74414 -0.18471,0.21357 -0.45045,0.40984 -0.76792,0.5426 -0.31746,0.13276 -0.6865,0.2024 -1.04438,0.17932 -0.35787,-0.0231 -0.7046,-0.13896 -1.02784,-0.34675 -0.32324,-0.2078 -0.62345,-0.50744 -0.77928,-0.68058 -0.15584,-0.17314 -0.16735,-0.21979 -0.17312,-0.24288 -0.006,-0.0231 -0.006,-0.0229 0.0289,-0.11524 0.0346,-0.0923 0.10418,-0.2771 0.21963,-0.47336 0.11544,-0.19624 0.277,-0.40405 0.51366,-0.57722 0.23666,-0.17317 0.54829,-0.31167 0.88883,-0.37517 0.17028,-0.0317 0.34785,-0.0447 0.52245,-0.0419 z"
         transform="translate(-6.5558286,33.967863)" /><path
         id="path21"
         style="opacity:0.657258;fill:url(#radialGradient22);stroke:none;stroke-width:0.165;stroke-linecap:round;stroke-linejoin:round;stroke-dasharray:none;stroke-opacity:1"
         d="m 94.345146,178.49453 a 1.2734169,1.2734169 0 0 0 -1.144117,1.26401 1.2734169,1.2734169 0 0 0 1.273308,1.2733 1.2734169,1.2734169 0 0 0 1.273307,-1.2733 1.2734169,1.2734169 0 0 0 -0.05994,-0.38499 c -0.221945,-0.0574 -0.437729,-0.15221 -0.643888,-0.28474 -0.2747,-0.17659 -0.531723,-0.41893 -0.698665,-0.59428 z" /><path
         id="circle22"
         style="opacity:0.657258;fill:url(#radialGradient23);stroke:none;stroke-width:0.165;stroke-linecap:round;stroke-linejoin:round;stroke-dasharray:none;stroke-opacity:1"
         d="m 104.76466,178.10903 c -0.0584,0.0638 -0.12176,0.12817 -0.1912,0.19326 -0.14634,0.1372 -0.31868,0.27892 -0.51831,0.3974 -0.19964,0.11847 -0.42642,0.21345 -0.65526,0.26096 -0.0577,0.012 -0.11538,0.021 -0.17363,0.0258 a 1.2734169,1.2734169 0 0 0 -0.0512,0.35605 1.2734169,1.2734169 0 0 0 1.2733,1.27383 1.2734169,1.2734169 0 0 0 1.27383,-1.27383 1.2734169,1.2734169 0 0 0 -0.95757,-1.23351 z" /><path
         style="fill:none;fill-rule:evenodd;stroke:#e2836a;stroke-width:0.565;stroke-linecap:butt;stroke-linejoin:miter;stroke-dasharray:none;stroke-opacity:0.633803"
         d="m 87.55064,145.17891 c 0.115448,0.0462 0.145832,0.0583 0.315741,0.19745 0.169909,0.13912 0.111713,0.0564 0.194145,0.26709 0.08243,0.21069 0.08246,0.21173 0.06542,0.29327 -0.01704,0.0815 -0.05376,0.14671 -0.08366,0.19084 -0.0299,0.0441 -0.05301,0.0673 -0.09839,0.12315 -0.04538,0.0559 -0.08077,0.1023 -0.172509,0.20041 -0.09174,0.0981 -0.06569,0.074 -0.185067,0.0904 -0.119377,0.0165 -0.12569,0.009 -0.149981,-0.007 -0.02429,-0.0163 -0.02429,0.007 -0.02514,0.0181 -8.49e-4,0.0113 -0.01923,0.006 -0.08911,-0.0118 -0.06988,-0.0175 -0.112464,-0.0277 -0.157011,-0.0416 -0.04455,-0.0139 -0.12079,-0.0655 -0.169567,-0.12406 -0.04878,-0.0585 -0.124606,-0.17236 -0.206859,-0.29581"
         id="path23"
         inkscape:path-effect="#path-effect24"
         inkscape:original-d="m 87.55064,145.17891 c 0.11544,0.0462 0.145845,0.0583 0.346323,0.13853 0.139328,0.19804 0.08113,0.11532 0.240691,0.34212 0.0053,0.19458 0.0054,0.19562 0.008,0.2935 -0.03675,0.0652 -0.07346,0.13037 -0.1102,0.19556 -0.08637,-0.0402 -0.04617,0.0462 -0.06927,0.0693 -0.06765,0.0887 -0.103055,0.13509 -0.171068,0.22424 -0.115459,0.10707 -0.08943,0.0829 -0.23736,0.22011 -0.09081,-0.10424 -0.09712,-0.11149 -0.145704,-0.16726 0,0.0231 0,0.0462 0,0.0693 -0.0017,-5.1e-4 -0.02011,-0.006 -0.04057,-0.0123 -0.119252,-0.0288 -0.161856,-0.039 -0.236486,-0.057 -0.01432,-0.01 -0.09071,-0.0614 -0.126286,-0.0855 -0.06199,-0.093 -0.137802,-0.20682 -0.220054,-0.33027"
         transform="translate(13.738742,33.413745)"
         sodipodi:nodetypes="ccscccccccsccc" /><path
         style="fill:#d6866b;fill-opacity:1;fill-rule:evenodd;stroke:#d5856a;stroke-width:0.165;stroke-linecap:butt;stroke-linejoin:miter;stroke-dasharray:none;stroke-opacity:1"
         d="m 101.79988,144.75321 c 0.0245,-0.0735 0.1714,-0.0245 0.30202,0.0898 0.13062,0.11429 0.2449,0.29387 0.30204,0.44081 0.0571,0.14693 0.0571,0.26121 -0.0245,0.24488 -0.0816,-0.0163 -0.24489,-0.16326 -0.37549,-0.33467 -0.1306,-0.17141 -0.22857,-0.36734 -0.20408,-0.44081 z"
         id="path27"
         inkscape:path-effect="#path-effect28"
         inkscape:original-d="m 101.67744,144.63077 c 0.14693,0.049 0.29386,0.0979 0.4408,0.14693 0.11428,0.17959 0.22856,0.35917 0.34284,0.53876 0,0.11428 0,0.22856 0,0.34284 -0.16326,-0.14694 -0.32652,-0.29387 -0.48978,-0.4408 -0.0979,-0.19591 -0.19591,-0.39182 -0.29386,-0.58773 z"
         transform="translate(-9.8924205,34.788896)" /><path
         style="fill:#000000;fill-opacity:1;fill-rule:evenodd;stroke:none;stroke-width:0.165;stroke-linecap:butt;stroke-linejoin:miter;stroke-dasharray:none;stroke-opacity:1"
         d="m 80.855054,144.34774 c -0.01154,-0.0173 -0.03466,-0.052 -0.06062,-0.13855 -0.02597,-0.0866 -0.05483,-0.2251 0.0058,-0.38961 0.06061,-0.1645 0.210678,-0.35497 0.404046,-0.51371 0.193368,-0.15873 0.430015,-0.28571 0.663793,-0.37518 0.233778,-0.0895 0.464644,-0.14141 0.709959,-0.14718 0.245315,-0.006 0.505051,0.0346 0.721506,0.12121 0.216455,0.0866 0.389617,0.21934 0.510829,0.35209 0.121213,0.13276 0.190475,0.26552 0.245309,0.39539 0.05483,0.12987 0.09524,0.25686 0.02886,0.23088 -0.06638,-0.026 -0.23954,-0.20491 -0.395386,-0.35787 -0.155847,-0.15296 -0.294371,-0.27994 -0.464647,-0.3723 -0.170275,-0.0923 -0.372299,-0.15007 -0.597411,-0.15007 -0.225111,0 -0.473308,0.0577 -0.67821,0.1241 -0.204902,0.0664 -0.366535,0.14141 -0.49063,0.21933 -0.124096,0.0779 -0.210682,0.15874 -0.285719,0.27129 -0.07504,0.11256 -0.138527,0.25686 -0.187591,0.38674 -0.04906,0.12987 -0.08369,0.24531 -0.101011,0.30303 -0.01732,0.0577 -0.01731,0.0577 -0.02885,0.0404 z"
         id="path20"
         inkscape:path-effect="#path-effect21"
         inkscape:original-d="m 80.866593,144.36505 c -0.0231,-0.0346 -0.04618,-0.0693 -0.06927,-0.1039 -0.02886,-0.13853 -0.05772,-0.27706 -0.08658,-0.41559 0.150077,-0.19048 0.300149,-0.38095 0.450221,-0.57143 0.236661,-0.12699 0.47331,-0.25397 0.709964,-0.38096 0.230889,-0.052 0.461767,-0.10389 0.692647,-0.15584 0.25975,0.0404 0.519486,0.0808 0.77923,0.12121 0.173165,0.13276 0.346324,0.26552 0.519486,0.39827 0.06927,0.13276 0.138527,0.26552 0.207793,0.39828 0.0404,0.12698 0.08081,0.25397 0.121213,0.38095 -0.173164,-0.17894 -0.346323,-0.35787 -0.519485,-0.5368 -0.138533,-0.12699 -0.277059,-0.25397 -0.415589,-0.38096 -0.202025,-0.0577 -0.404043,-0.11544 -0.606065,-0.17316 -0.248206,0.0577 -0.496398,0.11544 -0.744596,0.17316 -0.161621,0.075 -0.323236,0.15008 -0.484854,0.22511 -0.08658,0.0808 -0.173162,0.16162 -0.259744,0.24243 -0.06349,0.1443 -0.126985,0.2886 -0.190477,0.43291 -0.03463,0.11544 -0.06927,0.23088 -0.103896,0.34632 z"
         transform="translate(20.818061,33.125821)" /><path
         style="fill:#000000;fill-opacity:1;fill-rule:evenodd;stroke:none;stroke-width:0.165;stroke-linecap:butt;stroke-linejoin:miter;stroke-dasharray:none;stroke-opacity:1"
         d="m 80.855054,144.34774 c -0.01154,-0.0173 -0.03466,-0.052 -0.06062,-0.13855 -0.02597,-0.0866 -0.05483,-0.2251 0.0058,-0.38961 0.06061,-0.1645 0.210678,-0.35497 0.404046,-0.51371 0.193368,-0.15873 0.430015,-0.28571 0.663793,-0.37518 0.233778,-0.0895 0.464644,-0.14141 0.712847,-0.1544 0.248203,-0.013 0.513709,0.013 0.77634,0.10099 0.262632,0.088 0.522369,0.23809 0.699862,0.38672 0.177493,0.14864 0.27273,0.29583 0.34488,0.43147 0.07215,0.13565 0.12121,0.25974 0.03174,0.21789 -0.08947,-0.0419 -0.317453,-0.24963 -0.536797,-0.40981 -0.219344,-0.16018 -0.430016,-0.27273 -0.636368,-0.35787 -0.206351,-0.0851 -0.408375,-0.14286 -0.633487,-0.14286 -0.225111,0 -0.473308,0.0577 -0.67821,0.1241 -0.204902,0.0664 -0.366535,0.14141 -0.49063,0.21933 -0.124096,0.0779 -0.210682,0.15874 -0.285719,0.27129 -0.07504,0.11256 -0.138527,0.25686 -0.187591,0.38674 -0.04906,0.12987 -0.08369,0.24531 -0.101011,0.30303 -0.01732,0.0577 -0.01731,0.0577 -0.02885,0.0404 z"
         id="path19"
         inkscape:path-effect="#path-effect19"
         inkscape:original-d="m 80.866593,144.36505 c -0.0231,-0.0346 -0.04618,-0.0693 -0.06927,-0.1039 -0.02886,-0.13853 -0.05772,-0.27706 -0.08658,-0.41559 0.150077,-0.19048 0.300149,-0.38095 0.450221,-0.57143 0.236661,-0.12699 0.47331,-0.25397 0.709964,-0.38096 0.230889,-0.052 0.461767,-0.10389 0.692647,-0.15584 0.265522,0.026 0.531024,0.052 0.796546,0.0779 0.25975,0.15007 0.519484,0.30014 0.779229,0.45021 0.09524,0.1472 0.190477,0.29439 0.285716,0.44158 0.04906,0.1241 0.09812,0.24819 0.147187,0.37229 -0.228002,-0.2078 -0.455987,-0.41558 -0.683989,-0.62338 -0.210685,-0.11256 -0.421358,-0.22511 -0.632041,-0.33767 -0.202025,-0.0577 -0.404043,-0.11544 -0.606065,-0.17316 -0.248206,0.0577 -0.496398,0.11544 -0.744596,0.17316 -0.161621,0.075 -0.323236,0.15008 -0.484854,0.22511 -0.08658,0.0808 -0.173162,0.16162 -0.259744,0.24243 -0.06349,0.1443 -0.126985,0.2886 -0.190477,0.43291 -0.03463,0.11544 -0.06927,0.23088 -0.103896,0.34632 z"
         transform="translate(13.42702,33.576041)"
         sodipodi:nodetypes="sccccccccccccccccss" /></g></g></svg>
