<?xml version="1.0" encoding="UTF-8" standalone="no"?>
<!-- Created with Inkscape (http://www.inkscape.org/) -->

<svg
   width="11.706778mm"
   height="11.121195mm"
   viewBox="0 0 11.706778 11.121195"
   version="1.1"
   id="svg1"
   xml:space="preserve"
   inkscape:version="1.3 (0e150ed6c4, 2023-07-21)"
   sodipodi:docname="LittleRedFaceBGWhite.svg"
   xmlns:inkscape="http://www.inkscape.org/namespaces/inkscape"
   xmlns:sodipodi="http://sodipodi.sourceforge.net/DTD/sodipodi-0.dtd"
   xmlns="http://www.w3.org/2000/svg"
   xmlns:svg="http://www.w3.org/2000/svg"><sodipodi:namedview
     id="namedview1"
     pagecolor="#505050"
     bordercolor="#eeeeee"
     borderopacity="1"
     inkscape:showpageshadow="0"
     inkscape:pageopacity="0"
     inkscape:pagecheckerboard="0"
     inkscape:deskcolor="#d1d1d1"
     inkscape:document-units="mm"
     inkscape:zoom="1.3505331"
     inkscape:cx="-28.877485"
     inkscape:cy="-31.839279"
     inkscape:window-width="1280"
     inkscape:window-height="961"
     inkscape:window-x="-8"
     inkscape:window-y="-8"
     inkscape:window-maximized="1"
     inkscape:current-layer="layer2"
     showgrid="false" /><defs
     id="defs1" /><g
     inkscape:label="Layer 1"
     inkscape:groupmode="layer"
     id="layer1"
     transform="translate(-109.96373,-172.66279)" /><g
     inkscape:groupmode="layer"
     id="layer2"
     inkscape:label="Layer 2"
     transform="translate(-109.96373,-172.66279)"><path
       id="path242"
       style="fill:#ffffff;fill-opacity:1;fill-rule:evenodd;stroke:none;stroke-width:0.235538px;stroke-linecap:butt;stroke-linejoin:miter;stroke-opacity:1"
       d="m 115.54605,172.66279 c -0.18474,4e-4 -0.36916,0.005 -0.55159,0.0129 -0.72966,0.0308 -1.42833,0.11303 -2.00898,0.33399 -0.58064,0.22095 -1.04319,0.58045 -1.35664,0.98126 -0.31346,0.4008 -0.47778,0.84295 -0.67304,1.3157 -0.19526,0.47274 -0.4215,0.97606 -0.56538,1.46936 -0.14388,0.4933 -0.20547,0.9763 -0.2774,1.42335 -0.0719,0.44705 -0.1542,0.8583 -0.14906,1.28994 0.005,0.43163 0.0978,0.88363 0.20058,1.2536 0.10277,0.36998 0.21602,0.65779 0.38045,0.90443 0.16443,0.24665 0.37987,0.45211 0.53917,0.58057 0.15928,0.12846 0.26235,0.17995 0.31374,0.20564 0.0514,0.0257 0.0511,0.0257 0.37999,0.17987 0.32886,0.15415 0.98689,0.46258 1.67545,0.68868 0.68856,0.22609 1.40785,0.36976 2.03474,0.43657 0.6269,0.0668 1.16108,0.0567 1.64924,-0.0101 0.48815,-0.0668 0.93015,-0.19047 1.38747,-0.40115 0.45732,-0.21068 0.93015,-0.5084 1.35664,-0.8681 0.4265,-0.35968 0.80675,-0.78102 1.08937,-1.21265 0.28261,-0.43164 0.4676,-0.87354 0.57551,-1.39253 0.1079,-0.51899 0.13878,-1.11514 0.11823,-1.65981 -0.0206,-0.54468 -0.0928,-1.03785 -0.25211,-1.58253 -0.15928,-0.54467 -0.40572,-1.14089 -0.80138,-1.68557 -0.39567,-0.54468 -0.94062,-1.03782 -1.5264,-1.40266 -0.58577,-0.36482 -1.21224,-0.60115 -1.90593,-0.72961 -0.52026,-0.0964 -1.07844,-0.13231 -1.63267,-0.13111 z"
       sodipodi:nodetypes="ccssssscsssssssssssscsssccc" /></g></svg>
