<?xml version="1.0" encoding="UTF-8" standalone="no"?>
<!-- Created with Inkscape (http://www.inkscape.org/) -->

<svg
   width="15.171538mm"
   height="12.4926mm"
   viewBox="0 0 15.171538 12.4926"
   version="1.1"
   id="svg1"
   xml:space="preserve"
   inkscape:version="1.3.2 (091e20ef0f, 2023-11-25)"
   sodipodi:docname="LittleRed.svg"
   xmlns:inkscape="http://www.inkscape.org/namespaces/inkscape"
   xmlns:sodipodi="http://sodipodi.sourceforge.net/DTD/sodipodi-0.dtd"
   xmlns:xlink="http://www.w3.org/1999/xlink"
   xmlns="http://www.w3.org/2000/svg"
   xmlns:svg="http://www.w3.org/2000/svg"><sodipodi:namedview
     id="namedview1"
     pagecolor="#505050"
     bordercolor="#eeeeee"
     borderopacity="1"
     inkscape:showpageshadow="0"
     inkscape:pageopacity="0"
     inkscape:pagecheckerboard="0"
     inkscape:deskcolor="#d1d1d1"
     inkscape:document-units="mm"
     inkscape:zoom="0.95497111"
     inkscape:cx="283.77822"
     inkscape:cy="698.45045"
     inkscape:window-width="1366"
     inkscape:window-height="706"
     inkscape:window-x="-8"
     inkscape:window-y="-8"
     inkscape:window-maximized="1"
     inkscape:current-layer="layer2"
     showgrid="false" /><defs
     id="defs1"><inkscape:path-effect
       effect="bspline"
       id="path-effect305"
       is_visible="true"
       lpeversion="1.3"
       weight="33.333333"
       steps="2"
       helper_size="0"
       apply_no_weight="true"
       apply_with_weight="true"
       only_selected="false"
       uniform="false" /><inkscape:path-effect
       effect="bspline"
       id="path-effect303"
       is_visible="true"
       lpeversion="1.3"
       weight="33.333333"
       steps="2"
       helper_size="0"
       apply_no_weight="true"
       apply_with_weight="true"
       only_selected="false"
       uniform="false" /><inkscape:path-effect
       effect="bspline"
       id="path-effect301"
       is_visible="true"
       lpeversion="1.3"
       weight="33.333333"
       steps="2"
       helper_size="0"
       apply_no_weight="true"
       apply_with_weight="true"
       only_selected="false"
       uniform="false" /><inkscape:path-effect
       effect="bspline"
       id="path-effect299"
       is_visible="true"
       lpeversion="1.3"
       weight="33.333333"
       steps="2"
       helper_size="0"
       apply_no_weight="true"
       apply_with_weight="true"
       only_selected="false"
       uniform="false" /><inkscape:path-effect
       effect="bspline"
       id="path-effect297"
       is_visible="true"
       lpeversion="1.3"
       weight="33.333333"
       steps="2"
       helper_size="0"
       apply_no_weight="true"
       apply_with_weight="true"
       only_selected="false"
       uniform="false" /><inkscape:path-effect
       effect="bspline"
       id="path-effect291"
       is_visible="true"
       lpeversion="1.3"
       weight="33.333333"
       steps="2"
       helper_size="0"
       apply_no_weight="true"
       apply_with_weight="true"
       only_selected="false"
       uniform="false" /><inkscape:path-effect
       effect="bspline"
       id="path-effect285"
       is_visible="true"
       lpeversion="1.3"
       weight="33.333333"
       steps="2"
       helper_size="0"
       apply_no_weight="true"
       apply_with_weight="true"
       only_selected="false"
       uniform="false" /><inkscape:path-effect
       effect="bspline"
       id="path-effect283"
       is_visible="true"
       lpeversion="1.3"
       weight="33.333333"
       steps="2"
       helper_size="0"
       apply_no_weight="true"
       apply_with_weight="true"
       only_selected="false"
       uniform="false" /><inkscape:path-effect
       effect="bspline"
       id="path-effect279"
       is_visible="true"
       lpeversion="1.3"
       weight="33.333333"
       steps="2"
       helper_size="0"
       apply_no_weight="true"
       apply_with_weight="true"
       only_selected="false"
       uniform="false" /><linearGradient
       id="linearGradient49"
       inkscape:collect="always"><stop
         style="stop-color:#000000;stop-opacity:0;"
         offset="0"
         id="stop50" /><stop
         style="stop-color:#000000;stop-opacity:0.42944786;"
         offset="0.5"
         id="stop185" /><stop
         style="stop-color:#000000;stop-opacity:0.9631902;"
         offset="0.625"
         id="stop187" /><stop
         style="stop-color:#000000;stop-opacity:0.92024541;"
         offset="0.79402518"
         id="stop186" /><stop
         style="stop-color:#000000;stop-opacity:0;"
         offset="1"
         id="stop49" /></linearGradient><linearGradient
       id="linearGradient21"
       inkscape:collect="always"><stop
         style="stop-color:#fd4878;stop-opacity:1;"
         offset="0"
         id="stop21" /><stop
         style="stop-color:#f8438c;stop-opacity:0.147651;"
         offset="1"
         id="stop22" /></linearGradient><radialGradient
       inkscape:collect="always"
       xlink:href="#linearGradient49"
       id="radialGradient305"
       gradientUnits="userSpaceOnUse"
       gradientTransform="matrix(1.182134,0,0,0.63250569,20.310475,87.292401)"
       cx="116.22624"
       cy="156.05347"
       fx="116.22624"
       fy="156.05347"
       r="2.526031" /><radialGradient
       inkscape:collect="always"
       xlink:href="#linearGradient21"
       id="radialGradient306"
       gradientUnits="userSpaceOnUse"
       gradientTransform="translate(53.856604,34.432966)"
       cx="102.06926"
       cy="153.20184"
       fx="102.06926"
       fy="153.20184"
       r="1.2734169" /><radialGradient
       inkscape:collect="always"
       xlink:href="#linearGradient21"
       id="radialGradient307"
       gradientUnits="userSpaceOnUse"
       gradientTransform="translate(63.830728,34.017377)"
       cx="102.06926"
       cy="153.20184"
       fx="102.06926"
       fy="153.20184"
       r="1.2734169" /></defs><g
     inkscape:groupmode="layer"
     id="layer2"
     inkscape:label="Layer 2"
     transform="translate(-92.119578,-198.88812)"><g
       id="g309"
       transform="translate(-60.73219,19.786939)"><path
         style="fill:#f9ab99;fill-opacity:1;fill-rule:evenodd;stroke:none;stroke-width:0.264583px;stroke-linecap:butt;stroke-linejoin:miter;stroke-opacity:1"
         d="m 79.446665,146.52957 c -0.25397,-0.2886 -0.577209,-0.47331 -0.854271,-0.63493 -0.277062,-0.16162 -0.507937,-0.30014 -0.715735,-0.39249 -0.207799,-0.0924 -0.392508,-0.13854 -0.484855,-0.0231 -0.09235,0.11544 -0.09235,0.3925 -0.04617,0.66956 0.04618,0.27706 0.138527,0.55411 0.311693,0.79654 0.173165,0.24243 0.427132,0.45022 0.692649,0.55411 0.265518,0.1039 0.542571,0.1039 0.831178,0.1039 0.288606,0 0.588746,0 0.646466,-0.19625 0.05772,-0.19625 -0.126985,-0.58875 -0.380955,-0.87735 z"
         id="path254"
         inkscape:path-effect="#path-effect279"
         inkscape:original-d="m 79.515929,146.42567 c -0.323236,-0.1847 -0.646472,-0.36941 -0.969706,-0.55411 -0.230888,-0.13854 -0.461766,-0.27706 -0.692647,-0.41559 -0.184711,-0.0462 -0.369414,-0.0924 -0.554119,-0.13853 0,0.27706 0,0.55412 0,0.83118 0.09235,0.27706 0.184705,0.55411 0.277058,0.83117 0.253976,0.2078 0.507942,0.41559 0.761913,0.62338 0.277066,0 0.554119,0 0.831178,0 0.300154,0 0.600294,0 0.90044,0 -0.184708,-0.3925 -0.369411,-0.785 -0.554117,-1.1775 z"
         transform="translate(75.53647,41.290176)" /><path
         style="fill:#f9ab99;fill-opacity:1;fill-rule:evenodd;stroke:none;stroke-width:0.264583px;stroke-linecap:butt;stroke-linejoin:miter;stroke-opacity:1"
         d="m 91.845055,144.07067 c 0.06927,-0.13853 0.207792,-0.41558 0.3925,-0.55411 0.184709,-0.13853 0.415588,-0.13853 0.542573,0.0924 0.126985,0.23088 0.150071,0.69263 0.09235,1.03896 -0.05772,0.34633 -0.196251,0.57721 -0.369419,0.72728 -0.173169,0.15008 -0.38095,0.21934 -0.588745,0.26552 -0.207795,0.0462 -0.415586,0.0693 -0.519484,-0.17315 -0.103898,-0.24243 -0.103898,-0.75036 -0.02309,-1.00433 0.08081,-0.25397 0.242425,-0.25397 0.323234,-0.25397 0.08081,0 0.08081,-3e-5 0.15008,-0.13856 z"
         id="path256"
         inkscape:path-effect="#path-effect283"
         inkscape:original-d="m 91.775789,144.2092 c 0.138531,-0.27706 0.277059,-0.55411 0.415589,-0.83117 0.230886,0 0.461765,0 0.692648,0 0.0231,0.46177 0.04617,0.92352 0.06926,1.38529 -0.138533,0.23089 -0.277061,0.46177 -0.415589,0.69265 -0.207798,0.0693 -0.415589,0.13853 -0.623382,0.20779 -0.207798,0.0231 -0.415589,0.0462 -0.623385,0.0693 0,-0.50796 0,-1.01589 0,-1.52383 0.161621,0 0.323236,0 0.484854,0 z"
         transform="translate(75.120882,41.082381)" /><path
         style="fill:#d6866b;fill-opacity:1;fill-rule:evenodd;stroke:#d5856a;stroke-width:0.165;stroke-linecap:butt;stroke-linejoin:miter;stroke-dasharray:none;stroke-opacity:1"
         d="m 101.79988,144.75321 c 0.0245,-0.0735 0.1714,-0.0245 0.30202,0.0898 0.13062,0.11429 0.2449,0.29387 0.30204,0.44081 0.0571,0.14693 0.0571,0.26121 -0.0245,0.24488 -0.0816,-0.0163 -0.24489,-0.16326 -0.37549,-0.33467 -0.1306,-0.17141 -0.22857,-0.36734 -0.20408,-0.44081 z"
         id="path257"
         inkscape:path-effect="#path-effect285"
         inkscape:original-d="m 101.67744,144.63077 c 0.14693,0.049 0.29386,0.0979 0.4408,0.14693 0.11428,0.17959 0.22856,0.35917 0.34284,0.53876 0,0.11428 0,0.22856 0,0.34284 -0.16326,-0.14694 -0.32652,-0.29387 -0.48978,-0.4408 -0.0979,-0.19591 -0.19591,-0.39182 -0.29386,-0.58773 z"
         transform="rotate(47.886458,89.064333,238.96131)" /><path
         id="path258"
         style="fill:#fdc1a6;fill-opacity:1;fill-rule:evenodd;stroke:none;stroke-width:0.264583px;stroke-linecap:butt;stroke-linejoin:miter;stroke-opacity:1"
         d="m 105.59024,137.25692 c -0.20753,4.5e-4 -0.41469,0.006 -0.6196,0.0145 -0.81965,0.0346 -1.60447,0.12697 -2.25671,0.37517 -0.65225,0.2482 -1.17184,0.65203 -1.52394,1.10226 -0.3521,0.45023 -0.53669,0.94639 -0.75603,1.47743 -0.21934,0.53104 -0.473479,1.09693 -0.635101,1.65106 -0.161623,0.55413 -0.230799,1.09669 -0.311609,1.59887 -0.08081,0.50217 -0.173204,0.96414 -0.167432,1.449 0.0058,0.48486 0.109864,0.99259 0.225309,1.40819 0.115445,0.4156 0.242138,0.7389 0.426848,1.01596 0.184705,0.27706 0.427235,0.50785 0.606165,0.65215 0.17893,0.1443 0.2942,0.20214 0.35192,0.231 0.0577,0.0289 0.058,0.0289 0.42736,0.20205 0.36941,0.17316 1.10808,0.51911 1.88154,0.77308 0.77346,0.25397 1.58145,0.41588 2.28565,0.49093 0.7042,0.075 1.30477,0.0637 1.85311,-0.0114 0.54835,-0.075 1.04485,-0.21396 1.55857,-0.45062 0.5137,-0.23666 1.04433,-0.57109 1.52342,-0.97514 0.47908,-0.40403 0.90623,-0.87733 1.22369,-1.36219 0.31747,-0.48486 0.52526,-0.98126 0.64648,-1.56424 0.12121,-0.58298 0.15589,-1.25264 0.13281,-1.86449 -0.0231,-0.61184 -0.10375,-1.16582 -0.28267,-1.77767 -0.17894,-0.61184 -0.45575,-1.28158 -0.90021,-1.89342 -0.44445,-0.61185 -1.0566,-1.1658 -1.71462,-1.57562 -0.65802,-0.4098 -1.36224,-0.67528 -2.14147,-0.81958 -0.58443,-0.10823 -1.21091,-0.14863 -1.83348,-0.14728 z m 4.3372,4.91856 c 0.093,-0.002 0.18546,0.004 0.27854,0.0191 0.2482,0.0404 0.50215,0.14464 0.69298,0.26924 0.19083,0.12459 0.31837,0.26961 0.45113,0.44855 0.13276,0.17894 0.2707,0.39132 0.29921,0.56689 0.0285,0.17556 -0.0524,0.31409 -0.15296,0.44958 -0.10052,0.1355 -0.22056,0.26847 -0.36691,0.40566 -0.14634,0.13719 -0.31868,0.27892 -0.51831,0.39739 -0.19964,0.11848 -0.42642,0.21346 -0.65526,0.26097 -0.22884,0.0475 -0.45973,0.0476 -0.71003,-0.0672 -0.25031,-0.1148 -0.52016,-0.34453 -0.70487,-0.59273 -0.18471,-0.2482 -0.2845,-0.51514 -0.33435,-0.64854 -0.0498,-0.13339 -0.0496,-0.13347 -0.015,-0.22582 0.0346,-0.0924 0.10376,-0.27659 0.1788,-0.43822 0.075,-0.16162 0.15584,-0.30029 0.34055,-0.43305 0.1847,-0.13275 0.47345,-0.25982 0.73897,-0.33486 0.16595,-0.0469 0.32254,-0.0735 0.47749,-0.077 z m -7.24607,1.46968 c 0.24405,-0.001 0.47305,0.02 0.68626,0.0589 0.28428,0.052 0.54111,0.13577 0.75034,0.21807 0.20924,0.0823 0.37059,0.16277 0.38499,0.23927 0.0144,0.0765 -0.1182,0.14884 -0.29714,0.21084 -0.17894,0.062 -0.40412,0.11394 -0.67541,0.15864 -0.27129,0.0447 -0.58847,0.0824 -0.92759,0.0651 -0.33912,-0.0173 -0.70011,-0.0897 -1.00459,-0.15968 -0.30448,-0.07 -0.55265,-0.13747 -0.7121,-0.19017 -0.15949,-0.0526 -0.23006,-0.0902 -0.24236,-0.12558 -0.0123,-0.0353 0.0341,-0.0684 0.0853,-0.0951 0.0512,-0.0267 0.10736,-0.0471 0.21343,-0.0832 0.10607,-0.0361 0.26176,-0.088 0.52296,-0.14573 0.26119,-0.0578 0.62775,-0.12154 0.96687,-0.14314 0.0848,-0.005 0.16773,-0.008 0.24908,-0.008 z"
         transform="translate(54.895575,41.844294)" /><path
         style="fill:#fd1313;fill-opacity:1;fill-rule:evenodd;stroke:none;stroke-width:0.264583px;stroke-linecap:butt;stroke-linejoin:miter;stroke-opacity:1"
         d="m 161.84912,188.51745 c -0.17711,-0.1252 -0.21373,-0.38131 -0.27706,-0.58875 -0.0443,-0.14522 -0.14459,-0.31836 -0.0693,-0.45022 0.0925,-0.16196 0.38105,-0.33276 0.51949,-0.20779 0.12477,0.11263 -0.1605,0.31821 -0.13853,0.48485 0.0176,0.13347 0.1574,0.22148 0.20779,0.34632 0.0576,0.14283 0.20567,0.33462 0.1039,0.45023 -0.0767,0.0871 -0.25156,0.0323 -0.34629,-0.0346 z"
         id="path260"
         sodipodi:nodetypes="ssssssss" /><g
         id="g266"
         transform="translate(-3.7402964,32.153725)"><path
           style="fill:#000000;fill-opacity:1;fill-rule:evenodd;stroke:none;stroke-width:0.264583px;stroke-linecap:butt;stroke-linejoin:miter;stroke-opacity:1"
           d="m 160.98859,156.64223 c 0,0 0.98702,0.0519 1.0736,0.0866 0.0866,0.0346 1.9221,0.17316 1.9221,0.17316 l 1.76625,-0.0346 1.35066,-0.29438 1.3853,-0.45022 0.93507,-0.36364 -0.0173,0.38096 -0.70996,0.81386 -1.19482,1.02165 -1.41993,0.7446 -0.98702,0.34632 -0.77923,0.0866 -0.83117,-0.25974 -1.05629,-0.91776 -0.65802,-0.60606 -0.6407,-0.39828 z"
           id="path261" /><path
           style="fill:#ffffff;fill-opacity:1;fill-rule:evenodd;stroke:#bc8982;stroke-width:0.0919458;stroke-linecap:butt;stroke-linejoin:miter;stroke-dasharray:none;stroke-opacity:1"
           d="m 162.83377,157.60158 v 0.74045 l 0.77919,0.51824 v -1.11202 z"
           id="path262"
           sodipodi:nodetypes="ccccc" /><path
           style="fill:#ffffff;fill-opacity:1;fill-rule:evenodd;stroke:#bc8982;stroke-width:0.0919458;stroke-linecap:butt;stroke-linejoin:miter;stroke-dasharray:none;stroke-opacity:1"
           d="m 164.39732,156.9252 v 1.01431 l 0.77918,0.0509 v -1.0961 z"
           id="path263"
           sodipodi:nodetypes="ccccc" /><path
           style="fill:#ffffff;fill-opacity:1;fill-rule:evenodd;stroke:#bc8982;stroke-width:0.0919458;stroke-linecap:butt;stroke-linejoin:miter;stroke-dasharray:none;stroke-opacity:1"
           d="m 165.41228,156.78282 v 1.18959 l 0.77919,-0.13812 v -1.01496 z"
           id="path264"
           sodipodi:nodetypes="ccccc" /><path
           style="fill:#ffffff;fill-opacity:1;fill-rule:evenodd;stroke:#bc8982;stroke-width:0.0919458;stroke-linecap:butt;stroke-linejoin:miter;stroke-dasharray:none;stroke-opacity:1"
           d="m 167.09982,157.51367 v 0.71406 l 0.77919,-0.5819 v -0.43887 z"
           id="path265"
           sodipodi:nodetypes="ccccc" /><path
           style="fill:none;fill-opacity:1;fill-rule:evenodd;stroke:#f17769;stroke-width:0.264583px;stroke-linecap:butt;stroke-linejoin:miter;stroke-opacity:1"
           d="m 82.979165,148.03031 c 0.02309,0.1039 0.531031,0.3925 1.031071,0.87002 0.500041,0.47752 0.992137,1.1439 1.748302,1.19874 0.756164,0.0548 1.776269,-0.50189 2.499925,-1.00827 0.723656,-0.50638 1.150782,-0.96237 1.404753,-1.28849 0.253972,-0.32613 0.334777,-0.52237 0.05786,-0.47049 -0.276921,0.0519 -0.912135,0.35217 -1.529748,0.54842 -0.617614,0.19625 -1.217892,0.2886 -1.806648,0.32322 -0.588756,0.0346 -1.165949,0.0115 -1.581537,-0.0173 -0.415588,-0.0289 -0.669561,-0.0635 -1.027447,-0.12121 -0.357886,-0.0577 -0.819616,-0.13851 -0.796527,-0.0346 z"
           id="path266"
           inkscape:path-effect="#path-effect291"
           inkscape:original-d="m 82.494312,147.84561 c 0.507942,0.2886 1.015884,0.5772 1.523825,0.8658 0.492139,0.66644 0.984236,1.33282 1.476377,1.99926 1.020187,-0.55677 2.040293,-1.11349 3.060465,-1.67025 0.427141,-0.456 0.854265,-0.91199 1.281396,-1.36798 0.08081,-0.19626 0.161616,-0.3925 0.242427,-0.58875 -0.647068,0.27375 -1.273391,0.59284 -1.90478,0.90044 -0.600305,0.0924 -1.200589,0.18471 -1.800884,0.27706 -0.577218,-0.0231 -1.154411,-0.0462 -1.731618,-0.0693 -0.253974,-0.0346 -0.507937,-0.0693 -0.761912,-0.1039 -0.461802,-0.0808 -0.923531,-0.16159 -1.385296,-0.24238 z"
           transform="matrix(1.2529229,0,0,1.223899,56.869526,-24.546726)"
           sodipodi:nodetypes="accccccccca" /></g><path
         id="circle267"
         style="opacity:0.657258;fill:url(#radialGradient307);stroke:none;stroke-width:0.165;stroke-linecap:round;stroke-linejoin:round;stroke-dasharray:none;stroke-opacity:1"
         d="m 166.21363,185.98761 c -0.0578,0.0631 -0.11996,0.12684 -0.18862,0.19121 -0.14634,0.13719 -0.31868,0.27892 -0.51832,0.39739 -0.19963,0.11847 -0.42642,0.21345 -0.65525,0.26096 -0.0575,0.012 -0.11555,0.021 -0.17364,0.0258 a 1.2734169,1.2734169 0 0 0 -0.0512,0.35605 1.2734169,1.2734169 0 0 0 1.27331,1.27331 1.2734169,1.2734169 0 0 0 1.27331,-1.27331 1.2734169,1.2734169 0 0 0 -0.95963,-1.23145 z" /><path
         style="fill:#000000;fill-opacity:1;fill-rule:evenodd;stroke:none;stroke-width:0.165;stroke-linecap:butt;stroke-linejoin:miter;stroke-dasharray:none;stroke-opacity:1"
         d="m 80.855054,144.34774 c -0.01154,-0.0173 -0.03466,-0.052 -0.06062,-0.13855 -0.02597,-0.0866 -0.05483,-0.2251 0.0058,-0.38961 0.06061,-0.1645 0.210678,-0.35497 0.404046,-0.51371 0.193368,-0.15873 0.430015,-0.28571 0.663793,-0.37518 0.233778,-0.0895 0.464644,-0.14141 0.709959,-0.14718 0.245315,-0.006 0.505051,0.0346 0.721506,0.12121 0.216455,0.0866 0.389617,0.21934 0.510829,0.35209 0.121213,0.13276 0.190475,0.26552 0.245309,0.39539 0.05483,0.12987 0.09524,0.25686 0.02886,0.23088 -0.06638,-0.026 -0.23954,-0.20491 -0.395386,-0.35787 -0.155847,-0.15296 -0.294371,-0.27994 -0.464647,-0.3723 -0.170275,-0.0923 -0.372299,-0.15007 -0.597411,-0.15007 -0.225111,0 -0.473308,0.0577 -0.67821,0.1241 -0.204902,0.0664 -0.366535,0.14141 -0.49063,0.21933 -0.124096,0.0779 -0.210682,0.15874 -0.285719,0.27129 -0.07504,0.11256 -0.138527,0.25686 -0.187591,0.38674 -0.04906,0.12987 -0.08369,0.24531 -0.101011,0.30303 -0.01732,0.0577 -0.01731,0.0577 -0.02885,0.0404 z"
         id="path271"
         inkscape:path-effect="#path-effect297"
         inkscape:original-d="m 80.866593,144.36505 c -0.0231,-0.0346 -0.04618,-0.0693 -0.06927,-0.1039 -0.02886,-0.13853 -0.05772,-0.27706 -0.08658,-0.41559 0.150077,-0.19048 0.300149,-0.38095 0.450221,-0.57143 0.236661,-0.12699 0.47331,-0.25397 0.709964,-0.38096 0.230889,-0.052 0.461767,-0.10389 0.692647,-0.15584 0.25975,0.0404 0.519486,0.0808 0.77923,0.12121 0.173165,0.13276 0.346324,0.26552 0.519486,0.39827 0.06927,0.13276 0.138527,0.26552 0.207793,0.39828 0.0404,0.12698 0.08081,0.25397 0.121213,0.38095 -0.173164,-0.17894 -0.346323,-0.35787 -0.519485,-0.5368 -0.138533,-0.12699 -0.277059,-0.25397 -0.415589,-0.38096 -0.202025,-0.0577 -0.404043,-0.11544 -0.606065,-0.17316 -0.248206,0.0577 -0.496398,0.11544 -0.744596,0.17316 -0.161621,0.075 -0.323236,0.15008 -0.484854,0.22511 -0.08658,0.0808 -0.173162,0.16162 -0.259744,0.24243 -0.06349,0.1443 -0.126985,0.2886 -0.190477,0.43291 -0.03463,0.11544 -0.06927,0.23088 -0.103896,0.34632 z"
         transform="translate(82.269465,41.149185)" /><path
         style="fill:none;fill-rule:evenodd;stroke:#e2836a;stroke-width:0.565;stroke-linecap:butt;stroke-linejoin:miter;stroke-dasharray:none;stroke-opacity:0.633803"
         d="m 87.55064,145.17891 c 0.115448,0.0462 0.145832,0.0583 0.315741,0.19745 0.169909,0.13912 0.111713,0.0564 0.194145,0.26709 0.08243,0.21069 0.08246,0.21173 0.06542,0.29327 -0.01704,0.0815 -0.05376,0.14671 -0.08366,0.19084 -0.0299,0.0441 -0.05301,0.0673 -0.09839,0.12315 -0.04538,0.0559 -0.08077,0.1023 -0.172509,0.20041 -0.09174,0.0981 -0.06569,0.074 -0.185067,0.0904 -0.119377,0.0165 -0.12569,0.009 -0.149981,-0.007 -0.02429,-0.0163 -0.02429,0.007 -0.02514,0.0181 -8.49e-4,0.0113 -0.01923,0.006 -0.08911,-0.0118 -0.06988,-0.0175 -0.112464,-0.0277 -0.157011,-0.0416 -0.04455,-0.0139 -0.12079,-0.0655 -0.169567,-0.12406 -0.04878,-0.0585 -0.124606,-0.17236 -0.206859,-0.29581"
         id="path272"
         inkscape:path-effect="#path-effect299"
         inkscape:original-d="m 87.55064,145.17891 c 0.11544,0.0462 0.145845,0.0583 0.346323,0.13853 0.139328,0.19804 0.08113,0.11532 0.240691,0.34212 0.0053,0.19458 0.0054,0.19562 0.008,0.2935 -0.03675,0.0652 -0.07346,0.13037 -0.1102,0.19556 -0.08637,-0.0402 -0.04617,0.0462 -0.06927,0.0693 -0.06765,0.0887 -0.103055,0.13509 -0.171068,0.22424 -0.115459,0.10707 -0.08943,0.0829 -0.23736,0.22011 -0.09081,-0.10424 -0.09712,-0.11149 -0.145704,-0.16726 0,0.0231 0,0.0462 0,0.0693 -0.0017,-5.1e-4 -0.02011,-0.006 -0.04057,-0.0123 -0.119252,-0.0288 -0.161856,-0.039 -0.236486,-0.057 -0.01432,-0.01 -0.09071,-0.0614 -0.126286,-0.0855 -0.06199,-0.093 -0.137802,-0.20682 -0.220054,-0.33027"
         transform="translate(75.190146,41.290176)"
         sodipodi:nodetypes="ccscccccccsccc" /><path
         style="fill:#d6866b;fill-opacity:1;fill-rule:evenodd;stroke:#d5856a;stroke-width:0.165;stroke-linecap:butt;stroke-linejoin:miter;stroke-dasharray:none;stroke-opacity:1"
         d="m 101.79988,144.75321 c 0.0245,-0.0735 0.1714,-0.0245 0.30202,0.0898 0.13062,0.11429 0.2449,0.29387 0.30204,0.44081 0.0571,0.14693 0.0571,0.26121 -0.0245,0.24488 -0.0816,-0.0163 -0.24489,-0.16326 -0.37549,-0.33467 -0.1306,-0.17141 -0.22857,-0.36734 -0.20408,-0.44081 z"
         id="path273"
         inkscape:path-effect="#path-effect301"
         inkscape:original-d="m 101.67744,144.63077 c 0.14693,0.049 0.29386,0.0979 0.4408,0.14693 0.11428,0.17959 0.22856,0.35917 0.34284,0.53876 0,0.11428 0,0.22856 0,0.34284 -0.16326,-0.14694 -0.32652,-0.29387 -0.48978,-0.4408 -0.0979,-0.19591 -0.19591,-0.39182 -0.29386,-0.58773 z"
         transform="translate(51.558983,42.665327)" /><path
         style="fill:#fdc1a6;fill-opacity:1;fill-rule:evenodd;stroke:none;stroke-width:0.264583px;stroke-linecap:butt;stroke-linejoin:miter;stroke-opacity:1"
         d="m 159.88729,186.09029 -0.48978,0.0245 -0.89026,0.29807 -0.95593,0.0627 -0.8658,-0.1039 -0.72728,-0.17316 -0.52815,-0.23377 0.009,0.31169 0.329,0.11255 0.32901,0.30304 0.36364,0.28571 0.45022,0.22511 0.38096,0.0952 0.51083,0.0952 1.61906,-0.25108 c 0,0 0.22511,-0.60607 0.25974,-0.62338 0.0346,-0.0173 0.20607,-0.42859 0.20607,-0.42859 z"
         id="path274"
         sodipodi:nodetypes="cccccccccccccccscc" /><circle
         style="opacity:0.657258;fill:url(#radialGradient306);stroke:none;stroke-width:0.165;stroke-linecap:round;stroke-linejoin:round;stroke-dasharray:none;stroke-opacity:1"
         id="circle275"
         cx="155.92586"
         cy="187.63478"
         r="1.2734169" /><path
         style="fill:none;fill-rule:evenodd;stroke:#000000;stroke-width:0.264583px;stroke-linecap:round;stroke-linejoin:miter;stroke-opacity:1"
         d="m 120.00816,192.87368 c 0.69765,0.23128 1.39529,0.46255 2.06267,0.47838 0.66738,0.0158 1.30449,-0.18378 1.94162,-0.3834"
         id="path275"
         inkscape:path-effect="#path-effect303"
         inkscape:original-d="m 120.00816,192.87368 c 0.69765,0.23128 1.39529,0.46255 2.09293,0.69383 0.63712,-0.19962 1.27423,-0.39923 1.91136,-0.59885"
         sodipodi:nodetypes="ccc"
         transform="translate(35.479247,-6.8875904)" /><path
         style="fill:#fdc1a6;fill-opacity:1;fill-rule:evenodd;stroke:none;stroke-width:0.264583px;stroke-linecap:butt;stroke-linejoin:miter;stroke-opacity:1"
         d="m 155.33237,185.625 0.83262,-1.22444 1.88563,-0.26937 1.61627,0.66119 0.26937,1.22444 -0.95803,-0.3139 -1.00973,-0.27209 -0.85711,0.0304 -0.81679,0.12071 -0.76632,0.23894 z"
         id="path276"
         sodipodi:nodetypes="ccccccccccc" /><path
         id="path277"
         style="fill:url(#radialGradient305);stroke-width:0.0685466;stroke-linecap:round;stroke-linejoin:round;paint-order:stroke fill markers"
         d="m 160.65315,185.99712 c 0,1.04364 -1.31972,1.475 -2.94768,1.475 -1.62797,0 -3.12138,-0.43136 -3.12138,-1.475 0,-1.04365 1.49341,-1.63627 3.12138,-1.63627 1.62796,0 2.94768,0.59262 2.94768,1.63627 z"
         sodipodi:nodetypes="sssss" /><path
         style="fill:none;fill-rule:evenodd;stroke:#000000;stroke-width:0.264583px;stroke-linecap:round;stroke-linejoin:miter;stroke-opacity:1"
         d="m 120.05714,192.84919 c 0.68133,0.22501 1.36264,0.45002 2.02593,0.44545 0.6633,-0.005 1.30858,-0.23874 1.95387,-0.47291"
         id="path278"
         inkscape:path-effect="#path-effect305"
         inkscape:original-d="m 120.05714,192.84919 c 0.68133,0.22501 1.36264,0.45002 2.04395,0.67503 0.64528,-0.23416 1.29056,-0.46832 1.93585,-0.70249"
         sodipodi:nodetypes="ccc"
         transform="matrix(1,0,0,-1,35.479247,378.74154)" /></g></g></svg>
