<?xml version="1.0" encoding="UTF-8" standalone="no"?>
<!-- Created with Inkscape (http://www.inkscape.org/) -->

<svg
   width="32"
   height="32"
   viewBox="0 0 8.4666665 8.4666666"
   version="1.1"
   id="svg1"
   inkscape:version="1.4.2 (f4327f4, 2025-05-13)"
   sodipodi:docname="AlignHRightToCenter.svg"
   xml:space="preserve"
   xmlns:inkscape="http://www.inkscape.org/namespaces/inkscape"
   xmlns:sodipodi="http://sodipodi.sourceforge.net/DTD/sodipodi-0.dtd"
   xmlns="http://www.w3.org/2000/svg"
   xmlns:svg="http://www.w3.org/2000/svg"><sodipodi:namedview
     id="namedview1"
     pagecolor="#505050"
     bordercolor="#eeeeee"
     borderopacity="1"
     inkscape:showpageshadow="0"
     inkscape:pageopacity="0"
     inkscape:pagecheckerboard="0"
     inkscape:deskcolor="#0d0d0d"
     inkscape:document-units="px"
     inkscape:zoom="1.9049028"
     inkscape:cx="31.235189"
     inkscape:cy="26.248058"
     inkscape:window-width="1280"
     inkscape:window-height="961"
     inkscape:window-x="-8"
     inkscape:window-y="-8"
     inkscape:window-maximized="1"
     inkscape:current-layer="layer1" /><defs
     id="defs1" /><g
     inkscape:label="Calque 1"
     inkscape:groupmode="layer"
     id="layer1"><rect
       style="fill:#d7d7d7;fill-opacity:1;fill-rule:evenodd;stroke:none;stroke-width:0.529166;stroke-linecap:round;stroke-linejoin:round;stroke-dasharray:none;stroke-opacity:1"
       id="rect2-1"
       width="4.4979167"
       height="1.5898918"
       x="-5.1588435"
       y="5.8519578"
       rx="0.1176765"
       ry="0.070655309"
       transform="scale(-1,1)" /><rect
       style="fill:#d7d7d7;fill-opacity:1;fill-rule:evenodd;stroke:none;stroke-width:0.529167;stroke-linecap:round;stroke-linejoin:round;stroke-dasharray:none;stroke-opacity:1"
       id="rect4-1"
       width="3.4641476"
       height="1.5898918"
       x="-5.2303624"
       y="1.0253226"
       rx="0.090630583"
       ry="0.070655309"
       transform="scale(-1,1)" /><path
       id="rect5-3"
       style="fill:#d7d7d7;fill-rule:evenodd;stroke-width:0.608542;stroke-linecap:round;stroke-linejoin:round"
       d="M -6.0104858 -0.4532023 C -5.8272619 -0.4532023 -5.6797566 -0.58165515 -5.6797566 -0.74155679 L -5.6797566 -3.4385498 L -6.3412149 -3.4385498 L -6.3412149 -0.74155679 C -6.3412149 -0.58165515 -6.1937098 -0.4532023 -6.0104858 -0.4532023 z M -5.6797566 -5.0281168 L -5.6797566 -7.7251098 C -5.6797566 -7.8850114 -5.8272619 -8.0134642 -6.0104858 -8.0134642 C -6.1937098 -8.0134642 -6.3412149 -7.8850114 -6.3412149 -7.7251098 L -6.3412149 -5.0281168 L -5.6797566 -5.0281168 z "
       transform="scale(-1)" /><path
       id="rect8"
       style="fill:none;fill-rule:evenodd;stroke:#d7d7d7;stroke-width:0.529167;stroke-linecap:round;stroke-linejoin:round"
       d="M 7.3808957,3.4383877 H 4.640005 c -0.04192,0 -0.075668,0.031512 -0.075668,0.070655 v 1.4485811 c 0,0.039143 0.033748,0.070655 0.075668,0.070655 h 2.7408907 c 0.04192,0 0.075668,-0.031512 0.075668,-0.070655 V 3.5090431 c 0,-0.039143 -0.033748,-0.070655 -0.075668,-0.070655 z" /></g></svg>
