<?xml version="1.0" encoding="UTF-8" standalone="no"?>
<!-- Created with Inkscape (http://www.inkscape.org/) -->

<svg
   width="32"
   height="32"
   viewBox="0 0 8.4666665 8.4666666"
   version="1.1"
   id="svg1"
   inkscape:version="1.4.2 (f4327f4, 2025-05-13)"
   sodipodi:docname="AlignHLeftToCenter.svg"
   xml:space="preserve"
   xmlns:inkscape="http://www.inkscape.org/namespaces/inkscape"
   xmlns:sodipodi="http://sodipodi.sourceforge.net/DTD/sodipodi-0.dtd"
   xmlns="http://www.w3.org/2000/svg"
   xmlns:svg="http://www.w3.org/2000/svg"><sodipodi:namedview
     id="namedview1"
     pagecolor="#505050"
     bordercolor="#eeeeee"
     borderopacity="1"
     inkscape:showpageshadow="0"
     inkscape:pageopacity="0"
     inkscape:pagecheckerboard="0"
     inkscape:deskcolor="#0d0d0d"
     inkscape:document-units="px"
     inkscape:zoom="1.9049028"
     inkscape:cx="31.235189"
     inkscape:cy="26.248058"
     inkscape:window-width="1280"
     inkscape:window-height="961"
     inkscape:window-x="-8"
     inkscape:window-y="-8"
     inkscape:window-maximized="1"
     inkscape:current-layer="layer1" /><defs
     id="defs1" /><g
     inkscape:label="Calque 1"
     inkscape:groupmode="layer"
     id="layer1"><rect
       style="fill:#d7d7d7;fill-opacity:1;fill-rule:evenodd;stroke:none;stroke-width:0.529166;stroke-linecap:round;stroke-linejoin:round;stroke-dasharray:none;stroke-opacity:1"
       id="rect2-1"
       width="4.4979167"
       height="1.5898918"
       x="3.2232306"
       y="5.8519578"
       rx="0.1176765"
       ry="0.070655309" /><rect
       style="fill:#d7d7d7;fill-opacity:1;fill-rule:evenodd;stroke:none;stroke-width:0.529167;stroke-linecap:round;stroke-linejoin:round;stroke-dasharray:none;stroke-opacity:1"
       id="rect4-1"
       width="3.4641476"
       height="1.5898918"
       x="3.1517117"
       y="1.0253226"
       rx="0.090630583"
       ry="0.070655309" /><path
       id="rect5-3"
       style="fill:#d7d7d7;fill-rule:evenodd;stroke-width:0.608542;stroke-linecap:round;stroke-linejoin:round"
       d="m 2.3715882,0.4532023 c 0.1832239,0 0.3307292,0.12845285 0.3307292,0.28835449 V 3.4385498 H 2.0408591 V 0.74155679 c 0,-0.15990164 0.1475051,-0.28835449 0.3307291,-0.28835449 z m 0.3307292,4.5749145 v 2.696993 c 0,0.1599016 -0.1475053,0.2883544 -0.3307292,0.2883544 -0.183224,0 -0.3307291,-0.1284528 -0.3307291,-0.2883544 v -2.696993 z" /><path
       id="rect8"
       style="fill:none;fill-rule:evenodd;stroke:#d7d7d7;stroke-width:0.529167;stroke-linecap:round;stroke-linejoin:round"
       d="M 1.0011783,3.4383877 H 3.742069 c 0.04192,0 0.075668,0.031512 0.075668,0.070655 v 1.4485811 c 0,0.039143 -0.033748,0.070655 -0.075668,0.070655 H 1.0011783 c -0.04192,0 -0.075668,-0.031512 -0.075668,-0.070655 V 3.5090431 c 0,-0.039143 0.033748,-0.070655 0.075668,-0.070655 z" /></g></svg>
