<?xml version="1.0" encoding="UTF-8" standalone="no"?>
<!-- Created with Inkscape (http://www.inkscape.org/) -->

<svg
   width="32"
   height="32"
   viewBox="0 0 8.4666665 8.4666666"
   version="1.1"
   id="svg1"
   inkscape:version="1.4.2 (f4327f4, 2025-05-13)"
   sodipodi:docname="AlignVBottomToCenter.svg"
   xml:space="preserve"
   xmlns:inkscape="http://www.inkscape.org/namespaces/inkscape"
   xmlns:sodipodi="http://sodipodi.sourceforge.net/DTD/sodipodi-0.dtd"
   xmlns="http://www.w3.org/2000/svg"
   xmlns:svg="http://www.w3.org/2000/svg"><sodipodi:namedview
     id="namedview1"
     pagecolor="#505050"
     bordercolor="#eeeeee"
     borderopacity="1"
     inkscape:showpageshadow="0"
     inkscape:pageopacity="0"
     inkscape:pagecheckerboard="0"
     inkscape:deskcolor="#0d0d0d"
     inkscape:document-units="px"
     inkscape:zoom="1.9049028"
     inkscape:cx="31.235189"
     inkscape:cy="152.23874"
     inkscape:window-width="1280"
     inkscape:window-height="961"
     inkscape:window-x="-8"
     inkscape:window-y="-8"
     inkscape:window-maximized="1"
     inkscape:current-layer="layer1" /><defs
     id="defs1" /><g
     inkscape:label="Calque 1"
     inkscape:groupmode="layer"
     id="layer1"><rect
       style="fill:#d7d7d7;fill-opacity:1;fill-rule:evenodd;stroke:none;stroke-width:0.529166;stroke-linecap:round;stroke-linejoin:round;stroke-dasharray:none;stroke-opacity:1"
       id="rect2-1"
       width="4.4979167"
       height="1.5898918"
       x="-5.2011399"
       y="-2.5724125"
       rx="0.1176765"
       ry="0.070655309"
       transform="matrix(0,-1,-1,0,0,0)" /><rect
       style="fill:#d7d7d7;fill-opacity:1;fill-rule:evenodd;stroke:none;stroke-width:0.529167;stroke-linecap:round;stroke-linejoin:round;stroke-dasharray:none;stroke-opacity:1"
       id="rect4-1"
       width="3.4641476"
       height="1.5898918"
       x="-5.2726588"
       y="-7.3990479"
       rx="0.090630583"
       ry="0.070655309"
       transform="matrix(0,-1,-1,0,0,0)" /><path
       id="rect5-3"
       style="fill:#d7d7d7;fill-rule:evenodd;stroke-width:0.608542;stroke-linecap:round;stroke-linejoin:round"
       d="m 7.971168,6.0527821 c 0,-0.1832239 -0.1284528,-0.3307292 -0.2883545,-0.3307292 h -2.696993 v 0.6614583 h 2.696993 c 0.1599017,0 0.2883545,-0.1475051 0.2883545,-0.3307291 z M 3.3962535,5.7220529 h -2.696993 c -0.1599016,0 -0.2883544,0.1475053 -0.2883544,0.3307292 0,0.183224 0.1284528,0.3307291 0.2883544,0.3307291 h 2.696993 z" /><path
       id="rect8"
       style="fill:none;fill-rule:evenodd;stroke:#d7d7d7;stroke-width:0.529167;stroke-linecap:round;stroke-linejoin:round"
       d="M 4.9859826,7.423192 V 4.6823013 c 0,-0.04192 -0.031512,-0.075668 -0.070655,-0.075668 H 3.4667465 c -0.039143,0 -0.070655,0.033748 -0.070655,0.075668 V 7.423192 c 0,0.04192 0.031512,0.075668 0.070655,0.075668 h 1.4485807 c 0.039143,0 0.070655,-0.033748 0.070655,-0.075668 z" /></g></svg>
