<?xml version="1.0" encoding="UTF-8" standalone="no"?>
<!-- Created with Inkscape (http://www.inkscape.org/) -->

<svg
   width="32"
   height="32"
   viewBox="0 0 8.4666665 8.4666666"
   version="1.1"
   id="svg1"
   inkscape:version="1.4.2 (f4327f4, 2025-05-13)"
   sodipodi:docname="AlignVCenter.svg"
   xml:space="preserve"
   xmlns:inkscape="http://www.inkscape.org/namespaces/inkscape"
   xmlns:sodipodi="http://sodipodi.sourceforge.net/DTD/sodipodi-0.dtd"
   xmlns="http://www.w3.org/2000/svg"
   xmlns:svg="http://www.w3.org/2000/svg"><sodipodi:namedview
     id="namedview1"
     pagecolor="#505050"
     bordercolor="#eeeeee"
     borderopacity="1"
     inkscape:showpageshadow="0"
     inkscape:pageopacity="0"
     inkscape:pagecheckerboard="0"
     inkscape:deskcolor="#0d0d0d"
     inkscape:document-units="px"
     inkscape:zoom="7.6196112"
     inkscape:cx="12.139727"
     inkscape:cy="33.859995"
     inkscape:window-width="1280"
     inkscape:window-height="961"
     inkscape:window-x="-8"
     inkscape:window-y="-8"
     inkscape:window-maximized="1"
     inkscape:current-layer="layer1" /><defs
     id="defs1" /><g
     inkscape:label="Calque 1"
     inkscape:groupmode="layer"
     id="layer1"><rect
       style="fill:#d7d7d7;fill-opacity:1;fill-rule:evenodd;stroke:none;stroke-width:0.529166;stroke-linecap:round;stroke-linejoin:round;stroke-dasharray:none;stroke-opacity:1"
       id="rect2-1"
       width="4.4979167"
       height="1.5898918"
       x="1.9843749"
       y="5.8942537"
       rx="0.1176765"
       ry="0.070655309"
       transform="matrix(0,1,1,0,0,0)" /><rect
       style="fill:#d7d7d7;fill-opacity:1;fill-rule:evenodd;stroke:none;stroke-width:0.529167;stroke-linecap:round;stroke-linejoin:round;stroke-dasharray:none;stroke-opacity:1"
       id="rect4-1"
       width="3.4641476"
       height="1.5898918"
       x="2.5012596"
       y="1.0185114"
       rx="0.090630583"
       ry="0.070655309"
       transform="matrix(0,1,1,0,0,0)" /><path
       id="rect8"
       style="fill:none;fill-rule:evenodd;stroke:#d7d7d7;stroke-width:0.529167;stroke-linecap:round;stroke-linejoin:round"
       d="m 3.4383876,2.8628879 v 2.7408907 c 0,0.04192 0.031512,0.075668 0.070655,0.075668 h 1.4485811 c 0.039143,0 0.070655,-0.033748 0.070655,-0.075668 V 2.8628879 c 0,-0.04192 -0.031512,-0.075668 -0.070655,-0.075668 H 3.509043 c -0.039143,0 -0.070655,0.033748 -0.070655,0.075668 z" /><path
       id="rect5"
       style="fill:#d7d7d7;fill-rule:evenodd;stroke-width:0.608542;stroke-linecap:round;stroke-linejoin:round"
       d="m 8.0134641,4.2333333 c 0,-0.183224 -0.142587,-0.3307292 -0.3198771,-0.3307292 H 5.0281166 V 4.5640624 H 7.693587 c 0.1772901,0 0.3198771,-0.1475052 0.3198771,-0.3307291 z M 3.4385496,3.9026041 H 0.7730793 c -0.1772901,0 -0.3198771,0.1475052 -0.3198771,0.3307292 0,0.1832239 0.142587,0.3307291 0.3198771,0.3307291 h 2.6654703 z" /></g></svg>
