<?xml version="1.0" encoding="UTF-8" standalone="no"?>
<!-- Created with Inkscape (http://www.inkscape.org/) -->

<svg
   width="32"
   height="32"
   viewBox="0 0 8.4666665 8.4666666"
   version="1.1"
   id="svg1"
   inkscape:version="1.4.2 (f4327f4, 2025-05-13)"
   sodipodi:docname="AlignHCenter.svg"
   xml:space="preserve"
   xmlns:inkscape="http://www.inkscape.org/namespaces/inkscape"
   xmlns:sodipodi="http://sodipodi.sourceforge.net/DTD/sodipodi-0.dtd"
   xmlns="http://www.w3.org/2000/svg"
   xmlns:svg="http://www.w3.org/2000/svg"><sodipodi:namedview
     id="namedview1"
     pagecolor="#505050"
     bordercolor="#eeeeee"
     borderopacity="1"
     inkscape:showpageshadow="0"
     inkscape:pageopacity="0"
     inkscape:pagecheckerboard="0"
     inkscape:deskcolor="#0d0d0d"
     inkscape:document-units="px"
     inkscape:zoom="7.6196112"
     inkscape:cx="12.139727"
     inkscape:cy="33.859995"
     inkscape:window-width="1280"
     inkscape:window-height="961"
     inkscape:window-x="-8"
     inkscape:window-y="-8"
     inkscape:window-maximized="1"
     inkscape:current-layer="layer1" /><defs
     id="defs1" /><g
     inkscape:label="Calque 1"
     inkscape:groupmode="layer"
     id="layer1"><rect
       style="fill:#d7d7d7;fill-opacity:1;fill-rule:evenodd;stroke:none;stroke-width:0.529166;stroke-linecap:round;stroke-linejoin:round;stroke-dasharray:none;stroke-opacity:1"
       id="rect2-1"
       width="4.4979167"
       height="1.5898918"
       x="1.9843749"
       y="-2.5724125"
       rx="0.1176765"
       ry="0.070655309"
       transform="scale(1,-1)" /><rect
       style="fill:#d7d7d7;fill-opacity:1;fill-rule:evenodd;stroke:none;stroke-width:0.529167;stroke-linecap:round;stroke-linejoin:round;stroke-dasharray:none;stroke-opacity:1"
       id="rect4-1"
       width="3.4641476"
       height="1.5898918"
       x="2.5012596"
       y="-7.4481549"
       rx="0.090630583"
       ry="0.070655309"
       transform="scale(1,-1)" /><path
       id="rect8"
       style="fill:none;fill-rule:evenodd;stroke:#d7d7d7;stroke-width:0.529167;stroke-linecap:round;stroke-linejoin:round"
       d="m 2.8628879,5.0282788 h 2.7408907 c 0.04192,0 0.075668,-0.031512 0.075668,-0.070655 V 3.5090427 c 0,-0.039143 -0.033748,-0.070655 -0.075668,-0.070655 H 2.8628879 c -0.04192,0 -0.075668,0.031512 -0.075668,0.070655 v 1.4485807 c 0,0.039143 0.033748,0.070655 0.075668,0.070655 z" /><path
       id="rect5"
       style="fill:#d7d7d7;fill-rule:evenodd;stroke-width:0.608542;stroke-linecap:round;stroke-linejoin:round"
       d="M 4.2333333 0.4532023 C 4.0501093 0.4532023 3.9026041 0.59578925 3.9026041 0.77307942 L 3.9026041 3.4385498 L 4.5640624 3.4385498 L 4.5640624 0.77307942 C 4.5640624 0.59578925 4.4165572 0.4532023 4.2333333 0.4532023 z M 3.9026041 5.0281168 L 3.9026041 7.6935871 C 3.9026041 7.8708772 4.0501093 8.0134642 4.2333333 8.0134642 C 4.4165572 8.0134642 4.5640624 7.8708772 4.5640624 7.6935871 L 4.5640624 5.0281168 L 3.9026041 5.0281168 z " /></g></svg>
