<?xml version="1.0" encoding="UTF-8" standalone="no"?>
<!-- Created with Inkscape (http://www.inkscape.org/) -->

<svg
   width="32"
   height="32"
   viewBox="0 0 8.4666665 8.4666666"
   version="1.1"
   id="svg1"
   xml:space="preserve"
   inkscape:version="1.4 (86a8ad7, 2024-10-11)"
   sodipodi:docname="Circle.svg"
   xmlns:inkscape="http://www.inkscape.org/namespaces/inkscape"
   xmlns:sodipodi="http://sodipodi.sourceforge.net/DTD/sodipodi-0.dtd"
   xmlns="http://www.w3.org/2000/svg"
   xmlns:svg="http://www.w3.org/2000/svg"><sodipodi:namedview
     id="namedview1"
     pagecolor="#505050"
     bordercolor="#eeeeee"
     borderopacity="1"
     inkscape:showpageshadow="0"
     inkscape:pageopacity="0"
     inkscape:pagecheckerboard="0"
     inkscape:deskcolor="#121212"
     inkscape:document-units="px"
     inkscape:zoom="10.775757"
     inkscape:cx="17.446569"
     inkscape:cy="8.3520811"
     inkscape:window-width="1280"
     inkscape:window-height="961"
     inkscape:window-x="-8"
     inkscape:window-y="-8"
     inkscape:window-maximized="1"
     inkscape:current-layer="layer1" /><defs
     id="defs1" /><g
     inkscape:label="Calque 1"
     inkscape:groupmode="layer"
     id="layer1"><path
       id="path2"
       style="fill-rule:evenodd;stroke:none;stroke-width:0.306365;stroke-linecap:round;stroke-linejoin:round;fill:#bababa;fill-opacity:1"
       d="M 4.2333333,0.15318237 A 4.0803688,4.0803688 0 0 0 0.15318245,4.2333332 4.0803688,4.0803688 0 0 0 4.2333333,8.3134842 4.0803688,4.0803688 0 0 0 8.3134841,4.2333332 4.0803688,4.0803688 0 0 0 4.2333333,0.15318237 Z m 0,0.67039534 A 3.4098114,3.4098114 0 0 1 7.6430893,4.2333332 3.4098114,3.4098114 0 0 1 4.2333333,7.6430888 3.4098114,3.4098114 0 0 1 0.82357871,4.2333332 3.4098114,3.4098114 0 0 1 4.2333333,0.82357771 Z" /></g><style
     id="style1">@import './cursors.css';</style></svg>
