<?xml version="1.0" encoding="UTF-8" standalone="no"?>
<!-- Created with Inkscape (http://www.inkscape.org/) -->

<svg
   width="32"
   height="32"
   viewBox="0 0 8.4666666 8.4666666"
   version="1.1"
   id="svg1517"
   inkscape:version="1.4.2 (f4327f4, 2025-05-13)"
   sodipodi:docname="SpriteBuilder.svg"
   xml:space="preserve"
   inkscape:export-filename="..\..\Design\MixerInsertMusic.png"
   inkscape:export-xdpi="96"
   inkscape:export-ydpi="96"
   xmlns:inkscape="http://www.inkscape.org/namespaces/inkscape"
   xmlns:sodipodi="http://sodipodi.sourceforge.net/DTD/sodipodi-0.dtd"
   xmlns:xlink="http://www.w3.org/1999/xlink"
   xmlns="http://www.w3.org/2000/svg"
   xmlns:svg="http://www.w3.org/2000/svg"><sodipodi:namedview
     id="namedview1519"
     pagecolor="#505050"
     bordercolor="#eeeeee"
     borderopacity="1"
     inkscape:showpageshadow="0"
     inkscape:pageopacity="0"
     inkscape:pagecheckerboard="0"
     inkscape:deskcolor="#505050"
     inkscape:document-units="px"
     showgrid="false"
     inkscape:zoom="2.3786088"
     inkscape:cx="15.345104"
     inkscape:cy="8.4082763"
     inkscape:window-width="1280"
     inkscape:window-height="961"
     inkscape:window-x="-8"
     inkscape:window-y="-8"
     inkscape:window-maximized="1"
     inkscape:current-layer="layer2" /><defs
     id="defs1514"><linearGradient
       inkscape:collect="always"
       xlink:href="#linearGradient38"
       id="linearGradient178"
       gradientUnits="userSpaceOnUse"
       gradientTransform="matrix(0.30669583,0,0,0.30669583,100.1159,194.34217)"
       x1="93.034393"
       y1="162.21175"
       x2="96.041954"
       y2="162.21175" /><linearGradient
       id="linearGradient38"
       inkscape:collect="always"><stop
         style="stop-color:#515151;stop-opacity:1;"
         offset="0"
         id="stop38" /><stop
         style="stop-color:#ebe7e6;stop-opacity:1;"
         offset="0.5"
         id="stop40" /><stop
         style="stop-color:#515151;stop-opacity:1;"
         offset="1"
         id="stop39" /></linearGradient><linearGradient
       inkscape:collect="always"
       xlink:href="#linearGradient40"
       id="linearGradient179"
       gradientUnits="userSpaceOnUse"
       gradientTransform="matrix(0.30669583,0,0,0.30669583,100.1159,194.34217)"
       x1="93.661018"
       y1="157.8714"
       x2="95.415321"
       y2="157.8714" /><linearGradient
       id="linearGradient40"
       inkscape:collect="always"><stop
         style="stop-color:#3c3c3c;stop-opacity:1;"
         offset="0"
         id="stop41" /><stop
         style="stop-color:#c5c5c5;stop-opacity:1;"
         offset="0.5"
         id="stop43" /><stop
         style="stop-color:#3c3c3c;stop-opacity:1;"
         offset="1"
         id="stop42" /></linearGradient><linearGradient
       inkscape:collect="always"
       xlink:href="#linearGradient38"
       id="linearGradient180"
       gradientUnits="userSpaceOnUse"
       gradientTransform="matrix(0.30669583,0,0,0.30669583,100.1159,194.34217)"
       x1="72.702255"
       y1="162.21175"
       x2="75.709816"
       y2="162.21175" /><linearGradient
       inkscape:collect="always"
       xlink:href="#linearGradient40"
       id="linearGradient181"
       gradientUnits="userSpaceOnUse"
       gradientTransform="matrix(0.30669583,0,0,0.30669583,100.1159,194.34217)"
       x1="73.32888"
       y1="157.8714"
       x2="75.083191"
       y2="157.8714" /><linearGradient
       inkscape:collect="always"
       xlink:href="#linearGradient1292"
       id="linearGradient177"
       gradientUnits="userSpaceOnUse"
       gradientTransform="matrix(0,0.28190365,-0.2769861,0,141.19052,114.024)"
       x1="81.151741"
       y1="146.83948"
       x2="87.927452"
       y2="146.83948" /><linearGradient
       id="linearGradient1292"
       inkscape:collect="always"><stop
         style="stop-color:#b9c5d3;stop-opacity:1;"
         offset="0"
         id="stop1291" /><stop
         style="stop-color:#4faae6;stop-opacity:1;"
         offset="1"
         id="stop1292" /></linearGradient><linearGradient
       inkscape:collect="always"
       xlink:href="#linearGradient185"
       id="linearGradient182"
       gradientUnits="userSpaceOnUse"
       gradientTransform="matrix(0,0.28190365,-0.2769861,0,141.19052,114.024)"
       x1="65.68335"
       y1="153.27596"
       x2="103.33682"
       y2="153.27596" /><linearGradient
       id="linearGradient185"
       inkscape:collect="always"><stop
         style="stop-color:#bb554e;stop-opacity:1;"
         offset="0"
         id="stop183" /><stop
         style="stop-color:#ffffff;stop-opacity:1;"
         offset="0.5"
         id="stop184" /><stop
         style="stop-color:#bb554e;stop-opacity:1;"
         offset="1"
         id="stop185" /></linearGradient></defs><g
     inkscape:groupmode="layer"
     id="layer2"
     inkscape:label="Calque 2"><g
       id="g1"
       transform="matrix(0,-0.79075927,0.79075927,0,-104.82008,80.969207)"><path
         id="path167"
         style="fill:url(#linearGradient182);fill-rule:evenodd;stroke:#000000;stroke-width:0.048213;stroke-linecap:butt;stroke-linejoin:miter;stroke-dasharray:none;stroke-opacity:1"
         d="m 102.28515,137.48715 c 0,0 -1.11979,-0.54802 -1.6636,-0.7608 -0.56745,-0.22204 -1.663597,-0.54563 -1.663597,-0.54563 0,0 -0.44295,-1.04485 -0.70539,-1.54651 -0.27817,-0.53178 -0.49075,-1.13056 -0.91893,-1.54653 -0.25158,-0.2444 -0.5703,-0.47791 -0.91693,-0.50667 -0.42395,-0.0352 -1.20522,1.44104 -1.20522,1.44104 l 0.52995,1.27876 c 0,0 -1.79025,1.58226 -1.79025,2.54689 2e-5,0.96463 1.79025,2.54703 1.79025,2.54703 l -0.52995,1.27877 c 0,0 0.78129,1.47604 1.20522,1.44089 0.34662,-0.0288 0.66535,-0.26215 0.91693,-0.50653 0.42821,-0.41593 0.64076,-1.01475 0.91893,-1.54651 0.26244,-0.50167 0.70539,-1.54652 0.70539,-1.54652 0,0 1.096147,-0.32364 1.663597,-0.5457 0.54381,-0.21281 1.6636,-0.76088 1.6636,-0.76088 0,0 0.085,-0.0602 0.085,-0.36055 0,-0.30033 -0.085,-0.36055 -0.085,-0.36055 z"
         sodipodi:nodetypes="cscssscczccssscsczc" /><g
         id="g172"
         transform="matrix(0,0.91916365,-0.90312966,0,304.11265,143.26973)"><g
           id="g169"
           transform="translate(-131.89135,-15.51663)"><path
             style="fill:url(#linearGradient178);fill-rule:evenodd;stroke:none;stroke-width:0.132292;stroke-linecap:butt;stroke-linejoin:miter;stroke-dasharray:none;stroke-opacity:1"
             d="m 128.68973,243.30931 v 1.24738 c 0,0 0.0573,0.34811 0.42063,0.34811 0.36331,0 0.42063,-0.34811 0.42063,-0.34811 v -1.27639 z"
             id="path168"
             sodipodi:nodetypes="cczccc" /><path
             style="fill:url(#linearGradient179);fill-rule:evenodd;stroke:none;stroke-width:0.132292;stroke-linecap:butt;stroke-linejoin:miter;stroke-dasharray:none;stroke-opacity:1"
             d="m 128.88192,243.30206 v -1.08278 h 0.45689 v 1.08278 z"
             id="path169"
             sodipodi:nodetypes="ccccc" /></g><g
           id="g171"
           transform="translate(-131.89135,-15.51663)"><path
             style="fill:url(#linearGradient180);fill-rule:evenodd;stroke:none;stroke-width:0.0811465px;stroke-linecap:butt;stroke-linejoin:miter;stroke-opacity:1"
             d="m 122.45395,243.30931 v 1.24738 c 0,0 0.0573,0.34811 0.42063,0.34811 0.36331,0 0.42063,-0.34811 0.42063,-0.34811 v -1.27639 z"
             id="path170"
             sodipodi:nodetypes="cczccc" /><path
             style="fill:url(#linearGradient181);fill-rule:evenodd;stroke:none;stroke-width:0.0811465px;stroke-linecap:butt;stroke-linejoin:miter;stroke-opacity:1"
             d="m 122.64614,243.30206 v -1.08278 h 0.45689 v 1.08278 z"
             id="path171"
             sodipodi:nodetypes="ccccc" /></g></g><path
         style="fill:url(#linearGradient177);fill-rule:evenodd;stroke:#4a4a4a;stroke-width:0.048213;stroke-linecap:butt;stroke-linejoin:miter;stroke-dasharray:none;stroke-opacity:1"
         d="m 101.62029,137.61071 c 0,0 -0.72457,-0.31761 -1.10226,-0.42984 -0.36004,-0.10705 -1.102267,-0.23007 -1.102267,-0.23007 v 1.81003 c 0,0 0.742437,-0.12956 1.102267,-0.23948 0.37791,-0.11556 1.10226,-0.43928 1.10226,-0.43928 z"
         id="path172"
         sodipodi:nodetypes="csccscc" /><path
         style="fill:none;fill-rule:evenodd;stroke:#111f7d;stroke-width:0.048213;stroke-linecap:butt;stroke-linejoin:miter;stroke-dasharray:none;stroke-opacity:1"
         d="m 98.884043,136.25394 c 0,0 -0.12992,0.45494 -0.32034,0.49991 -0.67787,0.16006 -1.10469,-0.98888 -1.79389,-1.08675 -0.46686,-0.0663 -0.95616,0.13386 -1.36676,0.3695 -0.24119,0.1384 -0.59795,0.58683 -0.59795,0.58683"
         id="path173"
         sodipodi:nodetypes="csssc" /><path
         style="fill:none;fill-rule:evenodd;stroke:#111f7d;stroke-width:0.048213;stroke-linecap:butt;stroke-linejoin:miter;stroke-dasharray:none;stroke-opacity:1"
         d="m 98.884043,139.38602 c 0,0 -0.12992,-0.45493 -0.32034,-0.4999 -0.67787,-0.16007 -1.10469,0.98887 -1.79389,1.08674 -0.46686,0.0663 -0.95616,-0.13385 -1.36676,-0.36948 -0.24119,-0.13842 -0.59795,-0.58685 -0.59795,-0.58685"
         id="path174"
         sodipodi:nodetypes="csssc" /><path
         id="path175"
         style="fill:#ea180b;fill-opacity:1;fill-rule:evenodd;stroke:none;stroke-width:0.343217px;stroke-linecap:butt;stroke-linejoin:miter;stroke-opacity:1"
         d="m 102.3704,137.84751 c 0,-0.28156 -0.0757,-0.35273 -0.085,-0.36045 0,0 -0.11045,-0.054 -0.27841,-0.13459 v 0.99007 c 0.16796,-0.0806 0.27841,-0.13458 0.27841,-0.13458 l 6.7e-4,-6.8e-4 c 0.009,-0.008 0.0844,-0.0783 0.0844,-0.35977 z" /><path
         style="fill:#ea180b;fill-opacity:1;fill-rule:evenodd;stroke:none;stroke-width:0.343217px;stroke-linecap:butt;stroke-linejoin:miter;stroke-opacity:1"
         d="m 95.604543,140.7879 2.23062,1.07651 -0.22994,0.381 -2.17742,-1.03434 z"
         id="path176"
         sodipodi:nodetypes="ccccc" /><path
         style="fill:#ea180b;fill-opacity:1;fill-rule:evenodd;stroke:none;stroke-width:0.343217px;stroke-linecap:butt;stroke-linejoin:miter;stroke-opacity:1"
         d="m 95.604543,134.91027 2.23062,-1.07651 -0.22994,-0.381 -2.17742,1.03434 z"
         id="path177"
         sodipodi:nodetypes="ccccc" /></g><path
       d="m 3.0632706,3.2230255 v 4.01e-4 0 4.1366885 0.4773555 L 3.3496844,7.4555864 4.149892,6.3885991 4.9894646,8.067748 5.0606219,8.2100643 5.2029378,8.1389074 5.8394123,7.8206688 5.9817285,7.7495119 5.9105715,7.6071968 5.071004,5.9280476 H 6.404731 6.8584107 L 6.5041174,5.6446574 3.3217785,3.0991733 3.0632681,2.8923953 Z"
       fill="#000000"
       stroke="#ffffff"
       id="path1-1"
       style="stroke-width:0.382521;stroke-dasharray:none" /></g></svg>
