<?xml version="1.0" encoding="UTF-8" standalone="no"?>
<!-- Created with Inkscape (http://www.inkscape.org/) -->

<svg
   width="32"
   height="32"
   viewBox="0 0 8.4666666 8.4666666"
   version="1.1"
   id="svg1517"
   inkscape:version="1.4.2 (f4327f4, 2025-05-13)"
   sodipodi:docname="TextureUpdate.svg"
   xml:space="preserve"
   inkscape:export-filename="..\..\Design\MixerInsertMusic.png"
   inkscape:export-xdpi="96"
   inkscape:export-ydpi="96"
   xmlns:inkscape="http://www.inkscape.org/namespaces/inkscape"
   xmlns:sodipodi="http://sodipodi.sourceforge.net/DTD/sodipodi-0.dtd"
   xmlns:xlink="http://www.w3.org/1999/xlink"
   xmlns="http://www.w3.org/2000/svg"
   xmlns:svg="http://www.w3.org/2000/svg"><sodipodi:namedview
     id="namedview1519"
     pagecolor="#505050"
     bordercolor="#eeeeee"
     borderopacity="1"
     inkscape:showpageshadow="0"
     inkscape:pageopacity="0"
     inkscape:pagecheckerboard="0"
     inkscape:deskcolor="#505050"
     inkscape:document-units="mm"
     showgrid="false"
     inkscape:zoom="2.3786087"
     inkscape:cx="-24.804416"
     inkscape:cy="-36.155589"
     inkscape:window-width="1280"
     inkscape:window-height="961"
     inkscape:window-x="-8"
     inkscape:window-y="-8"
     inkscape:window-maximized="1"
     inkscape:current-layer="layer2" /><defs
     id="defs1514"><linearGradient
       id="linearGradient3"
       inkscape:collect="always"><stop
         style="stop-color:#89daf2;stop-opacity:1;"
         offset="0"
         id="stop3" /><stop
         style="stop-color:#08928d;stop-opacity:1;"
         offset="1"
         id="stop4" /></linearGradient><linearGradient
       id="linearGradient1"
       inkscape:collect="always"><stop
         style="stop-color:#fca24c;stop-opacity:1;"
         offset="0"
         id="stop1" /><stop
         style="stop-color:#cc7929;stop-opacity:1;"
         offset="1"
         id="stop2" /></linearGradient><linearGradient
       inkscape:collect="always"
       xlink:href="#linearGradient1"
       id="linearGradient2"
       x1="4.1025543"
       y1="-12.009784"
       x2="4.1025543"
       y2="-3.5908549"
       gradientUnits="userSpaceOnUse"
       gradientTransform="matrix(0.53554001,0,0,0.53278156,2.3167495,10.226708)" /><linearGradient
       inkscape:collect="always"
       xlink:href="#linearGradient3"
       id="linearGradient4"
       x1="4.3119874"
       y1="1.0618379"
       x2="4.3119874"
       y2="8.5059929"
       gradientUnits="userSpaceOnUse"
       gradientTransform="translate(-0.07865445,-0.03932712)" /><linearGradient
       inkscape:collect="always"
       xlink:href="#linearGradient2003"
       id="linearGradient3-2"
       x1="18.962967"
       y1="-9.307683"
       x2="18.930374"
       y2="-5.7481794"
       gradientUnits="userSpaceOnUse"
       gradientTransform="matrix(0.61803505,0,0,0.73160414,-5.9221373,9.5106297)" /><linearGradient
       inkscape:collect="always"
       xlink:href="#linearGradient2003"
       id="linearGradient6"
       gradientUnits="userSpaceOnUse"
       gradientTransform="matrix(-0.61803505,0,0,-0.73860255,16.759207,1.4126129)"
       x1="18.962967"
       y1="-9.307683"
       x2="18.930374"
       y2="-5.7481794" /><linearGradient
       inkscape:collect="always"
       id="linearGradient2003"><stop
         style="stop-color:#c1e6f2;stop-opacity:1;"
         offset="0.15047024"
         id="stop1999" /><stop
         style="stop-color:#5dcad9;stop-opacity:1;"
         offset="1"
         id="stop2001" /></linearGradient></defs><g
     inkscape:groupmode="layer"
     id="layer2"
     inkscape:label="Calque 2"><rect
       style="fill:url(#linearGradient4);fill-rule:evenodd;stroke:none;stroke-width:0.264583;stroke-linecap:round;stroke-linejoin:round;stroke-dasharray:0.264583, 0.264583"
       id="rect2"
       width="8.4666662"
       height="8.4666662"
       x="2.2252401e-07"
       y="2.2252401e-07"
       rx="0.058237355"
       ry="0.063657194" /><path
       style="fill:url(#linearGradient2);fill-rule:evenodd;stroke:none;stroke-width:0.264583px;stroke-linecap:butt;stroke-linejoin:miter;stroke-opacity:1"
       d="M -1.1666668e-8,8.4666667 H 8.4666667 V 6.1618503 c 0,0 -0.7319831,-1.1071099 -1.2004977,-1.5714658 C 6.8861912,4.2137793 6.5149519,3.5717291 5.981426,3.6265524 5.2390909,3.7028324 4.9635123,4.7153527 4.5071308,5.3027823 4.1177423,5.8039824 4.0628839,6.7815555 3.4330014,6.874248 3.0132522,6.9360175 2.7927568,6.3172106 2.4431177,6.0780387 2.189109,5.9042831 1.9508207,5.6053238 1.6427861,5.6170755 1.2088571,5.6336298 0.88837858,6.0580875 0.56865665,6.3504261 0.34826411,6.5519426 -1.1666668e-8,7.0418711 -1.1666668e-8,7.0418711 Z"
       id="path1"
       sodipodi:nodetypes="cccssssssscc" /><g
       id="g13"
       transform="translate(-0.70162401,0.08178864)"><rect
         style="fill:#ffe680;fill-rule:evenodd;stroke:none;stroke-width:0.264582;stroke-linecap:round;stroke-linejoin:round;stroke-dasharray:0.264582, 0.264582"
         id="rect4"
         width="0.3754164"
         height="1.1401535"
         x="2.850384"
         y="0.34760779"
         rx="0.056266129"
         ry="0.07203576" /><rect
         style="fill:#ffe680;fill-rule:evenodd;stroke:none;stroke-width:0.264582;stroke-linecap:round;stroke-linejoin:round;stroke-dasharray:0.264582, 0.264582"
         id="rect5"
         width="0.3754164"
         height="1.1401535"
         x="2.850384"
         y="3.2397046"
         rx="0.056266129"
         ry="0.07203576" /><rect
         style="fill:#ffe680;fill-rule:evenodd;stroke:none;stroke-width:0.264582;stroke-linecap:round;stroke-linejoin:round;stroke-dasharray:0.264582, 0.264582"
         id="rect6"
         width="0.3754164"
         height="1.1401535"
         x="2.1522679"
         y="-5.0542173"
         rx="0.056266129"
         ry="0.07203576"
         transform="rotate(90)" /><rect
         style="fill:#ffe680;fill-rule:evenodd;stroke:none;stroke-width:0.264582;stroke-linecap:round;stroke-linejoin:round;stroke-dasharray:0.264582, 0.264582"
         id="rect7"
         width="0.3754164"
         height="1.1401535"
         x="2.1522679"
         y="-2.2594507"
         rx="0.056266129"
         ry="0.07203576"
         transform="rotate(90)" /><rect
         style="fill:#ffe680;fill-rule:evenodd;stroke:none;stroke-width:0.264582;stroke-linecap:round;stroke-linejoin:round;stroke-dasharray:0.264582, 0.264582"
         id="rect8"
         width="0.3754164"
         height="1.1401535"
         x="-0.68135077"
         y="-2.9374976"
         rx="0.056266129"
         ry="0.07203576"
         transform="rotate(135)" /><rect
         style="fill:#ffe680;fill-rule:evenodd;stroke:none;stroke-width:0.264582;stroke-linecap:round;stroke-linejoin:round;stroke-dasharray:0.264582, 0.264582"
         id="rect9"
         width="0.3754164"
         height="1.1401535"
         x="-0.68135077"
         y="-5.808393"
         rx="0.056266129"
         ry="0.07203576"
         transform="rotate(135)" /><rect
         style="fill:#ffe680;fill-rule:evenodd;stroke:none;stroke-width:0.264582;stroke-linecap:round;stroke-linejoin:round;stroke-dasharray:0.264582, 0.264582"
         id="rect10"
         width="0.3754164"
         height="1.1401535"
         x="-3.9709132"
         y="-2.5188305"
         rx="0.056266129"
         ry="0.07203576"
         transform="matrix(-0.70710678,-0.70710678,-0.70710678,0.70710678,0,0)" /><rect
         style="fill:#ffe680;fill-rule:evenodd;stroke:none;stroke-width:0.264582;stroke-linecap:round;stroke-linejoin:round;stroke-dasharray:0.264582, 0.264582"
         id="rect11"
         width="0.3754164"
         height="1.1401535"
         x="-3.9414177"
         y="0.4208875"
         rx="0.056266129"
         ry="0.07203576"
         transform="matrix(-0.70710678,-0.70710678,-0.70710678,0.70710678,0,0)" /><circle
         style="fill:#ffd42a;fill-rule:evenodd;stroke:none;stroke-width:0.264583;stroke-linecap:round;stroke-linejoin:round;stroke-dasharray:0.264583, 0.264583"
         id="path4"
         cx="3.0478683"
         cy="2.3399761"
         r="1.0421742" /></g><path
       style="fill:url(#linearGradient2);fill-rule:evenodd;stroke:none;stroke-width:0.264583px;stroke-linecap:butt;stroke-linejoin:miter;stroke-opacity:1"
       d="M -1.1666668e-8,8.4666667 H 8.4666667 V 6.1618503 c 0,0 -0.7319831,-1.1071099 -1.2004977,-1.5714658 C 6.8861912,4.2137793 6.5149519,3.5717291 5.981426,3.6265524 5.2390909,3.7028324 4.9635123,4.7153527 4.5071308,5.3027823 4.1177423,5.8039824 4.0628839,6.7815555 3.4330014,6.874248 3.0132522,6.9360175 2.7927568,6.3172106 2.4431177,6.0780387 2.189109,5.9042831 1.9508207,5.6053238 1.6427861,5.6170755 1.2088571,5.6336298 0.88837858,6.0580875 0.56865665,6.3504261 0.34826411,6.5519426 -1.1666668e-8,7.0418711 -1.1666668e-8,7.0418711 Z"
       id="path13"
       sodipodi:nodetypes="cccssssssscc" /><g
       inkscape:label="Calque 1"
       id="layer1"
       transform="translate(-3.894624,-4.0987288)" /><path
       style="fill:url(#linearGradient3-2);fill-rule:evenodd;stroke:#000000;stroke-width:0.264583;stroke-linecap:butt;stroke-linejoin:miter;stroke-dasharray:none;stroke-opacity:1"
       d="M 6.5229755,4.4814826 5.7445833,5.2955268 H 7.8956351 V 2.7779734 L 7.2029235,3.6555206 c 0,0 -0.4020269,-0.4214309 -0.6441001,-0.5466686 C 6.2443381,2.9461514 5.8926187,2.8378383 5.5501383,2.8642896 5.0669126,2.90161 4.5899428,3.1261781 4.176868,3.4253446 3.9275915,3.605881 3.7231783,3.870528 3.5449203,4.1446453 3.4177151,4.3402552 3.2410992,4.7920161 3.2410992,4.7920161 c 0,0 0.3891748,-0.1773546 0.5590307,-0.3164924 C 3.9339857,4.3658756 4.3404451,4.047899 4.4928415,3.9863992 4.8633652,3.8368739 5.1198349,3.8776154 5.3381484,3.8965926 c 0.2876405,0.025004 0.4124681,0.083943 0.6874245,0.1870183 0.2039151,0.076443 0.4974026,0.3978717 0.4974026,0.3978717 z"
       id="path1-4"
       sodipodi:nodetypes="cccccsssscssssc" /><path
       style="fill:url(#linearGradient6);fill-rule:evenodd;stroke:#000000;stroke-width:0.264583px;stroke-linecap:butt;stroke-linejoin:miter;stroke-opacity:1"
       d="M 4.3140931,6.4898687 5.0924853,5.6680375 H 2.9414335 V 8.2096734 L 3.6341451,7.3237317 c 0,0 0.4020269,0.425462 0.6441001,0.5518979 0.3144853,0.1642573 0.6662047,0.2736066 1.0086851,0.246902 C 5.7701558,8.0848525 6.2471256,7.8581378 6.6602005,7.5561097 6.9094769,7.3738462 7.1138901,7.1066675 7.2921481,6.8299281 7.4193533,6.6324471 7.5959692,6.1763647 7.5959692,6.1763647 c 0,0 -0.3891748,0.1790511 -0.5590306,0.3195199 C 6.9030827,6.6065817 6.4966233,6.9275999 6.344227,6.9896881 5.9737032,7.1406436 5.7172335,7.0995124 5.49892,7.0803537 5.2112797,7.0551104 5.0864521,6.9956073 4.8114957,6.8915464 4.6075806,6.8143719 4.3140931,6.4898687 4.3140931,6.4898687 Z"
       id="path5"
       sodipodi:nodetypes="cccccsssscssssc" /><g
       inkscape:label="Calque 1"
       id="layer1-7"
       transform="translate(4.4909125,-18.472735)" /></g></svg>
