<?xml version="1.0" encoding="UTF-8" standalone="no"?>
<!-- Created with Inkscape (http://www.inkscape.org/) -->

<svg
   width="32"
   height="32"
   viewBox="0 0 8.4666666 8.4666666"
   version="1.1"
   id="svg1517"
   sodipodi:docname="Reverse.svg"
   inkscape:version="1.4.2 (f4327f4, 2025-05-13)"
   xml:space="preserve"
   xmlns:inkscape="http://www.inkscape.org/namespaces/inkscape"
   xmlns:sodipodi="http://sodipodi.sourceforge.net/DTD/sodipodi-0.dtd"
   xmlns:xlink="http://www.w3.org/1999/xlink"
   xmlns="http://www.w3.org/2000/svg"
   xmlns:svg="http://www.w3.org/2000/svg"><sodipodi:namedview
     id="namedview1519"
     pagecolor="#505050"
     bordercolor="#eeeeee"
     borderopacity="1"
     inkscape:showpageshadow="0"
     inkscape:pageopacity="0"
     inkscape:pagecheckerboard="0"
     inkscape:deskcolor="#505050"
     inkscape:document-units="mm"
     showgrid="false"
     inkscape:zoom="2.3786088"
     inkscape:cx="-11.140966"
     inkscape:cy="21.861519"
     inkscape:window-width="1280"
     inkscape:window-height="961"
     inkscape:window-x="-8"
     inkscape:window-y="-8"
     inkscape:window-maximized="1"
     inkscape:current-layer="svg1517" /><defs
     id="defs1514"><linearGradient
       id="linearGradient5"
       inkscape:collect="always"><stop
         style="stop-color:#b8e59d;stop-opacity:1;"
         offset="0"
         id="stop4" /><stop
         style="stop-color:#70c736;stop-opacity:1;"
         offset="1"
         id="stop5" /></linearGradient><linearGradient
       inkscape:collect="always"
       xlink:href="#linearGradient5"
       id="linearGradient3"
       x1="18.962967"
       y1="-9.307683"
       x2="18.930374"
       y2="-5.7481794"
       gradientUnits="userSpaceOnUse"
       gradientTransform="matrix(1,0,0,1.1807116,-14.296208,11.222988)" /><linearGradient
       inkscape:collect="always"
       xlink:href="#linearGradient5"
       id="linearGradient6"
       gradientUnits="userSpaceOnUse"
       gradientTransform="matrix(-1,0,0,-1.1920061,22.762876,-2.8616378)"
       x1="18.962967"
       y1="-9.307683"
       x2="18.930374"
       y2="-5.7481794" /></defs><path
     style="fill:url(#linearGradient3);fill-rule:evenodd;stroke:#0a7006;stroke-width:0.264583px;stroke-linecap:butt;stroke-linejoin:miter;stroke-opacity:1"
     d="m 5.8403727,3.106614 -1.259463,1.3137588 h 3.480469 V 0.35737728 L 6.9405497,1.7736213 c 0,0 -0.650492,-0.6801328 -1.042174,-0.88225008 C 5.3895287,0.6287936 4.8204357,0.45399054 4.2662917,0.49667988 3.4844177,0.5569127 2.7126657,0.91933331 2.0442977,1.4021477 1.6409607,1.6935097 1.3102137,2.1206147 1.0217867,2.5630035 0.81596467,2.8786917 0.53019467,3.6077737 0.53019467,3.6077737 c 0,0 0.62969703,-0.2862267 0.90452903,-0.5107766 0.216583,-0.1769575 0.874247,-0.6901293 1.120829,-0.7893818 0.599519,-0.2413139 1.014495,-0.1755625 1.367733,-0.1449358 0.465411,0.040353 0.667386,0.1354733 1.112274,0.3018226 0.329941,0.1233691 0.804813,0.6421119 0.804813,0.6421119 z"
     id="path1"
     sodipodi:nodetypes="cccccsssscssssc" /><path
     style="fill:url(#linearGradient6);fill-rule:evenodd;stroke:#0a7006;stroke-width:0.264583px;stroke-linecap:butt;stroke-linejoin:miter;stroke-opacity:1"
     d="M 2.626294,5.3323763 3.885757,4.0060503 H 0.405288 V 8.1079119 L 1.526117,6.6781202 c 0,0 0.650492,0.6866389 1.042174,0.8906896 0.508847,0.2650894 1.07794,0.4415646 1.632084,0.3984669 C 4.982249,7.9064677 5.754001,7.5405803 6.422369,7.0531473 6.825706,6.7589982 7.156453,6.3278075 7.44488,5.8811869 7.650702,5.5624789 7.936472,4.8264227 7.936472,4.8264227 c 0,0 -0.629697,0.2889646 -0.904529,0.5156625 C 6.81536,5.5207355 6.157696,6.0388162 5.911114,6.1390182 5.311595,6.3826404 4.896619,6.3162601 4.543381,6.2853404 4.07797,6.2446012 3.875995,6.1485711 3.431107,5.9806306 3.101166,5.8560813 2.626294,5.3323763 2.626294,5.3323763 Z"
     id="path5"
     sodipodi:nodetypes="cccccsssscssssc" /></svg>
