<?xml version="1.0" encoding="UTF-8" standalone="no"?>
<!-- Created with Inkscape (http://www.inkscape.org/) -->

<svg
   width="32"
   height="32"
   viewBox="0 0 8.4666665 8.4666666"
   version="1.1"
   id="svg1"
   inkscape:version="1.4.2 (f4327f4, 2025-05-13)"
   sodipodi:docname="ZoomAll.svg"
   xml:space="preserve"
   xmlns:inkscape="http://www.inkscape.org/namespaces/inkscape"
   xmlns:sodipodi="http://sodipodi.sourceforge.net/DTD/sodipodi-0.dtd"
   xmlns="http://www.w3.org/2000/svg"
   xmlns:svg="http://www.w3.org/2000/svg"><sodipodi:namedview
     id="namedview1"
     pagecolor="#505050"
     bordercolor="#eeeeee"
     borderopacity="1"
     inkscape:showpageshadow="0"
     inkscape:pageopacity="0"
     inkscape:pagecheckerboard="0"
     inkscape:deskcolor="#0d0d0d"
     inkscape:document-units="px"
     inkscape:zoom="1.3469697"
     inkscape:cx="25.613049"
     inkscape:cy="51.226097"
     inkscape:window-width="1280"
     inkscape:window-height="961"
     inkscape:window-x="-8"
     inkscape:window-y="-8"
     inkscape:window-maximized="1"
     inkscape:current-layer="layer1" /><defs
     id="defs1" /><g
     inkscape:label="Calque 1"
     inkscape:groupmode="layer"
     id="layer1"><g
       id="g8"
       transform="translate(-0.07581831,-0.19858618)"><rect
         style="fill:none;fill-opacity:0.622047;fill-rule:evenodd;stroke:#d7d7d7;stroke-width:0.47625;stroke-linecap:round;stroke-linejoin:round;stroke-dashoffset:0.6;stroke-opacity:1"
         id="rect5"
         width="7.2924104"
         height="7.2924104"
         x="0.6629464"
         y="0.78571427"
         rx="0.056266129"
         ry="0.060615454" /></g><g
       id="g1"
       transform="rotate(45,3.4365703,-9.6299494)"><path
         id="path1"
         style="fill:none;fill-opacity:0.622047;fill-rule:evenodd;stroke:#d7d7d7;stroke-width:0.47625;stroke-linecap:round;stroke-linejoin:round;stroke-dashoffset:0.6;stroke-opacity:1"
         d="m 15.521626,-1.5452178 a 1.7188377,1.7188377 0 0 1 -1.718838,1.71883779 1.7188377,1.7188377 0 0 1 -1.718838,-1.71883779 1.7188377,1.7188377 0 0 1 1.718838,-1.7188377 1.7188377,1.7188377 0 0 1 1.718838,1.7188377 z" /><path
         id="rect1"
         style="fill:#d7d7d7;fill-opacity:1;fill-rule:evenodd;stroke:#d7d7d7;stroke-width:0.47625;stroke-linecap:round;stroke-linejoin:round;stroke-dashoffset:0.6;stroke-opacity:1"
         d="m 13.615986,0.17361997 h 0.373604 c 0.03117,0 0.05627,0.0270345 0.05627,0.0606154 V 2.925648 c 0,0.033581 -0.0251,0.060616 -0.05627,0.060616 h -0.373604 c -0.03117,0 -0.05627,-0.027035 -0.05627,-0.060616 V 0.23423542 c 0,-0.033581 0.0251,-0.0606154 0.05627,-0.0606154 z" /></g></g></svg>
